%TF.GenerationSoftware,KiCad,Pcbnew,9.0.3-9.0.3-0~ubuntu24.04.1*%
%TF.CreationDate,2025-10-01T20:11:17-03:00*%
%TF.ProjectId,Drone-HW,44726f6e-652d-4485-972e-6b696361645f,rev?*%
%TF.SameCoordinates,Original*%
%TF.FileFunction,Legend,Top*%
%TF.FilePolarity,Positive*%
%FSLAX46Y46*%
G04 Gerber Fmt 4.6, Leading zero omitted, Abs format (unit mm)*
G04 Created by KiCad (PCBNEW 9.0.3-9.0.3-0~ubuntu24.04.1) date 2025-10-01 20:11:17*
%MOMM*%
%LPD*%
G01*
G04 APERTURE LIST*
%ADD10C,0.200000*%
%ADD11C,0.127000*%
%ADD12C,0.150000*%
%ADD13C,0.100000*%
%ADD14C,0.120000*%
G04 APERTURE END LIST*
D10*
X163623809Y-72875168D02*
X164004762Y-72875168D01*
X163547619Y-73103740D02*
X163814286Y-72303740D01*
X163814286Y-72303740D02*
X164080952Y-73103740D01*
X164347619Y-72684692D02*
X164614285Y-72684692D01*
X164728571Y-73103740D02*
X164347619Y-73103740D01*
X164347619Y-73103740D02*
X164347619Y-72303740D01*
X164347619Y-72303740D02*
X164728571Y-72303740D01*
X165528572Y-73103740D02*
X165261905Y-72722787D01*
X165071429Y-73103740D02*
X165071429Y-72303740D01*
X165071429Y-72303740D02*
X165376191Y-72303740D01*
X165376191Y-72303740D02*
X165452381Y-72341835D01*
X165452381Y-72341835D02*
X165490476Y-72379930D01*
X165490476Y-72379930D02*
X165528572Y-72456121D01*
X165528572Y-72456121D02*
X165528572Y-72570406D01*
X165528572Y-72570406D02*
X165490476Y-72646597D01*
X165490476Y-72646597D02*
X165452381Y-72684692D01*
X165452381Y-72684692D02*
X165376191Y-72722787D01*
X165376191Y-72722787D02*
X165071429Y-72722787D01*
X166023810Y-72303740D02*
X166176191Y-72303740D01*
X166176191Y-72303740D02*
X166252381Y-72341835D01*
X166252381Y-72341835D02*
X166328572Y-72418025D01*
X166328572Y-72418025D02*
X166366667Y-72570406D01*
X166366667Y-72570406D02*
X166366667Y-72837073D01*
X166366667Y-72837073D02*
X166328572Y-72989454D01*
X166328572Y-72989454D02*
X166252381Y-73065645D01*
X166252381Y-73065645D02*
X166176191Y-73103740D01*
X166176191Y-73103740D02*
X166023810Y-73103740D01*
X166023810Y-73103740D02*
X165947619Y-73065645D01*
X165947619Y-73065645D02*
X165871429Y-72989454D01*
X165871429Y-72989454D02*
X165833333Y-72837073D01*
X165833333Y-72837073D02*
X165833333Y-72570406D01*
X165833333Y-72570406D02*
X165871429Y-72418025D01*
X165871429Y-72418025D02*
X165947619Y-72341835D01*
X165947619Y-72341835D02*
X166023810Y-72303740D01*
X166709524Y-73103740D02*
X166709524Y-72303740D01*
X166709524Y-72303740D02*
X166976190Y-72875168D01*
X166976190Y-72875168D02*
X167242857Y-72303740D01*
X167242857Y-72303740D02*
X167242857Y-73103740D01*
X167585714Y-72875168D02*
X167966667Y-72875168D01*
X167509524Y-73103740D02*
X167776191Y-72303740D01*
X167776191Y-72303740D02*
X168042857Y-73103740D01*
X167585714Y-72113264D02*
X167623810Y-72075168D01*
X167623810Y-72075168D02*
X167700000Y-72037073D01*
X167700000Y-72037073D02*
X167852381Y-72113264D01*
X167852381Y-72113264D02*
X167928572Y-72075168D01*
X167928572Y-72075168D02*
X167966667Y-72037073D01*
X168461905Y-72303740D02*
X168614286Y-72303740D01*
X168614286Y-72303740D02*
X168690476Y-72341835D01*
X168690476Y-72341835D02*
X168766667Y-72418025D01*
X168766667Y-72418025D02*
X168804762Y-72570406D01*
X168804762Y-72570406D02*
X168804762Y-72837073D01*
X168804762Y-72837073D02*
X168766667Y-72989454D01*
X168766667Y-72989454D02*
X168690476Y-73065645D01*
X168690476Y-73065645D02*
X168614286Y-73103740D01*
X168614286Y-73103740D02*
X168461905Y-73103740D01*
X168461905Y-73103740D02*
X168385714Y-73065645D01*
X168385714Y-73065645D02*
X168309524Y-72989454D01*
X168309524Y-72989454D02*
X168271428Y-72837073D01*
X168271428Y-72837073D02*
X168271428Y-72570406D01*
X168271428Y-72570406D02*
X168309524Y-72418025D01*
X168309524Y-72418025D02*
X168385714Y-72341835D01*
X168385714Y-72341835D02*
X168461905Y-72303740D01*
X169147619Y-72798978D02*
X169757143Y-72798978D01*
X170099999Y-72875168D02*
X170480952Y-72875168D01*
X170023809Y-73103740D02*
X170290476Y-72303740D01*
X170290476Y-72303740D02*
X170557142Y-73103740D01*
X171090475Y-72684692D02*
X170823809Y-72684692D01*
X170823809Y-73103740D02*
X170823809Y-72303740D01*
X170823809Y-72303740D02*
X171204761Y-72303740D01*
X171738094Y-72303740D02*
X171738094Y-72875168D01*
X171738094Y-72875168D02*
X171699999Y-72989454D01*
X171699999Y-72989454D02*
X171623808Y-73065645D01*
X171623808Y-73065645D02*
X171509523Y-73103740D01*
X171509523Y-73103740D02*
X171433332Y-73103740D01*
X172119047Y-73103740D02*
X172119047Y-72303740D01*
X172119047Y-72303740D02*
X172423809Y-72303740D01*
X172423809Y-72303740D02*
X172499999Y-72341835D01*
X172499999Y-72341835D02*
X172538094Y-72379930D01*
X172538094Y-72379930D02*
X172576190Y-72456121D01*
X172576190Y-72456121D02*
X172576190Y-72570406D01*
X172576190Y-72570406D02*
X172538094Y-72646597D01*
X172538094Y-72646597D02*
X172499999Y-72684692D01*
X172499999Y-72684692D02*
X172423809Y-72722787D01*
X172423809Y-72722787D02*
X172119047Y-72722787D01*
X172919047Y-73103740D02*
X172919047Y-72303740D01*
X172919047Y-72303740D02*
X173223809Y-72303740D01*
X173223809Y-72303740D02*
X173299999Y-72341835D01*
X173299999Y-72341835D02*
X173338094Y-72379930D01*
X173338094Y-72379930D02*
X173376190Y-72456121D01*
X173376190Y-72456121D02*
X173376190Y-72570406D01*
X173376190Y-72570406D02*
X173338094Y-72646597D01*
X173338094Y-72646597D02*
X173299999Y-72684692D01*
X173299999Y-72684692D02*
X173223809Y-72722787D01*
X173223809Y-72722787D02*
X172919047Y-72722787D01*
X165261903Y-73858361D02*
X165452379Y-74391695D01*
X165452379Y-74391695D02*
X165642856Y-73858361D01*
X165909522Y-73667885D02*
X165947618Y-73629790D01*
X165947618Y-73629790D02*
X166023808Y-73591695D01*
X166023808Y-73591695D02*
X166214284Y-73591695D01*
X166214284Y-73591695D02*
X166290475Y-73629790D01*
X166290475Y-73629790D02*
X166328570Y-73667885D01*
X166328570Y-73667885D02*
X166366665Y-73744076D01*
X166366665Y-73744076D02*
X166366665Y-73820266D01*
X166366665Y-73820266D02*
X166328570Y-73934552D01*
X166328570Y-73934552D02*
X165871427Y-74391695D01*
X165871427Y-74391695D02*
X166366665Y-74391695D01*
X166861904Y-73591695D02*
X166938094Y-73591695D01*
X166938094Y-73591695D02*
X167014285Y-73629790D01*
X167014285Y-73629790D02*
X167052380Y-73667885D01*
X167052380Y-73667885D02*
X167090475Y-73744076D01*
X167090475Y-73744076D02*
X167128570Y-73896457D01*
X167128570Y-73896457D02*
X167128570Y-74086933D01*
X167128570Y-74086933D02*
X167090475Y-74239314D01*
X167090475Y-74239314D02*
X167052380Y-74315504D01*
X167052380Y-74315504D02*
X167014285Y-74353600D01*
X167014285Y-74353600D02*
X166938094Y-74391695D01*
X166938094Y-74391695D02*
X166861904Y-74391695D01*
X166861904Y-74391695D02*
X166785713Y-74353600D01*
X166785713Y-74353600D02*
X166747618Y-74315504D01*
X166747618Y-74315504D02*
X166709523Y-74239314D01*
X166709523Y-74239314D02*
X166671427Y-74086933D01*
X166671427Y-74086933D02*
X166671427Y-73896457D01*
X166671427Y-73896457D02*
X166709523Y-73744076D01*
X166709523Y-73744076D02*
X166747618Y-73667885D01*
X166747618Y-73667885D02*
X166785713Y-73629790D01*
X166785713Y-73629790D02*
X166861904Y-73591695D01*
X167433332Y-73667885D02*
X167471428Y-73629790D01*
X167471428Y-73629790D02*
X167547618Y-73591695D01*
X167547618Y-73591695D02*
X167738094Y-73591695D01*
X167738094Y-73591695D02*
X167814285Y-73629790D01*
X167814285Y-73629790D02*
X167852380Y-73667885D01*
X167852380Y-73667885D02*
X167890475Y-73744076D01*
X167890475Y-73744076D02*
X167890475Y-73820266D01*
X167890475Y-73820266D02*
X167852380Y-73934552D01*
X167852380Y-73934552D02*
X167395237Y-74391695D01*
X167395237Y-74391695D02*
X167890475Y-74391695D01*
X168614285Y-73591695D02*
X168233333Y-73591695D01*
X168233333Y-73591695D02*
X168195237Y-73972647D01*
X168195237Y-73972647D02*
X168233333Y-73934552D01*
X168233333Y-73934552D02*
X168309523Y-73896457D01*
X168309523Y-73896457D02*
X168499999Y-73896457D01*
X168499999Y-73896457D02*
X168576190Y-73934552D01*
X168576190Y-73934552D02*
X168614285Y-73972647D01*
X168614285Y-73972647D02*
X168652380Y-74048838D01*
X168652380Y-74048838D02*
X168652380Y-74239314D01*
X168652380Y-74239314D02*
X168614285Y-74315504D01*
X168614285Y-74315504D02*
X168576190Y-74353600D01*
X168576190Y-74353600D02*
X168499999Y-74391695D01*
X168499999Y-74391695D02*
X168309523Y-74391695D01*
X168309523Y-74391695D02*
X168233333Y-74353600D01*
X168233333Y-74353600D02*
X168195237Y-74315504D01*
X169147619Y-73591695D02*
X169223809Y-73591695D01*
X169223809Y-73591695D02*
X169300000Y-73629790D01*
X169300000Y-73629790D02*
X169338095Y-73667885D01*
X169338095Y-73667885D02*
X169376190Y-73744076D01*
X169376190Y-73744076D02*
X169414285Y-73896457D01*
X169414285Y-73896457D02*
X169414285Y-74086933D01*
X169414285Y-74086933D02*
X169376190Y-74239314D01*
X169376190Y-74239314D02*
X169338095Y-74315504D01*
X169338095Y-74315504D02*
X169300000Y-74353600D01*
X169300000Y-74353600D02*
X169223809Y-74391695D01*
X169223809Y-74391695D02*
X169147619Y-74391695D01*
X169147619Y-74391695D02*
X169071428Y-74353600D01*
X169071428Y-74353600D02*
X169033333Y-74315504D01*
X169033333Y-74315504D02*
X168995238Y-74239314D01*
X168995238Y-74239314D02*
X168957142Y-74086933D01*
X168957142Y-74086933D02*
X168957142Y-73896457D01*
X168957142Y-73896457D02*
X168995238Y-73744076D01*
X168995238Y-73744076D02*
X169033333Y-73667885D01*
X169033333Y-73667885D02*
X169071428Y-73629790D01*
X169071428Y-73629790D02*
X169147619Y-73591695D01*
X169795238Y-74391695D02*
X169947619Y-74391695D01*
X169947619Y-74391695D02*
X170023809Y-74353600D01*
X170023809Y-74353600D02*
X170061905Y-74315504D01*
X170061905Y-74315504D02*
X170138095Y-74201219D01*
X170138095Y-74201219D02*
X170176190Y-74048838D01*
X170176190Y-74048838D02*
X170176190Y-73744076D01*
X170176190Y-73744076D02*
X170138095Y-73667885D01*
X170138095Y-73667885D02*
X170100000Y-73629790D01*
X170100000Y-73629790D02*
X170023809Y-73591695D01*
X170023809Y-73591695D02*
X169871428Y-73591695D01*
X169871428Y-73591695D02*
X169795238Y-73629790D01*
X169795238Y-73629790D02*
X169757143Y-73667885D01*
X169757143Y-73667885D02*
X169719047Y-73744076D01*
X169719047Y-73744076D02*
X169719047Y-73934552D01*
X169719047Y-73934552D02*
X169757143Y-74010742D01*
X169757143Y-74010742D02*
X169795238Y-74048838D01*
X169795238Y-74048838D02*
X169871428Y-74086933D01*
X169871428Y-74086933D02*
X170023809Y-74086933D01*
X170023809Y-74086933D02*
X170100000Y-74048838D01*
X170100000Y-74048838D02*
X170138095Y-74010742D01*
X170138095Y-74010742D02*
X170176190Y-73934552D01*
X170671429Y-73591695D02*
X170747619Y-73591695D01*
X170747619Y-73591695D02*
X170823810Y-73629790D01*
X170823810Y-73629790D02*
X170861905Y-73667885D01*
X170861905Y-73667885D02*
X170900000Y-73744076D01*
X170900000Y-73744076D02*
X170938095Y-73896457D01*
X170938095Y-73896457D02*
X170938095Y-74086933D01*
X170938095Y-74086933D02*
X170900000Y-74239314D01*
X170900000Y-74239314D02*
X170861905Y-74315504D01*
X170861905Y-74315504D02*
X170823810Y-74353600D01*
X170823810Y-74353600D02*
X170747619Y-74391695D01*
X170747619Y-74391695D02*
X170671429Y-74391695D01*
X170671429Y-74391695D02*
X170595238Y-74353600D01*
X170595238Y-74353600D02*
X170557143Y-74315504D01*
X170557143Y-74315504D02*
X170519048Y-74239314D01*
X170519048Y-74239314D02*
X170480952Y-74086933D01*
X170480952Y-74086933D02*
X170480952Y-73896457D01*
X170480952Y-73896457D02*
X170519048Y-73744076D01*
X170519048Y-73744076D02*
X170557143Y-73667885D01*
X170557143Y-73667885D02*
X170595238Y-73629790D01*
X170595238Y-73629790D02*
X170671429Y-73591695D01*
X171204762Y-73591695D02*
X171700000Y-73591695D01*
X171700000Y-73591695D02*
X171433334Y-73896457D01*
X171433334Y-73896457D02*
X171547619Y-73896457D01*
X171547619Y-73896457D02*
X171623810Y-73934552D01*
X171623810Y-73934552D02*
X171661905Y-73972647D01*
X171661905Y-73972647D02*
X171700000Y-74048838D01*
X171700000Y-74048838D02*
X171700000Y-74239314D01*
X171700000Y-74239314D02*
X171661905Y-74315504D01*
X171661905Y-74315504D02*
X171623810Y-74353600D01*
X171623810Y-74353600D02*
X171547619Y-74391695D01*
X171547619Y-74391695D02*
X171319048Y-74391695D01*
X171319048Y-74391695D02*
X171242857Y-74353600D01*
X171242857Y-74353600D02*
X171204762Y-74315504D01*
X156393482Y-72414838D02*
X156298244Y-72367219D01*
X156298244Y-72367219D02*
X156155387Y-72367219D01*
X156155387Y-72367219D02*
X156012530Y-72414838D01*
X156012530Y-72414838D02*
X155917292Y-72510076D01*
X155917292Y-72510076D02*
X155869673Y-72605314D01*
X155869673Y-72605314D02*
X155822054Y-72795790D01*
X155822054Y-72795790D02*
X155822054Y-72938647D01*
X155822054Y-72938647D02*
X155869673Y-73129123D01*
X155869673Y-73129123D02*
X155917292Y-73224361D01*
X155917292Y-73224361D02*
X156012530Y-73319600D01*
X156012530Y-73319600D02*
X156155387Y-73367219D01*
X156155387Y-73367219D02*
X156250625Y-73367219D01*
X156250625Y-73367219D02*
X156393482Y-73319600D01*
X156393482Y-73319600D02*
X156441101Y-73271980D01*
X156441101Y-73271980D02*
X156441101Y-72938647D01*
X156441101Y-72938647D02*
X156250625Y-72938647D01*
X156869673Y-73367219D02*
X156869673Y-72367219D01*
X156869673Y-72367219D02*
X157441101Y-73367219D01*
X157441101Y-73367219D02*
X157441101Y-72367219D01*
X157917292Y-73367219D02*
X157917292Y-72367219D01*
X157917292Y-72367219D02*
X158155387Y-72367219D01*
X158155387Y-72367219D02*
X158298244Y-72414838D01*
X158298244Y-72414838D02*
X158393482Y-72510076D01*
X158393482Y-72510076D02*
X158441101Y-72605314D01*
X158441101Y-72605314D02*
X158488720Y-72795790D01*
X158488720Y-72795790D02*
X158488720Y-72938647D01*
X158488720Y-72938647D02*
X158441101Y-73129123D01*
X158441101Y-73129123D02*
X158393482Y-73224361D01*
X158393482Y-73224361D02*
X158298244Y-73319600D01*
X158298244Y-73319600D02*
X158155387Y-73367219D01*
X158155387Y-73367219D02*
X157917292Y-73367219D01*
X159155387Y-73700552D02*
X159155387Y-72271980D01*
X159726816Y-72367219D02*
X160060149Y-73367219D01*
X160060149Y-73367219D02*
X160393482Y-72367219D01*
X161298244Y-73271980D02*
X161250625Y-73319600D01*
X161250625Y-73319600D02*
X161107768Y-73367219D01*
X161107768Y-73367219D02*
X161012530Y-73367219D01*
X161012530Y-73367219D02*
X160869673Y-73319600D01*
X160869673Y-73319600D02*
X160774435Y-73224361D01*
X160774435Y-73224361D02*
X160726816Y-73129123D01*
X160726816Y-73129123D02*
X160679197Y-72938647D01*
X160679197Y-72938647D02*
X160679197Y-72795790D01*
X160679197Y-72795790D02*
X160726816Y-72605314D01*
X160726816Y-72605314D02*
X160774435Y-72510076D01*
X160774435Y-72510076D02*
X160869673Y-72414838D01*
X160869673Y-72414838D02*
X161012530Y-72367219D01*
X161012530Y-72367219D02*
X161107768Y-72367219D01*
X161107768Y-72367219D02*
X161250625Y-72414838D01*
X161250625Y-72414838D02*
X161298244Y-72462457D01*
X162298244Y-73271980D02*
X162250625Y-73319600D01*
X162250625Y-73319600D02*
X162107768Y-73367219D01*
X162107768Y-73367219D02*
X162012530Y-73367219D01*
X162012530Y-73367219D02*
X161869673Y-73319600D01*
X161869673Y-73319600D02*
X161774435Y-73224361D01*
X161774435Y-73224361D02*
X161726816Y-73129123D01*
X161726816Y-73129123D02*
X161679197Y-72938647D01*
X161679197Y-72938647D02*
X161679197Y-72795790D01*
X161679197Y-72795790D02*
X161726816Y-72605314D01*
X161726816Y-72605314D02*
X161774435Y-72510076D01*
X161774435Y-72510076D02*
X161869673Y-72414838D01*
X161869673Y-72414838D02*
X162012530Y-72367219D01*
X162012530Y-72367219D02*
X162107768Y-72367219D01*
X162107768Y-72367219D02*
X162250625Y-72414838D01*
X162250625Y-72414838D02*
X162298244Y-72462457D01*
D11*
X182250562Y-69116666D02*
X182283896Y-69149999D01*
X182283896Y-69149999D02*
X182317229Y-69249999D01*
X182317229Y-69249999D02*
X182317229Y-69316666D01*
X182317229Y-69316666D02*
X182283896Y-69416666D01*
X182283896Y-69416666D02*
X182217229Y-69483333D01*
X182217229Y-69483333D02*
X182150562Y-69516666D01*
X182150562Y-69516666D02*
X182017229Y-69549999D01*
X182017229Y-69549999D02*
X181917229Y-69549999D01*
X181917229Y-69549999D02*
X181783896Y-69516666D01*
X181783896Y-69516666D02*
X181717229Y-69483333D01*
X181717229Y-69483333D02*
X181650562Y-69416666D01*
X181650562Y-69416666D02*
X181617229Y-69316666D01*
X181617229Y-69316666D02*
X181617229Y-69249999D01*
X181617229Y-69249999D02*
X181650562Y-69149999D01*
X181650562Y-69149999D02*
X181683896Y-69116666D01*
X181683896Y-68849999D02*
X181650562Y-68816666D01*
X181650562Y-68816666D02*
X181617229Y-68749999D01*
X181617229Y-68749999D02*
X181617229Y-68583333D01*
X181617229Y-68583333D02*
X181650562Y-68516666D01*
X181650562Y-68516666D02*
X181683896Y-68483333D01*
X181683896Y-68483333D02*
X181750562Y-68449999D01*
X181750562Y-68449999D02*
X181817229Y-68449999D01*
X181817229Y-68449999D02*
X181917229Y-68483333D01*
X181917229Y-68483333D02*
X182317229Y-68883333D01*
X182317229Y-68883333D02*
X182317229Y-68449999D01*
D12*
X194954819Y-55642857D02*
X194478628Y-55976190D01*
X194954819Y-56214285D02*
X193954819Y-56214285D01*
X193954819Y-56214285D02*
X193954819Y-55833333D01*
X193954819Y-55833333D02*
X194002438Y-55738095D01*
X194002438Y-55738095D02*
X194050057Y-55690476D01*
X194050057Y-55690476D02*
X194145295Y-55642857D01*
X194145295Y-55642857D02*
X194288152Y-55642857D01*
X194288152Y-55642857D02*
X194383390Y-55690476D01*
X194383390Y-55690476D02*
X194431009Y-55738095D01*
X194431009Y-55738095D02*
X194478628Y-55833333D01*
X194478628Y-55833333D02*
X194478628Y-56214285D01*
X194050057Y-55261904D02*
X194002438Y-55214285D01*
X194002438Y-55214285D02*
X193954819Y-55119047D01*
X193954819Y-55119047D02*
X193954819Y-54880952D01*
X193954819Y-54880952D02*
X194002438Y-54785714D01*
X194002438Y-54785714D02*
X194050057Y-54738095D01*
X194050057Y-54738095D02*
X194145295Y-54690476D01*
X194145295Y-54690476D02*
X194240533Y-54690476D01*
X194240533Y-54690476D02*
X194383390Y-54738095D01*
X194383390Y-54738095D02*
X194954819Y-55309523D01*
X194954819Y-55309523D02*
X194954819Y-54690476D01*
X193954819Y-53785714D02*
X193954819Y-54261904D01*
X193954819Y-54261904D02*
X194431009Y-54309523D01*
X194431009Y-54309523D02*
X194383390Y-54261904D01*
X194383390Y-54261904D02*
X194335771Y-54166666D01*
X194335771Y-54166666D02*
X194335771Y-53928571D01*
X194335771Y-53928571D02*
X194383390Y-53833333D01*
X194383390Y-53833333D02*
X194431009Y-53785714D01*
X194431009Y-53785714D02*
X194526247Y-53738095D01*
X194526247Y-53738095D02*
X194764342Y-53738095D01*
X194764342Y-53738095D02*
X194859580Y-53785714D01*
X194859580Y-53785714D02*
X194907200Y-53833333D01*
X194907200Y-53833333D02*
X194954819Y-53928571D01*
X194954819Y-53928571D02*
X194954819Y-54166666D01*
X194954819Y-54166666D02*
X194907200Y-54261904D01*
X194907200Y-54261904D02*
X194859580Y-54309523D01*
D11*
X194883896Y-42066666D02*
X194850562Y-42133333D01*
X194850562Y-42133333D02*
X194783896Y-42200000D01*
X194783896Y-42200000D02*
X194683896Y-42300000D01*
X194683896Y-42300000D02*
X194650562Y-42366666D01*
X194650562Y-42366666D02*
X194650562Y-42433333D01*
X194817229Y-42400000D02*
X194783896Y-42466666D01*
X194783896Y-42466666D02*
X194717229Y-42533333D01*
X194717229Y-42533333D02*
X194583896Y-42566666D01*
X194583896Y-42566666D02*
X194350562Y-42566666D01*
X194350562Y-42566666D02*
X194217229Y-42533333D01*
X194217229Y-42533333D02*
X194150562Y-42466666D01*
X194150562Y-42466666D02*
X194117229Y-42400000D01*
X194117229Y-42400000D02*
X194117229Y-42266666D01*
X194117229Y-42266666D02*
X194150562Y-42200000D01*
X194150562Y-42200000D02*
X194217229Y-42133333D01*
X194217229Y-42133333D02*
X194350562Y-42100000D01*
X194350562Y-42100000D02*
X194583896Y-42100000D01*
X194583896Y-42100000D02*
X194717229Y-42133333D01*
X194717229Y-42133333D02*
X194783896Y-42200000D01*
X194783896Y-42200000D02*
X194817229Y-42266666D01*
X194817229Y-42266666D02*
X194817229Y-42400000D01*
X194117229Y-41466667D02*
X194117229Y-41800000D01*
X194117229Y-41800000D02*
X194450562Y-41833333D01*
X194450562Y-41833333D02*
X194417229Y-41800000D01*
X194417229Y-41800000D02*
X194383896Y-41733333D01*
X194383896Y-41733333D02*
X194383896Y-41566667D01*
X194383896Y-41566667D02*
X194417229Y-41500000D01*
X194417229Y-41500000D02*
X194450562Y-41466667D01*
X194450562Y-41466667D02*
X194517229Y-41433333D01*
X194517229Y-41433333D02*
X194683896Y-41433333D01*
X194683896Y-41433333D02*
X194750562Y-41466667D01*
X194750562Y-41466667D02*
X194783896Y-41500000D01*
X194783896Y-41500000D02*
X194817229Y-41566667D01*
X194817229Y-41566667D02*
X194817229Y-41733333D01*
X194817229Y-41733333D02*
X194783896Y-41800000D01*
X194783896Y-41800000D02*
X194750562Y-41833333D01*
D12*
X192833333Y-66454819D02*
X192500000Y-65978628D01*
X192261905Y-66454819D02*
X192261905Y-65454819D01*
X192261905Y-65454819D02*
X192642857Y-65454819D01*
X192642857Y-65454819D02*
X192738095Y-65502438D01*
X192738095Y-65502438D02*
X192785714Y-65550057D01*
X192785714Y-65550057D02*
X192833333Y-65645295D01*
X192833333Y-65645295D02*
X192833333Y-65788152D01*
X192833333Y-65788152D02*
X192785714Y-65883390D01*
X192785714Y-65883390D02*
X192738095Y-65931009D01*
X192738095Y-65931009D02*
X192642857Y-65978628D01*
X192642857Y-65978628D02*
X192261905Y-65978628D01*
X193214286Y-65550057D02*
X193261905Y-65502438D01*
X193261905Y-65502438D02*
X193357143Y-65454819D01*
X193357143Y-65454819D02*
X193595238Y-65454819D01*
X193595238Y-65454819D02*
X193690476Y-65502438D01*
X193690476Y-65502438D02*
X193738095Y-65550057D01*
X193738095Y-65550057D02*
X193785714Y-65645295D01*
X193785714Y-65645295D02*
X193785714Y-65740533D01*
X193785714Y-65740533D02*
X193738095Y-65883390D01*
X193738095Y-65883390D02*
X193166667Y-66454819D01*
X193166667Y-66454819D02*
X193785714Y-66454819D01*
D11*
X183883333Y-66250562D02*
X183850000Y-66283896D01*
X183850000Y-66283896D02*
X183750000Y-66317229D01*
X183750000Y-66317229D02*
X183683333Y-66317229D01*
X183683333Y-66317229D02*
X183583333Y-66283896D01*
X183583333Y-66283896D02*
X183516667Y-66217229D01*
X183516667Y-66217229D02*
X183483333Y-66150562D01*
X183483333Y-66150562D02*
X183450000Y-66017229D01*
X183450000Y-66017229D02*
X183450000Y-65917229D01*
X183450000Y-65917229D02*
X183483333Y-65783896D01*
X183483333Y-65783896D02*
X183516667Y-65717229D01*
X183516667Y-65717229D02*
X183583333Y-65650562D01*
X183583333Y-65650562D02*
X183683333Y-65617229D01*
X183683333Y-65617229D02*
X183750000Y-65617229D01*
X183750000Y-65617229D02*
X183850000Y-65650562D01*
X183850000Y-65650562D02*
X183883333Y-65683896D01*
X184550000Y-66317229D02*
X184150000Y-66317229D01*
X184350000Y-66317229D02*
X184350000Y-65617229D01*
X184350000Y-65617229D02*
X184283333Y-65717229D01*
X184283333Y-65717229D02*
X184216667Y-65783896D01*
X184216667Y-65783896D02*
X184150000Y-65817229D01*
X185933333Y-40383896D02*
X185866666Y-40350562D01*
X185866666Y-40350562D02*
X185800000Y-40283896D01*
X185800000Y-40283896D02*
X185700000Y-40183896D01*
X185700000Y-40183896D02*
X185633333Y-40150562D01*
X185633333Y-40150562D02*
X185566666Y-40150562D01*
X185600000Y-40317229D02*
X185533333Y-40283896D01*
X185533333Y-40283896D02*
X185466666Y-40217229D01*
X185466666Y-40217229D02*
X185433333Y-40083896D01*
X185433333Y-40083896D02*
X185433333Y-39850562D01*
X185433333Y-39850562D02*
X185466666Y-39717229D01*
X185466666Y-39717229D02*
X185533333Y-39650562D01*
X185533333Y-39650562D02*
X185600000Y-39617229D01*
X185600000Y-39617229D02*
X185733333Y-39617229D01*
X185733333Y-39617229D02*
X185800000Y-39650562D01*
X185800000Y-39650562D02*
X185866666Y-39717229D01*
X185866666Y-39717229D02*
X185900000Y-39850562D01*
X185900000Y-39850562D02*
X185900000Y-40083896D01*
X185900000Y-40083896D02*
X185866666Y-40217229D01*
X185866666Y-40217229D02*
X185800000Y-40283896D01*
X185800000Y-40283896D02*
X185733333Y-40317229D01*
X185733333Y-40317229D02*
X185600000Y-40317229D01*
X186499999Y-39617229D02*
X186366666Y-39617229D01*
X186366666Y-39617229D02*
X186299999Y-39650562D01*
X186299999Y-39650562D02*
X186266666Y-39683896D01*
X186266666Y-39683896D02*
X186199999Y-39783896D01*
X186199999Y-39783896D02*
X186166666Y-39917229D01*
X186166666Y-39917229D02*
X186166666Y-40183896D01*
X186166666Y-40183896D02*
X186199999Y-40250562D01*
X186199999Y-40250562D02*
X186233333Y-40283896D01*
X186233333Y-40283896D02*
X186299999Y-40317229D01*
X186299999Y-40317229D02*
X186433333Y-40317229D01*
X186433333Y-40317229D02*
X186499999Y-40283896D01*
X186499999Y-40283896D02*
X186533333Y-40250562D01*
X186533333Y-40250562D02*
X186566666Y-40183896D01*
X186566666Y-40183896D02*
X186566666Y-40017229D01*
X186566666Y-40017229D02*
X186533333Y-39950562D01*
X186533333Y-39950562D02*
X186499999Y-39917229D01*
X186499999Y-39917229D02*
X186433333Y-39883896D01*
X186433333Y-39883896D02*
X186299999Y-39883896D01*
X186299999Y-39883896D02*
X186233333Y-39917229D01*
X186233333Y-39917229D02*
X186199999Y-39950562D01*
X186199999Y-39950562D02*
X186166666Y-40017229D01*
X192883333Y-37600562D02*
X192850000Y-37633896D01*
X192850000Y-37633896D02*
X192750000Y-37667229D01*
X192750000Y-37667229D02*
X192683333Y-37667229D01*
X192683333Y-37667229D02*
X192583333Y-37633896D01*
X192583333Y-37633896D02*
X192516667Y-37567229D01*
X192516667Y-37567229D02*
X192483333Y-37500562D01*
X192483333Y-37500562D02*
X192450000Y-37367229D01*
X192450000Y-37367229D02*
X192450000Y-37267229D01*
X192450000Y-37267229D02*
X192483333Y-37133896D01*
X192483333Y-37133896D02*
X192516667Y-37067229D01*
X192516667Y-37067229D02*
X192583333Y-37000562D01*
X192583333Y-37000562D02*
X192683333Y-36967229D01*
X192683333Y-36967229D02*
X192750000Y-36967229D01*
X192750000Y-36967229D02*
X192850000Y-37000562D01*
X192850000Y-37000562D02*
X192883333Y-37033896D01*
X193483333Y-37200562D02*
X193483333Y-37667229D01*
X193316667Y-36933896D02*
X193150000Y-37433896D01*
X193150000Y-37433896D02*
X193583333Y-37433896D01*
D12*
X191882142Y-34954819D02*
X191548809Y-34478628D01*
X191310714Y-34954819D02*
X191310714Y-33954819D01*
X191310714Y-33954819D02*
X191691666Y-33954819D01*
X191691666Y-33954819D02*
X191786904Y-34002438D01*
X191786904Y-34002438D02*
X191834523Y-34050057D01*
X191834523Y-34050057D02*
X191882142Y-34145295D01*
X191882142Y-34145295D02*
X191882142Y-34288152D01*
X191882142Y-34288152D02*
X191834523Y-34383390D01*
X191834523Y-34383390D02*
X191786904Y-34431009D01*
X191786904Y-34431009D02*
X191691666Y-34478628D01*
X191691666Y-34478628D02*
X191310714Y-34478628D01*
X192834523Y-34954819D02*
X192263095Y-34954819D01*
X192548809Y-34954819D02*
X192548809Y-33954819D01*
X192548809Y-33954819D02*
X192453571Y-34097676D01*
X192453571Y-34097676D02*
X192358333Y-34192914D01*
X192358333Y-34192914D02*
X192263095Y-34240533D01*
X193691666Y-34288152D02*
X193691666Y-34954819D01*
X193453571Y-33907200D02*
X193215476Y-34621485D01*
X193215476Y-34621485D02*
X193834523Y-34621485D01*
X194954819Y-59666666D02*
X194478628Y-59999999D01*
X194954819Y-60238094D02*
X193954819Y-60238094D01*
X193954819Y-60238094D02*
X193954819Y-59857142D01*
X193954819Y-59857142D02*
X194002438Y-59761904D01*
X194002438Y-59761904D02*
X194050057Y-59714285D01*
X194050057Y-59714285D02*
X194145295Y-59666666D01*
X194145295Y-59666666D02*
X194288152Y-59666666D01*
X194288152Y-59666666D02*
X194383390Y-59714285D01*
X194383390Y-59714285D02*
X194431009Y-59761904D01*
X194431009Y-59761904D02*
X194478628Y-59857142D01*
X194478628Y-59857142D02*
X194478628Y-60238094D01*
X194954819Y-58714285D02*
X194954819Y-59285713D01*
X194954819Y-58999999D02*
X193954819Y-58999999D01*
X193954819Y-58999999D02*
X194097676Y-59095237D01*
X194097676Y-59095237D02*
X194192914Y-59190475D01*
X194192914Y-59190475D02*
X194240533Y-59285713D01*
X178658571Y-34859580D02*
X178610952Y-34907200D01*
X178610952Y-34907200D02*
X178468095Y-34954819D01*
X178468095Y-34954819D02*
X178372857Y-34954819D01*
X178372857Y-34954819D02*
X178230000Y-34907200D01*
X178230000Y-34907200D02*
X178134762Y-34811961D01*
X178134762Y-34811961D02*
X178087143Y-34716723D01*
X178087143Y-34716723D02*
X178039524Y-34526247D01*
X178039524Y-34526247D02*
X178039524Y-34383390D01*
X178039524Y-34383390D02*
X178087143Y-34192914D01*
X178087143Y-34192914D02*
X178134762Y-34097676D01*
X178134762Y-34097676D02*
X178230000Y-34002438D01*
X178230000Y-34002438D02*
X178372857Y-33954819D01*
X178372857Y-33954819D02*
X178468095Y-33954819D01*
X178468095Y-33954819D02*
X178610952Y-34002438D01*
X178610952Y-34002438D02*
X178658571Y-34050057D01*
X179230000Y-34954819D02*
X179134762Y-34907200D01*
X179134762Y-34907200D02*
X179087143Y-34859580D01*
X179087143Y-34859580D02*
X179039524Y-34764342D01*
X179039524Y-34764342D02*
X179039524Y-34478628D01*
X179039524Y-34478628D02*
X179087143Y-34383390D01*
X179087143Y-34383390D02*
X179134762Y-34335771D01*
X179134762Y-34335771D02*
X179230000Y-34288152D01*
X179230000Y-34288152D02*
X179372857Y-34288152D01*
X179372857Y-34288152D02*
X179468095Y-34335771D01*
X179468095Y-34335771D02*
X179515714Y-34383390D01*
X179515714Y-34383390D02*
X179563333Y-34478628D01*
X179563333Y-34478628D02*
X179563333Y-34764342D01*
X179563333Y-34764342D02*
X179515714Y-34859580D01*
X179515714Y-34859580D02*
X179468095Y-34907200D01*
X179468095Y-34907200D02*
X179372857Y-34954819D01*
X179372857Y-34954819D02*
X179230000Y-34954819D01*
X179991905Y-34288152D02*
X179991905Y-34954819D01*
X179991905Y-34383390D02*
X180039524Y-34335771D01*
X180039524Y-34335771D02*
X180134762Y-34288152D01*
X180134762Y-34288152D02*
X180277619Y-34288152D01*
X180277619Y-34288152D02*
X180372857Y-34335771D01*
X180372857Y-34335771D02*
X180420476Y-34431009D01*
X180420476Y-34431009D02*
X180420476Y-34954819D01*
X181372857Y-33954819D02*
X180896667Y-33954819D01*
X180896667Y-33954819D02*
X180849048Y-34431009D01*
X180849048Y-34431009D02*
X180896667Y-34383390D01*
X180896667Y-34383390D02*
X180991905Y-34335771D01*
X180991905Y-34335771D02*
X181230000Y-34335771D01*
X181230000Y-34335771D02*
X181325238Y-34383390D01*
X181325238Y-34383390D02*
X181372857Y-34431009D01*
X181372857Y-34431009D02*
X181420476Y-34526247D01*
X181420476Y-34526247D02*
X181420476Y-34764342D01*
X181420476Y-34764342D02*
X181372857Y-34859580D01*
X181372857Y-34859580D02*
X181325238Y-34907200D01*
X181325238Y-34907200D02*
X181230000Y-34954819D01*
X181230000Y-34954819D02*
X180991905Y-34954819D01*
X180991905Y-34954819D02*
X180896667Y-34907200D01*
X180896667Y-34907200D02*
X180849048Y-34859580D01*
X151454819Y-37261904D02*
X152264342Y-37261904D01*
X152264342Y-37261904D02*
X152359580Y-37214285D01*
X152359580Y-37214285D02*
X152407200Y-37166666D01*
X152407200Y-37166666D02*
X152454819Y-37071428D01*
X152454819Y-37071428D02*
X152454819Y-36880952D01*
X152454819Y-36880952D02*
X152407200Y-36785714D01*
X152407200Y-36785714D02*
X152359580Y-36738095D01*
X152359580Y-36738095D02*
X152264342Y-36690476D01*
X152264342Y-36690476D02*
X151454819Y-36690476D01*
X152454819Y-35690476D02*
X152454819Y-36261904D01*
X152454819Y-35976190D02*
X151454819Y-35976190D01*
X151454819Y-35976190D02*
X151597676Y-36071428D01*
X151597676Y-36071428D02*
X151692914Y-36166666D01*
X151692914Y-36166666D02*
X151740533Y-36261904D01*
D11*
X187723333Y-34817229D02*
X187723333Y-34117229D01*
X187723333Y-34117229D02*
X187890000Y-34117229D01*
X187890000Y-34117229D02*
X187990000Y-34150562D01*
X187990000Y-34150562D02*
X188056667Y-34217229D01*
X188056667Y-34217229D02*
X188090000Y-34283896D01*
X188090000Y-34283896D02*
X188123333Y-34417229D01*
X188123333Y-34417229D02*
X188123333Y-34517229D01*
X188123333Y-34517229D02*
X188090000Y-34650562D01*
X188090000Y-34650562D02*
X188056667Y-34717229D01*
X188056667Y-34717229D02*
X187990000Y-34783896D01*
X187990000Y-34783896D02*
X187890000Y-34817229D01*
X187890000Y-34817229D02*
X187723333Y-34817229D01*
X188723333Y-34117229D02*
X188590000Y-34117229D01*
X188590000Y-34117229D02*
X188523333Y-34150562D01*
X188523333Y-34150562D02*
X188490000Y-34183896D01*
X188490000Y-34183896D02*
X188423333Y-34283896D01*
X188423333Y-34283896D02*
X188390000Y-34417229D01*
X188390000Y-34417229D02*
X188390000Y-34683896D01*
X188390000Y-34683896D02*
X188423333Y-34750562D01*
X188423333Y-34750562D02*
X188456667Y-34783896D01*
X188456667Y-34783896D02*
X188523333Y-34817229D01*
X188523333Y-34817229D02*
X188656667Y-34817229D01*
X188656667Y-34817229D02*
X188723333Y-34783896D01*
X188723333Y-34783896D02*
X188756667Y-34750562D01*
X188756667Y-34750562D02*
X188790000Y-34683896D01*
X188790000Y-34683896D02*
X188790000Y-34517229D01*
X188790000Y-34517229D02*
X188756667Y-34450562D01*
X188756667Y-34450562D02*
X188723333Y-34417229D01*
X188723333Y-34417229D02*
X188656667Y-34383896D01*
X188656667Y-34383896D02*
X188523333Y-34383896D01*
X188523333Y-34383896D02*
X188456667Y-34417229D01*
X188456667Y-34417229D02*
X188423333Y-34450562D01*
X188423333Y-34450562D02*
X188390000Y-34517229D01*
D12*
X148166666Y-65844819D02*
X148166666Y-66559104D01*
X148166666Y-66559104D02*
X148119047Y-66701961D01*
X148119047Y-66701961D02*
X148023809Y-66797200D01*
X148023809Y-66797200D02*
X147880952Y-66844819D01*
X147880952Y-66844819D02*
X147785714Y-66844819D01*
X149166666Y-66844819D02*
X148595238Y-66844819D01*
X148880952Y-66844819D02*
X148880952Y-65844819D01*
X148880952Y-65844819D02*
X148785714Y-65987676D01*
X148785714Y-65987676D02*
X148690476Y-66082914D01*
X148690476Y-66082914D02*
X148595238Y-66130533D01*
X150238095Y-63954819D02*
X150238095Y-64764342D01*
X150238095Y-64764342D02*
X150285714Y-64859580D01*
X150285714Y-64859580D02*
X150333333Y-64907200D01*
X150333333Y-64907200D02*
X150428571Y-64954819D01*
X150428571Y-64954819D02*
X150619047Y-64954819D01*
X150619047Y-64954819D02*
X150714285Y-64907200D01*
X150714285Y-64907200D02*
X150761904Y-64859580D01*
X150761904Y-64859580D02*
X150809523Y-64764342D01*
X150809523Y-64764342D02*
X150809523Y-63954819D01*
X151190476Y-63954819D02*
X151809523Y-63954819D01*
X151809523Y-63954819D02*
X151476190Y-64335771D01*
X151476190Y-64335771D02*
X151619047Y-64335771D01*
X151619047Y-64335771D02*
X151714285Y-64383390D01*
X151714285Y-64383390D02*
X151761904Y-64431009D01*
X151761904Y-64431009D02*
X151809523Y-64526247D01*
X151809523Y-64526247D02*
X151809523Y-64764342D01*
X151809523Y-64764342D02*
X151761904Y-64859580D01*
X151761904Y-64859580D02*
X151714285Y-64907200D01*
X151714285Y-64907200D02*
X151619047Y-64954819D01*
X151619047Y-64954819D02*
X151333333Y-64954819D01*
X151333333Y-64954819D02*
X151238095Y-64907200D01*
X151238095Y-64907200D02*
X151190476Y-64859580D01*
X194954819Y-47142857D02*
X194478628Y-47476190D01*
X194954819Y-47714285D02*
X193954819Y-47714285D01*
X193954819Y-47714285D02*
X193954819Y-47333333D01*
X193954819Y-47333333D02*
X194002438Y-47238095D01*
X194002438Y-47238095D02*
X194050057Y-47190476D01*
X194050057Y-47190476D02*
X194145295Y-47142857D01*
X194145295Y-47142857D02*
X194288152Y-47142857D01*
X194288152Y-47142857D02*
X194383390Y-47190476D01*
X194383390Y-47190476D02*
X194431009Y-47238095D01*
X194431009Y-47238095D02*
X194478628Y-47333333D01*
X194478628Y-47333333D02*
X194478628Y-47714285D01*
X194954819Y-46190476D02*
X194954819Y-46761904D01*
X194954819Y-46476190D02*
X193954819Y-46476190D01*
X193954819Y-46476190D02*
X194097676Y-46571428D01*
X194097676Y-46571428D02*
X194192914Y-46666666D01*
X194192914Y-46666666D02*
X194240533Y-46761904D01*
X194954819Y-45238095D02*
X194954819Y-45809523D01*
X194954819Y-45523809D02*
X193954819Y-45523809D01*
X193954819Y-45523809D02*
X194097676Y-45619047D01*
X194097676Y-45619047D02*
X194192914Y-45714285D01*
X194192914Y-45714285D02*
X194240533Y-45809523D01*
X140166666Y-65844819D02*
X140166666Y-66559104D01*
X140166666Y-66559104D02*
X140119047Y-66701961D01*
X140119047Y-66701961D02*
X140023809Y-66797200D01*
X140023809Y-66797200D02*
X139880952Y-66844819D01*
X139880952Y-66844819D02*
X139785714Y-66844819D01*
X140547619Y-65844819D02*
X141166666Y-65844819D01*
X141166666Y-65844819D02*
X140833333Y-66225771D01*
X140833333Y-66225771D02*
X140976190Y-66225771D01*
X140976190Y-66225771D02*
X141071428Y-66273390D01*
X141071428Y-66273390D02*
X141119047Y-66321009D01*
X141119047Y-66321009D02*
X141166666Y-66416247D01*
X141166666Y-66416247D02*
X141166666Y-66654342D01*
X141166666Y-66654342D02*
X141119047Y-66749580D01*
X141119047Y-66749580D02*
X141071428Y-66797200D01*
X141071428Y-66797200D02*
X140976190Y-66844819D01*
X140976190Y-66844819D02*
X140690476Y-66844819D01*
X140690476Y-66844819D02*
X140595238Y-66797200D01*
X140595238Y-66797200D02*
X140547619Y-66749580D01*
X155166666Y-69454819D02*
X155166666Y-70169104D01*
X155166666Y-70169104D02*
X155119047Y-70311961D01*
X155119047Y-70311961D02*
X155023809Y-70407200D01*
X155023809Y-70407200D02*
X154880952Y-70454819D01*
X154880952Y-70454819D02*
X154785714Y-70454819D01*
X156119047Y-69454819D02*
X155642857Y-69454819D01*
X155642857Y-69454819D02*
X155595238Y-69931009D01*
X155595238Y-69931009D02*
X155642857Y-69883390D01*
X155642857Y-69883390D02*
X155738095Y-69835771D01*
X155738095Y-69835771D02*
X155976190Y-69835771D01*
X155976190Y-69835771D02*
X156071428Y-69883390D01*
X156071428Y-69883390D02*
X156119047Y-69931009D01*
X156119047Y-69931009D02*
X156166666Y-70026247D01*
X156166666Y-70026247D02*
X156166666Y-70264342D01*
X156166666Y-70264342D02*
X156119047Y-70359580D01*
X156119047Y-70359580D02*
X156071428Y-70407200D01*
X156071428Y-70407200D02*
X155976190Y-70454819D01*
X155976190Y-70454819D02*
X155738095Y-70454819D01*
X155738095Y-70454819D02*
X155642857Y-70407200D01*
X155642857Y-70407200D02*
X155595238Y-70359580D01*
X173804819Y-42142857D02*
X173328628Y-42476190D01*
X173804819Y-42714285D02*
X172804819Y-42714285D01*
X172804819Y-42714285D02*
X172804819Y-42333333D01*
X172804819Y-42333333D02*
X172852438Y-42238095D01*
X172852438Y-42238095D02*
X172900057Y-42190476D01*
X172900057Y-42190476D02*
X172995295Y-42142857D01*
X172995295Y-42142857D02*
X173138152Y-42142857D01*
X173138152Y-42142857D02*
X173233390Y-42190476D01*
X173233390Y-42190476D02*
X173281009Y-42238095D01*
X173281009Y-42238095D02*
X173328628Y-42333333D01*
X173328628Y-42333333D02*
X173328628Y-42714285D01*
X173804819Y-41190476D02*
X173804819Y-41761904D01*
X173804819Y-41476190D02*
X172804819Y-41476190D01*
X172804819Y-41476190D02*
X172947676Y-41571428D01*
X172947676Y-41571428D02*
X173042914Y-41666666D01*
X173042914Y-41666666D02*
X173090533Y-41761904D01*
X172804819Y-40571428D02*
X172804819Y-40476190D01*
X172804819Y-40476190D02*
X172852438Y-40380952D01*
X172852438Y-40380952D02*
X172900057Y-40333333D01*
X172900057Y-40333333D02*
X172995295Y-40285714D01*
X172995295Y-40285714D02*
X173185771Y-40238095D01*
X173185771Y-40238095D02*
X173423866Y-40238095D01*
X173423866Y-40238095D02*
X173614342Y-40285714D01*
X173614342Y-40285714D02*
X173709580Y-40333333D01*
X173709580Y-40333333D02*
X173757200Y-40380952D01*
X173757200Y-40380952D02*
X173804819Y-40476190D01*
X173804819Y-40476190D02*
X173804819Y-40571428D01*
X173804819Y-40571428D02*
X173757200Y-40666666D01*
X173757200Y-40666666D02*
X173709580Y-40714285D01*
X173709580Y-40714285D02*
X173614342Y-40761904D01*
X173614342Y-40761904D02*
X173423866Y-40809523D01*
X173423866Y-40809523D02*
X173185771Y-40809523D01*
X173185771Y-40809523D02*
X172995295Y-40761904D01*
X172995295Y-40761904D02*
X172900057Y-40714285D01*
X172900057Y-40714285D02*
X172852438Y-40666666D01*
X172852438Y-40666666D02*
X172804819Y-40571428D01*
X188857142Y-40454819D02*
X188523809Y-39978628D01*
X188285714Y-40454819D02*
X188285714Y-39454819D01*
X188285714Y-39454819D02*
X188666666Y-39454819D01*
X188666666Y-39454819D02*
X188761904Y-39502438D01*
X188761904Y-39502438D02*
X188809523Y-39550057D01*
X188809523Y-39550057D02*
X188857142Y-39645295D01*
X188857142Y-39645295D02*
X188857142Y-39788152D01*
X188857142Y-39788152D02*
X188809523Y-39883390D01*
X188809523Y-39883390D02*
X188761904Y-39931009D01*
X188761904Y-39931009D02*
X188666666Y-39978628D01*
X188666666Y-39978628D02*
X188285714Y-39978628D01*
X189809523Y-40454819D02*
X189238095Y-40454819D01*
X189523809Y-40454819D02*
X189523809Y-39454819D01*
X189523809Y-39454819D02*
X189428571Y-39597676D01*
X189428571Y-39597676D02*
X189333333Y-39692914D01*
X189333333Y-39692914D02*
X189238095Y-39740533D01*
X190190476Y-39550057D02*
X190238095Y-39502438D01*
X190238095Y-39502438D02*
X190333333Y-39454819D01*
X190333333Y-39454819D02*
X190571428Y-39454819D01*
X190571428Y-39454819D02*
X190666666Y-39502438D01*
X190666666Y-39502438D02*
X190714285Y-39550057D01*
X190714285Y-39550057D02*
X190761904Y-39645295D01*
X190761904Y-39645295D02*
X190761904Y-39740533D01*
X190761904Y-39740533D02*
X190714285Y-39883390D01*
X190714285Y-39883390D02*
X190142857Y-40454819D01*
X190142857Y-40454819D02*
X190761904Y-40454819D01*
X169333333Y-69454819D02*
X169000000Y-68978628D01*
X168761905Y-69454819D02*
X168761905Y-68454819D01*
X168761905Y-68454819D02*
X169142857Y-68454819D01*
X169142857Y-68454819D02*
X169238095Y-68502438D01*
X169238095Y-68502438D02*
X169285714Y-68550057D01*
X169285714Y-68550057D02*
X169333333Y-68645295D01*
X169333333Y-68645295D02*
X169333333Y-68788152D01*
X169333333Y-68788152D02*
X169285714Y-68883390D01*
X169285714Y-68883390D02*
X169238095Y-68931009D01*
X169238095Y-68931009D02*
X169142857Y-68978628D01*
X169142857Y-68978628D02*
X168761905Y-68978628D01*
X169666667Y-68454819D02*
X170285714Y-68454819D01*
X170285714Y-68454819D02*
X169952381Y-68835771D01*
X169952381Y-68835771D02*
X170095238Y-68835771D01*
X170095238Y-68835771D02*
X170190476Y-68883390D01*
X170190476Y-68883390D02*
X170238095Y-68931009D01*
X170238095Y-68931009D02*
X170285714Y-69026247D01*
X170285714Y-69026247D02*
X170285714Y-69264342D01*
X170285714Y-69264342D02*
X170238095Y-69359580D01*
X170238095Y-69359580D02*
X170190476Y-69407200D01*
X170190476Y-69407200D02*
X170095238Y-69454819D01*
X170095238Y-69454819D02*
X169809524Y-69454819D01*
X169809524Y-69454819D02*
X169714286Y-69407200D01*
X169714286Y-69407200D02*
X169666667Y-69359580D01*
D13*
X153909800Y-66595237D02*
X153957419Y-66452380D01*
X153957419Y-66452380D02*
X153957419Y-66214285D01*
X153957419Y-66214285D02*
X153909800Y-66119047D01*
X153909800Y-66119047D02*
X153862180Y-66071428D01*
X153862180Y-66071428D02*
X153766942Y-66023809D01*
X153766942Y-66023809D02*
X153671704Y-66023809D01*
X153671704Y-66023809D02*
X153576466Y-66071428D01*
X153576466Y-66071428D02*
X153528847Y-66119047D01*
X153528847Y-66119047D02*
X153481228Y-66214285D01*
X153481228Y-66214285D02*
X153433609Y-66404761D01*
X153433609Y-66404761D02*
X153385990Y-66499999D01*
X153385990Y-66499999D02*
X153338371Y-66547618D01*
X153338371Y-66547618D02*
X153243133Y-66595237D01*
X153243133Y-66595237D02*
X153147895Y-66595237D01*
X153147895Y-66595237D02*
X153052657Y-66547618D01*
X153052657Y-66547618D02*
X153005038Y-66499999D01*
X153005038Y-66499999D02*
X152957419Y-66404761D01*
X152957419Y-66404761D02*
X152957419Y-66166666D01*
X152957419Y-66166666D02*
X153005038Y-66023809D01*
X152957419Y-65738094D02*
X152957419Y-65166666D01*
X153957419Y-65452380D02*
X152957419Y-65452380D01*
X153433609Y-64833332D02*
X153433609Y-64499999D01*
X153957419Y-64357142D02*
X153957419Y-64833332D01*
X153957419Y-64833332D02*
X152957419Y-64833332D01*
X152957419Y-64833332D02*
X152957419Y-64357142D01*
X153957419Y-63928570D02*
X152957419Y-63928570D01*
X152957419Y-63928570D02*
X152957419Y-63547618D01*
X152957419Y-63547618D02*
X153005038Y-63452380D01*
X153005038Y-63452380D02*
X153052657Y-63404761D01*
X153052657Y-63404761D02*
X153147895Y-63357142D01*
X153147895Y-63357142D02*
X153290752Y-63357142D01*
X153290752Y-63357142D02*
X153385990Y-63404761D01*
X153385990Y-63404761D02*
X153433609Y-63452380D01*
X153433609Y-63452380D02*
X153481228Y-63547618D01*
X153481228Y-63547618D02*
X153481228Y-63928570D01*
X154052657Y-63166666D02*
X154052657Y-62404761D01*
X153957419Y-62166665D02*
X152957419Y-62166665D01*
X152957419Y-62166665D02*
X152957419Y-61928570D01*
X152957419Y-61928570D02*
X153005038Y-61785713D01*
X153005038Y-61785713D02*
X153100276Y-61690475D01*
X153100276Y-61690475D02*
X153195514Y-61642856D01*
X153195514Y-61642856D02*
X153385990Y-61595237D01*
X153385990Y-61595237D02*
X153528847Y-61595237D01*
X153528847Y-61595237D02*
X153719323Y-61642856D01*
X153719323Y-61642856D02*
X153814561Y-61690475D01*
X153814561Y-61690475D02*
X153909800Y-61785713D01*
X153909800Y-61785713D02*
X153957419Y-61928570D01*
X153957419Y-61928570D02*
X153957419Y-62166665D01*
X152957419Y-60976189D02*
X152957419Y-60785713D01*
X152957419Y-60785713D02*
X153005038Y-60690475D01*
X153005038Y-60690475D02*
X153100276Y-60595237D01*
X153100276Y-60595237D02*
X153290752Y-60547618D01*
X153290752Y-60547618D02*
X153624085Y-60547618D01*
X153624085Y-60547618D02*
X153814561Y-60595237D01*
X153814561Y-60595237D02*
X153909800Y-60690475D01*
X153909800Y-60690475D02*
X153957419Y-60785713D01*
X153957419Y-60785713D02*
X153957419Y-60976189D01*
X153957419Y-60976189D02*
X153909800Y-61071427D01*
X153909800Y-61071427D02*
X153814561Y-61166665D01*
X153814561Y-61166665D02*
X153624085Y-61214284D01*
X153624085Y-61214284D02*
X153290752Y-61214284D01*
X153290752Y-61214284D02*
X153100276Y-61166665D01*
X153100276Y-61166665D02*
X153005038Y-61071427D01*
X153005038Y-61071427D02*
X152957419Y-60976189D01*
X152957419Y-60214284D02*
X153957419Y-59976189D01*
X153957419Y-59976189D02*
X153243133Y-59785713D01*
X153243133Y-59785713D02*
X153957419Y-59595237D01*
X153957419Y-59595237D02*
X152957419Y-59357142D01*
X153957419Y-58976189D02*
X152957419Y-58976189D01*
X152957419Y-58976189D02*
X153957419Y-58404761D01*
X153957419Y-58404761D02*
X152957419Y-58404761D01*
X153957419Y-57404761D02*
X153957419Y-57976189D01*
X153957419Y-57690475D02*
X152957419Y-57690475D01*
X152957419Y-57690475D02*
X153100276Y-57785713D01*
X153100276Y-57785713D02*
X153195514Y-57880951D01*
X153195514Y-57880951D02*
X153243133Y-57976189D01*
D12*
X185666667Y-66407200D02*
X185809524Y-66454819D01*
X185809524Y-66454819D02*
X186047619Y-66454819D01*
X186047619Y-66454819D02*
X186142857Y-66407200D01*
X186142857Y-66407200D02*
X186190476Y-66359580D01*
X186190476Y-66359580D02*
X186238095Y-66264342D01*
X186238095Y-66264342D02*
X186238095Y-66169104D01*
X186238095Y-66169104D02*
X186190476Y-66073866D01*
X186190476Y-66073866D02*
X186142857Y-66026247D01*
X186142857Y-66026247D02*
X186047619Y-65978628D01*
X186047619Y-65978628D02*
X185857143Y-65931009D01*
X185857143Y-65931009D02*
X185761905Y-65883390D01*
X185761905Y-65883390D02*
X185714286Y-65835771D01*
X185714286Y-65835771D02*
X185666667Y-65740533D01*
X185666667Y-65740533D02*
X185666667Y-65645295D01*
X185666667Y-65645295D02*
X185714286Y-65550057D01*
X185714286Y-65550057D02*
X185761905Y-65502438D01*
X185761905Y-65502438D02*
X185857143Y-65454819D01*
X185857143Y-65454819D02*
X186095238Y-65454819D01*
X186095238Y-65454819D02*
X186238095Y-65502438D01*
X186571429Y-65454819D02*
X186809524Y-66454819D01*
X186809524Y-66454819D02*
X187000000Y-65740533D01*
X187000000Y-65740533D02*
X187190476Y-66454819D01*
X187190476Y-66454819D02*
X187428572Y-65454819D01*
X187714286Y-65454819D02*
X188333333Y-65454819D01*
X188333333Y-65454819D02*
X188000000Y-65835771D01*
X188000000Y-65835771D02*
X188142857Y-65835771D01*
X188142857Y-65835771D02*
X188238095Y-65883390D01*
X188238095Y-65883390D02*
X188285714Y-65931009D01*
X188285714Y-65931009D02*
X188333333Y-66026247D01*
X188333333Y-66026247D02*
X188333333Y-66264342D01*
X188333333Y-66264342D02*
X188285714Y-66359580D01*
X188285714Y-66359580D02*
X188238095Y-66407200D01*
X188238095Y-66407200D02*
X188142857Y-66454819D01*
X188142857Y-66454819D02*
X187857143Y-66454819D01*
X187857143Y-66454819D02*
X187761905Y-66407200D01*
X187761905Y-66407200D02*
X187714286Y-66359580D01*
X194954819Y-51142857D02*
X194478628Y-51476190D01*
X194954819Y-51714285D02*
X193954819Y-51714285D01*
X193954819Y-51714285D02*
X193954819Y-51333333D01*
X193954819Y-51333333D02*
X194002438Y-51238095D01*
X194002438Y-51238095D02*
X194050057Y-51190476D01*
X194050057Y-51190476D02*
X194145295Y-51142857D01*
X194145295Y-51142857D02*
X194288152Y-51142857D01*
X194288152Y-51142857D02*
X194383390Y-51190476D01*
X194383390Y-51190476D02*
X194431009Y-51238095D01*
X194431009Y-51238095D02*
X194478628Y-51333333D01*
X194478628Y-51333333D02*
X194478628Y-51714285D01*
X194050057Y-50761904D02*
X194002438Y-50714285D01*
X194002438Y-50714285D02*
X193954819Y-50619047D01*
X193954819Y-50619047D02*
X193954819Y-50380952D01*
X193954819Y-50380952D02*
X194002438Y-50285714D01*
X194002438Y-50285714D02*
X194050057Y-50238095D01*
X194050057Y-50238095D02*
X194145295Y-50190476D01*
X194145295Y-50190476D02*
X194240533Y-50190476D01*
X194240533Y-50190476D02*
X194383390Y-50238095D01*
X194383390Y-50238095D02*
X194954819Y-50809523D01*
X194954819Y-50809523D02*
X194954819Y-50190476D01*
X194288152Y-49333333D02*
X194954819Y-49333333D01*
X193907200Y-49571428D02*
X194621485Y-49809523D01*
X194621485Y-49809523D02*
X194621485Y-49190476D01*
X177084333Y-72859580D02*
X177036714Y-72907200D01*
X177036714Y-72907200D02*
X176893857Y-72954819D01*
X176893857Y-72954819D02*
X176798619Y-72954819D01*
X176798619Y-72954819D02*
X176655762Y-72907200D01*
X176655762Y-72907200D02*
X176560524Y-72811961D01*
X176560524Y-72811961D02*
X176512905Y-72716723D01*
X176512905Y-72716723D02*
X176465286Y-72526247D01*
X176465286Y-72526247D02*
X176465286Y-72383390D01*
X176465286Y-72383390D02*
X176512905Y-72192914D01*
X176512905Y-72192914D02*
X176560524Y-72097676D01*
X176560524Y-72097676D02*
X176655762Y-72002438D01*
X176655762Y-72002438D02*
X176798619Y-71954819D01*
X176798619Y-71954819D02*
X176893857Y-71954819D01*
X176893857Y-71954819D02*
X177036714Y-72002438D01*
X177036714Y-72002438D02*
X177084333Y-72050057D01*
X177417667Y-71954819D02*
X178036714Y-71954819D01*
X178036714Y-71954819D02*
X177703381Y-72335771D01*
X177703381Y-72335771D02*
X177846238Y-72335771D01*
X177846238Y-72335771D02*
X177941476Y-72383390D01*
X177941476Y-72383390D02*
X177989095Y-72431009D01*
X177989095Y-72431009D02*
X178036714Y-72526247D01*
X178036714Y-72526247D02*
X178036714Y-72764342D01*
X178036714Y-72764342D02*
X177989095Y-72859580D01*
X177989095Y-72859580D02*
X177941476Y-72907200D01*
X177941476Y-72907200D02*
X177846238Y-72954819D01*
X177846238Y-72954819D02*
X177560524Y-72954819D01*
X177560524Y-72954819D02*
X177465286Y-72907200D01*
X177465286Y-72907200D02*
X177417667Y-72859580D01*
X144166666Y-65844819D02*
X144166666Y-66559104D01*
X144166666Y-66559104D02*
X144119047Y-66701961D01*
X144119047Y-66701961D02*
X144023809Y-66797200D01*
X144023809Y-66797200D02*
X143880952Y-66844819D01*
X143880952Y-66844819D02*
X143785714Y-66844819D01*
X144595238Y-65940057D02*
X144642857Y-65892438D01*
X144642857Y-65892438D02*
X144738095Y-65844819D01*
X144738095Y-65844819D02*
X144976190Y-65844819D01*
X144976190Y-65844819D02*
X145071428Y-65892438D01*
X145071428Y-65892438D02*
X145119047Y-65940057D01*
X145119047Y-65940057D02*
X145166666Y-66035295D01*
X145166666Y-66035295D02*
X145166666Y-66130533D01*
X145166666Y-66130533D02*
X145119047Y-66273390D01*
X145119047Y-66273390D02*
X144547619Y-66844819D01*
X144547619Y-66844819D02*
X145166666Y-66844819D01*
X173804819Y-37641666D02*
X173328628Y-37974999D01*
X173804819Y-38213094D02*
X172804819Y-38213094D01*
X172804819Y-38213094D02*
X172804819Y-37832142D01*
X172804819Y-37832142D02*
X172852438Y-37736904D01*
X172852438Y-37736904D02*
X172900057Y-37689285D01*
X172900057Y-37689285D02*
X172995295Y-37641666D01*
X172995295Y-37641666D02*
X173138152Y-37641666D01*
X173138152Y-37641666D02*
X173233390Y-37689285D01*
X173233390Y-37689285D02*
X173281009Y-37736904D01*
X173281009Y-37736904D02*
X173328628Y-37832142D01*
X173328628Y-37832142D02*
X173328628Y-38213094D01*
X173804819Y-37165475D02*
X173804819Y-36974999D01*
X173804819Y-36974999D02*
X173757200Y-36879761D01*
X173757200Y-36879761D02*
X173709580Y-36832142D01*
X173709580Y-36832142D02*
X173566723Y-36736904D01*
X173566723Y-36736904D02*
X173376247Y-36689285D01*
X173376247Y-36689285D02*
X172995295Y-36689285D01*
X172995295Y-36689285D02*
X172900057Y-36736904D01*
X172900057Y-36736904D02*
X172852438Y-36784523D01*
X172852438Y-36784523D02*
X172804819Y-36879761D01*
X172804819Y-36879761D02*
X172804819Y-37070237D01*
X172804819Y-37070237D02*
X172852438Y-37165475D01*
X172852438Y-37165475D02*
X172900057Y-37213094D01*
X172900057Y-37213094D02*
X172995295Y-37260713D01*
X172995295Y-37260713D02*
X173233390Y-37260713D01*
X173233390Y-37260713D02*
X173328628Y-37213094D01*
X173328628Y-37213094D02*
X173376247Y-37165475D01*
X173376247Y-37165475D02*
X173423866Y-37070237D01*
X173423866Y-37070237D02*
X173423866Y-36879761D01*
X173423866Y-36879761D02*
X173376247Y-36784523D01*
X173376247Y-36784523D02*
X173328628Y-36736904D01*
X173328628Y-36736904D02*
X173233390Y-36689285D01*
D11*
X184983333Y-34817229D02*
X184983333Y-34117229D01*
X184983333Y-34117229D02*
X185150000Y-34117229D01*
X185150000Y-34117229D02*
X185250000Y-34150562D01*
X185250000Y-34150562D02*
X185316667Y-34217229D01*
X185316667Y-34217229D02*
X185350000Y-34283896D01*
X185350000Y-34283896D02*
X185383333Y-34417229D01*
X185383333Y-34417229D02*
X185383333Y-34517229D01*
X185383333Y-34517229D02*
X185350000Y-34650562D01*
X185350000Y-34650562D02*
X185316667Y-34717229D01*
X185316667Y-34717229D02*
X185250000Y-34783896D01*
X185250000Y-34783896D02*
X185150000Y-34817229D01*
X185150000Y-34817229D02*
X184983333Y-34817229D01*
X185983333Y-34350562D02*
X185983333Y-34817229D01*
X185816667Y-34083896D02*
X185650000Y-34583896D01*
X185650000Y-34583896D02*
X186083333Y-34583896D01*
D12*
X172454819Y-57738094D02*
X171454819Y-57738094D01*
X171454819Y-57738094D02*
X171454819Y-57499999D01*
X171454819Y-57499999D02*
X171502438Y-57357142D01*
X171502438Y-57357142D02*
X171597676Y-57261904D01*
X171597676Y-57261904D02*
X171692914Y-57214285D01*
X171692914Y-57214285D02*
X171883390Y-57166666D01*
X171883390Y-57166666D02*
X172026247Y-57166666D01*
X172026247Y-57166666D02*
X172216723Y-57214285D01*
X172216723Y-57214285D02*
X172311961Y-57261904D01*
X172311961Y-57261904D02*
X172407200Y-57357142D01*
X172407200Y-57357142D02*
X172454819Y-57499999D01*
X172454819Y-57499999D02*
X172454819Y-57738094D01*
X172454819Y-56214285D02*
X172454819Y-56785713D01*
X172454819Y-56499999D02*
X171454819Y-56499999D01*
X171454819Y-56499999D02*
X171597676Y-56595237D01*
X171597676Y-56595237D02*
X171692914Y-56690475D01*
X171692914Y-56690475D02*
X171740533Y-56785713D01*
X136166666Y-65844819D02*
X136166666Y-66559104D01*
X136166666Y-66559104D02*
X136119047Y-66701961D01*
X136119047Y-66701961D02*
X136023809Y-66797200D01*
X136023809Y-66797200D02*
X135880952Y-66844819D01*
X135880952Y-66844819D02*
X135785714Y-66844819D01*
X137071428Y-66178152D02*
X137071428Y-66844819D01*
X136833333Y-65797200D02*
X136595238Y-66511485D01*
X136595238Y-66511485D02*
X137214285Y-66511485D01*
%TO.C,U2*%
D13*
X175850000Y-44600000D02*
X191350000Y-44600000D01*
X191350000Y-64600000D01*
X175850000Y-64600000D01*
X175850000Y-44600000D01*
D14*
%TO.C,C2*%
X181210000Y-68713748D02*
X181210000Y-69236252D01*
X179790000Y-68713748D02*
X179790000Y-69236252D01*
%TO.C,R25*%
X192290000Y-55286252D02*
X192290000Y-54763748D01*
X193710000Y-55286252D02*
X193710000Y-54763748D01*
%TO.C,Q5*%
X191740000Y-40370000D02*
X191740000Y-41300000D01*
X191740000Y-40370000D02*
X193200000Y-40370000D01*
X191740000Y-43530000D02*
X191740000Y-42600000D01*
X191740000Y-43530000D02*
X193900000Y-43530000D01*
%TO.C,R2*%
X192290000Y-63286252D02*
X192290000Y-62763748D01*
X193710000Y-63286252D02*
X193710000Y-62763748D01*
%TO.C,C1*%
X181238748Y-65290000D02*
X181761252Y-65290000D01*
X181238748Y-66710000D02*
X181761252Y-66710000D01*
%TO.C,Q6*%
X187260000Y-40420000D02*
X185100000Y-40420000D01*
X187260000Y-40420000D02*
X187260000Y-41350000D01*
X187260000Y-43580000D02*
X185800000Y-43580000D01*
X187260000Y-43580000D02*
X187260000Y-42650000D01*
%TO.C,C4*%
X192738748Y-38290000D02*
X193261252Y-38290000D01*
X192738748Y-39710000D02*
X193261252Y-39710000D01*
%TO.C,R14*%
X192738748Y-35290000D02*
X193261252Y-35290000D01*
X192738748Y-36710000D02*
X193261252Y-36710000D01*
%TO.C,R1*%
X192290000Y-59261252D02*
X192290000Y-58738748D01*
X193710000Y-59261252D02*
X193710000Y-58738748D01*
%TO.C,Con5*%
X177130000Y-36090000D02*
X178460000Y-36090000D01*
X177130000Y-37420000D02*
X177130000Y-36090000D01*
X177130000Y-38690000D02*
X177130000Y-43830000D01*
X177130000Y-38690000D02*
X179730000Y-38690000D01*
X177130000Y-43830000D02*
X182330000Y-43830000D01*
X179730000Y-36090000D02*
X182330000Y-36090000D01*
X179730000Y-38690000D02*
X179730000Y-36090000D01*
X182330000Y-36090000D02*
X182330000Y-43830000D01*
%TO.C,U1*%
X153610000Y-34450000D02*
X171850000Y-34450000D01*
X153610000Y-53270000D02*
X153610000Y-53890000D01*
X153610000Y-53890000D02*
X154610000Y-53890000D01*
X171850000Y-34450000D02*
X171850000Y-34870000D01*
X171850000Y-53270000D02*
X171850000Y-53890000D01*
X171850000Y-53890000D02*
X170850000Y-53890000D01*
X153605000Y-35195000D02*
X153105000Y-35195000D01*
X153605000Y-34695000D01*
X153605000Y-35195000D01*
G36*
X153605000Y-35195000D02*
G01*
X153105000Y-35195000D01*
X153605000Y-34695000D01*
X153605000Y-35195000D01*
G37*
%TO.C,D6*%
X188240000Y-35970000D02*
X188240000Y-36900000D01*
X188240000Y-35970000D02*
X189700000Y-35970000D01*
X188240000Y-39130000D02*
X188240000Y-38200000D01*
X188240000Y-39130000D02*
X190400000Y-39130000D01*
%TO.C,J1*%
X147390000Y-67390000D02*
X148500000Y-67390000D01*
X147390000Y-68500000D02*
X147390000Y-67390000D01*
X147390000Y-69500000D02*
X147390000Y-73610000D01*
X147390000Y-69500000D02*
X149610000Y-69500000D01*
X147390000Y-73610000D02*
X149610000Y-73610000D01*
X149610000Y-69500000D02*
X149610000Y-73610000D01*
%TO.C,U3*%
X134780000Y-34940000D02*
X150230000Y-34940000D01*
X134780000Y-64140000D02*
X134780000Y-34940000D01*
X134780000Y-64140000D02*
X134780000Y-64140000D01*
X135356000Y-58476000D02*
X146024000Y-58476000D01*
X135356000Y-63810000D02*
X135356000Y-58476000D01*
X135356000Y-63810000D02*
X135356000Y-63810000D01*
X146024000Y-58476000D02*
X146024000Y-63810000D01*
X146024000Y-63810000D02*
X135356000Y-63810000D01*
X146024000Y-63810000D02*
X146024000Y-63810000D01*
X150230000Y-34940000D02*
X150230000Y-64140000D01*
X150230000Y-64140000D02*
X134780000Y-64140000D01*
X137120000Y-64676000D02*
X136640000Y-64676000D01*
X136880000Y-64340000D01*
X137120000Y-64676000D01*
G36*
X137120000Y-64676000D02*
G01*
X136640000Y-64676000D01*
X136880000Y-64340000D01*
X137120000Y-64676000D01*
G37*
%TO.C,R11*%
X192290000Y-46238748D02*
X192290000Y-46761252D01*
X193710000Y-46238748D02*
X193710000Y-46761252D01*
%TO.C,J3*%
X139390000Y-67390000D02*
X140500000Y-67390000D01*
X139390000Y-68500000D02*
X139390000Y-67390000D01*
X139390000Y-69500000D02*
X139390000Y-73610000D01*
X139390000Y-69500000D02*
X141610000Y-69500000D01*
X139390000Y-73610000D02*
X141610000Y-73610000D01*
X141610000Y-69500000D02*
X141610000Y-73610000D01*
%TO.C,J5*%
X156580000Y-68620000D02*
X156580000Y-71380000D01*
X159230000Y-68620000D02*
X156580000Y-68620000D01*
X159230000Y-68620000D02*
X159230000Y-71380000D01*
X159230000Y-71380000D02*
X156580000Y-71380000D01*
X160500000Y-68620000D02*
X161880000Y-68620000D01*
X161880000Y-68620000D02*
X161880000Y-70000000D01*
%TO.C,R10*%
X174290000Y-41761252D02*
X174290000Y-41238748D01*
X175710000Y-41761252D02*
X175710000Y-41238748D01*
%TO.C,R12*%
X188790000Y-41738748D02*
X188790000Y-42261252D01*
X190210000Y-41738748D02*
X190210000Y-42261252D01*
%TO.C,R3*%
X169761252Y-69790000D02*
X169238748Y-69790000D01*
X169761252Y-71210000D02*
X169238748Y-71210000D01*
%TO.C,STEP_DOWN1*%
D13*
X154000000Y-56610000D02*
X171000000Y-56610000D01*
X171000000Y-67610000D01*
X154000000Y-67610000D01*
X154000000Y-56610000D01*
D14*
%TO.C,SW3*%
X185880000Y-71840000D02*
X185880000Y-69160000D01*
X186030000Y-67380000D02*
X191970000Y-67380000D01*
X186030000Y-73620000D02*
X191970000Y-73620000D01*
X192120000Y-69160000D02*
X192120000Y-71840000D01*
X190414214Y-70500000D02*
G75*
G02*
X187585786Y-70500000I-1414214J0D01*
G01*
X187585786Y-70500000D02*
G75*
G02*
X190414214Y-70500000I1414214J0D01*
G01*
%TO.C,R24*%
X192290000Y-50786252D02*
X192290000Y-50263748D01*
X193710000Y-50786252D02*
X193710000Y-50263748D01*
%TO.C,C3*%
X171749759Y-66661000D02*
X172379759Y-66661000D01*
X172064759Y-66346000D02*
X172064759Y-66976000D01*
X175250000Y-65270000D02*
X175250000Y-71730000D01*
X175290000Y-65270000D02*
X175290000Y-71730000D01*
X175330000Y-65270000D02*
X175330000Y-71730000D01*
X175370000Y-65272000D02*
X175370000Y-71728000D01*
X175410000Y-65273000D02*
X175410000Y-71727000D01*
X175450000Y-65276000D02*
X175450000Y-71724000D01*
X175490000Y-65278000D02*
X175490000Y-67460000D01*
X175490000Y-69540000D02*
X175490000Y-71722000D01*
X175530000Y-65282000D02*
X175530000Y-67460000D01*
X175530000Y-69540000D02*
X175530000Y-71718000D01*
X175570000Y-65285000D02*
X175570000Y-67460000D01*
X175570000Y-69540000D02*
X175570000Y-71715000D01*
X175610000Y-65289000D02*
X175610000Y-67460000D01*
X175610000Y-69540000D02*
X175610000Y-71711000D01*
X175650000Y-65294000D02*
X175650000Y-67460000D01*
X175650000Y-69540000D02*
X175650000Y-71706000D01*
X175690000Y-65299000D02*
X175690000Y-67460000D01*
X175690000Y-69540000D02*
X175690000Y-71701000D01*
X175730000Y-65305000D02*
X175730000Y-67460000D01*
X175730000Y-69540000D02*
X175730000Y-71695000D01*
X175770000Y-65311000D02*
X175770000Y-67460000D01*
X175770000Y-69540000D02*
X175770000Y-71689000D01*
X175810000Y-65318000D02*
X175810000Y-67460000D01*
X175810000Y-69540000D02*
X175810000Y-71682000D01*
X175850000Y-65325000D02*
X175850000Y-67460000D01*
X175850000Y-69540000D02*
X175850000Y-71675000D01*
X175890000Y-65333000D02*
X175890000Y-67460000D01*
X175890000Y-69540000D02*
X175890000Y-71667000D01*
X175930000Y-65341000D02*
X175930000Y-67460000D01*
X175930000Y-69540000D02*
X175930000Y-71659000D01*
X175971000Y-65350000D02*
X175971000Y-67460000D01*
X175971000Y-69540000D02*
X175971000Y-71650000D01*
X176011000Y-65359000D02*
X176011000Y-67460000D01*
X176011000Y-69540000D02*
X176011000Y-71641000D01*
X176051000Y-65369000D02*
X176051000Y-67460000D01*
X176051000Y-69540000D02*
X176051000Y-71631000D01*
X176091000Y-65379000D02*
X176091000Y-67460000D01*
X176091000Y-69540000D02*
X176091000Y-71621000D01*
X176131000Y-65390000D02*
X176131000Y-67460000D01*
X176131000Y-69540000D02*
X176131000Y-71610000D01*
X176171000Y-65402000D02*
X176171000Y-67460000D01*
X176171000Y-69540000D02*
X176171000Y-71598000D01*
X176211000Y-65414000D02*
X176211000Y-67460000D01*
X176211000Y-69540000D02*
X176211000Y-71586000D01*
X176251000Y-65426000D02*
X176251000Y-67460000D01*
X176251000Y-69540000D02*
X176251000Y-71574000D01*
X176291000Y-65439000D02*
X176291000Y-67460000D01*
X176291000Y-69540000D02*
X176291000Y-71561000D01*
X176331000Y-65453000D02*
X176331000Y-67460000D01*
X176331000Y-69540000D02*
X176331000Y-71547000D01*
X176371000Y-65467000D02*
X176371000Y-67460000D01*
X176371000Y-69540000D02*
X176371000Y-71533000D01*
X176411000Y-65482000D02*
X176411000Y-67460000D01*
X176411000Y-69540000D02*
X176411000Y-71518000D01*
X176451000Y-65498000D02*
X176451000Y-67460000D01*
X176451000Y-69540000D02*
X176451000Y-71502000D01*
X176491000Y-65514000D02*
X176491000Y-67460000D01*
X176491000Y-69540000D02*
X176491000Y-71486000D01*
X176531000Y-65530000D02*
X176531000Y-67460000D01*
X176531000Y-69540000D02*
X176531000Y-71470000D01*
X176571000Y-65548000D02*
X176571000Y-67460000D01*
X176571000Y-69540000D02*
X176571000Y-71452000D01*
X176611000Y-65566000D02*
X176611000Y-67460000D01*
X176611000Y-69540000D02*
X176611000Y-71434000D01*
X176651000Y-65584000D02*
X176651000Y-67460000D01*
X176651000Y-69540000D02*
X176651000Y-71416000D01*
X176691000Y-65604000D02*
X176691000Y-67460000D01*
X176691000Y-69540000D02*
X176691000Y-71396000D01*
X176731000Y-65624000D02*
X176731000Y-67460000D01*
X176731000Y-69540000D02*
X176731000Y-71376000D01*
X176771000Y-65644000D02*
X176771000Y-67460000D01*
X176771000Y-69540000D02*
X176771000Y-71356000D01*
X176811000Y-65666000D02*
X176811000Y-67460000D01*
X176811000Y-69540000D02*
X176811000Y-71334000D01*
X176851000Y-65688000D02*
X176851000Y-67460000D01*
X176851000Y-69540000D02*
X176851000Y-71312000D01*
X176891000Y-65710000D02*
X176891000Y-67460000D01*
X176891000Y-69540000D02*
X176891000Y-71290000D01*
X176931000Y-65734000D02*
X176931000Y-67460000D01*
X176931000Y-69540000D02*
X176931000Y-71266000D01*
X176971000Y-65758000D02*
X176971000Y-67460000D01*
X176971000Y-69540000D02*
X176971000Y-71242000D01*
X177011000Y-65784000D02*
X177011000Y-67460000D01*
X177011000Y-69540000D02*
X177011000Y-71216000D01*
X177051000Y-65810000D02*
X177051000Y-67460000D01*
X177051000Y-69540000D02*
X177051000Y-71190000D01*
X177091000Y-65836000D02*
X177091000Y-67460000D01*
X177091000Y-69540000D02*
X177091000Y-71164000D01*
X177131000Y-65864000D02*
X177131000Y-67460000D01*
X177131000Y-69540000D02*
X177131000Y-71136000D01*
X177171000Y-65893000D02*
X177171000Y-67460000D01*
X177171000Y-69540000D02*
X177171000Y-71107000D01*
X177211000Y-65922000D02*
X177211000Y-67460000D01*
X177211000Y-69540000D02*
X177211000Y-71078000D01*
X177251000Y-65952000D02*
X177251000Y-67460000D01*
X177251000Y-69540000D02*
X177251000Y-71048000D01*
X177291000Y-65984000D02*
X177291000Y-67460000D01*
X177291000Y-69540000D02*
X177291000Y-71016000D01*
X177331000Y-66016000D02*
X177331000Y-67460000D01*
X177331000Y-69540000D02*
X177331000Y-70984000D01*
X177371000Y-66050000D02*
X177371000Y-67460000D01*
X177371000Y-69540000D02*
X177371000Y-70950000D01*
X177411000Y-66084000D02*
X177411000Y-67460000D01*
X177411000Y-69540000D02*
X177411000Y-70916000D01*
X177451000Y-66120000D02*
X177451000Y-67460000D01*
X177451000Y-69540000D02*
X177451000Y-70880000D01*
X177491000Y-66157000D02*
X177491000Y-67460000D01*
X177491000Y-69540000D02*
X177491000Y-70843000D01*
X177531000Y-66195000D02*
X177531000Y-67460000D01*
X177531000Y-69540000D02*
X177531000Y-70805000D01*
X177571000Y-66235000D02*
X177571000Y-70765000D01*
X177611000Y-66276000D02*
X177611000Y-70724000D01*
X177651000Y-66318000D02*
X177651000Y-70682000D01*
X177691000Y-66363000D02*
X177691000Y-70637000D01*
X177731000Y-66408000D02*
X177731000Y-70592000D01*
X177771000Y-66456000D02*
X177771000Y-70544000D01*
X177811000Y-66505000D02*
X177811000Y-70495000D01*
X177851000Y-66556000D02*
X177851000Y-70444000D01*
X177891000Y-66610000D02*
X177891000Y-70390000D01*
X177931000Y-66666000D02*
X177931000Y-70334000D01*
X177971000Y-66724000D02*
X177971000Y-70276000D01*
X178011000Y-66786000D02*
X178011000Y-70214000D01*
X178051000Y-66850000D02*
X178051000Y-70150000D01*
X178091000Y-66919000D02*
X178091000Y-70081000D01*
X178131000Y-66991000D02*
X178131000Y-70009000D01*
X178171000Y-67068000D02*
X178171000Y-69932000D01*
X178211000Y-67150000D02*
X178211000Y-69850000D01*
X178251000Y-67238000D02*
X178251000Y-69762000D01*
X178291000Y-67335000D02*
X178291000Y-69665000D01*
X178331000Y-67441000D02*
X178331000Y-69559000D01*
X178371000Y-67560000D02*
X178371000Y-69440000D01*
X178411000Y-67698000D02*
X178411000Y-69302000D01*
X178451000Y-67867000D02*
X178451000Y-69133000D01*
X178491000Y-68098000D02*
X178491000Y-68902000D01*
X178520000Y-68500000D02*
G75*
G02*
X171980000Y-68500000I-3270000J0D01*
G01*
X171980000Y-68500000D02*
G75*
G02*
X178520000Y-68500000I3270000J0D01*
G01*
%TO.C,J2*%
X143390000Y-67390000D02*
X144500000Y-67390000D01*
X143390000Y-68500000D02*
X143390000Y-67390000D01*
X143390000Y-69500000D02*
X143390000Y-73610000D01*
X143390000Y-69500000D02*
X145610000Y-69500000D01*
X143390000Y-73610000D02*
X145610000Y-73610000D01*
X145610000Y-69500000D02*
X145610000Y-73610000D01*
%TO.C,R9*%
X174290000Y-37736252D02*
X174290000Y-37213748D01*
X175710000Y-37736252D02*
X175710000Y-37213748D01*
%TO.C,D4*%
X186260000Y-35920000D02*
X184100000Y-35920000D01*
X186260000Y-35920000D02*
X186260000Y-36850000D01*
X186260000Y-39080000D02*
X184800000Y-39080000D01*
X186260000Y-39080000D02*
X186260000Y-38150000D01*
%TO.C,D1*%
X172740000Y-55560000D02*
X172740000Y-58980000D01*
X172905000Y-58980000D02*
X172740000Y-58980000D01*
X172920000Y-55560000D02*
X172740000Y-55560000D01*
X172920000Y-55680000D02*
X172740000Y-55680000D01*
X172920000Y-55800000D02*
X172740000Y-55800000D01*
X175260000Y-55560000D02*
X175080000Y-55560000D01*
X175260000Y-55560000D02*
X175260000Y-58980000D01*
X175260000Y-55680000D02*
X175080000Y-55680000D01*
X175260000Y-55800000D02*
X175080000Y-55800000D01*
X175260000Y-58980000D02*
X175095000Y-58980000D01*
%TO.C,J4*%
X135390000Y-67390000D02*
X136500000Y-67390000D01*
X135390000Y-68500000D02*
X135390000Y-67390000D01*
X135390000Y-69500000D02*
X135390000Y-73610000D01*
X135390000Y-69500000D02*
X137610000Y-69500000D01*
X135390000Y-73610000D02*
X137610000Y-73610000D01*
X137610000Y-69500000D02*
X137610000Y-73610000D01*
%TD*%
M02*
