%TF.GenerationSoftware,KiCad,Pcbnew,9.0.0*%
%TF.CreationDate,2025-10-12T16:24:59-03:00*%
%TF.ProjectId,Drone-HW,44726f6e-652d-4485-972e-6b696361645f,rev?*%
%TF.SameCoordinates,Original*%
%TF.FileFunction,Soldermask,Bot*%
%TF.FilePolarity,Negative*%
%FSLAX46Y46*%
G04 Gerber Fmt 4.6, Leading zero omitted, Abs format (unit mm)*
G04 Created by KiCad (PCBNEW 9.0.0) date 2025-10-12 16:24:59*
%MOMM*%
%LPD*%
G01*
G04 APERTURE LIST*
%ADD10C,1.600000*%
%ADD11C,2.100000*%
%ADD12C,1.700000*%
%ADD13C,1.350000*%
%ADD14R,1.350000X1.350000*%
%ADD15C,1.500000*%
%ADD16R,1.700000X1.700000*%
%ADD17O,1.700000X1.700000*%
%ADD18R,1.600000X1.600000*%
%ADD19R,1.800000X1.800000*%
%ADD20C,1.800000*%
G04 APERTURE END LIST*
D10*
%TO.C,STEP_DOWN1*%
X154968000Y-57664000D03*
X154958000Y-66664000D03*
X169908000Y-57664000D03*
X170038000Y-66714000D03*
%TD*%
D11*
%TO.C,H1*%
X137152000Y-32216000D03*
%TD*%
%TO.C,H2*%
X191307000Y-31884000D03*
%TD*%
%TO.C,H3*%
X190833000Y-76507000D03*
%TD*%
%TO.C,H4*%
X137152000Y-76507000D03*
%TD*%
D12*
%TO.C,SW3*%
X185750000Y-68250000D03*
X192250000Y-68250000D03*
X185750000Y-72750000D03*
X192250000Y-72750000D03*
%TD*%
D13*
%TO.C,J1*%
X185212000Y-31930000D03*
X183212000Y-31930000D03*
D14*
X181212000Y-31930000D03*
%TD*%
D15*
%TO.C,U2*%
X177250000Y-45600000D03*
X177250000Y-48140000D03*
X177250000Y-50680000D03*
X177250000Y-53220000D03*
X177250000Y-55760000D03*
X177250000Y-58300000D03*
X177250000Y-60840000D03*
X177250000Y-63380000D03*
%TD*%
D16*
%TO.C,Con5*%
X178460000Y-37420000D03*
D17*
X181000000Y-37420000D03*
X178460000Y-39960000D03*
X181000000Y-39960000D03*
X178460000Y-42500000D03*
X181000000Y-42500000D03*
%TD*%
D16*
%TO.C,U3*%
X136880000Y-62540000D03*
D12*
X136880000Y-60000000D03*
X139420000Y-62540000D03*
X139420000Y-60000000D03*
X141960000Y-62540000D03*
X141960000Y-60000000D03*
X144500000Y-62540000D03*
X144500000Y-60000000D03*
%TD*%
D14*
%TO.C,J3*%
X179688000Y-77291000D03*
D13*
X181688000Y-77291000D03*
X183688000Y-77291000D03*
%TD*%
D16*
%TO.C,J5*%
X160500000Y-70000000D03*
D12*
X157960000Y-70000000D03*
%TD*%
D18*
%TO.C,C3*%
X174000000Y-68500000D03*
D10*
X176500000Y-68500000D03*
%TD*%
D14*
%TO.C,J2*%
X144271000Y-32246000D03*
D13*
X146271000Y-32246000D03*
X148271000Y-32246000D03*
%TD*%
D19*
%TO.C,D1*%
X174000000Y-56000000D03*
D20*
X174000000Y-58540000D03*
%TD*%
D14*
%TO.C,J4*%
X141950000Y-77529000D03*
D13*
X143950000Y-77529000D03*
X145950000Y-77529000D03*
%TD*%
M02*
