M48
; DRILL file {KiCad 9.0.0} date 2025-10-12T16:25:02-0300
; FORMAT={-:-/ absolute / metric / decimal}
; #@! TF.CreationDate,2025-10-12T16:25:02-03:00
; #@! TF.GenerationSoftware,Kicad,Pcbnew,9.0.0
; #@! TF.FileFunction,Plated,1,2,PTH
FMAT,2
METRIC
; #@! TA.AperFunction,Plated,PTH,ComponentDrill
T1C0.200
; #@! TA.AperFunction,Plated,PTH,ViaDrill
T2C0.300
; #@! TA.AperFunction,Plated,PTH,ComponentDrill
T3C0.800
; #@! TA.AperFunction,Plated,PTH,ComponentDrill
T4C0.900
; #@! TA.AperFunction,Plated,PTH,ComponentDrill
T5C1.000
; #@! TA.AperFunction,Plated,PTH,ComponentDrill
T6C1.200
%
G90
G05
T1
X159.83Y-42.78
X159.83Y-44.18
X160.53Y-42.08
X160.53Y-43.48
X160.53Y-44.88
X161.23Y-42.78
X161.23Y-44.18
X161.93Y-42.08
X161.93Y-43.48
X161.93Y-44.88
X162.63Y-42.78
X162.63Y-44.18
T2
X136.0Y-53.5
X137.5Y-42.0
X138.5Y-71.5
X141.0Y-56.5
X143.0Y-51.0
X143.5Y-38.0
X145.841Y-42.284
X146.5Y-72.5
X147.027Y-50.973
X148.159Y-58.625
X148.284Y-43.797
X148.61Y-66.218
X148.615Y-73.152
X148.652Y-76.896
X148.981Y-53.023
X151.201Y-43.535
X151.5Y-54.0
X152.0Y-63.0
X152.0Y-71.5
X153.98Y-37.185
X153.98Y-38.455
X153.98Y-52.425
X155.5Y-61.0
X155.668Y-44.085
X156.418Y-46.814
X156.5Y-65.0
X159.5Y-38.0
X161.5Y-51.5
X163.5Y-38.0
X163.5Y-49.0
X163.777Y-69.744
X163.78Y-73.402
X164.0Y-58.0
X165.0Y-48.5
X165.5Y-61.0
X165.854Y-73.395
X165.872Y-69.701
X166.708Y-49.885
X167.0Y-44.805
X167.236Y-51.765
X167.421Y-40.33
X167.5Y-47.0
X167.5Y-59.0
X168.437Y-49.003
X168.475Y-70.5
X168.528Y-40.728
X169.535Y-39.147
X171.48Y-37.185
X171.48Y-38.455
X171.48Y-47.345
X171.5Y-63.38
X173.0Y-50.352
X173.25Y-36.75
X174.5Y-63.38
X179.5Y-49.0
X179.5Y-52.0
X179.5Y-57.0
X180.0Y-71.0
X184.0Y-41.5
X184.0Y-48.5
X184.0Y-54.0
X185.0Y-63.0
X186.5Y-39.5
X186.5Y-44.5
X187.0Y-56.5
X187.5Y-42.0
X189.5Y-43.025
X190.0Y-36.6
X190.0Y-38.5
X190.5Y-45.0
X191.975Y-39.0
X193.0Y-49.5
X193.0Y-54.0
X193.0Y-60.025
X194.025Y-36.0
T3
X141.95Y-77.529
X143.95Y-77.529
X144.271Y-32.246
X145.95Y-77.529
X146.271Y-32.246
X148.271Y-32.246
X174.0Y-68.5
X176.5Y-68.5
X179.688Y-77.291
X181.212Y-31.93
X181.688Y-77.291
X183.212Y-31.93
X183.688Y-77.291
X185.212Y-31.93
T4
X174.0Y-56.0
X174.0Y-58.54
T5
X136.88Y-60.0
X136.88Y-62.54
X139.42Y-60.0
X139.42Y-62.54
X141.96Y-60.0
X141.96Y-62.54
X144.5Y-60.0
X144.5Y-62.54
X157.96Y-70.0
X160.5Y-70.0
X177.25Y-45.6
X177.25Y-48.14
X177.25Y-50.68
X177.25Y-53.22
X177.25Y-55.76
X177.25Y-58.3
X177.25Y-60.84
X177.25Y-63.38
X178.46Y-37.42
X178.46Y-39.96
X178.46Y-42.5
X181.0Y-37.42
X181.0Y-39.96
X181.0Y-42.5
X185.75Y-68.25
X185.75Y-72.75
X192.25Y-68.25
X192.25Y-72.75
T6
X154.958Y-66.664
X154.968Y-57.664
X169.908Y-57.664
X170.038Y-66.714
M30
