%TF.GenerationSoftware,KiCad,Pcbnew,9.0.0*%
%TF.CreationDate,2025-10-12T16:24:59-03:00*%
%TF.ProjectId,Drone-HW,44726f6e-652d-4485-972e-6b696361645f,rev?*%
%TF.SameCoordinates,Original*%
%TF.FileFunction,Legend,Top*%
%TF.FilePolarity,Positive*%
%FSLAX46Y46*%
G04 Gerber Fmt 4.6, Leading zero omitted, Abs format (unit mm)*
G04 Created by KiCad (PCBNEW 9.0.0) date 2025-10-12 16:24:59*
%MOMM*%
%LPD*%
G01*
G04 APERTURE LIST*
%ADD10C,0.200000*%
%ADD11C,0.100000*%
%ADD12C,0.150000*%
%ADD13C,0.127000*%
%ADD14C,0.120000*%
G04 APERTURE END LIST*
D10*
X135921762Y-68424560D02*
X136397952Y-68424560D01*
X135826524Y-68710275D02*
X136159857Y-67710275D01*
X136159857Y-67710275D02*
X136493190Y-68710275D01*
X136826524Y-68186465D02*
X137159857Y-68186465D01*
X137302714Y-68710275D02*
X136826524Y-68710275D01*
X136826524Y-68710275D02*
X136826524Y-67710275D01*
X136826524Y-67710275D02*
X137302714Y-67710275D01*
X138302714Y-68710275D02*
X137969381Y-68234084D01*
X137731286Y-68710275D02*
X137731286Y-67710275D01*
X137731286Y-67710275D02*
X138112238Y-67710275D01*
X138112238Y-67710275D02*
X138207476Y-67757894D01*
X138207476Y-67757894D02*
X138255095Y-67805513D01*
X138255095Y-67805513D02*
X138302714Y-67900751D01*
X138302714Y-67900751D02*
X138302714Y-68043608D01*
X138302714Y-68043608D02*
X138255095Y-68138846D01*
X138255095Y-68138846D02*
X138207476Y-68186465D01*
X138207476Y-68186465D02*
X138112238Y-68234084D01*
X138112238Y-68234084D02*
X137731286Y-68234084D01*
X138921762Y-67710275D02*
X139112238Y-67710275D01*
X139112238Y-67710275D02*
X139207476Y-67757894D01*
X139207476Y-67757894D02*
X139302714Y-67853132D01*
X139302714Y-67853132D02*
X139350333Y-68043608D01*
X139350333Y-68043608D02*
X139350333Y-68376941D01*
X139350333Y-68376941D02*
X139302714Y-68567417D01*
X139302714Y-68567417D02*
X139207476Y-68662656D01*
X139207476Y-68662656D02*
X139112238Y-68710275D01*
X139112238Y-68710275D02*
X138921762Y-68710275D01*
X138921762Y-68710275D02*
X138826524Y-68662656D01*
X138826524Y-68662656D02*
X138731286Y-68567417D01*
X138731286Y-68567417D02*
X138683667Y-68376941D01*
X138683667Y-68376941D02*
X138683667Y-68043608D01*
X138683667Y-68043608D02*
X138731286Y-67853132D01*
X138731286Y-67853132D02*
X138826524Y-67757894D01*
X138826524Y-67757894D02*
X138921762Y-67710275D01*
X139778905Y-68710275D02*
X139778905Y-67710275D01*
X139778905Y-67710275D02*
X140112238Y-68424560D01*
X140112238Y-68424560D02*
X140445571Y-67710275D01*
X140445571Y-67710275D02*
X140445571Y-68710275D01*
X140874143Y-68424560D02*
X141350333Y-68424560D01*
X140778905Y-68710275D02*
X141112238Y-67710275D01*
X141112238Y-67710275D02*
X141445571Y-68710275D01*
X140874143Y-67472179D02*
X140921762Y-67424560D01*
X140921762Y-67424560D02*
X141017000Y-67376941D01*
X141017000Y-67376941D02*
X141207476Y-67472179D01*
X141207476Y-67472179D02*
X141302714Y-67424560D01*
X141302714Y-67424560D02*
X141350333Y-67376941D01*
X141969381Y-67710275D02*
X142159857Y-67710275D01*
X142159857Y-67710275D02*
X142255095Y-67757894D01*
X142255095Y-67757894D02*
X142350333Y-67853132D01*
X142350333Y-67853132D02*
X142397952Y-68043608D01*
X142397952Y-68043608D02*
X142397952Y-68376941D01*
X142397952Y-68376941D02*
X142350333Y-68567417D01*
X142350333Y-68567417D02*
X142255095Y-68662656D01*
X142255095Y-68662656D02*
X142159857Y-68710275D01*
X142159857Y-68710275D02*
X141969381Y-68710275D01*
X141969381Y-68710275D02*
X141874143Y-68662656D01*
X141874143Y-68662656D02*
X141778905Y-68567417D01*
X141778905Y-68567417D02*
X141731286Y-68376941D01*
X141731286Y-68376941D02*
X141731286Y-68043608D01*
X141731286Y-68043608D02*
X141778905Y-67853132D01*
X141778905Y-67853132D02*
X141874143Y-67757894D01*
X141874143Y-67757894D02*
X141969381Y-67710275D01*
X142826524Y-68329322D02*
X143588429Y-68329322D01*
X144017000Y-68424560D02*
X144493190Y-68424560D01*
X143921762Y-68710275D02*
X144255095Y-67710275D01*
X144255095Y-67710275D02*
X144588428Y-68710275D01*
X145255095Y-68186465D02*
X144921762Y-68186465D01*
X144921762Y-68710275D02*
X144921762Y-67710275D01*
X144921762Y-67710275D02*
X145397952Y-67710275D01*
X146064619Y-67710275D02*
X146064619Y-68424560D01*
X146064619Y-68424560D02*
X146017000Y-68567417D01*
X146017000Y-68567417D02*
X145921762Y-68662656D01*
X145921762Y-68662656D02*
X145778905Y-68710275D01*
X145778905Y-68710275D02*
X145683667Y-68710275D01*
X146540810Y-68710275D02*
X146540810Y-67710275D01*
X146540810Y-67710275D02*
X146921762Y-67710275D01*
X146921762Y-67710275D02*
X147017000Y-67757894D01*
X147017000Y-67757894D02*
X147064619Y-67805513D01*
X147064619Y-67805513D02*
X147112238Y-67900751D01*
X147112238Y-67900751D02*
X147112238Y-68043608D01*
X147112238Y-68043608D02*
X147064619Y-68138846D01*
X147064619Y-68138846D02*
X147017000Y-68186465D01*
X147017000Y-68186465D02*
X146921762Y-68234084D01*
X146921762Y-68234084D02*
X146540810Y-68234084D01*
X147540810Y-68710275D02*
X147540810Y-67710275D01*
X147540810Y-67710275D02*
X147921762Y-67710275D01*
X147921762Y-67710275D02*
X148017000Y-67757894D01*
X148017000Y-67757894D02*
X148064619Y-67805513D01*
X148064619Y-67805513D02*
X148112238Y-67900751D01*
X148112238Y-67900751D02*
X148112238Y-68043608D01*
X148112238Y-68043608D02*
X148064619Y-68138846D01*
X148064619Y-68138846D02*
X148017000Y-68186465D01*
X148017000Y-68186465D02*
X147921762Y-68234084D01*
X147921762Y-68234084D02*
X147540810Y-68234084D01*
X137969381Y-69653552D02*
X138207476Y-70320219D01*
X138207476Y-70320219D02*
X138445571Y-69653552D01*
X138778905Y-69415457D02*
X138826524Y-69367838D01*
X138826524Y-69367838D02*
X138921762Y-69320219D01*
X138921762Y-69320219D02*
X139159857Y-69320219D01*
X139159857Y-69320219D02*
X139255095Y-69367838D01*
X139255095Y-69367838D02*
X139302714Y-69415457D01*
X139302714Y-69415457D02*
X139350333Y-69510695D01*
X139350333Y-69510695D02*
X139350333Y-69605933D01*
X139350333Y-69605933D02*
X139302714Y-69748790D01*
X139302714Y-69748790D02*
X138731286Y-70320219D01*
X138731286Y-70320219D02*
X139350333Y-70320219D01*
X139969381Y-69320219D02*
X140064619Y-69320219D01*
X140064619Y-69320219D02*
X140159857Y-69367838D01*
X140159857Y-69367838D02*
X140207476Y-69415457D01*
X140207476Y-69415457D02*
X140255095Y-69510695D01*
X140255095Y-69510695D02*
X140302714Y-69701171D01*
X140302714Y-69701171D02*
X140302714Y-69939266D01*
X140302714Y-69939266D02*
X140255095Y-70129742D01*
X140255095Y-70129742D02*
X140207476Y-70224980D01*
X140207476Y-70224980D02*
X140159857Y-70272600D01*
X140159857Y-70272600D02*
X140064619Y-70320219D01*
X140064619Y-70320219D02*
X139969381Y-70320219D01*
X139969381Y-70320219D02*
X139874143Y-70272600D01*
X139874143Y-70272600D02*
X139826524Y-70224980D01*
X139826524Y-70224980D02*
X139778905Y-70129742D01*
X139778905Y-70129742D02*
X139731286Y-69939266D01*
X139731286Y-69939266D02*
X139731286Y-69701171D01*
X139731286Y-69701171D02*
X139778905Y-69510695D01*
X139778905Y-69510695D02*
X139826524Y-69415457D01*
X139826524Y-69415457D02*
X139874143Y-69367838D01*
X139874143Y-69367838D02*
X139969381Y-69320219D01*
X140683667Y-69415457D02*
X140731286Y-69367838D01*
X140731286Y-69367838D02*
X140826524Y-69320219D01*
X140826524Y-69320219D02*
X141064619Y-69320219D01*
X141064619Y-69320219D02*
X141159857Y-69367838D01*
X141159857Y-69367838D02*
X141207476Y-69415457D01*
X141207476Y-69415457D02*
X141255095Y-69510695D01*
X141255095Y-69510695D02*
X141255095Y-69605933D01*
X141255095Y-69605933D02*
X141207476Y-69748790D01*
X141207476Y-69748790D02*
X140636048Y-70320219D01*
X140636048Y-70320219D02*
X141255095Y-70320219D01*
X142159857Y-69320219D02*
X141683667Y-69320219D01*
X141683667Y-69320219D02*
X141636048Y-69796409D01*
X141636048Y-69796409D02*
X141683667Y-69748790D01*
X141683667Y-69748790D02*
X141778905Y-69701171D01*
X141778905Y-69701171D02*
X142017000Y-69701171D01*
X142017000Y-69701171D02*
X142112238Y-69748790D01*
X142112238Y-69748790D02*
X142159857Y-69796409D01*
X142159857Y-69796409D02*
X142207476Y-69891647D01*
X142207476Y-69891647D02*
X142207476Y-70129742D01*
X142207476Y-70129742D02*
X142159857Y-70224980D01*
X142159857Y-70224980D02*
X142112238Y-70272600D01*
X142112238Y-70272600D02*
X142017000Y-70320219D01*
X142017000Y-70320219D02*
X141778905Y-70320219D01*
X141778905Y-70320219D02*
X141683667Y-70272600D01*
X141683667Y-70272600D02*
X141636048Y-70224980D01*
X143159857Y-70320219D02*
X142588429Y-70320219D01*
X142874143Y-70320219D02*
X142874143Y-69320219D01*
X142874143Y-69320219D02*
X142778905Y-69463076D01*
X142778905Y-69463076D02*
X142683667Y-69558314D01*
X142683667Y-69558314D02*
X142588429Y-69605933D01*
X143778905Y-69320219D02*
X143874143Y-69320219D01*
X143874143Y-69320219D02*
X143969381Y-69367838D01*
X143969381Y-69367838D02*
X144017000Y-69415457D01*
X144017000Y-69415457D02*
X144064619Y-69510695D01*
X144064619Y-69510695D02*
X144112238Y-69701171D01*
X144112238Y-69701171D02*
X144112238Y-69939266D01*
X144112238Y-69939266D02*
X144064619Y-70129742D01*
X144064619Y-70129742D02*
X144017000Y-70224980D01*
X144017000Y-70224980D02*
X143969381Y-70272600D01*
X143969381Y-70272600D02*
X143874143Y-70320219D01*
X143874143Y-70320219D02*
X143778905Y-70320219D01*
X143778905Y-70320219D02*
X143683667Y-70272600D01*
X143683667Y-70272600D02*
X143636048Y-70224980D01*
X143636048Y-70224980D02*
X143588429Y-70129742D01*
X143588429Y-70129742D02*
X143540810Y-69939266D01*
X143540810Y-69939266D02*
X143540810Y-69701171D01*
X143540810Y-69701171D02*
X143588429Y-69510695D01*
X143588429Y-69510695D02*
X143636048Y-69415457D01*
X143636048Y-69415457D02*
X143683667Y-69367838D01*
X143683667Y-69367838D02*
X143778905Y-69320219D01*
X145064619Y-70320219D02*
X144493191Y-70320219D01*
X144778905Y-70320219D02*
X144778905Y-69320219D01*
X144778905Y-69320219D02*
X144683667Y-69463076D01*
X144683667Y-69463076D02*
X144588429Y-69558314D01*
X144588429Y-69558314D02*
X144493191Y-69605933D01*
X145445572Y-69415457D02*
X145493191Y-69367838D01*
X145493191Y-69367838D02*
X145588429Y-69320219D01*
X145588429Y-69320219D02*
X145826524Y-69320219D01*
X145826524Y-69320219D02*
X145921762Y-69367838D01*
X145921762Y-69367838D02*
X145969381Y-69415457D01*
X145969381Y-69415457D02*
X146017000Y-69510695D01*
X146017000Y-69510695D02*
X146017000Y-69605933D01*
X146017000Y-69605933D02*
X145969381Y-69748790D01*
X145969381Y-69748790D02*
X145397953Y-70320219D01*
X145397953Y-70320219D02*
X146017000Y-70320219D01*
D11*
X172407646Y-32176371D02*
X172407646Y-31576371D01*
X172407646Y-31576371D02*
X172607646Y-32004942D01*
X172607646Y-32004942D02*
X172807646Y-31576371D01*
X172807646Y-31576371D02*
X172807646Y-32176371D01*
X173550503Y-31947800D02*
X174007646Y-31947800D01*
X175064788Y-31604942D02*
X175007646Y-31576371D01*
X175007646Y-31576371D02*
X174921931Y-31576371D01*
X174921931Y-31576371D02*
X174836217Y-31604942D01*
X174836217Y-31604942D02*
X174779074Y-31662085D01*
X174779074Y-31662085D02*
X174750503Y-31719228D01*
X174750503Y-31719228D02*
X174721931Y-31833514D01*
X174721931Y-31833514D02*
X174721931Y-31919228D01*
X174721931Y-31919228D02*
X174750503Y-32033514D01*
X174750503Y-32033514D02*
X174779074Y-32090657D01*
X174779074Y-32090657D02*
X174836217Y-32147800D01*
X174836217Y-32147800D02*
X174921931Y-32176371D01*
X174921931Y-32176371D02*
X174979074Y-32176371D01*
X174979074Y-32176371D02*
X175064788Y-32147800D01*
X175064788Y-32147800D02*
X175093360Y-32119228D01*
X175093360Y-32119228D02*
X175093360Y-31919228D01*
X175093360Y-31919228D02*
X174979074Y-31919228D01*
X175350503Y-32176371D02*
X175350503Y-31576371D01*
X175350503Y-31576371D02*
X175693360Y-32176371D01*
X175693360Y-32176371D02*
X175693360Y-31576371D01*
X175979074Y-32176371D02*
X175979074Y-31576371D01*
X175979074Y-31576371D02*
X176121931Y-31576371D01*
X176121931Y-31576371D02*
X176207645Y-31604942D01*
X176207645Y-31604942D02*
X176264788Y-31662085D01*
X176264788Y-31662085D02*
X176293359Y-31719228D01*
X176293359Y-31719228D02*
X176321931Y-31833514D01*
X176321931Y-31833514D02*
X176321931Y-31919228D01*
X176321931Y-31919228D02*
X176293359Y-32033514D01*
X176293359Y-32033514D02*
X176264788Y-32090657D01*
X176264788Y-32090657D02*
X176207645Y-32147800D01*
X176207645Y-32147800D02*
X176121931Y-32176371D01*
X176121931Y-32176371D02*
X175979074Y-32176371D01*
X177036217Y-31947800D02*
X177493360Y-31947800D01*
X178207645Y-32147800D02*
X178293360Y-32176371D01*
X178293360Y-32176371D02*
X178436217Y-32176371D01*
X178436217Y-32176371D02*
X178493360Y-32147800D01*
X178493360Y-32147800D02*
X178521931Y-32119228D01*
X178521931Y-32119228D02*
X178550502Y-32062085D01*
X178550502Y-32062085D02*
X178550502Y-32004942D01*
X178550502Y-32004942D02*
X178521931Y-31947800D01*
X178521931Y-31947800D02*
X178493360Y-31919228D01*
X178493360Y-31919228D02*
X178436217Y-31890657D01*
X178436217Y-31890657D02*
X178321931Y-31862085D01*
X178321931Y-31862085D02*
X178264788Y-31833514D01*
X178264788Y-31833514D02*
X178236217Y-31804942D01*
X178236217Y-31804942D02*
X178207645Y-31747800D01*
X178207645Y-31747800D02*
X178207645Y-31690657D01*
X178207645Y-31690657D02*
X178236217Y-31633514D01*
X178236217Y-31633514D02*
X178264788Y-31604942D01*
X178264788Y-31604942D02*
X178321931Y-31576371D01*
X178321931Y-31576371D02*
X178464788Y-31576371D01*
X178464788Y-31576371D02*
X178550502Y-31604942D01*
X178750503Y-31576371D02*
X178893360Y-32176371D01*
X178893360Y-32176371D02*
X179007646Y-31747800D01*
X179007646Y-31747800D02*
X179121931Y-32176371D01*
X179121931Y-32176371D02*
X179264789Y-31576371D01*
X150469646Y-32634371D02*
X150469646Y-32034371D01*
X150469646Y-32034371D02*
X150669646Y-32462942D01*
X150669646Y-32462942D02*
X150869646Y-32034371D01*
X150869646Y-32034371D02*
X150869646Y-32634371D01*
X151612503Y-32405800D02*
X152069646Y-32405800D01*
X153126788Y-32062942D02*
X153069646Y-32034371D01*
X153069646Y-32034371D02*
X152983931Y-32034371D01*
X152983931Y-32034371D02*
X152898217Y-32062942D01*
X152898217Y-32062942D02*
X152841074Y-32120085D01*
X152841074Y-32120085D02*
X152812503Y-32177228D01*
X152812503Y-32177228D02*
X152783931Y-32291514D01*
X152783931Y-32291514D02*
X152783931Y-32377228D01*
X152783931Y-32377228D02*
X152812503Y-32491514D01*
X152812503Y-32491514D02*
X152841074Y-32548657D01*
X152841074Y-32548657D02*
X152898217Y-32605800D01*
X152898217Y-32605800D02*
X152983931Y-32634371D01*
X152983931Y-32634371D02*
X153041074Y-32634371D01*
X153041074Y-32634371D02*
X153126788Y-32605800D01*
X153126788Y-32605800D02*
X153155360Y-32577228D01*
X153155360Y-32577228D02*
X153155360Y-32377228D01*
X153155360Y-32377228D02*
X153041074Y-32377228D01*
X153412503Y-32634371D02*
X153412503Y-32034371D01*
X153412503Y-32034371D02*
X153755360Y-32634371D01*
X153755360Y-32634371D02*
X153755360Y-32034371D01*
X154041074Y-32634371D02*
X154041074Y-32034371D01*
X154041074Y-32034371D02*
X154183931Y-32034371D01*
X154183931Y-32034371D02*
X154269645Y-32062942D01*
X154269645Y-32062942D02*
X154326788Y-32120085D01*
X154326788Y-32120085D02*
X154355359Y-32177228D01*
X154355359Y-32177228D02*
X154383931Y-32291514D01*
X154383931Y-32291514D02*
X154383931Y-32377228D01*
X154383931Y-32377228D02*
X154355359Y-32491514D01*
X154355359Y-32491514D02*
X154326788Y-32548657D01*
X154326788Y-32548657D02*
X154269645Y-32605800D01*
X154269645Y-32605800D02*
X154183931Y-32634371D01*
X154183931Y-32634371D02*
X154041074Y-32634371D01*
X155098217Y-32405800D02*
X155555360Y-32405800D01*
X156269645Y-32605800D02*
X156355360Y-32634371D01*
X156355360Y-32634371D02*
X156498217Y-32634371D01*
X156498217Y-32634371D02*
X156555360Y-32605800D01*
X156555360Y-32605800D02*
X156583931Y-32577228D01*
X156583931Y-32577228D02*
X156612502Y-32520085D01*
X156612502Y-32520085D02*
X156612502Y-32462942D01*
X156612502Y-32462942D02*
X156583931Y-32405800D01*
X156583931Y-32405800D02*
X156555360Y-32377228D01*
X156555360Y-32377228D02*
X156498217Y-32348657D01*
X156498217Y-32348657D02*
X156383931Y-32320085D01*
X156383931Y-32320085D02*
X156326788Y-32291514D01*
X156326788Y-32291514D02*
X156298217Y-32262942D01*
X156298217Y-32262942D02*
X156269645Y-32205800D01*
X156269645Y-32205800D02*
X156269645Y-32148657D01*
X156269645Y-32148657D02*
X156298217Y-32091514D01*
X156298217Y-32091514D02*
X156326788Y-32062942D01*
X156326788Y-32062942D02*
X156383931Y-32034371D01*
X156383931Y-32034371D02*
X156526788Y-32034371D01*
X156526788Y-32034371D02*
X156612502Y-32062942D01*
X156812503Y-32034371D02*
X156955360Y-32634371D01*
X156955360Y-32634371D02*
X157069646Y-32205800D01*
X157069646Y-32205800D02*
X157183931Y-32634371D01*
X157183931Y-32634371D02*
X157326789Y-32034371D01*
X178147646Y-75074371D02*
X178147646Y-74474371D01*
X178147646Y-74474371D02*
X178347646Y-74902942D01*
X178347646Y-74902942D02*
X178547646Y-74474371D01*
X178547646Y-74474371D02*
X178547646Y-75074371D01*
X179290503Y-74845800D02*
X179747646Y-74845800D01*
X180804788Y-74502942D02*
X180747646Y-74474371D01*
X180747646Y-74474371D02*
X180661931Y-74474371D01*
X180661931Y-74474371D02*
X180576217Y-74502942D01*
X180576217Y-74502942D02*
X180519074Y-74560085D01*
X180519074Y-74560085D02*
X180490503Y-74617228D01*
X180490503Y-74617228D02*
X180461931Y-74731514D01*
X180461931Y-74731514D02*
X180461931Y-74817228D01*
X180461931Y-74817228D02*
X180490503Y-74931514D01*
X180490503Y-74931514D02*
X180519074Y-74988657D01*
X180519074Y-74988657D02*
X180576217Y-75045800D01*
X180576217Y-75045800D02*
X180661931Y-75074371D01*
X180661931Y-75074371D02*
X180719074Y-75074371D01*
X180719074Y-75074371D02*
X180804788Y-75045800D01*
X180804788Y-75045800D02*
X180833360Y-75017228D01*
X180833360Y-75017228D02*
X180833360Y-74817228D01*
X180833360Y-74817228D02*
X180719074Y-74817228D01*
X181090503Y-75074371D02*
X181090503Y-74474371D01*
X181090503Y-74474371D02*
X181433360Y-75074371D01*
X181433360Y-75074371D02*
X181433360Y-74474371D01*
X181719074Y-75074371D02*
X181719074Y-74474371D01*
X181719074Y-74474371D02*
X181861931Y-74474371D01*
X181861931Y-74474371D02*
X181947645Y-74502942D01*
X181947645Y-74502942D02*
X182004788Y-74560085D01*
X182004788Y-74560085D02*
X182033359Y-74617228D01*
X182033359Y-74617228D02*
X182061931Y-74731514D01*
X182061931Y-74731514D02*
X182061931Y-74817228D01*
X182061931Y-74817228D02*
X182033359Y-74931514D01*
X182033359Y-74931514D02*
X182004788Y-74988657D01*
X182004788Y-74988657D02*
X181947645Y-75045800D01*
X181947645Y-75045800D02*
X181861931Y-75074371D01*
X181861931Y-75074371D02*
X181719074Y-75074371D01*
X182776217Y-74845800D02*
X183233360Y-74845800D01*
X183947645Y-75045800D02*
X184033360Y-75074371D01*
X184033360Y-75074371D02*
X184176217Y-75074371D01*
X184176217Y-75074371D02*
X184233360Y-75045800D01*
X184233360Y-75045800D02*
X184261931Y-75017228D01*
X184261931Y-75017228D02*
X184290502Y-74960085D01*
X184290502Y-74960085D02*
X184290502Y-74902942D01*
X184290502Y-74902942D02*
X184261931Y-74845800D01*
X184261931Y-74845800D02*
X184233360Y-74817228D01*
X184233360Y-74817228D02*
X184176217Y-74788657D01*
X184176217Y-74788657D02*
X184061931Y-74760085D01*
X184061931Y-74760085D02*
X184004788Y-74731514D01*
X184004788Y-74731514D02*
X183976217Y-74702942D01*
X183976217Y-74702942D02*
X183947645Y-74645800D01*
X183947645Y-74645800D02*
X183947645Y-74588657D01*
X183947645Y-74588657D02*
X183976217Y-74531514D01*
X183976217Y-74531514D02*
X184004788Y-74502942D01*
X184004788Y-74502942D02*
X184061931Y-74474371D01*
X184061931Y-74474371D02*
X184204788Y-74474371D01*
X184204788Y-74474371D02*
X184290502Y-74502942D01*
X184490503Y-74474371D02*
X184633360Y-75074371D01*
X184633360Y-75074371D02*
X184747646Y-74645800D01*
X184747646Y-74645800D02*
X184861931Y-75074371D01*
X184861931Y-75074371D02*
X185004789Y-74474371D01*
X140764646Y-75458371D02*
X140764646Y-74858371D01*
X140764646Y-74858371D02*
X140964646Y-75286942D01*
X140964646Y-75286942D02*
X141164646Y-74858371D01*
X141164646Y-74858371D02*
X141164646Y-75458371D01*
X141907503Y-75229800D02*
X142364646Y-75229800D01*
X143421788Y-74886942D02*
X143364646Y-74858371D01*
X143364646Y-74858371D02*
X143278931Y-74858371D01*
X143278931Y-74858371D02*
X143193217Y-74886942D01*
X143193217Y-74886942D02*
X143136074Y-74944085D01*
X143136074Y-74944085D02*
X143107503Y-75001228D01*
X143107503Y-75001228D02*
X143078931Y-75115514D01*
X143078931Y-75115514D02*
X143078931Y-75201228D01*
X143078931Y-75201228D02*
X143107503Y-75315514D01*
X143107503Y-75315514D02*
X143136074Y-75372657D01*
X143136074Y-75372657D02*
X143193217Y-75429800D01*
X143193217Y-75429800D02*
X143278931Y-75458371D01*
X143278931Y-75458371D02*
X143336074Y-75458371D01*
X143336074Y-75458371D02*
X143421788Y-75429800D01*
X143421788Y-75429800D02*
X143450360Y-75401228D01*
X143450360Y-75401228D02*
X143450360Y-75201228D01*
X143450360Y-75201228D02*
X143336074Y-75201228D01*
X143707503Y-75458371D02*
X143707503Y-74858371D01*
X143707503Y-74858371D02*
X144050360Y-75458371D01*
X144050360Y-75458371D02*
X144050360Y-74858371D01*
X144336074Y-75458371D02*
X144336074Y-74858371D01*
X144336074Y-74858371D02*
X144478931Y-74858371D01*
X144478931Y-74858371D02*
X144564645Y-74886942D01*
X144564645Y-74886942D02*
X144621788Y-74944085D01*
X144621788Y-74944085D02*
X144650359Y-75001228D01*
X144650359Y-75001228D02*
X144678931Y-75115514D01*
X144678931Y-75115514D02*
X144678931Y-75201228D01*
X144678931Y-75201228D02*
X144650359Y-75315514D01*
X144650359Y-75315514D02*
X144621788Y-75372657D01*
X144621788Y-75372657D02*
X144564645Y-75429800D01*
X144564645Y-75429800D02*
X144478931Y-75458371D01*
X144478931Y-75458371D02*
X144336074Y-75458371D01*
X145393217Y-75229800D02*
X145850360Y-75229800D01*
X146564645Y-75429800D02*
X146650360Y-75458371D01*
X146650360Y-75458371D02*
X146793217Y-75458371D01*
X146793217Y-75458371D02*
X146850360Y-75429800D01*
X146850360Y-75429800D02*
X146878931Y-75401228D01*
X146878931Y-75401228D02*
X146907502Y-75344085D01*
X146907502Y-75344085D02*
X146907502Y-75286942D01*
X146907502Y-75286942D02*
X146878931Y-75229800D01*
X146878931Y-75229800D02*
X146850360Y-75201228D01*
X146850360Y-75201228D02*
X146793217Y-75172657D01*
X146793217Y-75172657D02*
X146678931Y-75144085D01*
X146678931Y-75144085D02*
X146621788Y-75115514D01*
X146621788Y-75115514D02*
X146593217Y-75086942D01*
X146593217Y-75086942D02*
X146564645Y-75029800D01*
X146564645Y-75029800D02*
X146564645Y-74972657D01*
X146564645Y-74972657D02*
X146593217Y-74915514D01*
X146593217Y-74915514D02*
X146621788Y-74886942D01*
X146621788Y-74886942D02*
X146678931Y-74858371D01*
X146678931Y-74858371D02*
X146821788Y-74858371D01*
X146821788Y-74858371D02*
X146907502Y-74886942D01*
X147107503Y-74858371D02*
X147250360Y-75458371D01*
X147250360Y-75458371D02*
X147364646Y-75029800D01*
X147364646Y-75029800D02*
X147478931Y-75458371D01*
X147478931Y-75458371D02*
X147621789Y-74858371D01*
D10*
X156762482Y-72604838D02*
X156667244Y-72557219D01*
X156667244Y-72557219D02*
X156524387Y-72557219D01*
X156524387Y-72557219D02*
X156381530Y-72604838D01*
X156381530Y-72604838D02*
X156286292Y-72700076D01*
X156286292Y-72700076D02*
X156238673Y-72795314D01*
X156238673Y-72795314D02*
X156191054Y-72985790D01*
X156191054Y-72985790D02*
X156191054Y-73128647D01*
X156191054Y-73128647D02*
X156238673Y-73319123D01*
X156238673Y-73319123D02*
X156286292Y-73414361D01*
X156286292Y-73414361D02*
X156381530Y-73509600D01*
X156381530Y-73509600D02*
X156524387Y-73557219D01*
X156524387Y-73557219D02*
X156619625Y-73557219D01*
X156619625Y-73557219D02*
X156762482Y-73509600D01*
X156762482Y-73509600D02*
X156810101Y-73461980D01*
X156810101Y-73461980D02*
X156810101Y-73128647D01*
X156810101Y-73128647D02*
X156619625Y-73128647D01*
X157238673Y-73557219D02*
X157238673Y-72557219D01*
X157238673Y-72557219D02*
X157810101Y-73557219D01*
X157810101Y-73557219D02*
X157810101Y-72557219D01*
X158286292Y-73557219D02*
X158286292Y-72557219D01*
X158286292Y-72557219D02*
X158524387Y-72557219D01*
X158524387Y-72557219D02*
X158667244Y-72604838D01*
X158667244Y-72604838D02*
X158762482Y-72700076D01*
X158762482Y-72700076D02*
X158810101Y-72795314D01*
X158810101Y-72795314D02*
X158857720Y-72985790D01*
X158857720Y-72985790D02*
X158857720Y-73128647D01*
X158857720Y-73128647D02*
X158810101Y-73319123D01*
X158810101Y-73319123D02*
X158762482Y-73414361D01*
X158762482Y-73414361D02*
X158667244Y-73509600D01*
X158667244Y-73509600D02*
X158524387Y-73557219D01*
X158524387Y-73557219D02*
X158286292Y-73557219D01*
X159524387Y-73890552D02*
X159524387Y-72461980D01*
X160095816Y-72557219D02*
X160429149Y-73557219D01*
X160429149Y-73557219D02*
X160762482Y-72557219D01*
X161667244Y-73461980D02*
X161619625Y-73509600D01*
X161619625Y-73509600D02*
X161476768Y-73557219D01*
X161476768Y-73557219D02*
X161381530Y-73557219D01*
X161381530Y-73557219D02*
X161238673Y-73509600D01*
X161238673Y-73509600D02*
X161143435Y-73414361D01*
X161143435Y-73414361D02*
X161095816Y-73319123D01*
X161095816Y-73319123D02*
X161048197Y-73128647D01*
X161048197Y-73128647D02*
X161048197Y-72985790D01*
X161048197Y-72985790D02*
X161095816Y-72795314D01*
X161095816Y-72795314D02*
X161143435Y-72700076D01*
X161143435Y-72700076D02*
X161238673Y-72604838D01*
X161238673Y-72604838D02*
X161381530Y-72557219D01*
X161381530Y-72557219D02*
X161476768Y-72557219D01*
X161476768Y-72557219D02*
X161619625Y-72604838D01*
X161619625Y-72604838D02*
X161667244Y-72652457D01*
X162667244Y-73461980D02*
X162619625Y-73509600D01*
X162619625Y-73509600D02*
X162476768Y-73557219D01*
X162476768Y-73557219D02*
X162381530Y-73557219D01*
X162381530Y-73557219D02*
X162238673Y-73509600D01*
X162238673Y-73509600D02*
X162143435Y-73414361D01*
X162143435Y-73414361D02*
X162095816Y-73319123D01*
X162095816Y-73319123D02*
X162048197Y-73128647D01*
X162048197Y-73128647D02*
X162048197Y-72985790D01*
X162048197Y-72985790D02*
X162095816Y-72795314D01*
X162095816Y-72795314D02*
X162143435Y-72700076D01*
X162143435Y-72700076D02*
X162238673Y-72604838D01*
X162238673Y-72604838D02*
X162381530Y-72557219D01*
X162381530Y-72557219D02*
X162476768Y-72557219D01*
X162476768Y-72557219D02*
X162619625Y-72604838D01*
X162619625Y-72604838D02*
X162667244Y-72652457D01*
D11*
X153236800Y-66893237D02*
X153284419Y-66750380D01*
X153284419Y-66750380D02*
X153284419Y-66512285D01*
X153284419Y-66512285D02*
X153236800Y-66417047D01*
X153236800Y-66417047D02*
X153189180Y-66369428D01*
X153189180Y-66369428D02*
X153093942Y-66321809D01*
X153093942Y-66321809D02*
X152998704Y-66321809D01*
X152998704Y-66321809D02*
X152903466Y-66369428D01*
X152903466Y-66369428D02*
X152855847Y-66417047D01*
X152855847Y-66417047D02*
X152808228Y-66512285D01*
X152808228Y-66512285D02*
X152760609Y-66702761D01*
X152760609Y-66702761D02*
X152712990Y-66797999D01*
X152712990Y-66797999D02*
X152665371Y-66845618D01*
X152665371Y-66845618D02*
X152570133Y-66893237D01*
X152570133Y-66893237D02*
X152474895Y-66893237D01*
X152474895Y-66893237D02*
X152379657Y-66845618D01*
X152379657Y-66845618D02*
X152332038Y-66797999D01*
X152332038Y-66797999D02*
X152284419Y-66702761D01*
X152284419Y-66702761D02*
X152284419Y-66464666D01*
X152284419Y-66464666D02*
X152332038Y-66321809D01*
X152284419Y-66036094D02*
X152284419Y-65464666D01*
X153284419Y-65750380D02*
X152284419Y-65750380D01*
X152760609Y-65131332D02*
X152760609Y-64797999D01*
X153284419Y-64655142D02*
X153284419Y-65131332D01*
X153284419Y-65131332D02*
X152284419Y-65131332D01*
X152284419Y-65131332D02*
X152284419Y-64655142D01*
X153284419Y-64226570D02*
X152284419Y-64226570D01*
X152284419Y-64226570D02*
X152284419Y-63845618D01*
X152284419Y-63845618D02*
X152332038Y-63750380D01*
X152332038Y-63750380D02*
X152379657Y-63702761D01*
X152379657Y-63702761D02*
X152474895Y-63655142D01*
X152474895Y-63655142D02*
X152617752Y-63655142D01*
X152617752Y-63655142D02*
X152712990Y-63702761D01*
X152712990Y-63702761D02*
X152760609Y-63750380D01*
X152760609Y-63750380D02*
X152808228Y-63845618D01*
X152808228Y-63845618D02*
X152808228Y-64226570D01*
X153379657Y-63464666D02*
X153379657Y-62702761D01*
X153284419Y-62464665D02*
X152284419Y-62464665D01*
X152284419Y-62464665D02*
X152284419Y-62226570D01*
X152284419Y-62226570D02*
X152332038Y-62083713D01*
X152332038Y-62083713D02*
X152427276Y-61988475D01*
X152427276Y-61988475D02*
X152522514Y-61940856D01*
X152522514Y-61940856D02*
X152712990Y-61893237D01*
X152712990Y-61893237D02*
X152855847Y-61893237D01*
X152855847Y-61893237D02*
X153046323Y-61940856D01*
X153046323Y-61940856D02*
X153141561Y-61988475D01*
X153141561Y-61988475D02*
X153236800Y-62083713D01*
X153236800Y-62083713D02*
X153284419Y-62226570D01*
X153284419Y-62226570D02*
X153284419Y-62464665D01*
X152284419Y-61274189D02*
X152284419Y-61083713D01*
X152284419Y-61083713D02*
X152332038Y-60988475D01*
X152332038Y-60988475D02*
X152427276Y-60893237D01*
X152427276Y-60893237D02*
X152617752Y-60845618D01*
X152617752Y-60845618D02*
X152951085Y-60845618D01*
X152951085Y-60845618D02*
X153141561Y-60893237D01*
X153141561Y-60893237D02*
X153236800Y-60988475D01*
X153236800Y-60988475D02*
X153284419Y-61083713D01*
X153284419Y-61083713D02*
X153284419Y-61274189D01*
X153284419Y-61274189D02*
X153236800Y-61369427D01*
X153236800Y-61369427D02*
X153141561Y-61464665D01*
X153141561Y-61464665D02*
X152951085Y-61512284D01*
X152951085Y-61512284D02*
X152617752Y-61512284D01*
X152617752Y-61512284D02*
X152427276Y-61464665D01*
X152427276Y-61464665D02*
X152332038Y-61369427D01*
X152332038Y-61369427D02*
X152284419Y-61274189D01*
X152284419Y-60512284D02*
X153284419Y-60274189D01*
X153284419Y-60274189D02*
X152570133Y-60083713D01*
X152570133Y-60083713D02*
X153284419Y-59893237D01*
X153284419Y-59893237D02*
X152284419Y-59655142D01*
X153284419Y-59274189D02*
X152284419Y-59274189D01*
X152284419Y-59274189D02*
X153284419Y-58702761D01*
X153284419Y-58702761D02*
X152284419Y-58702761D01*
X153284419Y-57702761D02*
X153284419Y-58274189D01*
X153284419Y-57988475D02*
X152284419Y-57988475D01*
X152284419Y-57988475D02*
X152427276Y-58083713D01*
X152427276Y-58083713D02*
X152522514Y-58178951D01*
X152522514Y-58178951D02*
X152570133Y-58274189D01*
D12*
X151454819Y-37261904D02*
X152264342Y-37261904D01*
X152264342Y-37261904D02*
X152359580Y-37214285D01*
X152359580Y-37214285D02*
X152407200Y-37166666D01*
X152407200Y-37166666D02*
X152454819Y-37071428D01*
X152454819Y-37071428D02*
X152454819Y-36880952D01*
X152454819Y-36880952D02*
X152407200Y-36785714D01*
X152407200Y-36785714D02*
X152359580Y-36738095D01*
X152359580Y-36738095D02*
X152264342Y-36690476D01*
X152264342Y-36690476D02*
X151454819Y-36690476D01*
X152454819Y-35690476D02*
X152454819Y-36261904D01*
X152454819Y-35976190D02*
X151454819Y-35976190D01*
X151454819Y-35976190D02*
X151597676Y-36071428D01*
X151597676Y-36071428D02*
X151692914Y-36166666D01*
X151692914Y-36166666D02*
X151740533Y-36261904D01*
X140463095Y-31584819D02*
X140463095Y-30584819D01*
X140463095Y-31061009D02*
X141034523Y-31061009D01*
X141034523Y-31584819D02*
X141034523Y-30584819D01*
X142034523Y-31584819D02*
X141463095Y-31584819D01*
X141748809Y-31584819D02*
X141748809Y-30584819D01*
X141748809Y-30584819D02*
X141653571Y-30727676D01*
X141653571Y-30727676D02*
X141558333Y-30822914D01*
X141558333Y-30822914D02*
X141463095Y-30870533D01*
X193784095Y-31435819D02*
X193784095Y-30435819D01*
X193784095Y-30912009D02*
X194355523Y-30912009D01*
X194355523Y-31435819D02*
X194355523Y-30435819D01*
X194784095Y-30531057D02*
X194831714Y-30483438D01*
X194831714Y-30483438D02*
X194926952Y-30435819D01*
X194926952Y-30435819D02*
X195165047Y-30435819D01*
X195165047Y-30435819D02*
X195260285Y-30483438D01*
X195260285Y-30483438D02*
X195307904Y-30531057D01*
X195307904Y-30531057D02*
X195355523Y-30626295D01*
X195355523Y-30626295D02*
X195355523Y-30721533D01*
X195355523Y-30721533D02*
X195307904Y-30864390D01*
X195307904Y-30864390D02*
X194736476Y-31435819D01*
X194736476Y-31435819D02*
X195355523Y-31435819D01*
X186237095Y-76570819D02*
X186237095Y-75570819D01*
X186237095Y-76047009D02*
X186808523Y-76047009D01*
X186808523Y-76570819D02*
X186808523Y-75570819D01*
X187189476Y-75570819D02*
X187808523Y-75570819D01*
X187808523Y-75570819D02*
X187475190Y-75951771D01*
X187475190Y-75951771D02*
X187618047Y-75951771D01*
X187618047Y-75951771D02*
X187713285Y-75999390D01*
X187713285Y-75999390D02*
X187760904Y-76047009D01*
X187760904Y-76047009D02*
X187808523Y-76142247D01*
X187808523Y-76142247D02*
X187808523Y-76380342D01*
X187808523Y-76380342D02*
X187760904Y-76475580D01*
X187760904Y-76475580D02*
X187713285Y-76523200D01*
X187713285Y-76523200D02*
X187618047Y-76570819D01*
X187618047Y-76570819D02*
X187332333Y-76570819D01*
X187332333Y-76570819D02*
X187237095Y-76523200D01*
X187237095Y-76523200D02*
X187189476Y-76475580D01*
X136667095Y-73621819D02*
X136667095Y-72621819D01*
X136667095Y-73098009D02*
X137238523Y-73098009D01*
X137238523Y-73621819D02*
X137238523Y-72621819D01*
X138143285Y-72955152D02*
X138143285Y-73621819D01*
X137905190Y-72574200D02*
X137667095Y-73288485D01*
X137667095Y-73288485D02*
X138286142Y-73288485D01*
X185666667Y-66407200D02*
X185809524Y-66454819D01*
X185809524Y-66454819D02*
X186047619Y-66454819D01*
X186047619Y-66454819D02*
X186142857Y-66407200D01*
X186142857Y-66407200D02*
X186190476Y-66359580D01*
X186190476Y-66359580D02*
X186238095Y-66264342D01*
X186238095Y-66264342D02*
X186238095Y-66169104D01*
X186238095Y-66169104D02*
X186190476Y-66073866D01*
X186190476Y-66073866D02*
X186142857Y-66026247D01*
X186142857Y-66026247D02*
X186047619Y-65978628D01*
X186047619Y-65978628D02*
X185857143Y-65931009D01*
X185857143Y-65931009D02*
X185761905Y-65883390D01*
X185761905Y-65883390D02*
X185714286Y-65835771D01*
X185714286Y-65835771D02*
X185666667Y-65740533D01*
X185666667Y-65740533D02*
X185666667Y-65645295D01*
X185666667Y-65645295D02*
X185714286Y-65550057D01*
X185714286Y-65550057D02*
X185761905Y-65502438D01*
X185761905Y-65502438D02*
X185857143Y-65454819D01*
X185857143Y-65454819D02*
X186095238Y-65454819D01*
X186095238Y-65454819D02*
X186238095Y-65502438D01*
X186571429Y-65454819D02*
X186809524Y-66454819D01*
X186809524Y-66454819D02*
X187000000Y-65740533D01*
X187000000Y-65740533D02*
X187190476Y-66454819D01*
X187190476Y-66454819D02*
X187428572Y-65454819D01*
X187714286Y-65454819D02*
X188333333Y-65454819D01*
X188333333Y-65454819D02*
X188000000Y-65835771D01*
X188000000Y-65835771D02*
X188142857Y-65835771D01*
X188142857Y-65835771D02*
X188238095Y-65883390D01*
X188238095Y-65883390D02*
X188285714Y-65931009D01*
X188285714Y-65931009D02*
X188333333Y-66026247D01*
X188333333Y-66026247D02*
X188333333Y-66264342D01*
X188333333Y-66264342D02*
X188285714Y-66359580D01*
X188285714Y-66359580D02*
X188238095Y-66407200D01*
X188238095Y-66407200D02*
X188142857Y-66454819D01*
X188142857Y-66454819D02*
X187857143Y-66454819D01*
X187857143Y-66454819D02*
X187761905Y-66407200D01*
X187761905Y-66407200D02*
X187714286Y-66359580D01*
X187281666Y-31384819D02*
X187281666Y-32099104D01*
X187281666Y-32099104D02*
X187234047Y-32241961D01*
X187234047Y-32241961D02*
X187138809Y-32337200D01*
X187138809Y-32337200D02*
X186995952Y-32384819D01*
X186995952Y-32384819D02*
X186900714Y-32384819D01*
X188281666Y-32384819D02*
X187710238Y-32384819D01*
X187995952Y-32384819D02*
X187995952Y-31384819D01*
X187995952Y-31384819D02*
X187900714Y-31527676D01*
X187900714Y-31527676D02*
X187805476Y-31622914D01*
X187805476Y-31622914D02*
X187710238Y-31670533D01*
D13*
X182250562Y-69116666D02*
X182283896Y-69149999D01*
X182283896Y-69149999D02*
X182317229Y-69249999D01*
X182317229Y-69249999D02*
X182317229Y-69316666D01*
X182317229Y-69316666D02*
X182283896Y-69416666D01*
X182283896Y-69416666D02*
X182217229Y-69483333D01*
X182217229Y-69483333D02*
X182150562Y-69516666D01*
X182150562Y-69516666D02*
X182017229Y-69549999D01*
X182017229Y-69549999D02*
X181917229Y-69549999D01*
X181917229Y-69549999D02*
X181783896Y-69516666D01*
X181783896Y-69516666D02*
X181717229Y-69483333D01*
X181717229Y-69483333D02*
X181650562Y-69416666D01*
X181650562Y-69416666D02*
X181617229Y-69316666D01*
X181617229Y-69316666D02*
X181617229Y-69249999D01*
X181617229Y-69249999D02*
X181650562Y-69149999D01*
X181650562Y-69149999D02*
X181683896Y-69116666D01*
X181683896Y-68849999D02*
X181650562Y-68816666D01*
X181650562Y-68816666D02*
X181617229Y-68749999D01*
X181617229Y-68749999D02*
X181617229Y-68583333D01*
X181617229Y-68583333D02*
X181650562Y-68516666D01*
X181650562Y-68516666D02*
X181683896Y-68483333D01*
X181683896Y-68483333D02*
X181750562Y-68449999D01*
X181750562Y-68449999D02*
X181817229Y-68449999D01*
X181817229Y-68449999D02*
X181917229Y-68483333D01*
X181917229Y-68483333D02*
X182317229Y-68883333D01*
X182317229Y-68883333D02*
X182317229Y-68449999D01*
D12*
X194954819Y-55642857D02*
X194478628Y-55976190D01*
X194954819Y-56214285D02*
X193954819Y-56214285D01*
X193954819Y-56214285D02*
X193954819Y-55833333D01*
X193954819Y-55833333D02*
X194002438Y-55738095D01*
X194002438Y-55738095D02*
X194050057Y-55690476D01*
X194050057Y-55690476D02*
X194145295Y-55642857D01*
X194145295Y-55642857D02*
X194288152Y-55642857D01*
X194288152Y-55642857D02*
X194383390Y-55690476D01*
X194383390Y-55690476D02*
X194431009Y-55738095D01*
X194431009Y-55738095D02*
X194478628Y-55833333D01*
X194478628Y-55833333D02*
X194478628Y-56214285D01*
X194050057Y-55261904D02*
X194002438Y-55214285D01*
X194002438Y-55214285D02*
X193954819Y-55119047D01*
X193954819Y-55119047D02*
X193954819Y-54880952D01*
X193954819Y-54880952D02*
X194002438Y-54785714D01*
X194002438Y-54785714D02*
X194050057Y-54738095D01*
X194050057Y-54738095D02*
X194145295Y-54690476D01*
X194145295Y-54690476D02*
X194240533Y-54690476D01*
X194240533Y-54690476D02*
X194383390Y-54738095D01*
X194383390Y-54738095D02*
X194954819Y-55309523D01*
X194954819Y-55309523D02*
X194954819Y-54690476D01*
X193954819Y-53785714D02*
X193954819Y-54261904D01*
X193954819Y-54261904D02*
X194431009Y-54309523D01*
X194431009Y-54309523D02*
X194383390Y-54261904D01*
X194383390Y-54261904D02*
X194335771Y-54166666D01*
X194335771Y-54166666D02*
X194335771Y-53928571D01*
X194335771Y-53928571D02*
X194383390Y-53833333D01*
X194383390Y-53833333D02*
X194431009Y-53785714D01*
X194431009Y-53785714D02*
X194526247Y-53738095D01*
X194526247Y-53738095D02*
X194764342Y-53738095D01*
X194764342Y-53738095D02*
X194859580Y-53785714D01*
X194859580Y-53785714D02*
X194907200Y-53833333D01*
X194907200Y-53833333D02*
X194954819Y-53928571D01*
X194954819Y-53928571D02*
X194954819Y-54166666D01*
X194954819Y-54166666D02*
X194907200Y-54261904D01*
X194907200Y-54261904D02*
X194859580Y-54309523D01*
D13*
X194883896Y-42066666D02*
X194850562Y-42133333D01*
X194850562Y-42133333D02*
X194783896Y-42200000D01*
X194783896Y-42200000D02*
X194683896Y-42300000D01*
X194683896Y-42300000D02*
X194650562Y-42366666D01*
X194650562Y-42366666D02*
X194650562Y-42433333D01*
X194817229Y-42400000D02*
X194783896Y-42466666D01*
X194783896Y-42466666D02*
X194717229Y-42533333D01*
X194717229Y-42533333D02*
X194583896Y-42566666D01*
X194583896Y-42566666D02*
X194350562Y-42566666D01*
X194350562Y-42566666D02*
X194217229Y-42533333D01*
X194217229Y-42533333D02*
X194150562Y-42466666D01*
X194150562Y-42466666D02*
X194117229Y-42400000D01*
X194117229Y-42400000D02*
X194117229Y-42266666D01*
X194117229Y-42266666D02*
X194150562Y-42200000D01*
X194150562Y-42200000D02*
X194217229Y-42133333D01*
X194217229Y-42133333D02*
X194350562Y-42100000D01*
X194350562Y-42100000D02*
X194583896Y-42100000D01*
X194583896Y-42100000D02*
X194717229Y-42133333D01*
X194717229Y-42133333D02*
X194783896Y-42200000D01*
X194783896Y-42200000D02*
X194817229Y-42266666D01*
X194817229Y-42266666D02*
X194817229Y-42400000D01*
X194117229Y-41466667D02*
X194117229Y-41800000D01*
X194117229Y-41800000D02*
X194450562Y-41833333D01*
X194450562Y-41833333D02*
X194417229Y-41800000D01*
X194417229Y-41800000D02*
X194383896Y-41733333D01*
X194383896Y-41733333D02*
X194383896Y-41566667D01*
X194383896Y-41566667D02*
X194417229Y-41500000D01*
X194417229Y-41500000D02*
X194450562Y-41466667D01*
X194450562Y-41466667D02*
X194517229Y-41433333D01*
X194517229Y-41433333D02*
X194683896Y-41433333D01*
X194683896Y-41433333D02*
X194750562Y-41466667D01*
X194750562Y-41466667D02*
X194783896Y-41500000D01*
X194783896Y-41500000D02*
X194817229Y-41566667D01*
X194817229Y-41566667D02*
X194817229Y-41733333D01*
X194817229Y-41733333D02*
X194783896Y-41800000D01*
X194783896Y-41800000D02*
X194750562Y-41833333D01*
D12*
X192833333Y-66454819D02*
X192500000Y-65978628D01*
X192261905Y-66454819D02*
X192261905Y-65454819D01*
X192261905Y-65454819D02*
X192642857Y-65454819D01*
X192642857Y-65454819D02*
X192738095Y-65502438D01*
X192738095Y-65502438D02*
X192785714Y-65550057D01*
X192785714Y-65550057D02*
X192833333Y-65645295D01*
X192833333Y-65645295D02*
X192833333Y-65788152D01*
X192833333Y-65788152D02*
X192785714Y-65883390D01*
X192785714Y-65883390D02*
X192738095Y-65931009D01*
X192738095Y-65931009D02*
X192642857Y-65978628D01*
X192642857Y-65978628D02*
X192261905Y-65978628D01*
X193214286Y-65550057D02*
X193261905Y-65502438D01*
X193261905Y-65502438D02*
X193357143Y-65454819D01*
X193357143Y-65454819D02*
X193595238Y-65454819D01*
X193595238Y-65454819D02*
X193690476Y-65502438D01*
X193690476Y-65502438D02*
X193738095Y-65550057D01*
X193738095Y-65550057D02*
X193785714Y-65645295D01*
X193785714Y-65645295D02*
X193785714Y-65740533D01*
X193785714Y-65740533D02*
X193738095Y-65883390D01*
X193738095Y-65883390D02*
X193166667Y-66454819D01*
X193166667Y-66454819D02*
X193785714Y-66454819D01*
D13*
X183883333Y-66250562D02*
X183850000Y-66283896D01*
X183850000Y-66283896D02*
X183750000Y-66317229D01*
X183750000Y-66317229D02*
X183683333Y-66317229D01*
X183683333Y-66317229D02*
X183583333Y-66283896D01*
X183583333Y-66283896D02*
X183516667Y-66217229D01*
X183516667Y-66217229D02*
X183483333Y-66150562D01*
X183483333Y-66150562D02*
X183450000Y-66017229D01*
X183450000Y-66017229D02*
X183450000Y-65917229D01*
X183450000Y-65917229D02*
X183483333Y-65783896D01*
X183483333Y-65783896D02*
X183516667Y-65717229D01*
X183516667Y-65717229D02*
X183583333Y-65650562D01*
X183583333Y-65650562D02*
X183683333Y-65617229D01*
X183683333Y-65617229D02*
X183750000Y-65617229D01*
X183750000Y-65617229D02*
X183850000Y-65650562D01*
X183850000Y-65650562D02*
X183883333Y-65683896D01*
X184550000Y-66317229D02*
X184150000Y-66317229D01*
X184350000Y-66317229D02*
X184350000Y-65617229D01*
X184350000Y-65617229D02*
X184283333Y-65717229D01*
X184283333Y-65717229D02*
X184216667Y-65783896D01*
X184216667Y-65783896D02*
X184150000Y-65817229D01*
X185933333Y-40383896D02*
X185866666Y-40350562D01*
X185866666Y-40350562D02*
X185800000Y-40283896D01*
X185800000Y-40283896D02*
X185700000Y-40183896D01*
X185700000Y-40183896D02*
X185633333Y-40150562D01*
X185633333Y-40150562D02*
X185566666Y-40150562D01*
X185600000Y-40317229D02*
X185533333Y-40283896D01*
X185533333Y-40283896D02*
X185466666Y-40217229D01*
X185466666Y-40217229D02*
X185433333Y-40083896D01*
X185433333Y-40083896D02*
X185433333Y-39850562D01*
X185433333Y-39850562D02*
X185466666Y-39717229D01*
X185466666Y-39717229D02*
X185533333Y-39650562D01*
X185533333Y-39650562D02*
X185600000Y-39617229D01*
X185600000Y-39617229D02*
X185733333Y-39617229D01*
X185733333Y-39617229D02*
X185800000Y-39650562D01*
X185800000Y-39650562D02*
X185866666Y-39717229D01*
X185866666Y-39717229D02*
X185900000Y-39850562D01*
X185900000Y-39850562D02*
X185900000Y-40083896D01*
X185900000Y-40083896D02*
X185866666Y-40217229D01*
X185866666Y-40217229D02*
X185800000Y-40283896D01*
X185800000Y-40283896D02*
X185733333Y-40317229D01*
X185733333Y-40317229D02*
X185600000Y-40317229D01*
X186499999Y-39617229D02*
X186366666Y-39617229D01*
X186366666Y-39617229D02*
X186299999Y-39650562D01*
X186299999Y-39650562D02*
X186266666Y-39683896D01*
X186266666Y-39683896D02*
X186199999Y-39783896D01*
X186199999Y-39783896D02*
X186166666Y-39917229D01*
X186166666Y-39917229D02*
X186166666Y-40183896D01*
X186166666Y-40183896D02*
X186199999Y-40250562D01*
X186199999Y-40250562D02*
X186233333Y-40283896D01*
X186233333Y-40283896D02*
X186299999Y-40317229D01*
X186299999Y-40317229D02*
X186433333Y-40317229D01*
X186433333Y-40317229D02*
X186499999Y-40283896D01*
X186499999Y-40283896D02*
X186533333Y-40250562D01*
X186533333Y-40250562D02*
X186566666Y-40183896D01*
X186566666Y-40183896D02*
X186566666Y-40017229D01*
X186566666Y-40017229D02*
X186533333Y-39950562D01*
X186533333Y-39950562D02*
X186499999Y-39917229D01*
X186499999Y-39917229D02*
X186433333Y-39883896D01*
X186433333Y-39883896D02*
X186299999Y-39883896D01*
X186299999Y-39883896D02*
X186233333Y-39917229D01*
X186233333Y-39917229D02*
X186199999Y-39950562D01*
X186199999Y-39950562D02*
X186166666Y-40017229D01*
X192883333Y-37600562D02*
X192850000Y-37633896D01*
X192850000Y-37633896D02*
X192750000Y-37667229D01*
X192750000Y-37667229D02*
X192683333Y-37667229D01*
X192683333Y-37667229D02*
X192583333Y-37633896D01*
X192583333Y-37633896D02*
X192516667Y-37567229D01*
X192516667Y-37567229D02*
X192483333Y-37500562D01*
X192483333Y-37500562D02*
X192450000Y-37367229D01*
X192450000Y-37367229D02*
X192450000Y-37267229D01*
X192450000Y-37267229D02*
X192483333Y-37133896D01*
X192483333Y-37133896D02*
X192516667Y-37067229D01*
X192516667Y-37067229D02*
X192583333Y-37000562D01*
X192583333Y-37000562D02*
X192683333Y-36967229D01*
X192683333Y-36967229D02*
X192750000Y-36967229D01*
X192750000Y-36967229D02*
X192850000Y-37000562D01*
X192850000Y-37000562D02*
X192883333Y-37033896D01*
X193483333Y-37200562D02*
X193483333Y-37667229D01*
X193316667Y-36933896D02*
X193150000Y-37433896D01*
X193150000Y-37433896D02*
X193583333Y-37433896D01*
D12*
X193183285Y-34746771D02*
X192983285Y-34461057D01*
X192840428Y-34746771D02*
X192840428Y-34146771D01*
X192840428Y-34146771D02*
X193068999Y-34146771D01*
X193068999Y-34146771D02*
X193126142Y-34175342D01*
X193126142Y-34175342D02*
X193154713Y-34203914D01*
X193154713Y-34203914D02*
X193183285Y-34261057D01*
X193183285Y-34261057D02*
X193183285Y-34346771D01*
X193183285Y-34346771D02*
X193154713Y-34403914D01*
X193154713Y-34403914D02*
X193126142Y-34432485D01*
X193126142Y-34432485D02*
X193068999Y-34461057D01*
X193068999Y-34461057D02*
X192840428Y-34461057D01*
X193754713Y-34746771D02*
X193411856Y-34746771D01*
X193583285Y-34746771D02*
X193583285Y-34146771D01*
X193583285Y-34146771D02*
X193526142Y-34232485D01*
X193526142Y-34232485D02*
X193468999Y-34289628D01*
X193468999Y-34289628D02*
X193411856Y-34318200D01*
X194269000Y-34346771D02*
X194269000Y-34746771D01*
X194126142Y-34118200D02*
X193983285Y-34546771D01*
X193983285Y-34546771D02*
X194354714Y-34546771D01*
X194954819Y-59666666D02*
X194478628Y-59999999D01*
X194954819Y-60238094D02*
X193954819Y-60238094D01*
X193954819Y-60238094D02*
X193954819Y-59857142D01*
X193954819Y-59857142D02*
X194002438Y-59761904D01*
X194002438Y-59761904D02*
X194050057Y-59714285D01*
X194050057Y-59714285D02*
X194145295Y-59666666D01*
X194145295Y-59666666D02*
X194288152Y-59666666D01*
X194288152Y-59666666D02*
X194383390Y-59714285D01*
X194383390Y-59714285D02*
X194431009Y-59761904D01*
X194431009Y-59761904D02*
X194478628Y-59857142D01*
X194478628Y-59857142D02*
X194478628Y-60238094D01*
X194954819Y-58714285D02*
X194954819Y-59285713D01*
X194954819Y-58999999D02*
X193954819Y-58999999D01*
X193954819Y-58999999D02*
X194097676Y-59095237D01*
X194097676Y-59095237D02*
X194192914Y-59190475D01*
X194192914Y-59190475D02*
X194240533Y-59285713D01*
X178658571Y-34859580D02*
X178610952Y-34907200D01*
X178610952Y-34907200D02*
X178468095Y-34954819D01*
X178468095Y-34954819D02*
X178372857Y-34954819D01*
X178372857Y-34954819D02*
X178230000Y-34907200D01*
X178230000Y-34907200D02*
X178134762Y-34811961D01*
X178134762Y-34811961D02*
X178087143Y-34716723D01*
X178087143Y-34716723D02*
X178039524Y-34526247D01*
X178039524Y-34526247D02*
X178039524Y-34383390D01*
X178039524Y-34383390D02*
X178087143Y-34192914D01*
X178087143Y-34192914D02*
X178134762Y-34097676D01*
X178134762Y-34097676D02*
X178230000Y-34002438D01*
X178230000Y-34002438D02*
X178372857Y-33954819D01*
X178372857Y-33954819D02*
X178468095Y-33954819D01*
X178468095Y-33954819D02*
X178610952Y-34002438D01*
X178610952Y-34002438D02*
X178658571Y-34050057D01*
X179230000Y-34954819D02*
X179134762Y-34907200D01*
X179134762Y-34907200D02*
X179087143Y-34859580D01*
X179087143Y-34859580D02*
X179039524Y-34764342D01*
X179039524Y-34764342D02*
X179039524Y-34478628D01*
X179039524Y-34478628D02*
X179087143Y-34383390D01*
X179087143Y-34383390D02*
X179134762Y-34335771D01*
X179134762Y-34335771D02*
X179230000Y-34288152D01*
X179230000Y-34288152D02*
X179372857Y-34288152D01*
X179372857Y-34288152D02*
X179468095Y-34335771D01*
X179468095Y-34335771D02*
X179515714Y-34383390D01*
X179515714Y-34383390D02*
X179563333Y-34478628D01*
X179563333Y-34478628D02*
X179563333Y-34764342D01*
X179563333Y-34764342D02*
X179515714Y-34859580D01*
X179515714Y-34859580D02*
X179468095Y-34907200D01*
X179468095Y-34907200D02*
X179372857Y-34954819D01*
X179372857Y-34954819D02*
X179230000Y-34954819D01*
X179991905Y-34288152D02*
X179991905Y-34954819D01*
X179991905Y-34383390D02*
X180039524Y-34335771D01*
X180039524Y-34335771D02*
X180134762Y-34288152D01*
X180134762Y-34288152D02*
X180277619Y-34288152D01*
X180277619Y-34288152D02*
X180372857Y-34335771D01*
X180372857Y-34335771D02*
X180420476Y-34431009D01*
X180420476Y-34431009D02*
X180420476Y-34954819D01*
X181372857Y-33954819D02*
X180896667Y-33954819D01*
X180896667Y-33954819D02*
X180849048Y-34431009D01*
X180849048Y-34431009D02*
X180896667Y-34383390D01*
X180896667Y-34383390D02*
X180991905Y-34335771D01*
X180991905Y-34335771D02*
X181230000Y-34335771D01*
X181230000Y-34335771D02*
X181325238Y-34383390D01*
X181325238Y-34383390D02*
X181372857Y-34431009D01*
X181372857Y-34431009D02*
X181420476Y-34526247D01*
X181420476Y-34526247D02*
X181420476Y-34764342D01*
X181420476Y-34764342D02*
X181372857Y-34859580D01*
X181372857Y-34859580D02*
X181325238Y-34907200D01*
X181325238Y-34907200D02*
X181230000Y-34954819D01*
X181230000Y-34954819D02*
X180991905Y-34954819D01*
X180991905Y-34954819D02*
X180896667Y-34907200D01*
X180896667Y-34907200D02*
X180849048Y-34859580D01*
D13*
X187723333Y-34817229D02*
X187723333Y-34117229D01*
X187723333Y-34117229D02*
X187890000Y-34117229D01*
X187890000Y-34117229D02*
X187990000Y-34150562D01*
X187990000Y-34150562D02*
X188056667Y-34217229D01*
X188056667Y-34217229D02*
X188090000Y-34283896D01*
X188090000Y-34283896D02*
X188123333Y-34417229D01*
X188123333Y-34417229D02*
X188123333Y-34517229D01*
X188123333Y-34517229D02*
X188090000Y-34650562D01*
X188090000Y-34650562D02*
X188056667Y-34717229D01*
X188056667Y-34717229D02*
X187990000Y-34783896D01*
X187990000Y-34783896D02*
X187890000Y-34817229D01*
X187890000Y-34817229D02*
X187723333Y-34817229D01*
X188723333Y-34117229D02*
X188590000Y-34117229D01*
X188590000Y-34117229D02*
X188523333Y-34150562D01*
X188523333Y-34150562D02*
X188490000Y-34183896D01*
X188490000Y-34183896D02*
X188423333Y-34283896D01*
X188423333Y-34283896D02*
X188390000Y-34417229D01*
X188390000Y-34417229D02*
X188390000Y-34683896D01*
X188390000Y-34683896D02*
X188423333Y-34750562D01*
X188423333Y-34750562D02*
X188456667Y-34783896D01*
X188456667Y-34783896D02*
X188523333Y-34817229D01*
X188523333Y-34817229D02*
X188656667Y-34817229D01*
X188656667Y-34817229D02*
X188723333Y-34783896D01*
X188723333Y-34783896D02*
X188756667Y-34750562D01*
X188756667Y-34750562D02*
X188790000Y-34683896D01*
X188790000Y-34683896D02*
X188790000Y-34517229D01*
X188790000Y-34517229D02*
X188756667Y-34450562D01*
X188756667Y-34450562D02*
X188723333Y-34417229D01*
X188723333Y-34417229D02*
X188656667Y-34383896D01*
X188656667Y-34383896D02*
X188523333Y-34383896D01*
X188523333Y-34383896D02*
X188456667Y-34417229D01*
X188456667Y-34417229D02*
X188423333Y-34450562D01*
X188423333Y-34450562D02*
X188390000Y-34517229D01*
D12*
X150238095Y-63954819D02*
X150238095Y-64764342D01*
X150238095Y-64764342D02*
X150285714Y-64859580D01*
X150285714Y-64859580D02*
X150333333Y-64907200D01*
X150333333Y-64907200D02*
X150428571Y-64954819D01*
X150428571Y-64954819D02*
X150619047Y-64954819D01*
X150619047Y-64954819D02*
X150714285Y-64907200D01*
X150714285Y-64907200D02*
X150761904Y-64859580D01*
X150761904Y-64859580D02*
X150809523Y-64764342D01*
X150809523Y-64764342D02*
X150809523Y-63954819D01*
X151190476Y-63954819D02*
X151809523Y-63954819D01*
X151809523Y-63954819D02*
X151476190Y-64335771D01*
X151476190Y-64335771D02*
X151619047Y-64335771D01*
X151619047Y-64335771D02*
X151714285Y-64383390D01*
X151714285Y-64383390D02*
X151761904Y-64431009D01*
X151761904Y-64431009D02*
X151809523Y-64526247D01*
X151809523Y-64526247D02*
X151809523Y-64764342D01*
X151809523Y-64764342D02*
X151761904Y-64859580D01*
X151761904Y-64859580D02*
X151714285Y-64907200D01*
X151714285Y-64907200D02*
X151619047Y-64954819D01*
X151619047Y-64954819D02*
X151333333Y-64954819D01*
X151333333Y-64954819D02*
X151238095Y-64907200D01*
X151238095Y-64907200D02*
X151190476Y-64859580D01*
X194954819Y-47142857D02*
X194478628Y-47476190D01*
X194954819Y-47714285D02*
X193954819Y-47714285D01*
X193954819Y-47714285D02*
X193954819Y-47333333D01*
X193954819Y-47333333D02*
X194002438Y-47238095D01*
X194002438Y-47238095D02*
X194050057Y-47190476D01*
X194050057Y-47190476D02*
X194145295Y-47142857D01*
X194145295Y-47142857D02*
X194288152Y-47142857D01*
X194288152Y-47142857D02*
X194383390Y-47190476D01*
X194383390Y-47190476D02*
X194431009Y-47238095D01*
X194431009Y-47238095D02*
X194478628Y-47333333D01*
X194478628Y-47333333D02*
X194478628Y-47714285D01*
X194954819Y-46190476D02*
X194954819Y-46761904D01*
X194954819Y-46476190D02*
X193954819Y-46476190D01*
X193954819Y-46476190D02*
X194097676Y-46571428D01*
X194097676Y-46571428D02*
X194192914Y-46666666D01*
X194192914Y-46666666D02*
X194240533Y-46761904D01*
X194954819Y-45238095D02*
X194954819Y-45809523D01*
X194954819Y-45523809D02*
X193954819Y-45523809D01*
X193954819Y-45523809D02*
X194097676Y-45619047D01*
X194097676Y-45619047D02*
X194192914Y-45714285D01*
X194192914Y-45714285D02*
X194240533Y-45809523D01*
X176853666Y-76832819D02*
X176853666Y-77547104D01*
X176853666Y-77547104D02*
X176806047Y-77689961D01*
X176806047Y-77689961D02*
X176710809Y-77785200D01*
X176710809Y-77785200D02*
X176567952Y-77832819D01*
X176567952Y-77832819D02*
X176472714Y-77832819D01*
X177234619Y-76832819D02*
X177853666Y-76832819D01*
X177853666Y-76832819D02*
X177520333Y-77213771D01*
X177520333Y-77213771D02*
X177663190Y-77213771D01*
X177663190Y-77213771D02*
X177758428Y-77261390D01*
X177758428Y-77261390D02*
X177806047Y-77309009D01*
X177806047Y-77309009D02*
X177853666Y-77404247D01*
X177853666Y-77404247D02*
X177853666Y-77642342D01*
X177853666Y-77642342D02*
X177806047Y-77737580D01*
X177806047Y-77737580D02*
X177758428Y-77785200D01*
X177758428Y-77785200D02*
X177663190Y-77832819D01*
X177663190Y-77832819D02*
X177377476Y-77832819D01*
X177377476Y-77832819D02*
X177282238Y-77785200D01*
X177282238Y-77785200D02*
X177234619Y-77737580D01*
X155166666Y-69454819D02*
X155166666Y-70169104D01*
X155166666Y-70169104D02*
X155119047Y-70311961D01*
X155119047Y-70311961D02*
X155023809Y-70407200D01*
X155023809Y-70407200D02*
X154880952Y-70454819D01*
X154880952Y-70454819D02*
X154785714Y-70454819D01*
X156119047Y-69454819D02*
X155642857Y-69454819D01*
X155642857Y-69454819D02*
X155595238Y-69931009D01*
X155595238Y-69931009D02*
X155642857Y-69883390D01*
X155642857Y-69883390D02*
X155738095Y-69835771D01*
X155738095Y-69835771D02*
X155976190Y-69835771D01*
X155976190Y-69835771D02*
X156071428Y-69883390D01*
X156071428Y-69883390D02*
X156119047Y-69931009D01*
X156119047Y-69931009D02*
X156166666Y-70026247D01*
X156166666Y-70026247D02*
X156166666Y-70264342D01*
X156166666Y-70264342D02*
X156119047Y-70359580D01*
X156119047Y-70359580D02*
X156071428Y-70407200D01*
X156071428Y-70407200D02*
X155976190Y-70454819D01*
X155976190Y-70454819D02*
X155738095Y-70454819D01*
X155738095Y-70454819D02*
X155642857Y-70407200D01*
X155642857Y-70407200D02*
X155595238Y-70359580D01*
X173804819Y-42142857D02*
X173328628Y-42476190D01*
X173804819Y-42714285D02*
X172804819Y-42714285D01*
X172804819Y-42714285D02*
X172804819Y-42333333D01*
X172804819Y-42333333D02*
X172852438Y-42238095D01*
X172852438Y-42238095D02*
X172900057Y-42190476D01*
X172900057Y-42190476D02*
X172995295Y-42142857D01*
X172995295Y-42142857D02*
X173138152Y-42142857D01*
X173138152Y-42142857D02*
X173233390Y-42190476D01*
X173233390Y-42190476D02*
X173281009Y-42238095D01*
X173281009Y-42238095D02*
X173328628Y-42333333D01*
X173328628Y-42333333D02*
X173328628Y-42714285D01*
X173804819Y-41190476D02*
X173804819Y-41761904D01*
X173804819Y-41476190D02*
X172804819Y-41476190D01*
X172804819Y-41476190D02*
X172947676Y-41571428D01*
X172947676Y-41571428D02*
X173042914Y-41666666D01*
X173042914Y-41666666D02*
X173090533Y-41761904D01*
X172804819Y-40571428D02*
X172804819Y-40476190D01*
X172804819Y-40476190D02*
X172852438Y-40380952D01*
X172852438Y-40380952D02*
X172900057Y-40333333D01*
X172900057Y-40333333D02*
X172995295Y-40285714D01*
X172995295Y-40285714D02*
X173185771Y-40238095D01*
X173185771Y-40238095D02*
X173423866Y-40238095D01*
X173423866Y-40238095D02*
X173614342Y-40285714D01*
X173614342Y-40285714D02*
X173709580Y-40333333D01*
X173709580Y-40333333D02*
X173757200Y-40380952D01*
X173757200Y-40380952D02*
X173804819Y-40476190D01*
X173804819Y-40476190D02*
X173804819Y-40571428D01*
X173804819Y-40571428D02*
X173757200Y-40666666D01*
X173757200Y-40666666D02*
X173709580Y-40714285D01*
X173709580Y-40714285D02*
X173614342Y-40761904D01*
X173614342Y-40761904D02*
X173423866Y-40809523D01*
X173423866Y-40809523D02*
X173185771Y-40809523D01*
X173185771Y-40809523D02*
X172995295Y-40761904D01*
X172995295Y-40761904D02*
X172900057Y-40714285D01*
X172900057Y-40714285D02*
X172852438Y-40666666D01*
X172852438Y-40666666D02*
X172804819Y-40571428D01*
X188857142Y-40454819D02*
X188523809Y-39978628D01*
X188285714Y-40454819D02*
X188285714Y-39454819D01*
X188285714Y-39454819D02*
X188666666Y-39454819D01*
X188666666Y-39454819D02*
X188761904Y-39502438D01*
X188761904Y-39502438D02*
X188809523Y-39550057D01*
X188809523Y-39550057D02*
X188857142Y-39645295D01*
X188857142Y-39645295D02*
X188857142Y-39788152D01*
X188857142Y-39788152D02*
X188809523Y-39883390D01*
X188809523Y-39883390D02*
X188761904Y-39931009D01*
X188761904Y-39931009D02*
X188666666Y-39978628D01*
X188666666Y-39978628D02*
X188285714Y-39978628D01*
X189809523Y-40454819D02*
X189238095Y-40454819D01*
X189523809Y-40454819D02*
X189523809Y-39454819D01*
X189523809Y-39454819D02*
X189428571Y-39597676D01*
X189428571Y-39597676D02*
X189333333Y-39692914D01*
X189333333Y-39692914D02*
X189238095Y-39740533D01*
X190190476Y-39550057D02*
X190238095Y-39502438D01*
X190238095Y-39502438D02*
X190333333Y-39454819D01*
X190333333Y-39454819D02*
X190571428Y-39454819D01*
X190571428Y-39454819D02*
X190666666Y-39502438D01*
X190666666Y-39502438D02*
X190714285Y-39550057D01*
X190714285Y-39550057D02*
X190761904Y-39645295D01*
X190761904Y-39645295D02*
X190761904Y-39740533D01*
X190761904Y-39740533D02*
X190714285Y-39883390D01*
X190714285Y-39883390D02*
X190142857Y-40454819D01*
X190142857Y-40454819D02*
X190761904Y-40454819D01*
X169333333Y-69454819D02*
X169000000Y-68978628D01*
X168761905Y-69454819D02*
X168761905Y-68454819D01*
X168761905Y-68454819D02*
X169142857Y-68454819D01*
X169142857Y-68454819D02*
X169238095Y-68502438D01*
X169238095Y-68502438D02*
X169285714Y-68550057D01*
X169285714Y-68550057D02*
X169333333Y-68645295D01*
X169333333Y-68645295D02*
X169333333Y-68788152D01*
X169333333Y-68788152D02*
X169285714Y-68883390D01*
X169285714Y-68883390D02*
X169238095Y-68931009D01*
X169238095Y-68931009D02*
X169142857Y-68978628D01*
X169142857Y-68978628D02*
X168761905Y-68978628D01*
X169666667Y-68454819D02*
X170285714Y-68454819D01*
X170285714Y-68454819D02*
X169952381Y-68835771D01*
X169952381Y-68835771D02*
X170095238Y-68835771D01*
X170095238Y-68835771D02*
X170190476Y-68883390D01*
X170190476Y-68883390D02*
X170238095Y-68931009D01*
X170238095Y-68931009D02*
X170285714Y-69026247D01*
X170285714Y-69026247D02*
X170285714Y-69264342D01*
X170285714Y-69264342D02*
X170238095Y-69359580D01*
X170238095Y-69359580D02*
X170190476Y-69407200D01*
X170190476Y-69407200D02*
X170095238Y-69454819D01*
X170095238Y-69454819D02*
X169809524Y-69454819D01*
X169809524Y-69454819D02*
X169714286Y-69407200D01*
X169714286Y-69407200D02*
X169666667Y-69359580D01*
X194954819Y-51142857D02*
X194478628Y-51476190D01*
X194954819Y-51714285D02*
X193954819Y-51714285D01*
X193954819Y-51714285D02*
X193954819Y-51333333D01*
X193954819Y-51333333D02*
X194002438Y-51238095D01*
X194002438Y-51238095D02*
X194050057Y-51190476D01*
X194050057Y-51190476D02*
X194145295Y-51142857D01*
X194145295Y-51142857D02*
X194288152Y-51142857D01*
X194288152Y-51142857D02*
X194383390Y-51190476D01*
X194383390Y-51190476D02*
X194431009Y-51238095D01*
X194431009Y-51238095D02*
X194478628Y-51333333D01*
X194478628Y-51333333D02*
X194478628Y-51714285D01*
X194050057Y-50761904D02*
X194002438Y-50714285D01*
X194002438Y-50714285D02*
X193954819Y-50619047D01*
X193954819Y-50619047D02*
X193954819Y-50380952D01*
X193954819Y-50380952D02*
X194002438Y-50285714D01*
X194002438Y-50285714D02*
X194050057Y-50238095D01*
X194050057Y-50238095D02*
X194145295Y-50190476D01*
X194145295Y-50190476D02*
X194240533Y-50190476D01*
X194240533Y-50190476D02*
X194383390Y-50238095D01*
X194383390Y-50238095D02*
X194954819Y-50809523D01*
X194954819Y-50809523D02*
X194954819Y-50190476D01*
X194288152Y-49333333D02*
X194954819Y-49333333D01*
X193907200Y-49571428D02*
X194621485Y-49809523D01*
X194621485Y-49809523D02*
X194621485Y-49190476D01*
X177084333Y-72859580D02*
X177036714Y-72907200D01*
X177036714Y-72907200D02*
X176893857Y-72954819D01*
X176893857Y-72954819D02*
X176798619Y-72954819D01*
X176798619Y-72954819D02*
X176655762Y-72907200D01*
X176655762Y-72907200D02*
X176560524Y-72811961D01*
X176560524Y-72811961D02*
X176512905Y-72716723D01*
X176512905Y-72716723D02*
X176465286Y-72526247D01*
X176465286Y-72526247D02*
X176465286Y-72383390D01*
X176465286Y-72383390D02*
X176512905Y-72192914D01*
X176512905Y-72192914D02*
X176560524Y-72097676D01*
X176560524Y-72097676D02*
X176655762Y-72002438D01*
X176655762Y-72002438D02*
X176798619Y-71954819D01*
X176798619Y-71954819D02*
X176893857Y-71954819D01*
X176893857Y-71954819D02*
X177036714Y-72002438D01*
X177036714Y-72002438D02*
X177084333Y-72050057D01*
X177417667Y-71954819D02*
X178036714Y-71954819D01*
X178036714Y-71954819D02*
X177703381Y-72335771D01*
X177703381Y-72335771D02*
X177846238Y-72335771D01*
X177846238Y-72335771D02*
X177941476Y-72383390D01*
X177941476Y-72383390D02*
X177989095Y-72431009D01*
X177989095Y-72431009D02*
X178036714Y-72526247D01*
X178036714Y-72526247D02*
X178036714Y-72764342D01*
X178036714Y-72764342D02*
X177989095Y-72859580D01*
X177989095Y-72859580D02*
X177941476Y-72907200D01*
X177941476Y-72907200D02*
X177846238Y-72954819D01*
X177846238Y-72954819D02*
X177560524Y-72954819D01*
X177560524Y-72954819D02*
X177465286Y-72907200D01*
X177465286Y-72907200D02*
X177417667Y-72859580D01*
X150393666Y-30545819D02*
X150393666Y-31260104D01*
X150393666Y-31260104D02*
X150346047Y-31402961D01*
X150346047Y-31402961D02*
X150250809Y-31498200D01*
X150250809Y-31498200D02*
X150107952Y-31545819D01*
X150107952Y-31545819D02*
X150012714Y-31545819D01*
X150822238Y-30641057D02*
X150869857Y-30593438D01*
X150869857Y-30593438D02*
X150965095Y-30545819D01*
X150965095Y-30545819D02*
X151203190Y-30545819D01*
X151203190Y-30545819D02*
X151298428Y-30593438D01*
X151298428Y-30593438D02*
X151346047Y-30641057D01*
X151346047Y-30641057D02*
X151393666Y-30736295D01*
X151393666Y-30736295D02*
X151393666Y-30831533D01*
X151393666Y-30831533D02*
X151346047Y-30974390D01*
X151346047Y-30974390D02*
X150774619Y-31545819D01*
X150774619Y-31545819D02*
X151393666Y-31545819D01*
X173804819Y-37641666D02*
X173328628Y-37974999D01*
X173804819Y-38213094D02*
X172804819Y-38213094D01*
X172804819Y-38213094D02*
X172804819Y-37832142D01*
X172804819Y-37832142D02*
X172852438Y-37736904D01*
X172852438Y-37736904D02*
X172900057Y-37689285D01*
X172900057Y-37689285D02*
X172995295Y-37641666D01*
X172995295Y-37641666D02*
X173138152Y-37641666D01*
X173138152Y-37641666D02*
X173233390Y-37689285D01*
X173233390Y-37689285D02*
X173281009Y-37736904D01*
X173281009Y-37736904D02*
X173328628Y-37832142D01*
X173328628Y-37832142D02*
X173328628Y-38213094D01*
X173804819Y-37165475D02*
X173804819Y-36974999D01*
X173804819Y-36974999D02*
X173757200Y-36879761D01*
X173757200Y-36879761D02*
X173709580Y-36832142D01*
X173709580Y-36832142D02*
X173566723Y-36736904D01*
X173566723Y-36736904D02*
X173376247Y-36689285D01*
X173376247Y-36689285D02*
X172995295Y-36689285D01*
X172995295Y-36689285D02*
X172900057Y-36736904D01*
X172900057Y-36736904D02*
X172852438Y-36784523D01*
X172852438Y-36784523D02*
X172804819Y-36879761D01*
X172804819Y-36879761D02*
X172804819Y-37070237D01*
X172804819Y-37070237D02*
X172852438Y-37165475D01*
X172852438Y-37165475D02*
X172900057Y-37213094D01*
X172900057Y-37213094D02*
X172995295Y-37260713D01*
X172995295Y-37260713D02*
X173233390Y-37260713D01*
X173233390Y-37260713D02*
X173328628Y-37213094D01*
X173328628Y-37213094D02*
X173376247Y-37165475D01*
X173376247Y-37165475D02*
X173423866Y-37070237D01*
X173423866Y-37070237D02*
X173423866Y-36879761D01*
X173423866Y-36879761D02*
X173376247Y-36784523D01*
X173376247Y-36784523D02*
X173328628Y-36736904D01*
X173328628Y-36736904D02*
X173233390Y-36689285D01*
D13*
X184983333Y-34817229D02*
X184983333Y-34117229D01*
X184983333Y-34117229D02*
X185150000Y-34117229D01*
X185150000Y-34117229D02*
X185250000Y-34150562D01*
X185250000Y-34150562D02*
X185316667Y-34217229D01*
X185316667Y-34217229D02*
X185350000Y-34283896D01*
X185350000Y-34283896D02*
X185383333Y-34417229D01*
X185383333Y-34417229D02*
X185383333Y-34517229D01*
X185383333Y-34517229D02*
X185350000Y-34650562D01*
X185350000Y-34650562D02*
X185316667Y-34717229D01*
X185316667Y-34717229D02*
X185250000Y-34783896D01*
X185250000Y-34783896D02*
X185150000Y-34817229D01*
X185150000Y-34817229D02*
X184983333Y-34817229D01*
X185983333Y-34350562D02*
X185983333Y-34817229D01*
X185816667Y-34083896D02*
X185650000Y-34583896D01*
X185650000Y-34583896D02*
X186083333Y-34583896D01*
D12*
X172454819Y-57738094D02*
X171454819Y-57738094D01*
X171454819Y-57738094D02*
X171454819Y-57499999D01*
X171454819Y-57499999D02*
X171502438Y-57357142D01*
X171502438Y-57357142D02*
X171597676Y-57261904D01*
X171597676Y-57261904D02*
X171692914Y-57214285D01*
X171692914Y-57214285D02*
X171883390Y-57166666D01*
X171883390Y-57166666D02*
X172026247Y-57166666D01*
X172026247Y-57166666D02*
X172216723Y-57214285D01*
X172216723Y-57214285D02*
X172311961Y-57261904D01*
X172311961Y-57261904D02*
X172407200Y-57357142D01*
X172407200Y-57357142D02*
X172454819Y-57499999D01*
X172454819Y-57499999D02*
X172454819Y-57738094D01*
X172454819Y-56214285D02*
X172454819Y-56785713D01*
X172454819Y-56499999D02*
X171454819Y-56499999D01*
X171454819Y-56499999D02*
X171597676Y-56595237D01*
X171597676Y-56595237D02*
X171692914Y-56690475D01*
X171692914Y-56690475D02*
X171740533Y-56785713D01*
X148396666Y-76983819D02*
X148396666Y-77698104D01*
X148396666Y-77698104D02*
X148349047Y-77840961D01*
X148349047Y-77840961D02*
X148253809Y-77936200D01*
X148253809Y-77936200D02*
X148110952Y-77983819D01*
X148110952Y-77983819D02*
X148015714Y-77983819D01*
X149301428Y-77317152D02*
X149301428Y-77983819D01*
X149063333Y-76936200D02*
X148825238Y-77650485D01*
X148825238Y-77650485D02*
X149444285Y-77650485D01*
%TO.C,STEP_DOWN1*%
D11*
X153908000Y-56624000D02*
X170908000Y-56624000D01*
X170908000Y-67624000D01*
X153908000Y-67624000D01*
X153908000Y-56624000D01*
D14*
%TO.C,U1*%
X153610000Y-34450000D02*
X171850000Y-34450000D01*
X153610000Y-53270000D02*
X153610000Y-53890000D01*
X153610000Y-53890000D02*
X154610000Y-53890000D01*
X171850000Y-34450000D02*
X171850000Y-34870000D01*
X171850000Y-53270000D02*
X171850000Y-53890000D01*
X171850000Y-53890000D02*
X170850000Y-53890000D01*
X153605000Y-35195000D02*
X153105000Y-35195000D01*
X153605000Y-34695000D01*
X153605000Y-35195000D01*
G36*
X153605000Y-35195000D02*
G01*
X153105000Y-35195000D01*
X153605000Y-34695000D01*
X153605000Y-35195000D01*
G37*
%TO.C,SW3*%
X185880000Y-71840000D02*
X185880000Y-69160000D01*
X186030000Y-67380000D02*
X191970000Y-67380000D01*
X186030000Y-73620000D02*
X191970000Y-73620000D01*
X192120000Y-69160000D02*
X192120000Y-71840000D01*
X190414214Y-70500000D02*
G75*
G02*
X187585786Y-70500000I-1414214J0D01*
G01*
X187585786Y-70500000D02*
G75*
G02*
X190414214Y-70500000I1414214J0D01*
G01*
%TO.C,J1*%
X182212000Y-30820000D02*
X186322000Y-30820000D01*
X186322000Y-33040000D02*
X186322000Y-30820000D01*
X182212000Y-33040000D02*
X182212000Y-30820000D01*
X182212000Y-33040000D02*
X186322000Y-33040000D01*
X181212000Y-33040000D02*
X180102000Y-33040000D01*
X180102000Y-33040000D02*
X180102000Y-31930000D01*
%TO.C,U2*%
D11*
X175850000Y-44600000D02*
X191350000Y-44600000D01*
X191350000Y-64600000D01*
X175850000Y-64600000D01*
X175850000Y-44600000D01*
D14*
%TO.C,C2*%
X179790000Y-68713748D02*
X179790000Y-69236252D01*
X181210000Y-68713748D02*
X181210000Y-69236252D01*
%TO.C,R25*%
X192290000Y-55286252D02*
X192290000Y-54763748D01*
X193710000Y-55286252D02*
X193710000Y-54763748D01*
%TO.C,Q5*%
X191740000Y-40370000D02*
X191740000Y-41300000D01*
X191740000Y-40370000D02*
X193200000Y-40370000D01*
X191740000Y-43530000D02*
X191740000Y-42600000D01*
X191740000Y-43530000D02*
X193900000Y-43530000D01*
%TO.C,R2*%
X192290000Y-63286252D02*
X192290000Y-62763748D01*
X193710000Y-63286252D02*
X193710000Y-62763748D01*
%TO.C,C1*%
X181238748Y-65290000D02*
X181761252Y-65290000D01*
X181238748Y-66710000D02*
X181761252Y-66710000D01*
%TO.C,Q6*%
X187260000Y-40420000D02*
X185100000Y-40420000D01*
X187260000Y-40420000D02*
X187260000Y-41350000D01*
X187260000Y-43580000D02*
X185800000Y-43580000D01*
X187260000Y-43580000D02*
X187260000Y-42650000D01*
%TO.C,C4*%
X192738748Y-38290000D02*
X193261252Y-38290000D01*
X192738748Y-39710000D02*
X193261252Y-39710000D01*
%TO.C,R14*%
X192738748Y-35290000D02*
X193261252Y-35290000D01*
X192738748Y-36710000D02*
X193261252Y-36710000D01*
%TO.C,R1*%
X192290000Y-59261252D02*
X192290000Y-58738748D01*
X193710000Y-59261252D02*
X193710000Y-58738748D01*
%TO.C,Con5*%
X177130000Y-36090000D02*
X178460000Y-36090000D01*
X177130000Y-37420000D02*
X177130000Y-36090000D01*
X177130000Y-38690000D02*
X177130000Y-43830000D01*
X177130000Y-38690000D02*
X179730000Y-38690000D01*
X177130000Y-43830000D02*
X182330000Y-43830000D01*
X179730000Y-36090000D02*
X182330000Y-36090000D01*
X179730000Y-38690000D02*
X179730000Y-36090000D01*
X182330000Y-36090000D02*
X182330000Y-43830000D01*
%TO.C,D6*%
X188240000Y-35970000D02*
X188240000Y-36900000D01*
X188240000Y-35970000D02*
X189700000Y-35970000D01*
X188240000Y-39130000D02*
X188240000Y-38200000D01*
X188240000Y-39130000D02*
X190400000Y-39130000D01*
%TO.C,U3*%
X134780000Y-34940000D02*
X150230000Y-34940000D01*
X134780000Y-64140000D02*
X134780000Y-34940000D01*
X134780000Y-64140000D02*
X134780000Y-64140000D01*
X135356000Y-58476000D02*
X146024000Y-58476000D01*
X135356000Y-63810000D02*
X135356000Y-58476000D01*
X135356000Y-63810000D02*
X135356000Y-63810000D01*
X146024000Y-58476000D02*
X146024000Y-63810000D01*
X146024000Y-63810000D02*
X135356000Y-63810000D01*
X146024000Y-63810000D02*
X146024000Y-63810000D01*
X150230000Y-34940000D02*
X150230000Y-64140000D01*
X150230000Y-64140000D02*
X134780000Y-64140000D01*
X137120000Y-64676000D02*
X136640000Y-64676000D01*
X136880000Y-64340000D01*
X137120000Y-64676000D01*
G36*
X137120000Y-64676000D02*
G01*
X136640000Y-64676000D01*
X136880000Y-64340000D01*
X137120000Y-64676000D01*
G37*
%TO.C,R11*%
X192290000Y-46238748D02*
X192290000Y-46761252D01*
X193710000Y-46238748D02*
X193710000Y-46761252D01*
%TO.C,J3*%
X178578000Y-78401000D02*
X178578000Y-77291000D01*
X179688000Y-78401000D02*
X178578000Y-78401000D01*
X180688000Y-78401000D02*
X184798000Y-78401000D01*
X180688000Y-78401000D02*
X180688000Y-76181000D01*
X184798000Y-78401000D02*
X184798000Y-76181000D01*
X180688000Y-76181000D02*
X184798000Y-76181000D01*
%TO.C,J5*%
X156580000Y-68620000D02*
X156580000Y-71380000D01*
X159230000Y-68620000D02*
X156580000Y-68620000D01*
X159230000Y-68620000D02*
X159230000Y-71380000D01*
X159230000Y-71380000D02*
X156580000Y-71380000D01*
X160500000Y-68620000D02*
X161880000Y-68620000D01*
X161880000Y-68620000D02*
X161880000Y-70000000D01*
%TO.C,R10*%
X174290000Y-41761252D02*
X174290000Y-41238748D01*
X175710000Y-41761252D02*
X175710000Y-41238748D01*
%TO.C,R12*%
X188790000Y-41738748D02*
X188790000Y-42261252D01*
X190210000Y-41738748D02*
X190210000Y-42261252D01*
%TO.C,R3*%
X169761252Y-69790000D02*
X169238748Y-69790000D01*
X169761252Y-71210000D02*
X169238748Y-71210000D01*
%TO.C,R24*%
X192290000Y-50786252D02*
X192290000Y-50263748D01*
X193710000Y-50786252D02*
X193710000Y-50263748D01*
%TO.C,C3*%
X171749759Y-66661000D02*
X172379759Y-66661000D01*
X172064759Y-66346000D02*
X172064759Y-66976000D01*
X175250000Y-65270000D02*
X175250000Y-71730000D01*
X175290000Y-65270000D02*
X175290000Y-71730000D01*
X175330000Y-65270000D02*
X175330000Y-71730000D01*
X175370000Y-65272000D02*
X175370000Y-71728000D01*
X175410000Y-65273000D02*
X175410000Y-71727000D01*
X175450000Y-65276000D02*
X175450000Y-71724000D01*
X175490000Y-65278000D02*
X175490000Y-67460000D01*
X175490000Y-69540000D02*
X175490000Y-71722000D01*
X175530000Y-65282000D02*
X175530000Y-67460000D01*
X175530000Y-69540000D02*
X175530000Y-71718000D01*
X175570000Y-65285000D02*
X175570000Y-67460000D01*
X175570000Y-69540000D02*
X175570000Y-71715000D01*
X175610000Y-65289000D02*
X175610000Y-67460000D01*
X175610000Y-69540000D02*
X175610000Y-71711000D01*
X175650000Y-65294000D02*
X175650000Y-67460000D01*
X175650000Y-69540000D02*
X175650000Y-71706000D01*
X175690000Y-65299000D02*
X175690000Y-67460000D01*
X175690000Y-69540000D02*
X175690000Y-71701000D01*
X175730000Y-65305000D02*
X175730000Y-67460000D01*
X175730000Y-69540000D02*
X175730000Y-71695000D01*
X175770000Y-65311000D02*
X175770000Y-67460000D01*
X175770000Y-69540000D02*
X175770000Y-71689000D01*
X175810000Y-65318000D02*
X175810000Y-67460000D01*
X175810000Y-69540000D02*
X175810000Y-71682000D01*
X175850000Y-65325000D02*
X175850000Y-67460000D01*
X175850000Y-69540000D02*
X175850000Y-71675000D01*
X175890000Y-65333000D02*
X175890000Y-67460000D01*
X175890000Y-69540000D02*
X175890000Y-71667000D01*
X175930000Y-65341000D02*
X175930000Y-67460000D01*
X175930000Y-69540000D02*
X175930000Y-71659000D01*
X175971000Y-65350000D02*
X175971000Y-67460000D01*
X175971000Y-69540000D02*
X175971000Y-71650000D01*
X176011000Y-65359000D02*
X176011000Y-67460000D01*
X176011000Y-69540000D02*
X176011000Y-71641000D01*
X176051000Y-65369000D02*
X176051000Y-67460000D01*
X176051000Y-69540000D02*
X176051000Y-71631000D01*
X176091000Y-65379000D02*
X176091000Y-67460000D01*
X176091000Y-69540000D02*
X176091000Y-71621000D01*
X176131000Y-65390000D02*
X176131000Y-67460000D01*
X176131000Y-69540000D02*
X176131000Y-71610000D01*
X176171000Y-65402000D02*
X176171000Y-67460000D01*
X176171000Y-69540000D02*
X176171000Y-71598000D01*
X176211000Y-65414000D02*
X176211000Y-67460000D01*
X176211000Y-69540000D02*
X176211000Y-71586000D01*
X176251000Y-65426000D02*
X176251000Y-67460000D01*
X176251000Y-69540000D02*
X176251000Y-71574000D01*
X176291000Y-65439000D02*
X176291000Y-67460000D01*
X176291000Y-69540000D02*
X176291000Y-71561000D01*
X176331000Y-65453000D02*
X176331000Y-67460000D01*
X176331000Y-69540000D02*
X176331000Y-71547000D01*
X176371000Y-65467000D02*
X176371000Y-67460000D01*
X176371000Y-69540000D02*
X176371000Y-71533000D01*
X176411000Y-65482000D02*
X176411000Y-67460000D01*
X176411000Y-69540000D02*
X176411000Y-71518000D01*
X176451000Y-65498000D02*
X176451000Y-67460000D01*
X176451000Y-69540000D02*
X176451000Y-71502000D01*
X176491000Y-65514000D02*
X176491000Y-67460000D01*
X176491000Y-69540000D02*
X176491000Y-71486000D01*
X176531000Y-65530000D02*
X176531000Y-67460000D01*
X176531000Y-69540000D02*
X176531000Y-71470000D01*
X176571000Y-65548000D02*
X176571000Y-67460000D01*
X176571000Y-69540000D02*
X176571000Y-71452000D01*
X176611000Y-65566000D02*
X176611000Y-67460000D01*
X176611000Y-69540000D02*
X176611000Y-71434000D01*
X176651000Y-65584000D02*
X176651000Y-67460000D01*
X176651000Y-69540000D02*
X176651000Y-71416000D01*
X176691000Y-65604000D02*
X176691000Y-67460000D01*
X176691000Y-69540000D02*
X176691000Y-71396000D01*
X176731000Y-65624000D02*
X176731000Y-67460000D01*
X176731000Y-69540000D02*
X176731000Y-71376000D01*
X176771000Y-65644000D02*
X176771000Y-67460000D01*
X176771000Y-69540000D02*
X176771000Y-71356000D01*
X176811000Y-65666000D02*
X176811000Y-67460000D01*
X176811000Y-69540000D02*
X176811000Y-71334000D01*
X176851000Y-65688000D02*
X176851000Y-67460000D01*
X176851000Y-69540000D02*
X176851000Y-71312000D01*
X176891000Y-65710000D02*
X176891000Y-67460000D01*
X176891000Y-69540000D02*
X176891000Y-71290000D01*
X176931000Y-65734000D02*
X176931000Y-67460000D01*
X176931000Y-69540000D02*
X176931000Y-71266000D01*
X176971000Y-65758000D02*
X176971000Y-67460000D01*
X176971000Y-69540000D02*
X176971000Y-71242000D01*
X177011000Y-65784000D02*
X177011000Y-67460000D01*
X177011000Y-69540000D02*
X177011000Y-71216000D01*
X177051000Y-65810000D02*
X177051000Y-67460000D01*
X177051000Y-69540000D02*
X177051000Y-71190000D01*
X177091000Y-65836000D02*
X177091000Y-67460000D01*
X177091000Y-69540000D02*
X177091000Y-71164000D01*
X177131000Y-65864000D02*
X177131000Y-67460000D01*
X177131000Y-69540000D02*
X177131000Y-71136000D01*
X177171000Y-65893000D02*
X177171000Y-67460000D01*
X177171000Y-69540000D02*
X177171000Y-71107000D01*
X177211000Y-65922000D02*
X177211000Y-67460000D01*
X177211000Y-69540000D02*
X177211000Y-71078000D01*
X177251000Y-65952000D02*
X177251000Y-67460000D01*
X177251000Y-69540000D02*
X177251000Y-71048000D01*
X177291000Y-65984000D02*
X177291000Y-67460000D01*
X177291000Y-69540000D02*
X177291000Y-71016000D01*
X177331000Y-66016000D02*
X177331000Y-67460000D01*
X177331000Y-69540000D02*
X177331000Y-70984000D01*
X177371000Y-66050000D02*
X177371000Y-67460000D01*
X177371000Y-69540000D02*
X177371000Y-70950000D01*
X177411000Y-66084000D02*
X177411000Y-67460000D01*
X177411000Y-69540000D02*
X177411000Y-70916000D01*
X177451000Y-66120000D02*
X177451000Y-67460000D01*
X177451000Y-69540000D02*
X177451000Y-70880000D01*
X177491000Y-66157000D02*
X177491000Y-67460000D01*
X177491000Y-69540000D02*
X177491000Y-70843000D01*
X177531000Y-66195000D02*
X177531000Y-67460000D01*
X177531000Y-69540000D02*
X177531000Y-70805000D01*
X177571000Y-66235000D02*
X177571000Y-70765000D01*
X177611000Y-66276000D02*
X177611000Y-70724000D01*
X177651000Y-66318000D02*
X177651000Y-70682000D01*
X177691000Y-66363000D02*
X177691000Y-70637000D01*
X177731000Y-66408000D02*
X177731000Y-70592000D01*
X177771000Y-66456000D02*
X177771000Y-70544000D01*
X177811000Y-66505000D02*
X177811000Y-70495000D01*
X177851000Y-66556000D02*
X177851000Y-70444000D01*
X177891000Y-66610000D02*
X177891000Y-70390000D01*
X177931000Y-66666000D02*
X177931000Y-70334000D01*
X177971000Y-66724000D02*
X177971000Y-70276000D01*
X178011000Y-66786000D02*
X178011000Y-70214000D01*
X178051000Y-66850000D02*
X178051000Y-70150000D01*
X178091000Y-66919000D02*
X178091000Y-70081000D01*
X178131000Y-66991000D02*
X178131000Y-70009000D01*
X178171000Y-67068000D02*
X178171000Y-69932000D01*
X178211000Y-67150000D02*
X178211000Y-69850000D01*
X178251000Y-67238000D02*
X178251000Y-69762000D01*
X178291000Y-67335000D02*
X178291000Y-69665000D01*
X178331000Y-67441000D02*
X178331000Y-69559000D01*
X178371000Y-67560000D02*
X178371000Y-69440000D01*
X178411000Y-67698000D02*
X178411000Y-69302000D01*
X178451000Y-67867000D02*
X178451000Y-69133000D01*
X178491000Y-68098000D02*
X178491000Y-68902000D01*
X178520000Y-68500000D02*
G75*
G02*
X171980000Y-68500000I-3270000J0D01*
G01*
X171980000Y-68500000D02*
G75*
G02*
X178520000Y-68500000I3270000J0D01*
G01*
%TO.C,J2*%
X143161000Y-33356000D02*
X143161000Y-32246000D01*
X144271000Y-33356000D02*
X143161000Y-33356000D01*
X145271000Y-33356000D02*
X149381000Y-33356000D01*
X145271000Y-33356000D02*
X145271000Y-31136000D01*
X149381000Y-33356000D02*
X149381000Y-31136000D01*
X145271000Y-31136000D02*
X149381000Y-31136000D01*
%TO.C,R9*%
X174290000Y-37736252D02*
X174290000Y-37213748D01*
X175710000Y-37736252D02*
X175710000Y-37213748D01*
%TO.C,D4*%
X186260000Y-35920000D02*
X184100000Y-35920000D01*
X186260000Y-35920000D02*
X186260000Y-36850000D01*
X186260000Y-39080000D02*
X184800000Y-39080000D01*
X186260000Y-39080000D02*
X186260000Y-38150000D01*
%TO.C,D1*%
X172740000Y-55560000D02*
X172740000Y-58980000D01*
X172905000Y-58980000D02*
X172740000Y-58980000D01*
X172920000Y-55560000D02*
X172740000Y-55560000D01*
X172920000Y-55680000D02*
X172740000Y-55680000D01*
X172920000Y-55800000D02*
X172740000Y-55800000D01*
X175260000Y-55560000D02*
X175080000Y-55560000D01*
X175260000Y-55560000D02*
X175260000Y-58980000D01*
X175260000Y-55680000D02*
X175080000Y-55680000D01*
X175260000Y-55800000D02*
X175080000Y-55800000D01*
X175260000Y-58980000D02*
X175095000Y-58980000D01*
%TO.C,J4*%
X140840000Y-78639000D02*
X140840000Y-77529000D01*
X141950000Y-78639000D02*
X140840000Y-78639000D01*
X142950000Y-78639000D02*
X147060000Y-78639000D01*
X142950000Y-78639000D02*
X142950000Y-76419000D01*
X147060000Y-78639000D02*
X147060000Y-76419000D01*
X142950000Y-76419000D02*
X147060000Y-76419000D01*
%TD*%
M02*
