%TF.GenerationSoftware,KiCad,Pcbnew,9.0.3-9.0.3-0~ubuntu24.04.1*%
%TF.CreationDate,2025-10-01T20:11:17-03:00*%
%TF.ProjectId,Drone-HW,44726f6e-652d-4485-972e-6b696361645f,rev?*%
%TF.SameCoordinates,Original*%
%TF.FileFunction,Copper,L2,Bot*%
%TF.FilePolarity,Positive*%
%FSLAX46Y46*%
G04 Gerber Fmt 4.6, Leading zero omitted, Abs format (unit mm)*
G04 Created by KiCad (PCBNEW 9.0.3-9.0.3-0~ubuntu24.04.1) date 2025-10-01 20:11:17*
%MOMM*%
%LPD*%
G01*
G04 APERTURE LIST*
%TA.AperFunction,ComponentPad*%
%ADD10C,1.500000*%
%TD*%
%TA.AperFunction,ComponentPad*%
%ADD11R,1.700000X1.700000*%
%TD*%
%TA.AperFunction,ComponentPad*%
%ADD12O,1.700000X1.700000*%
%TD*%
%TA.AperFunction,HeatsinkPad*%
%ADD13C,0.600000*%
%TD*%
%TA.AperFunction,ComponentPad*%
%ADD14R,1.350000X1.350000*%
%TD*%
%TA.AperFunction,ComponentPad*%
%ADD15C,1.350000*%
%TD*%
%TA.AperFunction,ComponentPad*%
%ADD16C,1.700000*%
%TD*%
%TA.AperFunction,ComponentPad*%
%ADD17C,1.600000*%
%TD*%
%TA.AperFunction,ComponentPad*%
%ADD18R,1.600000X1.600000*%
%TD*%
%TA.AperFunction,ComponentPad*%
%ADD19R,1.800000X1.800000*%
%TD*%
%TA.AperFunction,ComponentPad*%
%ADD20C,1.800000*%
%TD*%
%TA.AperFunction,ViaPad*%
%ADD21C,0.600000*%
%TD*%
%TA.AperFunction,Conductor*%
%ADD22C,0.300000*%
%TD*%
%TA.AperFunction,Conductor*%
%ADD23C,0.200000*%
%TD*%
%TA.AperFunction,Conductor*%
%ADD24C,0.500000*%
%TD*%
G04 APERTURE END LIST*
D10*
%TO.P,U2,1,VCC*%
%TO.N,+3V3*%
X177250000Y-45600000D03*
%TO.P,U2,2,GND*%
%TO.N,GND*%
X177250000Y-48140000D03*
%TO.P,U2,3,SCL*%
%TO.N,/SCL-SPU*%
X177250000Y-50680000D03*
%TO.P,U2,4,SDA*%
%TO.N,/SDA-SPU*%
X177250000Y-53220000D03*
%TO.P,U2,5,XCL*%
%TO.N,unconnected-(U2-XCL-Pad5)*%
X177250000Y-55760000D03*
%TO.P,U2,6,XDA*%
%TO.N,unconnected-(U2-XDA-Pad6)*%
X177250000Y-58300000D03*
%TO.P,U2,7,ADO*%
%TO.N,+3V3*%
X177250000Y-60840000D03*
%TO.P,U2,8,INT*%
%TO.N,/INT*%
X177250000Y-63380000D03*
%TD*%
D11*
%TO.P,Con5,1,3v3*%
%TO.N,unconnected-(Con5-3v3-Pad1)*%
X178460000Y-37420000D03*
D12*
%TO.P,Con5,2,GND*%
%TO.N,GND*%
X181000000Y-37420000D03*
%TO.P,Con5,3,TX*%
%TO.N,Net-(Con5-TX)*%
X178460000Y-39960000D03*
%TO.P,Con5,4,RX*%
%TO.N,Net-(Con5-RX)*%
X181000000Y-39960000D03*
%TO.P,Con5,5,DTR*%
%TO.N,/DTR_ESP*%
X178460000Y-42500000D03*
%TO.P,Con5,6,RTS*%
%TO.N,/RTS_ESP*%
X181000000Y-42500000D03*
%TD*%
D13*
%TO.P,U1,39,PAD*%
%TO.N,GND*%
X159830000Y-42780000D03*
X159830000Y-44180000D03*
X160530000Y-42080000D03*
X160530000Y-43480000D03*
X160530000Y-44880000D03*
X161230000Y-42780000D03*
X161230000Y-44180000D03*
X161930000Y-42080000D03*
X161930000Y-43480000D03*
X161930000Y-44880000D03*
X162630000Y-42780000D03*
X162630000Y-44180000D03*
%TD*%
D14*
%TO.P,J1,1,Pin_1*%
%TO.N,/Motor1*%
X148500000Y-68500000D03*
D15*
%TO.P,J1,2,Pin_2*%
%TO.N,GND*%
X148500000Y-70500000D03*
%TO.P,J1,3,Pin_3*%
%TO.N,/sw1*%
X148500000Y-72500000D03*
%TD*%
D11*
%TO.P,U3,1,GND*%
%TO.N,GND*%
X136880000Y-62540000D03*
D16*
%TO.P,U3,2,VCC*%
%TO.N,+3V3*%
X136880000Y-60000000D03*
%TO.P,U3,3,CE*%
%TO.N,/CE*%
X139420000Y-62540000D03*
%TO.P,U3,4,~{CSN}*%
%TO.N,/~{CSN}*%
X139420000Y-60000000D03*
%TO.P,U3,5,SCK*%
%TO.N,/SCK*%
X141960000Y-62540000D03*
%TO.P,U3,6,MOSI*%
%TO.N,/MOSI*%
X141960000Y-60000000D03*
%TO.P,U3,7,MISO*%
%TO.N,/MISO*%
X144500000Y-62540000D03*
%TO.P,U3,8,IRQ*%
%TO.N,/IRQ*%
X144500000Y-60000000D03*
%TD*%
D14*
%TO.P,J3,1,Pin_1*%
%TO.N,/Motor3*%
X140500000Y-68500000D03*
D15*
%TO.P,J3,2,Pin_2*%
%TO.N,GND*%
X140500000Y-70500000D03*
%TO.P,J3,3,Pin_3*%
%TO.N,/sw3*%
X140500000Y-72500000D03*
%TD*%
D11*
%TO.P,J5,1,Pin_1*%
%TO.N,+7V4*%
X160500000Y-70000000D03*
D16*
%TO.P,J5,2,Pin_2*%
%TO.N,GND_7V4*%
X157960000Y-70000000D03*
%TD*%
D17*
%TO.P,STEP_DOWN1,1,+IN*%
%TO.N,+7V4*%
X155060000Y-57650000D03*
%TO.P,STEP_DOWN1,2,-IN*%
%TO.N,GND_7V4*%
X155050000Y-66650000D03*
%TO.P,STEP_DOWN1,3,+OUT*%
%TO.N,+3V3*%
X170000000Y-57650000D03*
%TO.P,STEP_DOWN1,4,-OUT*%
%TO.N,GND*%
X170130000Y-66700000D03*
%TD*%
D16*
%TO.P,SW3,1,1*%
%TO.N,Net-(D6-A2)*%
X185750000Y-68250000D03*
%TO.P,SW3,2,2*%
%TO.N,GND*%
X192250000Y-68250000D03*
%TO.P,SW3,3*%
%TO.N,N/C*%
X185750000Y-72750000D03*
%TO.P,SW3,4*%
X192250000Y-72750000D03*
%TD*%
D18*
%TO.P,C3,1*%
%TO.N,+3V3*%
X174000000Y-68500000D03*
D17*
%TO.P,C3,2*%
%TO.N,GND*%
X176500000Y-68500000D03*
%TD*%
D14*
%TO.P,J2,1,Pin_1*%
%TO.N,/Motor2*%
X144500000Y-68500000D03*
D15*
%TO.P,J2,2,Pin_2*%
%TO.N,GND*%
X144500000Y-70500000D03*
%TO.P,J2,3,Pin_3*%
%TO.N,/sw2*%
X144500000Y-72500000D03*
%TD*%
D19*
%TO.P,D1,1,K*%
%TO.N,Net-(D1-K)*%
X174000000Y-56000000D03*
D20*
%TO.P,D1,2,A*%
%TO.N,Net-(D1-A)*%
X174000000Y-58540000D03*
%TD*%
D14*
%TO.P,J4,1,Pin_1*%
%TO.N,/Motor4*%
X136500000Y-68500000D03*
D15*
%TO.P,J4,2,Pin_2*%
%TO.N,GND*%
X136500000Y-70500000D03*
%TO.P,J4,3,Pin_3*%
%TO.N,/sw4*%
X136500000Y-72500000D03*
%TD*%
D21*
%TO.N,/Motor1*%
X171480000Y-51155000D03*
X155000000Y-72000000D03*
%TO.N,GND*%
X137500000Y-42000000D03*
X146500000Y-72500000D03*
X151500000Y-54000000D03*
X165000000Y-48500000D03*
X152000000Y-71500000D03*
X143000000Y-51000000D03*
X190500000Y-45000000D03*
X159500000Y-47000000D03*
X168500000Y-51500000D03*
X185000000Y-63000000D03*
X157500000Y-48500000D03*
X187000000Y-56500000D03*
X147500000Y-42500000D03*
X179500000Y-49000000D03*
X143500000Y-38000000D03*
X159500000Y-38000000D03*
X155500000Y-61000000D03*
X179500000Y-57000000D03*
X161500000Y-51500000D03*
X186500000Y-39500000D03*
X167500000Y-59000000D03*
X180000000Y-71000000D03*
X163500000Y-38000000D03*
X167500000Y-42000000D03*
X184000000Y-48500000D03*
X141000000Y-56500000D03*
X164000000Y-58000000D03*
X138500000Y-71500000D03*
X161000000Y-58000000D03*
X148000000Y-54000000D03*
X166500000Y-71000000D03*
X184000000Y-41500000D03*
X156500000Y-65000000D03*
X156500000Y-47500000D03*
X163500000Y-68500000D03*
X136000000Y-53500000D03*
%TO.N,/Motor2*%
X171480000Y-49885000D03*
X164500000Y-64000000D03*
%TO.N,/Motor3*%
X158285000Y-53520000D03*
X158500000Y-61000000D03*
%TO.N,/Motor4*%
X153730000Y-51155000D03*
%TO.N,+3V3*%
X173250000Y-36750000D03*
X152000000Y-63000000D03*
X153980000Y-37185000D03*
%TO.N,/EN_ESP*%
X194025000Y-36000000D03*
X191975000Y-39000000D03*
X153980000Y-38455000D03*
%TO.N,/RTS_ESP*%
X189500000Y-43025000D03*
%TO.N,Net-(D6-A2)*%
X190000000Y-36600000D03*
X193000000Y-49500000D03*
X190000000Y-38500000D03*
X193000000Y-54000000D03*
%TO.N,/IO0_ESP*%
X186500000Y-44500000D03*
X184000000Y-54000000D03*
X187500000Y-42000000D03*
%TO.N,/B_START*%
X169000000Y-48500000D03*
X153980000Y-49885000D03*
X179500000Y-52000000D03*
%TO.N,Net-(D1-K)*%
X173000000Y-51000000D03*
%TO.N,/sw1*%
X171480000Y-47345000D03*
%TO.N,/sw2*%
X153980000Y-52425000D03*
%TO.N,/INT*%
X153980000Y-42265000D03*
X174500000Y-63380000D03*
X171500000Y-63380000D03*
X163500000Y-49000000D03*
X165500000Y-61000000D03*
%TO.N,/MOSI*%
X171480000Y-37185000D03*
%TO.N,/SDA-SPU*%
X171480000Y-42265000D03*
%TO.N,/sw3*%
X167175000Y-53520000D03*
X162500000Y-40000000D03*
X166250000Y-48250000D03*
%TO.N,/SCL-SPU*%
X171480000Y-38455000D03*
%TO.N,Net-(D1-A)*%
X168475000Y-70500000D03*
%TO.N,/SCK*%
X167500000Y-47000000D03*
X171480000Y-46075000D03*
%TO.N,/IRQ*%
X153980000Y-43535000D03*
%TO.N,/MISO*%
X171480000Y-44805000D03*
X167000000Y-44805000D03*
%TO.N,/V_Bat*%
X193000000Y-60025000D03*
X148750000Y-49250000D03*
%TO.N,/sw4*%
X153980000Y-47345000D03*
%TD*%
D22*
%TO.N,/Motor1*%
X171730000Y-51405000D02*
X171730000Y-60770000D01*
X171480000Y-51155000D02*
X171730000Y-51405000D01*
X166500000Y-66000000D02*
X166500000Y-68500000D01*
X163000000Y-72000000D02*
X155000000Y-72000000D01*
X171730000Y-60770000D02*
X166500000Y-66000000D01*
X166500000Y-68500000D02*
X163000000Y-72000000D01*
D23*
%TO.N,/Motor2*%
X159500000Y-65500000D02*
X163000000Y-65500000D01*
X155524000Y-69476000D02*
X159500000Y-65500000D01*
X145476000Y-69476000D02*
X155524000Y-69476000D01*
X163000000Y-65500000D02*
X164500000Y-64000000D01*
X144500000Y-68500000D02*
X145476000Y-69476000D01*
D22*
%TO.N,/Motor3*%
X158285000Y-56285000D02*
X158500000Y-56500000D01*
X158285000Y-53520000D02*
X158285000Y-56285000D01*
X158500000Y-56500000D02*
X158500000Y-61000000D01*
D24*
%TO.N,+3V3*%
X174500000Y-38000000D02*
X173250000Y-36750000D01*
X177250000Y-45600000D02*
X175250000Y-45600000D01*
X175250000Y-45600000D02*
X174500000Y-44850000D01*
X166000000Y-63000000D02*
X152000000Y-63000000D01*
X177250000Y-60840000D02*
X180160000Y-60840000D01*
X170000000Y-57650000D02*
X170000000Y-59000000D01*
X153980000Y-37185000D02*
X153980000Y-36935000D01*
X180160000Y-60840000D02*
X181500000Y-59500000D01*
X170000000Y-59000000D02*
X167500000Y-61500000D01*
X174500000Y-44850000D02*
X174500000Y-38000000D01*
X181500000Y-47500001D02*
X179599999Y-45600000D01*
X179599999Y-45600000D02*
X177250000Y-45600000D01*
X153980000Y-36935000D02*
X154915000Y-36000000D01*
X154915000Y-36000000D02*
X172500000Y-36000000D01*
X181500000Y-59500000D02*
X181500000Y-47500001D01*
X173250000Y-36750000D02*
X172500000Y-36000000D01*
X167500000Y-61500000D02*
X166000000Y-63000000D01*
D22*
%TO.N,/EN_ESP*%
X193500000Y-36000000D02*
X192500000Y-35000000D01*
X153935000Y-38500000D02*
X153980000Y-38455000D01*
X151500000Y-35000000D02*
X151000000Y-35500000D01*
X151000000Y-35500000D02*
X151000000Y-38000000D01*
X151000000Y-38000000D02*
X151500000Y-38500000D01*
X151500000Y-38500000D02*
X153935000Y-38500000D01*
X192500000Y-35000000D02*
X151500000Y-35000000D01*
X194025000Y-36000000D02*
X193500000Y-36000000D01*
%TO.N,/RTS_ESP*%
X182500000Y-44000000D02*
X181000000Y-42500000D01*
X186920654Y-44000000D02*
X186769654Y-43849000D01*
X186079346Y-44000000D02*
X182500000Y-44000000D01*
X188525000Y-44000000D02*
X186920654Y-44000000D01*
X186769654Y-43849000D02*
X186230346Y-43849000D01*
X186230346Y-43849000D02*
X186079346Y-44000000D01*
X189500000Y-43025000D02*
X188525000Y-44000000D01*
%TO.N,Net-(D6-A2)*%
X192500000Y-37000000D02*
X194500000Y-39000000D01*
X191000000Y-37000000D02*
X192500000Y-37000000D01*
X190000000Y-38500000D02*
X190000000Y-38000000D01*
X193000000Y-54000000D02*
X193000000Y-49500000D01*
X191000000Y-56000000D02*
X191000000Y-63000000D01*
X191000000Y-37000000D02*
X190400000Y-37000000D01*
X190400000Y-37000000D02*
X190000000Y-36600000D01*
X193000000Y-54000000D02*
X191000000Y-56000000D01*
X190000000Y-38000000D02*
X191000000Y-37000000D01*
X191000000Y-63000000D02*
X185750000Y-68250000D01*
X194500000Y-48000000D02*
X193000000Y-49500000D01*
X194500000Y-39000000D02*
X194500000Y-48000000D01*
%TO.N,/IO0_ESP*%
X184000000Y-54000000D02*
X186500000Y-51500000D01*
X186500000Y-51500000D02*
X186500000Y-44500000D01*
%TO.N,/B_START*%
X169000000Y-48500000D02*
X172500000Y-48500000D01*
X176000000Y-52000000D02*
X179500000Y-52000000D01*
X172500000Y-48500000D02*
X176000000Y-52000000D01*
D23*
%TO.N,Net-(D1-K)*%
X174000000Y-56000000D02*
X174000000Y-52000000D01*
X174000000Y-52000000D02*
X173000000Y-51000000D01*
D22*
%TO.N,/INT*%
X165500000Y-51000000D02*
X163500000Y-49000000D01*
X174500000Y-63380000D02*
X171500000Y-63380000D01*
X165500000Y-61000000D02*
X165500000Y-51000000D01*
%TO.N,/MOSI*%
X145000000Y-41000000D02*
X141960000Y-44040000D01*
X171480000Y-37185000D02*
X168315000Y-37185000D01*
X141960000Y-44040000D02*
X141960000Y-60000000D01*
X164500000Y-41000000D02*
X145000000Y-41000000D01*
X168315000Y-37185000D02*
X164500000Y-41000000D01*
D23*
%TO.N,/sw3*%
X139000000Y-74000000D02*
X140500000Y-72500000D01*
X167175000Y-49175000D02*
X167175000Y-53520000D01*
X135000000Y-74000000D02*
X139000000Y-74000000D01*
X166250000Y-48250000D02*
X167175000Y-49175000D01*
X138500000Y-40000000D02*
X134500000Y-44000000D01*
X162500000Y-40000000D02*
X138500000Y-40000000D01*
X134500000Y-73500000D02*
X135000000Y-74000000D01*
X134500000Y-44000000D02*
X134500000Y-73500000D01*
D22*
%TO.N,/SCL-SPU*%
X173500000Y-40225000D02*
X173500000Y-46930000D01*
X171480000Y-38455000D02*
X171730000Y-38455000D01*
X173500000Y-46930000D02*
X177250000Y-50680000D01*
X171730000Y-38455000D02*
X173500000Y-40225000D01*
D23*
%TO.N,Net-(D1-A)*%
X175500000Y-62500000D02*
X174000000Y-61000000D01*
X174000000Y-61000000D02*
X174000000Y-58540000D01*
X168500000Y-70525000D02*
X168500000Y-72000000D01*
X168500000Y-72000000D02*
X171000000Y-72000000D01*
X172500000Y-67510735D02*
X175500000Y-64510735D01*
X171000000Y-72000000D02*
X172500000Y-70500000D01*
X172500000Y-70500000D02*
X172500000Y-67510735D01*
X168475000Y-70500000D02*
X168500000Y-70525000D01*
X175500000Y-64510735D02*
X175500000Y-62500000D01*
D22*
%TO.N,/SCK*%
X151500000Y-57000000D02*
X151500000Y-61000000D01*
X141960000Y-63460000D02*
X141960000Y-62540000D01*
X151500000Y-61000000D02*
X148000000Y-64500000D01*
X161000000Y-47500000D02*
X151500000Y-57000000D01*
X148000000Y-64500000D02*
X143000000Y-64500000D01*
X167500000Y-47000000D02*
X167000000Y-47500000D01*
X167000000Y-47500000D02*
X161000000Y-47500000D01*
X143000000Y-64500000D02*
X141960000Y-63460000D01*
%TO.N,/IRQ*%
X153980000Y-43535000D02*
X145965000Y-43535000D01*
X145965000Y-43535000D02*
X144500000Y-45000000D01*
X144500000Y-45000000D02*
X144500000Y-60000000D01*
%TO.N,/MISO*%
X149000000Y-52000000D02*
X149000000Y-61000000D01*
X165805000Y-46000000D02*
X151500000Y-46000000D01*
X151500000Y-46000000D02*
X151000000Y-46500000D01*
X147460000Y-62540000D02*
X144500000Y-62540000D01*
X167000000Y-44805000D02*
X165805000Y-46000000D01*
X151000000Y-46500000D02*
X151000000Y-50000000D01*
X149000000Y-61000000D02*
X147460000Y-62540000D01*
X151000000Y-50000000D02*
X149000000Y-52000000D01*
%TO.N,/V_Bat*%
X140759000Y-64259000D02*
X142500000Y-66000000D01*
X144859471Y-61339000D02*
X141462529Y-61339000D01*
X142500000Y-73500000D02*
X143000000Y-74000000D01*
X146500000Y-59698471D02*
X144859471Y-61339000D01*
X186500000Y-70000000D02*
X193000000Y-63500000D01*
X143000000Y-74000000D02*
X180000000Y-74000000D01*
X193000000Y-63500000D02*
X193000000Y-60025000D01*
X180000000Y-74000000D02*
X184000000Y-70000000D01*
X140759000Y-62042529D02*
X140759000Y-64259000D01*
X146500000Y-51500000D02*
X146500000Y-59698471D01*
X141462529Y-61339000D02*
X140759000Y-62042529D01*
X148750000Y-49250000D02*
X146500000Y-51500000D01*
X142500000Y-66000000D02*
X142500000Y-73500000D01*
X184000000Y-70000000D02*
X186500000Y-70000000D01*
D24*
%TO.N,unconnected-(Con5-3v3-Pad1)*%
X178420000Y-37420000D02*
X178460000Y-37420000D01*
%TD*%
%TA.AperFunction,Conductor*%
%TO.N,GND*%
G36*
X195442539Y-34019685D02*
G01*
X195488294Y-34072489D01*
X195499500Y-34124000D01*
X195499500Y-74625500D01*
X195479815Y-74692539D01*
X195427011Y-74738294D01*
X195375500Y-74749500D01*
X180457936Y-74749500D01*
X180390897Y-74729815D01*
X180345142Y-74677011D01*
X180335198Y-74607853D01*
X180364223Y-74544297D01*
X180389045Y-74522398D01*
X180395458Y-74518113D01*
X180414669Y-74505277D01*
X182276233Y-72643713D01*
X184399500Y-72643713D01*
X184399500Y-72856287D01*
X184409534Y-72919644D01*
X184411740Y-72933570D01*
X184432754Y-73066243D01*
X184497590Y-73265788D01*
X184498444Y-73268414D01*
X184594951Y-73457820D01*
X184719890Y-73629786D01*
X184870213Y-73780109D01*
X185042179Y-73905048D01*
X185042181Y-73905049D01*
X185042184Y-73905051D01*
X185231588Y-74001557D01*
X185433757Y-74067246D01*
X185643713Y-74100500D01*
X185643714Y-74100500D01*
X185856286Y-74100500D01*
X185856287Y-74100500D01*
X186066243Y-74067246D01*
X186268412Y-74001557D01*
X186457816Y-73905051D01*
X186553076Y-73835841D01*
X186629786Y-73780109D01*
X186629788Y-73780106D01*
X186629792Y-73780104D01*
X186780104Y-73629792D01*
X186780106Y-73629788D01*
X186780109Y-73629786D01*
X186905048Y-73457820D01*
X186905047Y-73457820D01*
X186905051Y-73457816D01*
X187001557Y-73268412D01*
X187067246Y-73066243D01*
X187100500Y-72856287D01*
X187100500Y-72643713D01*
X190899500Y-72643713D01*
X190899500Y-72856287D01*
X190909534Y-72919644D01*
X190911740Y-72933570D01*
X190932754Y-73066243D01*
X190997590Y-73265788D01*
X190998444Y-73268414D01*
X191094951Y-73457820D01*
X191219890Y-73629786D01*
X191370213Y-73780109D01*
X191542179Y-73905048D01*
X191542181Y-73905049D01*
X191542184Y-73905051D01*
X191731588Y-74001557D01*
X191933757Y-74067246D01*
X192143713Y-74100500D01*
X192143714Y-74100500D01*
X192356286Y-74100500D01*
X192356287Y-74100500D01*
X192566243Y-74067246D01*
X192768412Y-74001557D01*
X192957816Y-73905051D01*
X193053076Y-73835841D01*
X193129786Y-73780109D01*
X193129788Y-73780106D01*
X193129792Y-73780104D01*
X193280104Y-73629792D01*
X193280106Y-73629788D01*
X193280109Y-73629786D01*
X193405048Y-73457820D01*
X193405047Y-73457820D01*
X193405051Y-73457816D01*
X193501557Y-73268412D01*
X193567246Y-73066243D01*
X193600500Y-72856287D01*
X193600500Y-72643713D01*
X193567246Y-72433757D01*
X193501557Y-72231588D01*
X193405051Y-72042184D01*
X193405049Y-72042181D01*
X193405048Y-72042179D01*
X193280109Y-71870213D01*
X193129786Y-71719890D01*
X192957820Y-71594951D01*
X192768414Y-71498444D01*
X192768413Y-71498443D01*
X192768412Y-71498443D01*
X192566243Y-71432754D01*
X192566241Y-71432753D01*
X192566240Y-71432753D01*
X192376440Y-71402692D01*
X192356287Y-71399500D01*
X192143713Y-71399500D01*
X192123560Y-71402692D01*
X191933760Y-71432753D01*
X191731585Y-71498444D01*
X191542179Y-71594951D01*
X191370213Y-71719890D01*
X191219890Y-71870213D01*
X191094951Y-72042179D01*
X190998444Y-72231585D01*
X190932753Y-72433760D01*
X190902384Y-72625502D01*
X190899500Y-72643713D01*
X187100500Y-72643713D01*
X187067246Y-72433757D01*
X187001557Y-72231588D01*
X186905051Y-72042184D01*
X186905049Y-72042181D01*
X186905048Y-72042179D01*
X186780109Y-71870213D01*
X186629786Y-71719890D01*
X186457820Y-71594951D01*
X186268414Y-71498444D01*
X186268413Y-71498443D01*
X186268412Y-71498443D01*
X186066243Y-71432754D01*
X186066241Y-71432753D01*
X186066240Y-71432753D01*
X185876440Y-71402692D01*
X185856287Y-71399500D01*
X185643713Y-71399500D01*
X185623560Y-71402692D01*
X185433760Y-71432753D01*
X185231585Y-71498444D01*
X185042179Y-71594951D01*
X184870213Y-71719890D01*
X184719890Y-71870213D01*
X184594951Y-72042179D01*
X184498444Y-72231585D01*
X184432753Y-72433760D01*
X184402384Y-72625502D01*
X184399500Y-72643713D01*
X182276233Y-72643713D01*
X184233127Y-70686819D01*
X184294450Y-70653334D01*
X184320808Y-70650500D01*
X186564071Y-70650500D01*
X186648615Y-70633682D01*
X186689744Y-70625501D01*
X186808127Y-70576465D01*
X186826679Y-70564069D01*
X186914669Y-70505277D01*
X187585445Y-69834501D01*
X188278540Y-69141407D01*
X189260454Y-68159493D01*
X191100000Y-68159493D01*
X191100000Y-68340506D01*
X191128317Y-68519293D01*
X191184251Y-68691444D01*
X191184252Y-68691447D01*
X191227904Y-68777118D01*
X191750000Y-68255024D01*
X191750000Y-68315826D01*
X191784075Y-68442993D01*
X191849901Y-68557007D01*
X191942993Y-68650099D01*
X192057007Y-68715925D01*
X192184174Y-68750000D01*
X192244974Y-68750000D01*
X191722879Y-69272093D01*
X191808552Y-69315747D01*
X191808555Y-69315748D01*
X191980706Y-69371682D01*
X192159494Y-69400000D01*
X192340506Y-69400000D01*
X192519293Y-69371682D01*
X192691445Y-69315747D01*
X192691452Y-69315744D01*
X192777119Y-69272093D01*
X192255027Y-68750000D01*
X192315826Y-68750000D01*
X192442993Y-68715925D01*
X192557007Y-68650099D01*
X192650099Y-68557007D01*
X192715925Y-68442993D01*
X192750000Y-68315826D01*
X192750000Y-68255026D01*
X193272093Y-68777119D01*
X193315744Y-68691452D01*
X193315747Y-68691445D01*
X193371682Y-68519293D01*
X193400000Y-68340506D01*
X193400000Y-68159493D01*
X193371682Y-67980706D01*
X193315748Y-67808555D01*
X193315747Y-67808552D01*
X193272093Y-67722879D01*
X192750000Y-68244972D01*
X192750000Y-68184174D01*
X192715925Y-68057007D01*
X192650099Y-67942993D01*
X192557007Y-67849901D01*
X192442993Y-67784075D01*
X192315826Y-67750000D01*
X192255026Y-67750000D01*
X192777119Y-67227905D01*
X192691447Y-67184252D01*
X192691444Y-67184251D01*
X192519293Y-67128317D01*
X192340506Y-67100000D01*
X192159494Y-67100000D01*
X191980706Y-67128317D01*
X191808553Y-67184252D01*
X191722879Y-67227904D01*
X192244975Y-67750000D01*
X192184174Y-67750000D01*
X192057007Y-67784075D01*
X191942993Y-67849901D01*
X191849901Y-67942993D01*
X191784075Y-68057007D01*
X191750000Y-68184174D01*
X191750000Y-68244974D01*
X191227904Y-67722879D01*
X191184252Y-67808553D01*
X191128317Y-67980706D01*
X191100000Y-68159493D01*
X189260454Y-68159493D01*
X190236718Y-67183229D01*
X193505273Y-63914672D01*
X193505272Y-63914672D01*
X193505276Y-63914669D01*
X193576465Y-63808127D01*
X193625501Y-63689744D01*
X193633307Y-63650500D01*
X193650500Y-63564069D01*
X193650500Y-60529935D01*
X193670185Y-60462896D01*
X193671366Y-60461090D01*
X193709394Y-60404179D01*
X193769737Y-60258497D01*
X193800500Y-60103842D01*
X193800500Y-59946158D01*
X193800500Y-59946155D01*
X193800499Y-59946153D01*
X193769738Y-59791510D01*
X193769737Y-59791503D01*
X193769735Y-59791498D01*
X193709397Y-59645827D01*
X193709390Y-59645814D01*
X193621789Y-59514711D01*
X193621786Y-59514707D01*
X193510292Y-59403213D01*
X193510288Y-59403210D01*
X193379185Y-59315609D01*
X193379172Y-59315602D01*
X193233501Y-59255264D01*
X193233489Y-59255261D01*
X193078845Y-59224500D01*
X193078842Y-59224500D01*
X192921158Y-59224500D01*
X192921155Y-59224500D01*
X192766510Y-59255261D01*
X192766498Y-59255264D01*
X192620827Y-59315602D01*
X192620814Y-59315609D01*
X192489711Y-59403210D01*
X192489707Y-59403213D01*
X192378213Y-59514707D01*
X192378210Y-59514711D01*
X192290609Y-59645814D01*
X192290602Y-59645827D01*
X192230264Y-59791498D01*
X192230261Y-59791510D01*
X192199500Y-59946153D01*
X192199500Y-60103846D01*
X192230261Y-60258489D01*
X192230264Y-60258501D01*
X192290602Y-60404172D01*
X192290606Y-60404179D01*
X192328602Y-60461044D01*
X192349480Y-60527721D01*
X192349500Y-60529935D01*
X192349500Y-63179192D01*
X192329815Y-63246231D01*
X192313181Y-63266873D01*
X187312181Y-68267873D01*
X187250858Y-68301358D01*
X187181166Y-68296374D01*
X187125233Y-68254502D01*
X187100816Y-68189038D01*
X187100500Y-68180192D01*
X187100500Y-68143713D01*
X187066484Y-67928945D01*
X187068123Y-67928685D01*
X187071257Y-67866126D01*
X187100655Y-67819289D01*
X191505276Y-63414669D01*
X191576465Y-63308127D01*
X191625501Y-63189744D01*
X191634102Y-63146503D01*
X191650500Y-63064069D01*
X191650500Y-56320807D01*
X191670185Y-56253768D01*
X191686819Y-56233126D01*
X192334617Y-55585328D01*
X193102931Y-54817013D01*
X193164252Y-54783530D01*
X193166284Y-54783106D01*
X193233497Y-54769737D01*
X193379179Y-54709394D01*
X193510289Y-54621789D01*
X193621789Y-54510289D01*
X193709394Y-54379179D01*
X193769737Y-54233497D01*
X193800500Y-54078842D01*
X193800500Y-53921158D01*
X193800500Y-53921155D01*
X193800499Y-53921153D01*
X193769738Y-53766510D01*
X193769737Y-53766503D01*
X193769735Y-53766498D01*
X193709397Y-53620828D01*
X193709396Y-53620827D01*
X193709394Y-53620821D01*
X193671396Y-53563953D01*
X193650520Y-53497276D01*
X193650500Y-53495064D01*
X193650500Y-50004935D01*
X193670185Y-49937896D01*
X193671366Y-49936090D01*
X193709394Y-49879179D01*
X193769737Y-49733497D01*
X193783079Y-49666416D01*
X193815463Y-49604509D01*
X193816958Y-49602986D01*
X195005276Y-48414670D01*
X195076465Y-48308127D01*
X195125501Y-48189744D01*
X195133307Y-48150500D01*
X195150500Y-48064069D01*
X195150500Y-38935931D01*
X195150500Y-38935928D01*
X195125502Y-38810261D01*
X195125501Y-38810260D01*
X195125501Y-38810256D01*
X195083329Y-38708443D01*
X195076466Y-38691875D01*
X195076461Y-38691866D01*
X195005277Y-38585332D01*
X194998787Y-38578842D01*
X194914669Y-38494724D01*
X194099137Y-37679192D01*
X193268741Y-36848795D01*
X193255784Y-36825066D01*
X193239804Y-36803258D01*
X193239289Y-36794858D01*
X193235256Y-36787472D01*
X193237184Y-36760505D01*
X193235531Y-36733519D01*
X193239639Y-36726173D01*
X193240240Y-36717780D01*
X193256440Y-36696138D01*
X193269641Y-36672541D01*
X193277069Y-36668582D01*
X193282112Y-36661847D01*
X193307440Y-36652399D01*
X193331303Y-36639685D01*
X193341635Y-36639645D01*
X193347576Y-36637430D01*
X193366531Y-36637527D01*
X193373634Y-36638108D01*
X193435931Y-36650500D01*
X193525125Y-36650500D01*
X193530174Y-36650913D01*
X193558249Y-36661712D01*
X193587104Y-36670185D01*
X193588909Y-36671366D01*
X193645821Y-36709394D01*
X193645823Y-36709395D01*
X193645827Y-36709397D01*
X193791498Y-36769735D01*
X193791503Y-36769737D01*
X193903235Y-36791962D01*
X193946153Y-36800499D01*
X193946156Y-36800500D01*
X193946158Y-36800500D01*
X194103844Y-36800500D01*
X194103845Y-36800499D01*
X194258497Y-36769737D01*
X194383933Y-36717780D01*
X194404172Y-36709397D01*
X194404172Y-36709396D01*
X194404179Y-36709394D01*
X194535289Y-36621789D01*
X194646789Y-36510289D01*
X194734394Y-36379179D01*
X194737859Y-36370815D01*
X194792163Y-36239711D01*
X194794737Y-36233497D01*
X194825500Y-36078842D01*
X194825500Y-35921158D01*
X194825500Y-35921155D01*
X194825499Y-35921153D01*
X194805539Y-35820808D01*
X194794737Y-35766503D01*
X194794735Y-35766498D01*
X194734397Y-35620827D01*
X194734390Y-35620814D01*
X194646789Y-35489711D01*
X194646786Y-35489707D01*
X194535292Y-35378213D01*
X194535288Y-35378210D01*
X194404185Y-35290609D01*
X194404172Y-35290602D01*
X194258501Y-35230264D01*
X194258489Y-35230261D01*
X194103845Y-35199500D01*
X194103842Y-35199500D01*
X193946158Y-35199500D01*
X193946155Y-35199500D01*
X193791505Y-35230261D01*
X193791498Y-35230264D01*
X193768134Y-35239941D01*
X193698665Y-35247407D01*
X193636187Y-35216130D01*
X193633005Y-35213059D01*
X192914674Y-34494727D01*
X192914673Y-34494726D01*
X192914669Y-34494723D01*
X192808127Y-34423535D01*
X192689744Y-34374499D01*
X192689738Y-34374497D01*
X192564071Y-34349500D01*
X192564069Y-34349500D01*
X151435931Y-34349500D01*
X151435929Y-34349500D01*
X151310261Y-34374497D01*
X151310255Y-34374499D01*
X151191874Y-34423534D01*
X151085326Y-34494726D01*
X150494724Y-35085328D01*
X150424955Y-35189747D01*
X150423535Y-35191871D01*
X150423532Y-35191877D01*
X150374500Y-35310251D01*
X150374497Y-35310261D01*
X150349500Y-35435928D01*
X150349500Y-38064071D01*
X150360788Y-38120817D01*
X150370671Y-38170500D01*
X150373410Y-38184270D01*
X150374499Y-38189744D01*
X150416277Y-38290606D01*
X150423535Y-38308127D01*
X150487304Y-38403565D01*
X150494726Y-38414673D01*
X151085325Y-39005272D01*
X151085332Y-39005278D01*
X151173320Y-39064069D01*
X151173321Y-39064069D01*
X151191873Y-39076465D01*
X151310256Y-39125501D01*
X151310260Y-39125501D01*
X151310261Y-39125502D01*
X151435928Y-39150500D01*
X151435931Y-39150500D01*
X153543767Y-39150500D01*
X153557779Y-39154009D01*
X153569039Y-39153103D01*
X153602217Y-39165140D01*
X153604088Y-39166140D01*
X153653934Y-39215101D01*
X153669396Y-39283238D01*
X153645567Y-39348919D01*
X153590010Y-39391289D01*
X153545638Y-39399500D01*
X138579057Y-39399500D01*
X138420942Y-39399500D01*
X138268215Y-39440423D01*
X138268214Y-39440423D01*
X138268212Y-39440424D01*
X138268209Y-39440425D01*
X138218096Y-39469359D01*
X138218095Y-39469360D01*
X138182853Y-39489707D01*
X138131285Y-39519479D01*
X138131282Y-39519481D01*
X134212181Y-43438583D01*
X134150858Y-43472068D01*
X134081166Y-43467084D01*
X134025233Y-43425212D01*
X134000816Y-43359748D01*
X134000500Y-43350902D01*
X134000500Y-34124000D01*
X134020185Y-34056961D01*
X134072989Y-34011206D01*
X134124500Y-34000000D01*
X195375500Y-34000000D01*
X195442539Y-34019685D01*
G37*
%TD.AperFunction*%
%TA.AperFunction,Conductor*%
G36*
X144247232Y-40620185D02*
G01*
X144292987Y-40672989D01*
X144302931Y-40742147D01*
X144273906Y-40805703D01*
X144267874Y-40812181D01*
X141454722Y-43625331D01*
X141454718Y-43625336D01*
X141432055Y-43659256D01*
X141432055Y-43659257D01*
X141383534Y-43731874D01*
X141334499Y-43850255D01*
X141334497Y-43850261D01*
X141309500Y-43975928D01*
X141309500Y-58740382D01*
X141289815Y-58807421D01*
X141255408Y-58841099D01*
X141256125Y-58842085D01*
X141080213Y-58969890D01*
X140929890Y-59120213D01*
X140804949Y-59292182D01*
X140800484Y-59300946D01*
X140752509Y-59351742D01*
X140684688Y-59368536D01*
X140618553Y-59345998D01*
X140579516Y-59300946D01*
X140575050Y-59292182D01*
X140450109Y-59120213D01*
X140299786Y-58969890D01*
X140127820Y-58844951D01*
X139938414Y-58748444D01*
X139938413Y-58748443D01*
X139938412Y-58748443D01*
X139736243Y-58682754D01*
X139736241Y-58682753D01*
X139736240Y-58682753D01*
X139530845Y-58650222D01*
X139526287Y-58649500D01*
X139313713Y-58649500D01*
X139309155Y-58650222D01*
X139103760Y-58682753D01*
X139103757Y-58682754D01*
X138957479Y-58730283D01*
X138901585Y-58748444D01*
X138712179Y-58844951D01*
X138540213Y-58969890D01*
X138389890Y-59120213D01*
X138264949Y-59292182D01*
X138260484Y-59300946D01*
X138212509Y-59351742D01*
X138144688Y-59368536D01*
X138078553Y-59345998D01*
X138039516Y-59300946D01*
X138035050Y-59292182D01*
X137910109Y-59120213D01*
X137759786Y-58969890D01*
X137587820Y-58844951D01*
X137398414Y-58748444D01*
X137398413Y-58748443D01*
X137398412Y-58748443D01*
X137196243Y-58682754D01*
X137196241Y-58682753D01*
X137196240Y-58682753D01*
X136990845Y-58650222D01*
X136986287Y-58649500D01*
X136773713Y-58649500D01*
X136769155Y-58650222D01*
X136563760Y-58682753D01*
X136563757Y-58682754D01*
X136417479Y-58730283D01*
X136361585Y-58748444D01*
X136172179Y-58844951D01*
X136000213Y-58969890D01*
X135849890Y-59120213D01*
X135724951Y-59292179D01*
X135628444Y-59481585D01*
X135562753Y-59683760D01*
X135541999Y-59814796D01*
X135529500Y-59893713D01*
X135529500Y-60106287D01*
X135539534Y-60169644D01*
X135553608Y-60258501D01*
X135562754Y-60316243D01*
X135627734Y-60516231D01*
X135628444Y-60518414D01*
X135724951Y-60707820D01*
X135849890Y-60879786D01*
X136000213Y-61030109D01*
X136172180Y-61155049D01*
X136173087Y-61155511D01*
X136173370Y-61155778D01*
X136176336Y-61157596D01*
X136175954Y-61158218D01*
X136223887Y-61203481D01*
X136240688Y-61271300D01*
X136218155Y-61337437D01*
X136163444Y-61380893D01*
X136116802Y-61390000D01*
X135985214Y-61390000D01*
X135985191Y-61390002D01*
X135960130Y-61392908D01*
X135960126Y-61392909D01*
X135857525Y-61438211D01*
X135857520Y-61438214D01*
X135778214Y-61517520D01*
X135778211Y-61517525D01*
X135732910Y-61620122D01*
X135732910Y-61620124D01*
X135730000Y-61645205D01*
X135730000Y-62190000D01*
X136522894Y-62190000D01*
X136479901Y-62232993D01*
X136414075Y-62347007D01*
X136380000Y-62474174D01*
X136380000Y-62605826D01*
X136414075Y-62732993D01*
X136479901Y-62847007D01*
X136522894Y-62890000D01*
X135730001Y-62890000D01*
X135730001Y-63434785D01*
X135730002Y-63434808D01*
X135732908Y-63459869D01*
X135732909Y-63459873D01*
X135778211Y-63562474D01*
X135778214Y-63562479D01*
X135857520Y-63641785D01*
X135857525Y-63641788D01*
X135960123Y-63687089D01*
X135985206Y-63689999D01*
X136529999Y-63689999D01*
X136530000Y-63689998D01*
X136530000Y-62897106D01*
X136572993Y-62940099D01*
X136687007Y-63005925D01*
X136814174Y-63040000D01*
X136945826Y-63040000D01*
X137072993Y-63005925D01*
X137187007Y-62940099D01*
X137230000Y-62897106D01*
X137230000Y-63689999D01*
X137774786Y-63689999D01*
X137774808Y-63689997D01*
X137799869Y-63687091D01*
X137799873Y-63687090D01*
X137902474Y-63641788D01*
X137902479Y-63641785D01*
X137981785Y-63562479D01*
X137981788Y-63562474D01*
X138027089Y-63459877D01*
X138027089Y-63459875D01*
X138029999Y-63434794D01*
X138029999Y-63303200D01*
X138049683Y-63236160D01*
X138102487Y-63190405D01*
X138171645Y-63180461D01*
X138235201Y-63209485D01*
X138262097Y-63243851D01*
X138262404Y-63243664D01*
X138264040Y-63246333D01*
X138264480Y-63246896D01*
X138264950Y-63247818D01*
X138389890Y-63419786D01*
X138540213Y-63570109D01*
X138712179Y-63695048D01*
X138712181Y-63695049D01*
X138712184Y-63695051D01*
X138901588Y-63791557D01*
X139103757Y-63857246D01*
X139313713Y-63890500D01*
X139313714Y-63890500D01*
X139526286Y-63890500D01*
X139526287Y-63890500D01*
X139736243Y-63857246D01*
X139938412Y-63791557D01*
X139938413Y-63791556D01*
X139943046Y-63790051D01*
X139943495Y-63791435D01*
X140006483Y-63784646D01*
X140068970Y-63815903D01*
X140104640Y-63875982D01*
X140108500Y-63906682D01*
X140108500Y-64323070D01*
X140110640Y-64333828D01*
X140126721Y-64414669D01*
X140130104Y-64431677D01*
X140133499Y-64448744D01*
X140170835Y-64538882D01*
X140182535Y-64567127D01*
X140224879Y-64630500D01*
X140253726Y-64673673D01*
X140253727Y-64673674D01*
X141813181Y-66233127D01*
X141846666Y-66294450D01*
X141849500Y-66320808D01*
X141849500Y-67519344D01*
X141829815Y-67586383D01*
X141777011Y-67632138D01*
X141707853Y-67642082D01*
X141644297Y-67613057D01*
X141624996Y-67589106D01*
X141624112Y-67589769D01*
X141532547Y-67467455D01*
X141532544Y-67467452D01*
X141417335Y-67381206D01*
X141417328Y-67381202D01*
X141282482Y-67330908D01*
X141282483Y-67330908D01*
X141222883Y-67324501D01*
X141222881Y-67324500D01*
X141222873Y-67324500D01*
X141222864Y-67324500D01*
X139777129Y-67324500D01*
X139777123Y-67324501D01*
X139717516Y-67330908D01*
X139582671Y-67381202D01*
X139582664Y-67381206D01*
X139467455Y-67467452D01*
X139467452Y-67467455D01*
X139381206Y-67582664D01*
X139381202Y-67582671D01*
X139330908Y-67717517D01*
X139325087Y-67771664D01*
X139324501Y-67777123D01*
X139324500Y-67777135D01*
X139324500Y-69222870D01*
X139324501Y-69222876D01*
X139330908Y-69282483D01*
X139381202Y-69417328D01*
X139381206Y-69417335D01*
X139467452Y-69532544D01*
X139467455Y-69532547D01*
X139582664Y-69618793D01*
X139582671Y-69618797D01*
X139627618Y-69635561D01*
X139717517Y-69669091D01*
X139777127Y-69675500D01*
X140119113Y-69675499D01*
X140186150Y-69695183D01*
X140206792Y-69711818D01*
X140499999Y-70005025D01*
X140793206Y-69711818D01*
X140854530Y-69678333D01*
X140880885Y-69675499D01*
X141222872Y-69675499D01*
X141282483Y-69669091D01*
X141417331Y-69618796D01*
X141532546Y-69532546D01*
X141574580Y-69476396D01*
X141624112Y-69410231D01*
X141626145Y-69411753D01*
X141666063Y-69371828D01*
X141734335Y-69356970D01*
X141799801Y-69381381D01*
X141841678Y-69437311D01*
X141849500Y-69480655D01*
X141849500Y-72066429D01*
X141829815Y-72133468D01*
X141777011Y-72179223D01*
X141707853Y-72189167D01*
X141644297Y-72160142D01*
X141607569Y-72104747D01*
X141589380Y-72048767D01*
X141589379Y-72048764D01*
X141505377Y-71883903D01*
X141495427Y-71870208D01*
X141396621Y-71734213D01*
X141265787Y-71603379D01*
X141116096Y-71494622D01*
X141106450Y-71489707D01*
X140951235Y-71410620D01*
X140951229Y-71410618D01*
X140926833Y-71402692D01*
X140877469Y-71372442D01*
X140500001Y-70994974D01*
X140122529Y-71372443D01*
X140073170Y-71402691D01*
X140048761Y-71410622D01*
X139883903Y-71494622D01*
X139878643Y-71498444D01*
X139734213Y-71603379D01*
X139734211Y-71603381D01*
X139734210Y-71603381D01*
X139603381Y-71734210D01*
X139603381Y-71734211D01*
X139603379Y-71734213D01*
X139579923Y-71766498D01*
X139494622Y-71883903D01*
X139410620Y-72048764D01*
X139410619Y-72048767D01*
X139353445Y-72224734D01*
X139324500Y-72407486D01*
X139324500Y-72592514D01*
X139324499Y-72592514D01*
X139346576Y-72731901D01*
X139337621Y-72801194D01*
X139311784Y-72838979D01*
X138787584Y-73363181D01*
X138726261Y-73396666D01*
X138699903Y-73399500D01*
X137542837Y-73399500D01*
X137475798Y-73379815D01*
X137430043Y-73327011D01*
X137420099Y-73257853D01*
X137442519Y-73202615D01*
X137478846Y-73152614D01*
X137505378Y-73116096D01*
X137589379Y-72951235D01*
X137646555Y-72775264D01*
X137675500Y-72592514D01*
X137675500Y-72407486D01*
X137646555Y-72224736D01*
X137607569Y-72104747D01*
X137589380Y-72048767D01*
X137589379Y-72048764D01*
X137505377Y-71883903D01*
X137495427Y-71870208D01*
X137396621Y-71734213D01*
X137265787Y-71603379D01*
X137116096Y-71494622D01*
X137106450Y-71489707D01*
X136951235Y-71410620D01*
X136951229Y-71410618D01*
X136926833Y-71402692D01*
X136877469Y-71372442D01*
X136500001Y-70994974D01*
X136122529Y-71372443D01*
X136073170Y-71402691D01*
X136048761Y-71410622D01*
X135883903Y-71494622D01*
X135878643Y-71498444D01*
X135734213Y-71603379D01*
X135734211Y-71603381D01*
X135734210Y-71603381D01*
X135603381Y-71734210D01*
X135603381Y-71734211D01*
X135603379Y-71734213D01*
X135579923Y-71766498D01*
X135494622Y-71883903D01*
X135410620Y-72048764D01*
X135410619Y-72048767D01*
X135353445Y-72224734D01*
X135346973Y-72265597D01*
X135317044Y-72328732D01*
X135257732Y-72365663D01*
X135187870Y-72364665D01*
X135129637Y-72326055D01*
X135101523Y-72262091D01*
X135100500Y-72246199D01*
X135100500Y-70403966D01*
X135525000Y-70403966D01*
X135525000Y-70596033D01*
X135562466Y-70784389D01*
X135562468Y-70784397D01*
X135608792Y-70896233D01*
X136005026Y-70500000D01*
X136005026Y-70499999D01*
X135952366Y-70447339D01*
X136100000Y-70447339D01*
X136100000Y-70552661D01*
X136127259Y-70654394D01*
X136179920Y-70745606D01*
X136254394Y-70820080D01*
X136345606Y-70872741D01*
X136447339Y-70900000D01*
X136552661Y-70900000D01*
X136654394Y-70872741D01*
X136745606Y-70820080D01*
X136820080Y-70745606D01*
X136872741Y-70654394D01*
X136900000Y-70552661D01*
X136900000Y-70499999D01*
X136994974Y-70499999D01*
X136994974Y-70500001D01*
X137391206Y-70896233D01*
X137437532Y-70784393D01*
X137437533Y-70784389D01*
X137474999Y-70596033D01*
X137475000Y-70596030D01*
X137475000Y-70403970D01*
X137474999Y-70403966D01*
X139525000Y-70403966D01*
X139525000Y-70596033D01*
X139562466Y-70784389D01*
X139562468Y-70784397D01*
X139608792Y-70896233D01*
X140005026Y-70500000D01*
X140005026Y-70499999D01*
X139952366Y-70447339D01*
X140100000Y-70447339D01*
X140100000Y-70552661D01*
X140127259Y-70654394D01*
X140179920Y-70745606D01*
X140254394Y-70820080D01*
X140345606Y-70872741D01*
X140447339Y-70900000D01*
X140552661Y-70900000D01*
X140654394Y-70872741D01*
X140745606Y-70820080D01*
X140820080Y-70745606D01*
X140872741Y-70654394D01*
X140900000Y-70552661D01*
X140900000Y-70499999D01*
X140994974Y-70499999D01*
X140994974Y-70500001D01*
X141391206Y-70896233D01*
X141437532Y-70784393D01*
X141437533Y-70784389D01*
X141474999Y-70596033D01*
X141475000Y-70596030D01*
X141475000Y-70403970D01*
X141474999Y-70403966D01*
X141437533Y-70215610D01*
X141437531Y-70215602D01*
X141391206Y-70103765D01*
X140994974Y-70499999D01*
X140900000Y-70499999D01*
X140900000Y-70447339D01*
X140872741Y-70345606D01*
X140820080Y-70254394D01*
X140745606Y-70179920D01*
X140654394Y-70127259D01*
X140552661Y-70100000D01*
X140447339Y-70100000D01*
X140345606Y-70127259D01*
X140254394Y-70179920D01*
X140179920Y-70254394D01*
X140127259Y-70345606D01*
X140100000Y-70447339D01*
X139952366Y-70447339D01*
X139608792Y-70103765D01*
X139562469Y-70215599D01*
X139562466Y-70215611D01*
X139525000Y-70403966D01*
X137474999Y-70403966D01*
X137437533Y-70215610D01*
X137437531Y-70215602D01*
X137391206Y-70103765D01*
X136994974Y-70499999D01*
X136900000Y-70499999D01*
X136900000Y-70447339D01*
X136872741Y-70345606D01*
X136820080Y-70254394D01*
X136745606Y-70179920D01*
X136654394Y-70127259D01*
X136552661Y-70100000D01*
X136447339Y-70100000D01*
X136345606Y-70127259D01*
X136254394Y-70179920D01*
X136179920Y-70254394D01*
X136127259Y-70345606D01*
X136100000Y-70447339D01*
X135952366Y-70447339D01*
X135608792Y-70103765D01*
X135562469Y-70215599D01*
X135562466Y-70215611D01*
X135525000Y-70403966D01*
X135100500Y-70403966D01*
X135100500Y-69352019D01*
X135120185Y-69284980D01*
X135172989Y-69239225D01*
X135242147Y-69229281D01*
X135305703Y-69258306D01*
X135340682Y-69308686D01*
X135381202Y-69417328D01*
X135381206Y-69417335D01*
X135467452Y-69532544D01*
X135467455Y-69532547D01*
X135582664Y-69618793D01*
X135582671Y-69618797D01*
X135627618Y-69635561D01*
X135717517Y-69669091D01*
X135777127Y-69675500D01*
X136119113Y-69675499D01*
X136186150Y-69695183D01*
X136206792Y-69711818D01*
X136499999Y-70005025D01*
X136793206Y-69711818D01*
X136854530Y-69678333D01*
X136880885Y-69675499D01*
X137222872Y-69675499D01*
X137282483Y-69669091D01*
X137417331Y-69618796D01*
X137532546Y-69532546D01*
X137618796Y-69417331D01*
X137669091Y-69282483D01*
X137675500Y-69222873D01*
X137675499Y-67777128D01*
X137669091Y-67717517D01*
X137665320Y-67707407D01*
X137618797Y-67582671D01*
X137618793Y-67582664D01*
X137532547Y-67467455D01*
X137532544Y-67467452D01*
X137417335Y-67381206D01*
X137417328Y-67381202D01*
X137282482Y-67330908D01*
X137282483Y-67330908D01*
X137222883Y-67324501D01*
X137222881Y-67324500D01*
X137222873Y-67324500D01*
X137222864Y-67324500D01*
X135777129Y-67324500D01*
X135777123Y-67324501D01*
X135717516Y-67330908D01*
X135582671Y-67381202D01*
X135582664Y-67381206D01*
X135467455Y-67467452D01*
X135467452Y-67467455D01*
X135381206Y-67582664D01*
X135381202Y-67582671D01*
X135340682Y-67691313D01*
X135298811Y-67747247D01*
X135233347Y-67771664D01*
X135165074Y-67756812D01*
X135115668Y-67707407D01*
X135100500Y-67647980D01*
X135100500Y-44300097D01*
X135120185Y-44233058D01*
X135136819Y-44212416D01*
X138712416Y-40636819D01*
X138773739Y-40603334D01*
X138800097Y-40600500D01*
X144180193Y-40600500D01*
X144247232Y-40620185D01*
G37*
%TD.AperFunction*%
%TA.AperFunction,Conductor*%
G36*
X189644137Y-35670185D02*
G01*
X189689892Y-35722989D01*
X189699836Y-35792147D01*
X189670811Y-35855703D01*
X189624549Y-35889062D01*
X189620821Y-35890605D01*
X189620814Y-35890609D01*
X189489711Y-35978210D01*
X189489707Y-35978213D01*
X189378213Y-36089707D01*
X189378210Y-36089711D01*
X189290609Y-36220814D01*
X189290602Y-36220827D01*
X189230264Y-36366498D01*
X189230261Y-36366510D01*
X189199500Y-36521153D01*
X189199500Y-36678846D01*
X189230261Y-36833489D01*
X189230264Y-36833501D01*
X189290602Y-36979172D01*
X189290609Y-36979185D01*
X189378210Y-37110288D01*
X189378213Y-37110292D01*
X189489707Y-37221786D01*
X189489711Y-37221789D01*
X189585012Y-37285468D01*
X189629817Y-37339080D01*
X189638524Y-37408405D01*
X189608369Y-37471433D01*
X189603803Y-37476251D01*
X189494718Y-37585336D01*
X189447066Y-37656656D01*
X189447064Y-37656659D01*
X189423539Y-37691864D01*
X189423533Y-37691875D01*
X189374499Y-37810255D01*
X189374497Y-37810261D01*
X189349500Y-37935928D01*
X189349500Y-37995064D01*
X189329815Y-38062103D01*
X189328603Y-38063954D01*
X189290608Y-38120817D01*
X189290602Y-38120828D01*
X189230264Y-38266498D01*
X189230261Y-38266510D01*
X189199500Y-38421153D01*
X189199500Y-38578846D01*
X189230261Y-38733489D01*
X189230264Y-38733501D01*
X189290602Y-38879172D01*
X189290609Y-38879185D01*
X189378210Y-39010288D01*
X189378213Y-39010292D01*
X189489707Y-39121786D01*
X189489711Y-39121789D01*
X189620814Y-39209390D01*
X189620827Y-39209397D01*
X189737812Y-39257853D01*
X189766503Y-39269737D01*
X189890738Y-39294449D01*
X189921153Y-39300499D01*
X189921156Y-39300500D01*
X189921158Y-39300500D01*
X190078844Y-39300500D01*
X190078845Y-39300499D01*
X190233497Y-39269737D01*
X190379179Y-39209394D01*
X190510289Y-39121789D01*
X190621789Y-39010289D01*
X190681348Y-38921153D01*
X191174500Y-38921153D01*
X191174500Y-39078846D01*
X191205261Y-39233489D01*
X191205264Y-39233501D01*
X191265602Y-39379172D01*
X191265609Y-39379185D01*
X191353210Y-39510288D01*
X191353213Y-39510292D01*
X191464707Y-39621786D01*
X191464711Y-39621789D01*
X191595814Y-39709390D01*
X191595827Y-39709397D01*
X191733683Y-39766498D01*
X191741503Y-39769737D01*
X191896153Y-39800499D01*
X191896156Y-39800500D01*
X191896158Y-39800500D01*
X192053844Y-39800500D01*
X192053845Y-39800499D01*
X192208497Y-39769737D01*
X192354179Y-39709394D01*
X192485289Y-39621789D01*
X192596789Y-39510289D01*
X192684394Y-39379179D01*
X192744737Y-39233497D01*
X192775500Y-39078842D01*
X192775500Y-38921158D01*
X192775500Y-38921155D01*
X192775499Y-38921153D01*
X192758200Y-38834185D01*
X192744737Y-38766503D01*
X192722904Y-38713793D01*
X192684397Y-38620827D01*
X192684390Y-38620814D01*
X192596789Y-38489711D01*
X192596786Y-38489707D01*
X192485292Y-38378213D01*
X192485288Y-38378210D01*
X192354185Y-38290609D01*
X192354172Y-38290602D01*
X192208501Y-38230264D01*
X192208489Y-38230261D01*
X192053845Y-38199500D01*
X192053842Y-38199500D01*
X191896158Y-38199500D01*
X191896155Y-38199500D01*
X191741510Y-38230261D01*
X191741498Y-38230264D01*
X191595827Y-38290602D01*
X191595814Y-38290609D01*
X191464711Y-38378210D01*
X191464707Y-38378213D01*
X191353213Y-38489707D01*
X191353210Y-38489711D01*
X191265609Y-38620814D01*
X191265602Y-38620827D01*
X191205264Y-38766498D01*
X191205261Y-38766510D01*
X191174500Y-38921153D01*
X190681348Y-38921153D01*
X190709394Y-38879179D01*
X190769737Y-38733497D01*
X190800500Y-38578842D01*
X190800500Y-38421158D01*
X190800500Y-38421155D01*
X190800499Y-38421153D01*
X190799209Y-38414669D01*
X190769737Y-38266503D01*
X190767382Y-38260819D01*
X190759911Y-38191353D01*
X190791183Y-38128872D01*
X190794230Y-38125714D01*
X191233127Y-37686819D01*
X191294450Y-37653334D01*
X191320808Y-37650500D01*
X192179192Y-37650500D01*
X192246231Y-37670185D01*
X192266873Y-37686819D01*
X193813181Y-39233126D01*
X193846666Y-39294449D01*
X193849500Y-39320807D01*
X193849500Y-47679191D01*
X193829815Y-47746230D01*
X193813181Y-47766872D01*
X192897068Y-48682984D01*
X192835745Y-48716469D01*
X192833579Y-48716920D01*
X192766508Y-48730261D01*
X192766498Y-48730264D01*
X192620827Y-48790602D01*
X192620814Y-48790609D01*
X192489711Y-48878210D01*
X192489707Y-48878213D01*
X192378213Y-48989707D01*
X192378210Y-48989711D01*
X192290609Y-49120814D01*
X192290602Y-49120827D01*
X192230264Y-49266498D01*
X192230261Y-49266510D01*
X192199500Y-49421153D01*
X192199500Y-49578846D01*
X192230261Y-49733489D01*
X192230264Y-49733501D01*
X192290602Y-49879172D01*
X192290606Y-49879179D01*
X192328602Y-49936044D01*
X192349480Y-50002721D01*
X192349500Y-50004935D01*
X192349500Y-53495064D01*
X192329815Y-53562103D01*
X192328603Y-53563954D01*
X192290608Y-53620817D01*
X192290602Y-53620828D01*
X192230263Y-53766500D01*
X192230261Y-53766506D01*
X192216919Y-53833581D01*
X192184533Y-53895491D01*
X192182983Y-53897069D01*
X190494725Y-55585328D01*
X190494724Y-55585329D01*
X190443858Y-55661458D01*
X190443856Y-55661460D01*
X190423539Y-55691864D01*
X190423533Y-55691875D01*
X190374499Y-55810255D01*
X190374497Y-55810261D01*
X190349500Y-55935928D01*
X190349500Y-62679191D01*
X190329815Y-62746230D01*
X190313181Y-62766872D01*
X186180710Y-66899342D01*
X186119387Y-66932827D01*
X186071245Y-66932315D01*
X186071055Y-66933516D01*
X185966111Y-66916894D01*
X185856287Y-66899500D01*
X185643713Y-66899500D01*
X185595042Y-66907208D01*
X185433760Y-66932753D01*
X185231585Y-66998444D01*
X185042179Y-67094951D01*
X184870213Y-67219890D01*
X184719890Y-67370213D01*
X184594951Y-67542179D01*
X184498444Y-67731585D01*
X184432753Y-67933760D01*
X184399500Y-68143713D01*
X184399500Y-68356286D01*
X184432409Y-68564070D01*
X184432754Y-68566243D01*
X184495690Y-68759940D01*
X184498444Y-68768414D01*
X184594951Y-68957820D01*
X184719890Y-69129786D01*
X184727923Y-69137819D01*
X184761408Y-69199142D01*
X184756424Y-69268834D01*
X184714552Y-69324767D01*
X184649088Y-69349184D01*
X184640242Y-69349500D01*
X183935929Y-69349500D01*
X183810261Y-69374497D01*
X183810255Y-69374499D01*
X183691870Y-69423535D01*
X183585331Y-69494722D01*
X183585324Y-69494728D01*
X179766873Y-73313181D01*
X179705550Y-73346666D01*
X179679192Y-73349500D01*
X149579164Y-73349500D01*
X149512125Y-73329815D01*
X149466370Y-73277011D01*
X149456426Y-73207853D01*
X149478846Y-73152614D01*
X149505378Y-73116096D01*
X149589379Y-72951235D01*
X149646555Y-72775264D01*
X149675500Y-72592514D01*
X149675500Y-72407486D01*
X149646555Y-72224736D01*
X149607569Y-72104747D01*
X149589380Y-72048767D01*
X149589379Y-72048764D01*
X149505377Y-71883903D01*
X149495427Y-71870208D01*
X149396621Y-71734213D01*
X149265787Y-71603379D01*
X149116096Y-71494622D01*
X149106450Y-71489707D01*
X148951235Y-71410620D01*
X148951229Y-71410618D01*
X148926833Y-71402692D01*
X148877469Y-71372442D01*
X148500001Y-70994974D01*
X148122529Y-71372443D01*
X148073170Y-71402691D01*
X148048761Y-71410622D01*
X147883903Y-71494622D01*
X147878643Y-71498444D01*
X147734213Y-71603379D01*
X147734211Y-71603381D01*
X147734210Y-71603381D01*
X147603381Y-71734210D01*
X147603381Y-71734211D01*
X147603379Y-71734213D01*
X147579923Y-71766498D01*
X147494622Y-71883903D01*
X147410620Y-72048764D01*
X147410619Y-72048767D01*
X147353445Y-72224734D01*
X147328983Y-72379179D01*
X147324500Y-72407486D01*
X147324500Y-72592514D01*
X147332609Y-72643713D01*
X147353445Y-72775265D01*
X147410619Y-72951232D01*
X147410620Y-72951235D01*
X147494622Y-73116096D01*
X147521154Y-73152614D01*
X147544634Y-73218421D01*
X147528809Y-73286475D01*
X147478703Y-73335170D01*
X147420836Y-73349500D01*
X145579164Y-73349500D01*
X145512125Y-73329815D01*
X145466370Y-73277011D01*
X145456426Y-73207853D01*
X145478846Y-73152614D01*
X145505378Y-73116096D01*
X145589379Y-72951235D01*
X145646555Y-72775264D01*
X145675500Y-72592514D01*
X145675500Y-72407486D01*
X145646555Y-72224736D01*
X145607569Y-72104747D01*
X145589380Y-72048767D01*
X145589379Y-72048764D01*
X145505377Y-71883903D01*
X145495427Y-71870208D01*
X145396621Y-71734213D01*
X145265787Y-71603379D01*
X145116096Y-71494622D01*
X145106450Y-71489707D01*
X144951235Y-71410620D01*
X144951229Y-71410618D01*
X144926833Y-71402692D01*
X144877469Y-71372442D01*
X144500001Y-70994974D01*
X144122529Y-71372443D01*
X144073170Y-71402691D01*
X144048761Y-71410622D01*
X143883903Y-71494622D01*
X143878643Y-71498444D01*
X143734213Y-71603379D01*
X143734211Y-71603381D01*
X143734210Y-71603381D01*
X143603381Y-71734210D01*
X143603381Y-71734211D01*
X143603379Y-71734213D01*
X143579923Y-71766498D01*
X143494622Y-71883903D01*
X143410620Y-72048764D01*
X143410619Y-72048767D01*
X143392431Y-72104747D01*
X143352994Y-72162423D01*
X143288635Y-72189621D01*
X143219789Y-72177706D01*
X143168313Y-72130462D01*
X143150500Y-72066429D01*
X143150500Y-70403966D01*
X143525000Y-70403966D01*
X143525000Y-70596033D01*
X143562466Y-70784389D01*
X143562468Y-70784397D01*
X143608792Y-70896233D01*
X144005026Y-70500000D01*
X144005026Y-70499999D01*
X143608792Y-70103765D01*
X143562469Y-70215599D01*
X143562466Y-70215611D01*
X143525000Y-70403966D01*
X143150500Y-70403966D01*
X143150500Y-69480655D01*
X143170185Y-69413616D01*
X143222989Y-69367861D01*
X143292147Y-69357917D01*
X143355703Y-69386942D01*
X143375002Y-69410893D01*
X143375888Y-69410231D01*
X143467452Y-69532544D01*
X143467455Y-69532547D01*
X143582664Y-69618793D01*
X143582671Y-69618797D01*
X143627618Y-69635561D01*
X143717517Y-69669091D01*
X143777127Y-69675500D01*
X144119113Y-69675499D01*
X144186150Y-69695183D01*
X144206792Y-69711818D01*
X144610461Y-70115487D01*
X144552661Y-70100000D01*
X144447339Y-70100000D01*
X144345606Y-70127259D01*
X144254394Y-70179920D01*
X144179920Y-70254394D01*
X144127259Y-70345606D01*
X144100000Y-70447339D01*
X144100000Y-70552661D01*
X144127259Y-70654394D01*
X144179920Y-70745606D01*
X144254394Y-70820080D01*
X144345606Y-70872741D01*
X144447339Y-70900000D01*
X144552661Y-70900000D01*
X144654394Y-70872741D01*
X144745606Y-70820080D01*
X144820080Y-70745606D01*
X144872741Y-70654394D01*
X144900000Y-70552661D01*
X144900000Y-70447339D01*
X144884512Y-70389538D01*
X145391206Y-70896233D01*
X145437532Y-70784393D01*
X145437533Y-70784389D01*
X145474999Y-70596033D01*
X145475000Y-70596030D01*
X145475000Y-70403970D01*
X145474999Y-70403966D01*
X145439340Y-70224691D01*
X145445567Y-70155099D01*
X145488430Y-70099922D01*
X145554320Y-70076678D01*
X145560957Y-70076500D01*
X147439043Y-70076500D01*
X147506082Y-70096185D01*
X147551837Y-70148989D01*
X147561781Y-70218147D01*
X147560660Y-70224691D01*
X147525000Y-70403966D01*
X147525000Y-70596033D01*
X147562466Y-70784389D01*
X147562468Y-70784397D01*
X147608792Y-70896233D01*
X148115487Y-70389538D01*
X148100000Y-70447339D01*
X148100000Y-70552661D01*
X148127259Y-70654394D01*
X148179920Y-70745606D01*
X148254394Y-70820080D01*
X148345606Y-70872741D01*
X148447339Y-70900000D01*
X148552661Y-70900000D01*
X148654394Y-70872741D01*
X148745606Y-70820080D01*
X148820080Y-70745606D01*
X148872741Y-70654394D01*
X148900000Y-70552661D01*
X148900000Y-70447339D01*
X148884512Y-70389539D01*
X149391206Y-70896233D01*
X149437532Y-70784393D01*
X149437533Y-70784389D01*
X149474999Y-70596033D01*
X149475000Y-70596030D01*
X149475000Y-70403970D01*
X149474999Y-70403966D01*
X149439340Y-70224691D01*
X149445567Y-70155099D01*
X149488430Y-70099922D01*
X149554320Y-70076678D01*
X149560957Y-70076500D01*
X155437331Y-70076500D01*
X155437347Y-70076501D01*
X155444943Y-70076501D01*
X155603054Y-70076501D01*
X155603057Y-70076501D01*
X155755785Y-70035577D01*
X155826544Y-69994724D01*
X155892716Y-69956520D01*
X156004520Y-69844716D01*
X156004520Y-69844714D01*
X156014724Y-69834511D01*
X156014727Y-69834506D01*
X156508881Y-69340352D01*
X156570202Y-69306869D01*
X156639894Y-69311853D01*
X156695827Y-69353725D01*
X156720244Y-69419189D01*
X156708662Y-69476396D01*
X156710310Y-69477079D01*
X156708445Y-69481580D01*
X156642753Y-69683760D01*
X156622489Y-69811705D01*
X156609500Y-69893713D01*
X156609500Y-70106287D01*
X156642754Y-70316243D01*
X156704175Y-70505278D01*
X156708444Y-70518414D01*
X156804951Y-70707820D01*
X156929890Y-70879786D01*
X157080209Y-71030105D01*
X157080214Y-71030109D01*
X157211071Y-71125182D01*
X157253737Y-71180512D01*
X157259716Y-71250125D01*
X157227111Y-71311920D01*
X157166272Y-71346277D01*
X157138186Y-71349500D01*
X155504935Y-71349500D01*
X155437896Y-71329815D01*
X155436090Y-71328633D01*
X155379179Y-71290606D01*
X155379172Y-71290602D01*
X155233501Y-71230264D01*
X155233489Y-71230261D01*
X155078845Y-71199500D01*
X155078842Y-71199500D01*
X154921158Y-71199500D01*
X154921155Y-71199500D01*
X154766510Y-71230261D01*
X154766498Y-71230264D01*
X154620827Y-71290602D01*
X154620814Y-71290609D01*
X154489711Y-71378210D01*
X154489707Y-71378213D01*
X154378213Y-71489707D01*
X154378210Y-71489711D01*
X154290609Y-71620814D01*
X154290602Y-71620827D01*
X154230264Y-71766498D01*
X154230261Y-71766510D01*
X154199500Y-71921153D01*
X154199500Y-72078846D01*
X154230261Y-72233489D01*
X154230264Y-72233501D01*
X154290602Y-72379172D01*
X154290609Y-72379185D01*
X154378210Y-72510288D01*
X154378213Y-72510292D01*
X154489707Y-72621786D01*
X154489711Y-72621789D01*
X154620814Y-72709390D01*
X154620827Y-72709397D01*
X154728027Y-72753800D01*
X154766503Y-72769737D01*
X154921153Y-72800499D01*
X154921156Y-72800500D01*
X154921158Y-72800500D01*
X155078844Y-72800500D01*
X155078845Y-72800499D01*
X155233497Y-72769737D01*
X155379179Y-72709394D01*
X155436044Y-72671397D01*
X155502721Y-72650520D01*
X155504935Y-72650500D01*
X163064071Y-72650500D01*
X163148615Y-72633682D01*
X163189744Y-72625501D01*
X163308127Y-72576465D01*
X163333402Y-72559577D01*
X163333404Y-72559576D01*
X163407163Y-72510292D01*
X163414669Y-72505277D01*
X167005276Y-68914670D01*
X167055716Y-68839181D01*
X167076464Y-68808129D01*
X167078584Y-68803011D01*
X167125501Y-68689744D01*
X167133506Y-68649500D01*
X167150068Y-68566243D01*
X167150500Y-68564070D01*
X167150500Y-66613428D01*
X169030000Y-66613428D01*
X169030000Y-66786571D01*
X169057086Y-66957585D01*
X169057086Y-66957588D01*
X169110588Y-67122250D01*
X169110590Y-67122253D01*
X169145080Y-67189944D01*
X169535501Y-66799523D01*
X169570889Y-66931591D01*
X169649881Y-67068408D01*
X169761592Y-67180119D01*
X169898409Y-67259111D01*
X170030475Y-67294498D01*
X169640054Y-67684919D01*
X169707742Y-67719408D01*
X169872415Y-67772914D01*
X170043429Y-67800000D01*
X170216571Y-67800000D01*
X170387584Y-67772914D01*
X170552254Y-67719408D01*
X170552258Y-67719407D01*
X170619944Y-67684918D01*
X170229524Y-67294497D01*
X170361591Y-67259111D01*
X170498408Y-67180119D01*
X170610119Y-67068408D01*
X170689111Y-66931591D01*
X170724498Y-66799524D01*
X171114918Y-67189944D01*
X171149407Y-67122258D01*
X171149408Y-67122254D01*
X171202914Y-66957584D01*
X171230000Y-66786571D01*
X171230000Y-66613428D01*
X171202914Y-66442415D01*
X171149408Y-66277742D01*
X171114918Y-66210054D01*
X170724498Y-66600475D01*
X170689111Y-66468409D01*
X170610119Y-66331592D01*
X170498408Y-66219881D01*
X170361591Y-66140889D01*
X170229523Y-66105501D01*
X170619944Y-65715080D01*
X170619944Y-65715079D01*
X170552253Y-65680590D01*
X170552250Y-65680588D01*
X170387586Y-65627086D01*
X170216571Y-65600000D01*
X170043429Y-65600000D01*
X169872414Y-65627086D01*
X169872411Y-65627086D01*
X169707748Y-65680589D01*
X169707747Y-65680589D01*
X169640054Y-65715079D01*
X170030476Y-66105501D01*
X169898409Y-66140889D01*
X169761592Y-66219881D01*
X169649881Y-66331592D01*
X169570889Y-66468409D01*
X169535501Y-66600476D01*
X169145079Y-66210054D01*
X169110589Y-66277747D01*
X169110589Y-66277748D01*
X169057086Y-66442411D01*
X169057086Y-66442414D01*
X169030000Y-66613428D01*
X167150500Y-66613428D01*
X167150500Y-66320808D01*
X167170185Y-66253769D01*
X167186819Y-66233127D01*
X170648402Y-62771544D01*
X170709725Y-62738059D01*
X170779417Y-62743043D01*
X170835350Y-62784915D01*
X170859767Y-62850379D01*
X170844915Y-62918652D01*
X170839185Y-62928115D01*
X170790612Y-63000809D01*
X170790602Y-63000827D01*
X170730264Y-63146498D01*
X170730261Y-63146510D01*
X170699500Y-63301153D01*
X170699500Y-63458846D01*
X170730261Y-63613489D01*
X170730264Y-63613501D01*
X170790602Y-63759172D01*
X170790609Y-63759185D01*
X170878210Y-63890288D01*
X170878213Y-63890292D01*
X170989707Y-64001786D01*
X170989711Y-64001789D01*
X171120814Y-64089390D01*
X171120827Y-64089397D01*
X171266498Y-64149735D01*
X171266503Y-64149737D01*
X171396514Y-64175598D01*
X171421153Y-64180499D01*
X171421156Y-64180500D01*
X171421158Y-64180500D01*
X171578844Y-64180500D01*
X171578845Y-64180499D01*
X171733497Y-64149737D01*
X171879179Y-64089394D01*
X171936044Y-64051397D01*
X172002721Y-64030520D01*
X172004935Y-64030500D01*
X173995065Y-64030500D01*
X174062104Y-64050185D01*
X174063909Y-64051366D01*
X174120821Y-64089394D01*
X174120823Y-64089395D01*
X174120827Y-64089397D01*
X174266498Y-64149735D01*
X174266503Y-64149737D01*
X174396514Y-64175598D01*
X174421153Y-64180499D01*
X174421156Y-64180500D01*
X174421158Y-64180500D01*
X174578844Y-64180500D01*
X174679936Y-64160391D01*
X174749528Y-64166618D01*
X174804705Y-64209481D01*
X174827950Y-64275370D01*
X174811883Y-64343367D01*
X174791809Y-64369689D01*
X172131286Y-67030213D01*
X172019481Y-67142017D01*
X172019479Y-67142020D01*
X171997659Y-67179815D01*
X171974518Y-67219896D01*
X171940423Y-67278950D01*
X171899499Y-67431678D01*
X171899499Y-67431680D01*
X171899499Y-67599781D01*
X171899500Y-67599794D01*
X171899500Y-70199903D01*
X171879815Y-70266942D01*
X171863181Y-70287584D01*
X170787584Y-71363181D01*
X170726261Y-71396666D01*
X170699903Y-71399500D01*
X169224500Y-71399500D01*
X169215814Y-71396949D01*
X169206853Y-71398238D01*
X169182812Y-71387259D01*
X169157461Y-71379815D01*
X169151533Y-71372974D01*
X169143297Y-71369213D01*
X169129007Y-71346978D01*
X169111706Y-71327011D01*
X169109418Y-71316496D01*
X169105523Y-71310435D01*
X169100500Y-71275500D01*
X169100500Y-71042350D01*
X169120185Y-70975311D01*
X169121398Y-70973459D01*
X169132073Y-70957483D01*
X169184394Y-70879179D01*
X169188728Y-70868717D01*
X169244735Y-70733501D01*
X169244737Y-70733497D01*
X169275500Y-70578842D01*
X169275500Y-70421158D01*
X169275500Y-70421155D01*
X169275499Y-70421153D01*
X169272080Y-70403966D01*
X169244737Y-70266503D01*
X169227418Y-70224691D01*
X169184397Y-70120827D01*
X169184390Y-70120814D01*
X169096789Y-69989711D01*
X169096786Y-69989707D01*
X168985292Y-69878213D01*
X168985288Y-69878210D01*
X168854185Y-69790609D01*
X168854172Y-69790602D01*
X168708501Y-69730264D01*
X168708489Y-69730261D01*
X168553845Y-69699500D01*
X168553842Y-69699500D01*
X168396158Y-69699500D01*
X168396155Y-69699500D01*
X168241510Y-69730261D01*
X168241498Y-69730264D01*
X168095827Y-69790602D01*
X168095814Y-69790609D01*
X167964711Y-69878210D01*
X167964707Y-69878213D01*
X167853213Y-69989707D01*
X167853210Y-69989711D01*
X167765609Y-70120814D01*
X167765602Y-70120827D01*
X167705264Y-70266498D01*
X167705261Y-70266510D01*
X167674500Y-70421153D01*
X167674500Y-70578846D01*
X167705261Y-70733489D01*
X167705264Y-70733501D01*
X167765602Y-70879172D01*
X167765609Y-70879185D01*
X167853210Y-71010288D01*
X167853212Y-71010291D01*
X167863178Y-71020256D01*
X167896665Y-71081578D01*
X167899500Y-71107940D01*
X167899500Y-71920943D01*
X167899500Y-72079057D01*
X167940371Y-72231588D01*
X167940423Y-72231783D01*
X167940426Y-72231790D01*
X168019475Y-72368709D01*
X168019478Y-72368713D01*
X168019480Y-72368716D01*
X168131284Y-72480520D01*
X168131286Y-72480521D01*
X168131290Y-72480524D01*
X168268209Y-72559573D01*
X168268216Y-72559577D01*
X168420943Y-72600500D01*
X170913331Y-72600500D01*
X170913347Y-72600501D01*
X170920943Y-72600501D01*
X171079054Y-72600501D01*
X171079057Y-72600501D01*
X171231785Y-72559577D01*
X171281904Y-72530639D01*
X171368716Y-72480520D01*
X171480520Y-72368716D01*
X171480520Y-72368714D01*
X171490728Y-72358507D01*
X171490730Y-72358504D01*
X172858506Y-70990728D01*
X172858511Y-70990724D01*
X172868714Y-70980520D01*
X172868716Y-70980520D01*
X172980520Y-70868716D01*
X173059577Y-70731784D01*
X173100500Y-70579057D01*
X173100500Y-69924499D01*
X173120185Y-69857460D01*
X173172989Y-69811705D01*
X173224495Y-69800499D01*
X174847872Y-69800499D01*
X174907483Y-69794091D01*
X175042331Y-69743796D01*
X175157546Y-69657546D01*
X175243796Y-69542331D01*
X175265209Y-69484919D01*
X176010054Y-69484919D01*
X176077742Y-69519408D01*
X176242415Y-69572914D01*
X176413429Y-69600000D01*
X176586571Y-69600000D01*
X176757584Y-69572914D01*
X176922254Y-69519408D01*
X176922258Y-69519407D01*
X176989944Y-69484918D01*
X176500001Y-68994974D01*
X176500000Y-68994974D01*
X176010054Y-69484919D01*
X175265209Y-69484919D01*
X175294091Y-69407483D01*
X175300500Y-69347873D01*
X175300499Y-69085301D01*
X175320183Y-69018265D01*
X175372987Y-68972510D01*
X175442146Y-68962566D01*
X175495200Y-68986795D01*
X175515080Y-68989944D01*
X176005025Y-68500000D01*
X175952364Y-68447339D01*
X176100000Y-68447339D01*
X176100000Y-68552661D01*
X176127259Y-68654394D01*
X176179920Y-68745606D01*
X176254394Y-68820080D01*
X176345606Y-68872741D01*
X176447339Y-68900000D01*
X176552661Y-68900000D01*
X176654394Y-68872741D01*
X176745606Y-68820080D01*
X176820080Y-68745606D01*
X176872741Y-68654394D01*
X176900000Y-68552661D01*
X176900000Y-68500000D01*
X176994974Y-68500000D01*
X177484918Y-68989944D01*
X177519407Y-68922258D01*
X177519408Y-68922254D01*
X177572914Y-68757584D01*
X177600000Y-68586571D01*
X177600000Y-68413428D01*
X177572914Y-68242415D01*
X177519408Y-68077742D01*
X177484918Y-68010054D01*
X176994974Y-68500000D01*
X176900000Y-68500000D01*
X176900000Y-68447339D01*
X176872741Y-68345606D01*
X176820080Y-68254394D01*
X176745606Y-68179920D01*
X176654394Y-68127259D01*
X176552661Y-68100000D01*
X176447339Y-68100000D01*
X176345606Y-68127259D01*
X176254394Y-68179920D01*
X176179920Y-68254394D01*
X176127259Y-68345606D01*
X176100000Y-68447339D01*
X175952364Y-68447339D01*
X175515079Y-68010054D01*
X175495099Y-68013219D01*
X175487008Y-68021787D01*
X175419186Y-68038581D01*
X175353052Y-68016042D01*
X175309601Y-67961327D01*
X175300499Y-67914695D01*
X175300499Y-67652129D01*
X175300498Y-67652123D01*
X175299520Y-67643028D01*
X175294091Y-67592517D01*
X175292819Y-67589106D01*
X175265209Y-67515079D01*
X176010054Y-67515079D01*
X176500000Y-68005025D01*
X176500001Y-68005025D01*
X176989944Y-67515080D01*
X176989944Y-67515079D01*
X176922253Y-67480590D01*
X176922250Y-67480588D01*
X176757586Y-67427086D01*
X176586571Y-67400000D01*
X176413429Y-67400000D01*
X176242414Y-67427086D01*
X176242411Y-67427086D01*
X176077748Y-67480589D01*
X176077747Y-67480589D01*
X176010054Y-67515079D01*
X175265209Y-67515079D01*
X175243797Y-67457671D01*
X175243793Y-67457664D01*
X175157547Y-67342455D01*
X175157544Y-67342452D01*
X175042335Y-67256206D01*
X175042328Y-67256202D01*
X174907482Y-67205908D01*
X174907483Y-67205908D01*
X174847883Y-67199501D01*
X174847881Y-67199500D01*
X174847873Y-67199500D01*
X174847865Y-67199500D01*
X173959831Y-67199500D01*
X173892792Y-67179815D01*
X173847037Y-67127011D01*
X173837093Y-67057853D01*
X173866118Y-66994297D01*
X173872150Y-66987819D01*
X174238960Y-66621009D01*
X175980520Y-64879451D01*
X176059577Y-64742519D01*
X176100501Y-64589792D01*
X176100501Y-64431677D01*
X176100501Y-64424082D01*
X176100500Y-64424064D01*
X176100500Y-64298336D01*
X176120185Y-64231297D01*
X176172989Y-64185542D01*
X176242147Y-64175598D01*
X176305703Y-64204623D01*
X176312181Y-64210655D01*
X176435354Y-64333828D01*
X176594595Y-64449524D01*
X176677455Y-64491743D01*
X176769970Y-64538882D01*
X176769972Y-64538882D01*
X176769975Y-64538884D01*
X176856898Y-64567127D01*
X176957173Y-64599709D01*
X177151578Y-64630500D01*
X177151583Y-64630500D01*
X177348422Y-64630500D01*
X177542826Y-64599709D01*
X177573353Y-64589790D01*
X177730025Y-64538884D01*
X177905405Y-64449524D01*
X178064646Y-64333828D01*
X178203828Y-64194646D01*
X178319524Y-64035405D01*
X178408884Y-63860025D01*
X178469709Y-63672826D01*
X178473245Y-63650499D01*
X178500500Y-63478422D01*
X178500500Y-63281577D01*
X178469709Y-63087173D01*
X178415765Y-62921153D01*
X178408884Y-62899975D01*
X178408882Y-62899972D01*
X178408882Y-62899970D01*
X178350258Y-62784915D01*
X178319524Y-62724595D01*
X178203828Y-62565354D01*
X178064646Y-62426172D01*
X177984330Y-62367819D01*
X177905403Y-62310474D01*
X177728787Y-62220485D01*
X177677990Y-62172511D01*
X177661195Y-62104690D01*
X177683732Y-62038555D01*
X177728787Y-61999515D01*
X177905403Y-61909525D01*
X177905402Y-61909525D01*
X177905405Y-61909524D01*
X178064646Y-61793828D01*
X178203828Y-61654646D01*
X178213297Y-61641612D01*
X178268628Y-61598948D01*
X178313614Y-61590500D01*
X180233920Y-61590500D01*
X180336232Y-61570148D01*
X180378913Y-61561658D01*
X180502929Y-61510289D01*
X180515493Y-61505085D01*
X180515493Y-61505084D01*
X180515495Y-61505084D01*
X180573893Y-61466064D01*
X180573893Y-61466063D01*
X180573895Y-61466063D01*
X180615579Y-61438211D01*
X180638416Y-61422952D01*
X182082951Y-59978416D01*
X182165084Y-59855495D01*
X182221658Y-59718913D01*
X182241276Y-59620291D01*
X182250500Y-59573920D01*
X182250500Y-47426080D01*
X182221659Y-47281093D01*
X182221658Y-47281092D01*
X182221658Y-47281088D01*
X182184503Y-47191388D01*
X182165087Y-47144512D01*
X182165080Y-47144499D01*
X182082952Y-47021586D01*
X182055435Y-46994069D01*
X181978416Y-46917050D01*
X180078415Y-45017048D01*
X180078414Y-45017047D01*
X180078412Y-45017045D01*
X180029178Y-44984150D01*
X179996354Y-44962218D01*
X179955494Y-44934916D01*
X179955493Y-44934915D01*
X179955491Y-44934914D01*
X179955489Y-44934913D01*
X179818916Y-44878343D01*
X179818906Y-44878340D01*
X179673919Y-44849500D01*
X179673917Y-44849500D01*
X178313614Y-44849500D01*
X178246575Y-44829815D01*
X178213297Y-44798387D01*
X178203828Y-44785354D01*
X178064648Y-44646174D01*
X178064646Y-44646172D01*
X177905405Y-44530476D01*
X177855947Y-44505276D01*
X177730029Y-44441117D01*
X177542826Y-44380290D01*
X177348422Y-44349500D01*
X177348417Y-44349500D01*
X177151583Y-44349500D01*
X177151578Y-44349500D01*
X176957173Y-44380290D01*
X176769970Y-44441117D01*
X176594594Y-44530476D01*
X176531298Y-44576464D01*
X176435354Y-44646172D01*
X176435352Y-44646174D01*
X176435351Y-44646174D01*
X176296171Y-44785354D01*
X176286703Y-44798387D01*
X176231372Y-44841052D01*
X176186386Y-44849500D01*
X175612229Y-44849500D01*
X175545190Y-44829815D01*
X175524548Y-44813181D01*
X175286819Y-44575451D01*
X175253334Y-44514128D01*
X175250500Y-44487770D01*
X175250500Y-37926079D01*
X175221659Y-37781092D01*
X175221658Y-37781091D01*
X175221658Y-37781087D01*
X175199923Y-37728614D01*
X175165087Y-37644511D01*
X175165080Y-37644498D01*
X175111412Y-37564179D01*
X175111410Y-37564176D01*
X175082954Y-37521586D01*
X174083503Y-36522135D01*
X177109500Y-36522135D01*
X177109500Y-38317870D01*
X177109501Y-38317876D01*
X177115908Y-38377483D01*
X177166202Y-38512328D01*
X177166206Y-38512335D01*
X177252452Y-38627544D01*
X177252455Y-38627547D01*
X177367664Y-38713793D01*
X177367671Y-38713797D01*
X177499082Y-38762810D01*
X177555016Y-38804681D01*
X177579433Y-38870145D01*
X177564582Y-38938418D01*
X177543431Y-38966673D01*
X177429889Y-39080215D01*
X177304951Y-39252179D01*
X177208444Y-39441585D01*
X177142753Y-39643760D01*
X177109500Y-39853713D01*
X177109500Y-40066286D01*
X177142753Y-40276239D01*
X177208444Y-40478414D01*
X177304951Y-40667820D01*
X177429890Y-40839786D01*
X177580213Y-40990109D01*
X177752182Y-41115050D01*
X177760946Y-41119516D01*
X177811742Y-41167491D01*
X177828536Y-41235312D01*
X177805998Y-41301447D01*
X177760946Y-41340484D01*
X177752182Y-41344949D01*
X177580213Y-41469890D01*
X177429890Y-41620213D01*
X177304951Y-41792179D01*
X177208444Y-41981585D01*
X177142753Y-42183760D01*
X177117398Y-42343846D01*
X177109500Y-42393713D01*
X177109500Y-42606287D01*
X177115761Y-42645814D01*
X177140260Y-42800500D01*
X177142754Y-42816243D01*
X177194139Y-42974390D01*
X177208444Y-43018414D01*
X177304951Y-43207820D01*
X177429890Y-43379786D01*
X177580213Y-43530109D01*
X177752179Y-43655048D01*
X177752181Y-43655049D01*
X177752184Y-43655051D01*
X177941588Y-43751557D01*
X178143757Y-43817246D01*
X178353713Y-43850500D01*
X178353714Y-43850500D01*
X178566286Y-43850500D01*
X178566287Y-43850500D01*
X178776243Y-43817246D01*
X178978412Y-43751557D01*
X179167816Y-43655051D01*
X179200529Y-43631284D01*
X179339786Y-43530109D01*
X179339788Y-43530106D01*
X179339792Y-43530104D01*
X179490104Y-43379792D01*
X179490106Y-43379788D01*
X179490109Y-43379786D01*
X179615048Y-43207820D01*
X179615047Y-43207820D01*
X179615051Y-43207816D01*
X179619514Y-43199054D01*
X179667488Y-43148259D01*
X179735308Y-43131463D01*
X179801444Y-43153999D01*
X179840486Y-43199056D01*
X179844951Y-43207820D01*
X179969890Y-43379786D01*
X180120213Y-43530109D01*
X180292179Y-43655048D01*
X180292181Y-43655049D01*
X180292184Y-43655051D01*
X180481588Y-43751557D01*
X180683757Y-43817246D01*
X180893713Y-43850500D01*
X180893714Y-43850500D01*
X181106286Y-43850500D01*
X181106287Y-43850500D01*
X181216111Y-43833105D01*
X181321055Y-43816484D01*
X181321315Y-43818128D01*
X181383852Y-43821250D01*
X181430711Y-43850657D01*
X182085324Y-44505271D01*
X182085327Y-44505274D01*
X182166599Y-44559578D01*
X182166598Y-44559578D01*
X182184439Y-44571498D01*
X182191873Y-44576465D01*
X182310256Y-44625501D01*
X182310260Y-44625501D01*
X182310261Y-44625502D01*
X182435928Y-44650500D01*
X182435931Y-44650500D01*
X185613122Y-44650500D01*
X185680161Y-44670185D01*
X185725916Y-44722989D01*
X185727784Y-44727930D01*
X185727932Y-44727869D01*
X185790602Y-44879172D01*
X185790606Y-44879179D01*
X185828602Y-44936044D01*
X185849480Y-45002721D01*
X185849500Y-45004935D01*
X185849500Y-51179191D01*
X185829815Y-51246230D01*
X185813181Y-51266872D01*
X183897068Y-53182984D01*
X183835745Y-53216469D01*
X183833579Y-53216920D01*
X183766508Y-53230261D01*
X183766498Y-53230264D01*
X183620827Y-53290602D01*
X183620814Y-53290609D01*
X183489711Y-53378210D01*
X183489707Y-53378213D01*
X183378213Y-53489707D01*
X183378210Y-53489711D01*
X183290609Y-53620814D01*
X183290602Y-53620827D01*
X183230264Y-53766498D01*
X183230261Y-53766510D01*
X183199500Y-53921153D01*
X183199500Y-54078846D01*
X183230261Y-54233489D01*
X183230264Y-54233501D01*
X183290602Y-54379172D01*
X183290609Y-54379185D01*
X183378210Y-54510288D01*
X183378213Y-54510292D01*
X183489707Y-54621786D01*
X183489711Y-54621789D01*
X183620814Y-54709390D01*
X183620827Y-54709397D01*
X183766498Y-54769735D01*
X183766503Y-54769737D01*
X183870473Y-54790418D01*
X183921153Y-54800499D01*
X183921156Y-54800500D01*
X183921158Y-54800500D01*
X184078844Y-54800500D01*
X184078845Y-54800499D01*
X184233497Y-54769737D01*
X184379179Y-54709394D01*
X184510289Y-54621789D01*
X184621789Y-54510289D01*
X184709394Y-54379179D01*
X184769737Y-54233497D01*
X184783079Y-54166416D01*
X184815463Y-54104509D01*
X184816958Y-54102986D01*
X187005277Y-51914669D01*
X187076465Y-51808127D01*
X187125501Y-51689744D01*
X187127340Y-51680500D01*
X187127341Y-51680496D01*
X187150500Y-51564071D01*
X187150500Y-45004935D01*
X187170185Y-44937896D01*
X187171366Y-44936090D01*
X187209394Y-44879179D01*
X187269737Y-44733497D01*
X187269737Y-44733496D01*
X187272068Y-44727869D01*
X187274522Y-44728885D01*
X187306510Y-44680070D01*
X187370321Y-44651610D01*
X187386878Y-44650500D01*
X188589071Y-44650500D01*
X188673615Y-44633682D01*
X188714744Y-44625501D01*
X188833127Y-44576465D01*
X188858402Y-44559577D01*
X188939669Y-44505277D01*
X189602931Y-43842012D01*
X189664251Y-43808530D01*
X189666330Y-43808096D01*
X189733497Y-43794737D01*
X189879179Y-43734394D01*
X190010289Y-43646789D01*
X190121789Y-43535289D01*
X190209394Y-43404179D01*
X190269737Y-43258497D01*
X190300500Y-43103842D01*
X190300500Y-42946158D01*
X190300500Y-42946155D01*
X190300499Y-42946153D01*
X190297427Y-42930711D01*
X190269737Y-42791503D01*
X190260721Y-42769737D01*
X190209397Y-42645827D01*
X190209390Y-42645814D01*
X190121789Y-42514711D01*
X190121786Y-42514707D01*
X190010292Y-42403213D01*
X190010288Y-42403210D01*
X189879185Y-42315609D01*
X189879172Y-42315602D01*
X189733501Y-42255264D01*
X189733489Y-42255261D01*
X189578845Y-42224500D01*
X189578842Y-42224500D01*
X189421158Y-42224500D01*
X189421155Y-42224500D01*
X189266510Y-42255261D01*
X189266498Y-42255264D01*
X189120827Y-42315602D01*
X189120814Y-42315609D01*
X188989711Y-42403210D01*
X188989707Y-42403213D01*
X188878213Y-42514707D01*
X188878210Y-42514711D01*
X188790609Y-42645814D01*
X188790602Y-42645827D01*
X188730264Y-42791498D01*
X188730261Y-42791508D01*
X188716920Y-42858580D01*
X188684535Y-42920491D01*
X188682984Y-42922069D01*
X188291873Y-43313181D01*
X188230550Y-43346666D01*
X188204192Y-43349500D01*
X187230583Y-43349500D01*
X187163544Y-43329815D01*
X187161741Y-43328634D01*
X187077781Y-43272535D01*
X187043890Y-43258497D01*
X186959398Y-43223499D01*
X186959392Y-43223497D01*
X186833725Y-43198500D01*
X186833723Y-43198500D01*
X186166277Y-43198500D01*
X186166275Y-43198500D01*
X186040607Y-43223497D01*
X186040601Y-43223499D01*
X185922220Y-43272534D01*
X185922219Y-43272535D01*
X185838305Y-43328603D01*
X185771630Y-43349480D01*
X185769417Y-43349500D01*
X182820808Y-43349500D01*
X182753769Y-43329815D01*
X182733127Y-43313181D01*
X182350657Y-42930711D01*
X182317172Y-42869388D01*
X182317689Y-42821245D01*
X182316484Y-42821055D01*
X182344239Y-42645814D01*
X182350500Y-42606287D01*
X182350500Y-42393713D01*
X182317246Y-42183757D01*
X182251557Y-41981588D01*
X182251555Y-41981585D01*
X182251555Y-41981583D01*
X182246347Y-41971362D01*
X182246346Y-41971361D01*
X182220764Y-41921153D01*
X186699500Y-41921153D01*
X186699500Y-42078846D01*
X186730261Y-42233489D01*
X186730264Y-42233501D01*
X186790602Y-42379172D01*
X186790609Y-42379185D01*
X186878210Y-42510288D01*
X186878213Y-42510292D01*
X186989707Y-42621786D01*
X186989711Y-42621789D01*
X187120814Y-42709390D01*
X187120827Y-42709397D01*
X187238860Y-42758287D01*
X187266503Y-42769737D01*
X187375963Y-42791510D01*
X187421153Y-42800499D01*
X187421156Y-42800500D01*
X187421158Y-42800500D01*
X187578844Y-42800500D01*
X187578845Y-42800499D01*
X187733497Y-42769737D01*
X187879179Y-42709394D01*
X188010289Y-42621789D01*
X188121789Y-42510289D01*
X188209394Y-42379179D01*
X188269737Y-42233497D01*
X188300500Y-42078842D01*
X188300500Y-41921158D01*
X188300500Y-41921155D01*
X188300499Y-41921153D01*
X188293471Y-41885821D01*
X188269737Y-41766503D01*
X188226717Y-41662643D01*
X188209397Y-41620827D01*
X188209390Y-41620814D01*
X188121789Y-41489711D01*
X188121786Y-41489707D01*
X188010292Y-41378213D01*
X188010288Y-41378210D01*
X187879185Y-41290609D01*
X187879172Y-41290602D01*
X187733501Y-41230264D01*
X187733489Y-41230261D01*
X187578845Y-41199500D01*
X187578842Y-41199500D01*
X187421158Y-41199500D01*
X187421155Y-41199500D01*
X187266510Y-41230261D01*
X187266498Y-41230264D01*
X187120827Y-41290602D01*
X187120814Y-41290609D01*
X186989711Y-41378210D01*
X186989707Y-41378213D01*
X186878213Y-41489707D01*
X186878210Y-41489711D01*
X186790609Y-41620814D01*
X186790602Y-41620827D01*
X186730264Y-41766498D01*
X186730261Y-41766510D01*
X186699500Y-41921153D01*
X182220764Y-41921153D01*
X182185397Y-41851742D01*
X182155051Y-41792184D01*
X182155049Y-41792181D01*
X182155048Y-41792179D01*
X182030109Y-41620213D01*
X181879786Y-41469890D01*
X181707820Y-41344951D01*
X181707115Y-41344591D01*
X181699054Y-41340485D01*
X181648259Y-41292512D01*
X181631463Y-41224692D01*
X181653999Y-41158556D01*
X181699054Y-41119515D01*
X181707816Y-41115051D01*
X181729789Y-41099086D01*
X181879786Y-40990109D01*
X181879788Y-40990106D01*
X181879792Y-40990104D01*
X182030104Y-40839792D01*
X182030106Y-40839788D01*
X182030109Y-40839786D01*
X182155048Y-40667820D01*
X182155047Y-40667820D01*
X182155051Y-40667816D01*
X182251557Y-40478412D01*
X182317246Y-40276243D01*
X182350500Y-40066287D01*
X182350500Y-39853713D01*
X182317246Y-39643757D01*
X182251557Y-39441588D01*
X182155051Y-39252184D01*
X182155049Y-39252181D01*
X182155048Y-39252179D01*
X182030109Y-39080213D01*
X181879786Y-38929890D01*
X181707820Y-38804951D01*
X181518414Y-38708444D01*
X181518413Y-38708443D01*
X181518412Y-38708443D01*
X181489246Y-38698966D01*
X181431571Y-38659529D01*
X181404373Y-38595171D01*
X181416288Y-38526324D01*
X181463532Y-38474849D01*
X181471270Y-38470551D01*
X181602734Y-38403565D01*
X181749169Y-38297176D01*
X181877176Y-38169169D01*
X181983565Y-38022735D01*
X182065747Y-37861444D01*
X182095460Y-37770000D01*
X181357106Y-37770000D01*
X181400099Y-37727007D01*
X181465925Y-37612993D01*
X181500000Y-37485826D01*
X181500000Y-37354174D01*
X181465925Y-37227007D01*
X181400099Y-37112993D01*
X181357106Y-37070000D01*
X182095460Y-37070000D01*
X182095459Y-37069999D01*
X182065747Y-36978555D01*
X181983565Y-36817264D01*
X181877176Y-36670830D01*
X181749169Y-36542823D01*
X181602735Y-36436434D01*
X181441444Y-36354252D01*
X181350000Y-36324540D01*
X181350000Y-37062894D01*
X181307007Y-37019901D01*
X181192993Y-36954075D01*
X181065826Y-36920000D01*
X180934174Y-36920000D01*
X180807007Y-36954075D01*
X180692993Y-37019901D01*
X180650000Y-37062894D01*
X180650000Y-36324540D01*
X180649999Y-36324540D01*
X180558555Y-36354252D01*
X180397264Y-36436434D01*
X180250830Y-36542823D01*
X180122827Y-36670826D01*
X180122823Y-36670831D01*
X180034817Y-36791962D01*
X179979487Y-36834628D01*
X179909874Y-36840607D01*
X179848079Y-36808001D01*
X179813722Y-36747163D01*
X179810499Y-36719077D01*
X179810499Y-36522129D01*
X179810498Y-36522123D01*
X179810497Y-36522116D01*
X179804091Y-36462517D01*
X179801878Y-36456584D01*
X179753797Y-36327671D01*
X179753793Y-36327664D01*
X179667547Y-36212455D01*
X179667544Y-36212452D01*
X179552335Y-36126206D01*
X179552328Y-36126202D01*
X179417482Y-36075908D01*
X179417483Y-36075908D01*
X179357883Y-36069501D01*
X179357881Y-36069500D01*
X179357873Y-36069500D01*
X179357864Y-36069500D01*
X177562129Y-36069500D01*
X177562123Y-36069501D01*
X177502516Y-36075908D01*
X177367671Y-36126202D01*
X177367664Y-36126206D01*
X177252455Y-36212452D01*
X177252452Y-36212455D01*
X177166206Y-36327664D01*
X177166202Y-36327671D01*
X177115908Y-36462517D01*
X177109605Y-36521153D01*
X177109501Y-36522123D01*
X177109500Y-36522135D01*
X174083503Y-36522135D01*
X173996071Y-36434703D01*
X173969191Y-36394475D01*
X173959394Y-36370821D01*
X173959390Y-36370815D01*
X173871789Y-36239710D01*
X173760292Y-36128213D01*
X173760284Y-36128207D01*
X173629181Y-36040607D01*
X173629179Y-36040606D01*
X173605521Y-36030806D01*
X173598589Y-36026174D01*
X173593549Y-36025078D01*
X173565295Y-36003927D01*
X173423549Y-35862181D01*
X173390064Y-35800858D01*
X173395048Y-35731166D01*
X173436920Y-35675233D01*
X173502384Y-35650816D01*
X173511230Y-35650500D01*
X189577098Y-35650500D01*
X189644137Y-35670185D01*
G37*
%TD.AperFunction*%
%TA.AperFunction,Conductor*%
G36*
X170969866Y-58590793D02*
G01*
X170998834Y-58592865D01*
X171003884Y-58596645D01*
X171010100Y-58597715D01*
X171031517Y-58617332D01*
X171054767Y-58634737D01*
X171056970Y-58640646D01*
X171061623Y-58644907D01*
X171069034Y-58672990D01*
X171079184Y-58700201D01*
X171079500Y-58709047D01*
X171079500Y-60449192D01*
X171059815Y-60516231D01*
X171043181Y-60536873D01*
X165994725Y-65585328D01*
X165994722Y-65585331D01*
X165964791Y-65630126D01*
X165964792Y-65630127D01*
X165923534Y-65691874D01*
X165874499Y-65810255D01*
X165874497Y-65810261D01*
X165849500Y-65935928D01*
X165849500Y-68179192D01*
X165829815Y-68246231D01*
X165813181Y-68266873D01*
X162766873Y-71313181D01*
X162705550Y-71346666D01*
X162679192Y-71349500D01*
X161849001Y-71349500D01*
X161781962Y-71329815D01*
X161736207Y-71277011D01*
X161726263Y-71207853D01*
X161749734Y-71151189D01*
X161793796Y-71092331D01*
X161844091Y-70957483D01*
X161850500Y-70897873D01*
X161850499Y-69102128D01*
X161844091Y-69042517D01*
X161842810Y-69039083D01*
X161793797Y-68907671D01*
X161793793Y-68907664D01*
X161707547Y-68792455D01*
X161707544Y-68792452D01*
X161592335Y-68706206D01*
X161592328Y-68706202D01*
X161457482Y-68655908D01*
X161457483Y-68655908D01*
X161397883Y-68649501D01*
X161397881Y-68649500D01*
X161397873Y-68649500D01*
X161397864Y-68649500D01*
X159602129Y-68649500D01*
X159602123Y-68649501D01*
X159542516Y-68655908D01*
X159407671Y-68706202D01*
X159407664Y-68706206D01*
X159292455Y-68792452D01*
X159292452Y-68792455D01*
X159206206Y-68907664D01*
X159206203Y-68907669D01*
X159157189Y-69039083D01*
X159115317Y-69095016D01*
X159049853Y-69119433D01*
X158981580Y-69104581D01*
X158953326Y-69083430D01*
X158839786Y-68969890D01*
X158667820Y-68844951D01*
X158478414Y-68748444D01*
X158478413Y-68748443D01*
X158478412Y-68748443D01*
X158276243Y-68682754D01*
X158276241Y-68682753D01*
X158276240Y-68682753D01*
X158114957Y-68657208D01*
X158066287Y-68649500D01*
X157853713Y-68649500D01*
X157805042Y-68657208D01*
X157643760Y-68682753D01*
X157441580Y-68748445D01*
X157437079Y-68750310D01*
X157436348Y-68748546D01*
X157375648Y-68759940D01*
X157310911Y-68733656D01*
X157270660Y-68676545D01*
X157267675Y-68606739D01*
X157300355Y-68548879D01*
X157887908Y-67961327D01*
X159712416Y-66136819D01*
X159773739Y-66103334D01*
X159800097Y-66100500D01*
X162913331Y-66100500D01*
X162913347Y-66100501D01*
X162920943Y-66100501D01*
X163079054Y-66100501D01*
X163079057Y-66100501D01*
X163231785Y-66059577D01*
X163281904Y-66030639D01*
X163368716Y-65980520D01*
X163480520Y-65868716D01*
X163480520Y-65868714D01*
X163490728Y-65858507D01*
X163490729Y-65858504D01*
X164514662Y-64834572D01*
X164575983Y-64801089D01*
X164578150Y-64800638D01*
X164636085Y-64789113D01*
X164733497Y-64769737D01*
X164879179Y-64709394D01*
X165010289Y-64621789D01*
X165121789Y-64510289D01*
X165209394Y-64379179D01*
X165269737Y-64233497D01*
X165300500Y-64078842D01*
X165300500Y-63921158D01*
X165296031Y-63898690D01*
X165302260Y-63829099D01*
X165345123Y-63773922D01*
X165411013Y-63750678D01*
X165417649Y-63750500D01*
X166073920Y-63750500D01*
X166171462Y-63731096D01*
X166218913Y-63721658D01*
X166355495Y-63665084D01*
X166420291Y-63621789D01*
X166420294Y-63621786D01*
X166420296Y-63621786D01*
X166449547Y-63602240D01*
X166478416Y-63582952D01*
X167968206Y-62093159D01*
X167968211Y-62093156D01*
X167978414Y-62082952D01*
X167978416Y-62082952D01*
X170582952Y-59478416D01*
X170633201Y-59403211D01*
X170633202Y-59403210D01*
X170665079Y-59355503D01*
X170665080Y-59355500D01*
X170665084Y-59355495D01*
X170721658Y-59218913D01*
X170742398Y-59114648D01*
X170750500Y-59073920D01*
X170750500Y-58775416D01*
X170750999Y-58773714D01*
X170750547Y-58771999D01*
X170760809Y-58740305D01*
X170770185Y-58708377D01*
X170771698Y-58706677D01*
X170772071Y-58705528D01*
X170779984Y-58697377D01*
X170795910Y-58679501D01*
X170798684Y-58677227D01*
X170847219Y-58641966D01*
X170872165Y-58617019D01*
X170876910Y-58613132D01*
X170903656Y-58601797D01*
X170929142Y-58587881D01*
X170935432Y-58588330D01*
X170941242Y-58585869D01*
X170969866Y-58590793D01*
G37*
%TD.AperFunction*%
%TA.AperFunction,Conductor*%
G36*
X162988770Y-48170185D02*
G01*
X163034525Y-48222989D01*
X163044469Y-48292147D01*
X163015444Y-48355703D01*
X162994373Y-48374292D01*
X162994419Y-48374347D01*
X162992880Y-48375609D01*
X162990621Y-48377603D01*
X162989708Y-48378212D01*
X162878213Y-48489707D01*
X162878210Y-48489711D01*
X162790609Y-48620814D01*
X162790602Y-48620827D01*
X162730264Y-48766498D01*
X162730261Y-48766510D01*
X162699500Y-48921153D01*
X162699500Y-49078846D01*
X162730261Y-49233489D01*
X162730264Y-49233501D01*
X162790602Y-49379172D01*
X162790609Y-49379185D01*
X162878210Y-49510288D01*
X162878213Y-49510292D01*
X162989707Y-49621786D01*
X162989711Y-49621789D01*
X163120814Y-49709390D01*
X163120827Y-49709397D01*
X163208230Y-49745599D01*
X163266503Y-49769737D01*
X163333581Y-49783079D01*
X163395490Y-49815463D01*
X163397070Y-49817015D01*
X164813181Y-51233126D01*
X164846666Y-51294449D01*
X164849500Y-51320807D01*
X164849500Y-60495064D01*
X164829815Y-60562103D01*
X164828603Y-60563954D01*
X164790608Y-60620817D01*
X164790602Y-60620828D01*
X164730264Y-60766498D01*
X164730261Y-60766510D01*
X164699500Y-60921153D01*
X164699500Y-61078846D01*
X164730261Y-61233489D01*
X164730264Y-61233501D01*
X164790602Y-61379172D01*
X164790609Y-61379185D01*
X164878210Y-61510288D01*
X164878213Y-61510292D01*
X164989707Y-61621786D01*
X164989711Y-61621789D01*
X165120814Y-61709390D01*
X165120827Y-61709397D01*
X165227373Y-61753529D01*
X165266503Y-61769737D01*
X165387601Y-61793825D01*
X165421153Y-61800499D01*
X165421156Y-61800500D01*
X165421158Y-61800500D01*
X165578844Y-61800500D01*
X165578845Y-61800499D01*
X165733497Y-61769737D01*
X165879179Y-61709394D01*
X165887322Y-61703952D01*
X165953997Y-61683072D01*
X166021378Y-61701553D01*
X166068071Y-61753529D01*
X166079251Y-61822499D01*
X166051369Y-61886564D01*
X166043898Y-61894733D01*
X165725451Y-62213181D01*
X165664128Y-62246666D01*
X165637770Y-62249500D01*
X152304604Y-62249500D01*
X152257155Y-62240062D01*
X152233497Y-62230263D01*
X152233493Y-62230262D01*
X152233488Y-62230260D01*
X152078845Y-62199500D01*
X152078842Y-62199500D01*
X151921158Y-62199500D01*
X151921155Y-62199500D01*
X151766510Y-62230261D01*
X151766498Y-62230264D01*
X151620827Y-62290602D01*
X151620814Y-62290609D01*
X151489711Y-62378210D01*
X151489707Y-62378213D01*
X151378213Y-62489707D01*
X151378210Y-62489711D01*
X151290609Y-62620814D01*
X151290602Y-62620827D01*
X151230264Y-62766498D01*
X151230261Y-62766510D01*
X151199500Y-62921153D01*
X151199500Y-63078846D01*
X151230261Y-63233489D01*
X151230264Y-63233501D01*
X151290602Y-63379172D01*
X151290609Y-63379185D01*
X151378210Y-63510288D01*
X151378213Y-63510292D01*
X151489707Y-63621786D01*
X151489711Y-63621789D01*
X151620814Y-63709390D01*
X151620827Y-63709397D01*
X151741028Y-63759185D01*
X151766503Y-63769737D01*
X151876189Y-63791555D01*
X151921153Y-63800499D01*
X151921156Y-63800500D01*
X151921158Y-63800500D01*
X152078844Y-63800500D01*
X152078845Y-63800499D01*
X152158545Y-63784646D01*
X152233488Y-63769739D01*
X152233489Y-63769738D01*
X152233497Y-63769737D01*
X152257155Y-63759937D01*
X152304604Y-63750500D01*
X163582351Y-63750500D01*
X163602565Y-63756435D01*
X163623607Y-63757564D01*
X163635420Y-63766082D01*
X163649390Y-63770185D01*
X163663185Y-63786105D01*
X163680278Y-63798432D01*
X163685610Y-63811985D01*
X163695145Y-63822989D01*
X163698143Y-63843842D01*
X163705858Y-63863451D01*
X163704528Y-63888247D01*
X163705089Y-63892147D01*
X163703968Y-63898694D01*
X163699361Y-63921852D01*
X163666974Y-63983762D01*
X163665425Y-63985339D01*
X162787584Y-64863181D01*
X162726261Y-64896666D01*
X162699903Y-64899500D01*
X159579057Y-64899500D01*
X159420943Y-64899500D01*
X159268215Y-64940423D01*
X159268214Y-64940423D01*
X159268212Y-64940424D01*
X159268209Y-64940425D01*
X159218096Y-64969359D01*
X159218095Y-64969360D01*
X159174689Y-64994420D01*
X159131285Y-65019479D01*
X159131282Y-65019481D01*
X159074299Y-65076465D01*
X159019480Y-65131284D01*
X159019478Y-65131286D01*
X157152321Y-66998444D01*
X155311584Y-68839181D01*
X155250261Y-68872666D01*
X155223903Y-68875500D01*
X149799500Y-68875500D01*
X149732461Y-68855815D01*
X149686706Y-68803011D01*
X149675500Y-68751500D01*
X149675499Y-67777129D01*
X149675498Y-67777123D01*
X149675497Y-67777116D01*
X149669091Y-67717517D01*
X149665320Y-67707407D01*
X149618797Y-67582671D01*
X149618793Y-67582664D01*
X149532547Y-67467455D01*
X149532544Y-67467452D01*
X149417335Y-67381206D01*
X149417328Y-67381202D01*
X149282482Y-67330908D01*
X149282483Y-67330908D01*
X149222883Y-67324501D01*
X149222881Y-67324500D01*
X149222873Y-67324500D01*
X149222864Y-67324500D01*
X147777129Y-67324500D01*
X147777123Y-67324501D01*
X147717516Y-67330908D01*
X147582671Y-67381202D01*
X147582664Y-67381206D01*
X147467455Y-67467452D01*
X147467452Y-67467455D01*
X147381206Y-67582664D01*
X147381202Y-67582671D01*
X147330908Y-67717517D01*
X147325087Y-67771664D01*
X147324500Y-67777127D01*
X147324500Y-68315826D01*
X147324501Y-68751500D01*
X147304817Y-68818539D01*
X147252013Y-68864294D01*
X147200501Y-68875500D01*
X145799499Y-68875500D01*
X145732460Y-68855815D01*
X145686705Y-68803011D01*
X145675499Y-68751500D01*
X145675499Y-67777129D01*
X145675498Y-67777123D01*
X145675497Y-67777116D01*
X145669091Y-67717517D01*
X145665320Y-67707407D01*
X145618797Y-67582671D01*
X145618793Y-67582664D01*
X145532547Y-67467455D01*
X145532544Y-67467452D01*
X145417335Y-67381206D01*
X145417328Y-67381202D01*
X145282482Y-67330908D01*
X145282483Y-67330908D01*
X145222883Y-67324501D01*
X145222881Y-67324500D01*
X145222873Y-67324500D01*
X145222864Y-67324500D01*
X143777129Y-67324500D01*
X143777123Y-67324501D01*
X143717516Y-67330908D01*
X143582671Y-67381202D01*
X143582664Y-67381206D01*
X143467455Y-67467452D01*
X143467452Y-67467455D01*
X143375888Y-67589769D01*
X143373855Y-67588247D01*
X143333925Y-67628177D01*
X143265652Y-67643028D01*
X143200188Y-67618610D01*
X143158318Y-67562676D01*
X143150500Y-67519344D01*
X143150500Y-66547648D01*
X153749500Y-66547648D01*
X153749500Y-66752351D01*
X153781522Y-66954534D01*
X153844781Y-67149223D01*
X153899292Y-67256204D01*
X153937355Y-67330908D01*
X153937715Y-67331613D01*
X154058028Y-67497213D01*
X154202786Y-67641971D01*
X154314149Y-67722879D01*
X154368390Y-67762287D01*
X154459190Y-67808552D01*
X154550776Y-67855218D01*
X154550778Y-67855218D01*
X154550781Y-67855220D01*
X154655137Y-67889127D01*
X154745465Y-67918477D01*
X154846557Y-67934488D01*
X154947648Y-67950500D01*
X154947649Y-67950500D01*
X155152351Y-67950500D01*
X155152352Y-67950500D01*
X155354534Y-67918477D01*
X155549219Y-67855220D01*
X155731610Y-67762287D01*
X155883231Y-67652129D01*
X155897213Y-67641971D01*
X155897215Y-67641968D01*
X155897219Y-67641966D01*
X156041966Y-67497219D01*
X156041968Y-67497215D01*
X156041971Y-67497213D01*
X156112599Y-67400000D01*
X156162287Y-67331610D01*
X156255220Y-67149219D01*
X156318477Y-66954534D01*
X156350500Y-66752352D01*
X156350500Y-66547648D01*
X156337950Y-66468409D01*
X156318477Y-66345465D01*
X156255218Y-66150776D01*
X156208749Y-66059577D01*
X156162287Y-65968390D01*
X156154556Y-65957749D01*
X156041971Y-65802786D01*
X155897213Y-65658028D01*
X155731613Y-65537715D01*
X155731612Y-65537714D01*
X155731610Y-65537713D01*
X155674653Y-65508691D01*
X155549223Y-65444781D01*
X155354534Y-65381522D01*
X155179995Y-65353878D01*
X155152352Y-65349500D01*
X154947648Y-65349500D01*
X154923329Y-65353351D01*
X154745465Y-65381522D01*
X154550776Y-65444781D01*
X154368386Y-65537715D01*
X154202786Y-65658028D01*
X154058028Y-65802786D01*
X153937715Y-65968386D01*
X153844781Y-66150776D01*
X153781522Y-66345465D01*
X153749500Y-66547648D01*
X143150500Y-66547648D01*
X143150500Y-65935928D01*
X143125502Y-65810261D01*
X143125501Y-65810260D01*
X143125501Y-65810256D01*
X143076465Y-65691873D01*
X143035208Y-65630127D01*
X143035208Y-65630126D01*
X143005277Y-65585331D01*
X142768740Y-65348794D01*
X142735255Y-65287471D01*
X142740239Y-65217779D01*
X142782111Y-65161846D01*
X142847575Y-65137429D01*
X142880610Y-65139495D01*
X142919272Y-65147186D01*
X142935930Y-65150500D01*
X142935931Y-65150500D01*
X148064071Y-65150500D01*
X148148615Y-65133682D01*
X148189744Y-65125501D01*
X148308127Y-65076465D01*
X148317336Y-65070312D01*
X148414669Y-65005277D01*
X152005276Y-61414670D01*
X152076465Y-61308127D01*
X152125501Y-61189744D01*
X152125550Y-61189500D01*
X152147519Y-61079057D01*
X152150500Y-61064071D01*
X152150500Y-57547648D01*
X153759500Y-57547648D01*
X153759500Y-57752351D01*
X153791522Y-57954534D01*
X153854781Y-58149223D01*
X153947715Y-58331613D01*
X154068028Y-58497213D01*
X154212786Y-58641971D01*
X154360603Y-58749364D01*
X154378390Y-58762287D01*
X154483307Y-58815745D01*
X154560776Y-58855218D01*
X154560778Y-58855218D01*
X154560781Y-58855220D01*
X154665137Y-58889127D01*
X154755465Y-58918477D01*
X154856557Y-58934488D01*
X154957648Y-58950500D01*
X154957649Y-58950500D01*
X155162351Y-58950500D01*
X155162352Y-58950500D01*
X155364534Y-58918477D01*
X155559219Y-58855220D01*
X155741610Y-58762287D01*
X155834590Y-58694732D01*
X155907213Y-58641971D01*
X155907215Y-58641968D01*
X155907219Y-58641966D01*
X156051966Y-58497219D01*
X156051968Y-58497215D01*
X156051971Y-58497213D01*
X156104732Y-58424590D01*
X156172287Y-58331610D01*
X156265220Y-58149219D01*
X156328477Y-57954534D01*
X156360500Y-57752352D01*
X156360500Y-57547648D01*
X156328477Y-57345466D01*
X156327934Y-57343796D01*
X156265218Y-57150776D01*
X156221036Y-57064066D01*
X156172287Y-56968390D01*
X156157374Y-56947864D01*
X156051971Y-56802786D01*
X155907213Y-56658028D01*
X155741613Y-56537715D01*
X155741612Y-56537714D01*
X155741610Y-56537713D01*
X155684653Y-56508691D01*
X155559223Y-56444781D01*
X155364534Y-56381522D01*
X155189995Y-56353878D01*
X155162352Y-56349500D01*
X154957648Y-56349500D01*
X154933329Y-56353351D01*
X154755465Y-56381522D01*
X154560776Y-56444781D01*
X154378386Y-56537715D01*
X154212786Y-56658028D01*
X154068028Y-56802786D01*
X153947715Y-56968386D01*
X153854781Y-57150776D01*
X153791522Y-57345465D01*
X153759500Y-57547648D01*
X152150500Y-57547648D01*
X152150500Y-57320808D01*
X152170185Y-57253769D01*
X152186819Y-57233127D01*
X155978793Y-53441153D01*
X157484500Y-53441153D01*
X157484500Y-53598846D01*
X157515261Y-53753489D01*
X157515264Y-53753501D01*
X157575602Y-53899172D01*
X157575606Y-53899179D01*
X157613602Y-53956044D01*
X157634480Y-54022721D01*
X157634500Y-54024935D01*
X157634500Y-56349071D01*
X157653538Y-56444777D01*
X157653538Y-56444778D01*
X157659497Y-56474737D01*
X157659498Y-56474741D01*
X157659499Y-56474744D01*
X157708535Y-56593127D01*
X157774514Y-56691873D01*
X157779726Y-56699673D01*
X157813180Y-56733126D01*
X157846666Y-56794448D01*
X157849500Y-56820808D01*
X157849500Y-60495064D01*
X157829815Y-60562103D01*
X157828603Y-60563954D01*
X157790608Y-60620817D01*
X157790602Y-60620828D01*
X157730264Y-60766498D01*
X157730261Y-60766510D01*
X157699500Y-60921153D01*
X157699500Y-61078846D01*
X157730261Y-61233489D01*
X157730264Y-61233501D01*
X157790602Y-61379172D01*
X157790609Y-61379185D01*
X157878210Y-61510288D01*
X157878213Y-61510292D01*
X157989707Y-61621786D01*
X157989711Y-61621789D01*
X158120814Y-61709390D01*
X158120827Y-61709397D01*
X158227373Y-61753529D01*
X158266503Y-61769737D01*
X158387601Y-61793825D01*
X158421153Y-61800499D01*
X158421156Y-61800500D01*
X158421158Y-61800500D01*
X158578844Y-61800500D01*
X158578845Y-61800499D01*
X158733497Y-61769737D01*
X158879179Y-61709394D01*
X159010289Y-61621789D01*
X159121789Y-61510289D01*
X159209394Y-61379179D01*
X159213728Y-61368717D01*
X159228724Y-61332512D01*
X159269737Y-61233497D01*
X159300500Y-61078842D01*
X159300500Y-60921158D01*
X159300500Y-60921155D01*
X159300499Y-60921153D01*
X159292272Y-60879792D01*
X159269737Y-60766503D01*
X159237427Y-60688500D01*
X159209397Y-60620828D01*
X159209396Y-60620827D01*
X159209394Y-60620821D01*
X159171396Y-60563953D01*
X159150520Y-60497276D01*
X159150500Y-60495064D01*
X159150500Y-56435928D01*
X159125502Y-56310261D01*
X159125501Y-56310260D01*
X159125501Y-56310256D01*
X159076465Y-56191873D01*
X159075042Y-56189744D01*
X159005277Y-56085331D01*
X158965795Y-56045849D01*
X158960649Y-56039054D01*
X158951157Y-56014032D01*
X158938334Y-55990549D01*
X158936785Y-55976148D01*
X158935867Y-55973727D01*
X158936303Y-55971664D01*
X158935500Y-55964191D01*
X158935500Y-54024935D01*
X158955185Y-53957896D01*
X158956366Y-53956090D01*
X158994394Y-53899179D01*
X159054737Y-53753497D01*
X159085500Y-53598842D01*
X159085500Y-53441158D01*
X159085500Y-53441155D01*
X159085499Y-53441153D01*
X159083075Y-53428965D01*
X159054737Y-53286503D01*
X159016726Y-53194735D01*
X158994397Y-53140827D01*
X158994390Y-53140814D01*
X158906789Y-53009711D01*
X158906786Y-53009707D01*
X158795292Y-52898213D01*
X158795288Y-52898210D01*
X158664185Y-52810609D01*
X158664172Y-52810602D01*
X158518501Y-52750264D01*
X158518489Y-52750261D01*
X158363845Y-52719500D01*
X158363842Y-52719500D01*
X158206158Y-52719500D01*
X158206155Y-52719500D01*
X158051510Y-52750261D01*
X158051498Y-52750264D01*
X157905827Y-52810602D01*
X157905814Y-52810609D01*
X157774711Y-52898210D01*
X157774707Y-52898213D01*
X157663213Y-53009707D01*
X157663210Y-53009711D01*
X157575609Y-53140814D01*
X157575602Y-53140827D01*
X157515264Y-53286498D01*
X157515261Y-53286510D01*
X157484500Y-53441153D01*
X155978793Y-53441153D01*
X161233127Y-48186819D01*
X161294450Y-48153334D01*
X161320808Y-48150500D01*
X162921731Y-48150500D01*
X162988770Y-48170185D01*
G37*
%TD.AperFunction*%
%TA.AperFunction,Conductor*%
G36*
X153316348Y-46670185D02*
G01*
X153362103Y-46722989D01*
X153372047Y-46792147D01*
X153352411Y-46843391D01*
X153270609Y-46965814D01*
X153270602Y-46965827D01*
X153210264Y-47111498D01*
X153210261Y-47111510D01*
X153179500Y-47266153D01*
X153179500Y-47423846D01*
X153210261Y-47578489D01*
X153210264Y-47578501D01*
X153270602Y-47724172D01*
X153270609Y-47724185D01*
X153358210Y-47855288D01*
X153358213Y-47855292D01*
X153469707Y-47966786D01*
X153469711Y-47966789D01*
X153600814Y-48054390D01*
X153600827Y-48054397D01*
X153746498Y-48114735D01*
X153746503Y-48114737D01*
X153873503Y-48139999D01*
X153901153Y-48145499D01*
X153901156Y-48145500D01*
X153901158Y-48145500D01*
X154058844Y-48145500D01*
X154058845Y-48145499D01*
X154213497Y-48114737D01*
X154359179Y-48054394D01*
X154490289Y-47966789D01*
X154601789Y-47855289D01*
X154689394Y-47724179D01*
X154749737Y-47578497D01*
X154780500Y-47423842D01*
X154780500Y-47266158D01*
X154780500Y-47266155D01*
X154780499Y-47266153D01*
X154756303Y-47144512D01*
X154749737Y-47111503D01*
X154736209Y-47078844D01*
X154689397Y-46965827D01*
X154689390Y-46965814D01*
X154607589Y-46843391D01*
X154586711Y-46776714D01*
X154605195Y-46709333D01*
X154657174Y-46662643D01*
X154710691Y-46650500D01*
X160727648Y-46650500D01*
X160794687Y-46670185D01*
X160840442Y-46722989D01*
X160850386Y-46792147D01*
X160821361Y-46855703D01*
X160775100Y-46889061D01*
X160691876Y-46923532D01*
X160585326Y-46994726D01*
X160585325Y-46994727D01*
X154992181Y-52587872D01*
X154930858Y-52621357D01*
X154861166Y-52616373D01*
X154805233Y-52574501D01*
X154780816Y-52509037D01*
X154780500Y-52500191D01*
X154780500Y-52346155D01*
X154780499Y-52346153D01*
X154758090Y-52233497D01*
X154749737Y-52191503D01*
X154707299Y-52089047D01*
X154689397Y-52045827D01*
X154689390Y-52045814D01*
X154601789Y-51914711D01*
X154601786Y-51914707D01*
X154490291Y-51803212D01*
X154469837Y-51789545D01*
X154433927Y-51765551D01*
X154389123Y-51711941D01*
X154380416Y-51642616D01*
X154399718Y-51593558D01*
X154439389Y-51534187D01*
X154439390Y-51534184D01*
X154439394Y-51534179D01*
X154499737Y-51388497D01*
X154530500Y-51233842D01*
X154530500Y-51076158D01*
X154530500Y-51076155D01*
X154530499Y-51076153D01*
X154499738Y-50921510D01*
X154499737Y-50921503D01*
X154499594Y-50921158D01*
X154439397Y-50775827D01*
X154439395Y-50775823D01*
X154439394Y-50775821D01*
X154399717Y-50716440D01*
X154378839Y-50649763D01*
X154397323Y-50582383D01*
X154433927Y-50544448D01*
X154490289Y-50506789D01*
X154601789Y-50395289D01*
X154689394Y-50264179D01*
X154749737Y-50118497D01*
X154780500Y-49963842D01*
X154780500Y-49806158D01*
X154780500Y-49806155D01*
X154780499Y-49806153D01*
X154768579Y-49746230D01*
X154749737Y-49651503D01*
X154695730Y-49521117D01*
X154689397Y-49505827D01*
X154689390Y-49505814D01*
X154601789Y-49374711D01*
X154601786Y-49374707D01*
X154490292Y-49263213D01*
X154490288Y-49263210D01*
X154359185Y-49175609D01*
X154359172Y-49175602D01*
X154213501Y-49115264D01*
X154213489Y-49115261D01*
X154058845Y-49084500D01*
X154058842Y-49084500D01*
X153901158Y-49084500D01*
X153901155Y-49084500D01*
X153746510Y-49115261D01*
X153746498Y-49115264D01*
X153600827Y-49175602D01*
X153600814Y-49175609D01*
X153469711Y-49263210D01*
X153469707Y-49263213D01*
X153358213Y-49374707D01*
X153358210Y-49374711D01*
X153270609Y-49505814D01*
X153270602Y-49505827D01*
X153210264Y-49651498D01*
X153210261Y-49651510D01*
X153179500Y-49806153D01*
X153179500Y-49963846D01*
X153210261Y-50118489D01*
X153210264Y-50118501D01*
X153270602Y-50264172D01*
X153270609Y-50264185D01*
X153310281Y-50323558D01*
X153331159Y-50390236D01*
X153312674Y-50457616D01*
X153276072Y-50495550D01*
X153219709Y-50533211D01*
X153108213Y-50644707D01*
X153108210Y-50644711D01*
X153020609Y-50775814D01*
X153020602Y-50775827D01*
X152960264Y-50921498D01*
X152960261Y-50921510D01*
X152929500Y-51076153D01*
X152929500Y-51233846D01*
X152960261Y-51388489D01*
X152960264Y-51388501D01*
X153020602Y-51534172D01*
X153020609Y-51534185D01*
X153108210Y-51665288D01*
X153108213Y-51665292D01*
X153219708Y-51776787D01*
X153219711Y-51776789D01*
X153276071Y-51814448D01*
X153320875Y-51868058D01*
X153329584Y-51937383D01*
X153310283Y-51986439D01*
X153270608Y-52045816D01*
X153270602Y-52045827D01*
X153210264Y-52191498D01*
X153210261Y-52191510D01*
X153179500Y-52346153D01*
X153179500Y-52503846D01*
X153210261Y-52658489D01*
X153210264Y-52658501D01*
X153270602Y-52804172D01*
X153270609Y-52804185D01*
X153358210Y-52935288D01*
X153358213Y-52935292D01*
X153469707Y-53046786D01*
X153469711Y-53046789D01*
X153600814Y-53134390D01*
X153600827Y-53134397D01*
X153746498Y-53194735D01*
X153746503Y-53194737D01*
X153858024Y-53216920D01*
X153901153Y-53225499D01*
X153901156Y-53225500D01*
X154055192Y-53225500D01*
X154122231Y-53245185D01*
X154167986Y-53297989D01*
X154177930Y-53367147D01*
X154148905Y-53430703D01*
X154142873Y-53437181D01*
X150994722Y-56585331D01*
X150994717Y-56585337D01*
X150967885Y-56625498D01*
X150967883Y-56625501D01*
X150950119Y-56652086D01*
X150923534Y-56691873D01*
X150874499Y-56810255D01*
X150874497Y-56810261D01*
X150849500Y-56935928D01*
X150849500Y-60679192D01*
X150829815Y-60746231D01*
X150813181Y-60766873D01*
X147766873Y-63813181D01*
X147705550Y-63846666D01*
X147679192Y-63849500D01*
X145376869Y-63849500D01*
X145309830Y-63829815D01*
X145264075Y-63777011D01*
X145254131Y-63707853D01*
X145283156Y-63644297D01*
X145303984Y-63625181D01*
X145308657Y-63621786D01*
X145379792Y-63570104D01*
X145530104Y-63419792D01*
X145530106Y-63419788D01*
X145530109Y-63419786D01*
X145657915Y-63243875D01*
X145659259Y-63244851D01*
X145705705Y-63202834D01*
X145759618Y-63190500D01*
X147524071Y-63190500D01*
X147619772Y-63171463D01*
X147649744Y-63165501D01*
X147768127Y-63116465D01*
X147874669Y-63045277D01*
X149505277Y-61414669D01*
X149576465Y-61308127D01*
X149625501Y-61189744D01*
X149625550Y-61189500D01*
X149647519Y-61079057D01*
X149650500Y-61064071D01*
X149650500Y-52320807D01*
X149670185Y-52253768D01*
X149686819Y-52233126D01*
X151505273Y-50414672D01*
X151505276Y-50414669D01*
X151576465Y-50308127D01*
X151625501Y-50189744D01*
X151633307Y-50150500D01*
X151650500Y-50064069D01*
X151650500Y-46820808D01*
X151659144Y-46791367D01*
X151665668Y-46761381D01*
X151669422Y-46756365D01*
X151670185Y-46753769D01*
X151686819Y-46733127D01*
X151733127Y-46686819D01*
X151794450Y-46653334D01*
X151820808Y-46650500D01*
X153249309Y-46650500D01*
X153316348Y-46670185D01*
G37*
%TD.AperFunction*%
%TA.AperFunction,Conductor*%
G36*
X170708946Y-37838363D02*
G01*
X170719030Y-37837097D01*
X170741905Y-37848041D01*
X170766234Y-37855185D01*
X170772888Y-37862864D01*
X170782057Y-37867251D01*
X170795385Y-37888827D01*
X170811989Y-37907989D01*
X170813435Y-37918046D01*
X170818777Y-37926694D01*
X170818324Y-37952050D01*
X170821933Y-37977147D01*
X170817678Y-37988250D01*
X170817530Y-37996553D01*
X170802297Y-38028391D01*
X170770609Y-38075814D01*
X170770602Y-38075827D01*
X170710264Y-38221498D01*
X170710261Y-38221510D01*
X170679500Y-38376153D01*
X170679500Y-38533846D01*
X170710261Y-38688489D01*
X170710264Y-38688501D01*
X170770602Y-38834172D01*
X170770609Y-38834185D01*
X170858210Y-38965288D01*
X170858213Y-38965292D01*
X170969707Y-39076786D01*
X170969711Y-39076789D01*
X171100814Y-39164390D01*
X171100827Y-39164397D01*
X171223239Y-39215101D01*
X171246503Y-39224737D01*
X171399605Y-39255191D01*
X171401153Y-39255499D01*
X171401156Y-39255500D01*
X171559192Y-39255500D01*
X171626231Y-39275185D01*
X171646873Y-39291819D01*
X172813181Y-40458127D01*
X172846666Y-40519450D01*
X172849500Y-40545808D01*
X172849500Y-46994071D01*
X172865890Y-47076465D01*
X172865890Y-47076466D01*
X172872859Y-47111503D01*
X172874499Y-47119744D01*
X172923535Y-47238127D01*
X172952244Y-47281093D01*
X172994726Y-47344673D01*
X172994727Y-47344674D01*
X175986563Y-50336509D01*
X176020048Y-50397832D01*
X176021355Y-50443588D01*
X175999500Y-50581577D01*
X175999500Y-50780191D01*
X175979815Y-50847230D01*
X175927011Y-50892985D01*
X175857853Y-50902929D01*
X175794297Y-50873904D01*
X175787819Y-50867872D01*
X172914673Y-47994726D01*
X172914669Y-47994723D01*
X172808127Y-47923535D01*
X172689744Y-47874499D01*
X172689738Y-47874497D01*
X172564071Y-47849500D01*
X172564069Y-47849500D01*
X172323063Y-47849500D01*
X172256024Y-47829815D01*
X172210269Y-47777011D01*
X172200325Y-47707853D01*
X172208502Y-47678047D01*
X172249737Y-47578497D01*
X172280500Y-47423842D01*
X172280500Y-47266158D01*
X172280500Y-47266155D01*
X172280499Y-47266153D01*
X172256303Y-47144512D01*
X172249737Y-47111503D01*
X172236209Y-47078844D01*
X172189397Y-46965827D01*
X172189390Y-46965814D01*
X172101789Y-46834711D01*
X172101786Y-46834707D01*
X172064760Y-46797681D01*
X172031275Y-46736358D01*
X172036259Y-46666666D01*
X172064760Y-46622319D01*
X172101786Y-46585292D01*
X172101789Y-46585289D01*
X172189394Y-46454179D01*
X172249737Y-46308497D01*
X172280500Y-46153842D01*
X172280500Y-45996158D01*
X172280500Y-45996155D01*
X172280499Y-45996153D01*
X172249737Y-45841503D01*
X172249735Y-45841498D01*
X172189397Y-45695827D01*
X172189390Y-45695814D01*
X172101789Y-45564711D01*
X172101786Y-45564707D01*
X172064760Y-45527681D01*
X172031275Y-45466358D01*
X172036259Y-45396666D01*
X172064760Y-45352319D01*
X172101786Y-45315292D01*
X172101789Y-45315289D01*
X172189394Y-45184179D01*
X172249737Y-45038497D01*
X172280500Y-44883842D01*
X172280500Y-44726158D01*
X172280500Y-44726155D01*
X172280499Y-44726153D01*
X172265671Y-44651610D01*
X172249737Y-44571503D01*
X172222305Y-44505275D01*
X172189397Y-44425827D01*
X172189390Y-44425814D01*
X172101789Y-44294711D01*
X172101786Y-44294707D01*
X171990292Y-44183213D01*
X171990288Y-44183210D01*
X171859185Y-44095609D01*
X171859172Y-44095602D01*
X171713501Y-44035264D01*
X171713489Y-44035261D01*
X171558845Y-44004500D01*
X171558842Y-44004500D01*
X171401158Y-44004500D01*
X171401155Y-44004500D01*
X171246510Y-44035261D01*
X171246498Y-44035264D01*
X171100827Y-44095602D01*
X171100814Y-44095609D01*
X170969711Y-44183210D01*
X170969707Y-44183213D01*
X170858213Y-44294707D01*
X170858210Y-44294711D01*
X170770609Y-44425814D01*
X170770602Y-44425827D01*
X170710264Y-44571498D01*
X170710261Y-44571510D01*
X170679500Y-44726153D01*
X170679500Y-44883846D01*
X170710261Y-45038489D01*
X170710264Y-45038501D01*
X170770602Y-45184172D01*
X170770609Y-45184185D01*
X170858210Y-45315288D01*
X170858213Y-45315292D01*
X170895240Y-45352319D01*
X170928725Y-45413642D01*
X170923741Y-45483334D01*
X170895240Y-45527681D01*
X170858213Y-45564707D01*
X170858210Y-45564711D01*
X170770609Y-45695814D01*
X170770602Y-45695827D01*
X170710264Y-45841498D01*
X170710261Y-45841510D01*
X170679500Y-45996153D01*
X170679500Y-46153846D01*
X170710261Y-46308489D01*
X170710264Y-46308501D01*
X170770602Y-46454172D01*
X170770609Y-46454185D01*
X170858210Y-46585288D01*
X170858213Y-46585292D01*
X170895240Y-46622319D01*
X170928725Y-46683642D01*
X170923741Y-46753334D01*
X170895240Y-46797681D01*
X170858213Y-46834707D01*
X170858210Y-46834711D01*
X170770609Y-46965814D01*
X170770602Y-46965827D01*
X170710264Y-47111498D01*
X170710261Y-47111510D01*
X170679500Y-47266153D01*
X170679500Y-47423846D01*
X170696695Y-47510288D01*
X170710263Y-47578497D01*
X170749852Y-47674075D01*
X170751498Y-47678047D01*
X170758967Y-47747517D01*
X170727692Y-47809996D01*
X170667603Y-47845648D01*
X170636937Y-47849500D01*
X169504935Y-47849500D01*
X169437896Y-47829815D01*
X169436090Y-47828633D01*
X169379179Y-47790606D01*
X169379172Y-47790602D01*
X169233501Y-47730264D01*
X169233489Y-47730261D01*
X169078845Y-47699500D01*
X169078842Y-47699500D01*
X168921158Y-47699500D01*
X168921155Y-47699500D01*
X168766510Y-47730261D01*
X168766498Y-47730264D01*
X168620827Y-47790602D01*
X168620814Y-47790609D01*
X168489711Y-47878210D01*
X168489707Y-47878213D01*
X168378213Y-47989707D01*
X168378210Y-47989711D01*
X168290609Y-48120814D01*
X168290602Y-48120827D01*
X168230264Y-48266498D01*
X168230261Y-48266510D01*
X168199500Y-48421153D01*
X168199500Y-48578846D01*
X168230261Y-48733489D01*
X168230264Y-48733501D01*
X168290602Y-48879172D01*
X168290609Y-48879185D01*
X168378210Y-49010288D01*
X168378213Y-49010292D01*
X168489707Y-49121786D01*
X168489711Y-49121789D01*
X168620814Y-49209390D01*
X168620827Y-49209397D01*
X168752766Y-49264047D01*
X168766503Y-49269737D01*
X168879165Y-49292147D01*
X168921153Y-49300499D01*
X168921156Y-49300500D01*
X168921158Y-49300500D01*
X169078844Y-49300500D01*
X169078845Y-49300499D01*
X169233497Y-49269737D01*
X169365498Y-49215061D01*
X169379172Y-49209397D01*
X169379172Y-49209396D01*
X169379179Y-49209394D01*
X169436044Y-49171397D01*
X169502721Y-49150520D01*
X169504935Y-49150500D01*
X170783059Y-49150500D01*
X170850098Y-49170185D01*
X170895853Y-49222989D01*
X170905797Y-49292147D01*
X170876772Y-49355703D01*
X170870740Y-49362181D01*
X170858213Y-49374707D01*
X170858210Y-49374711D01*
X170770609Y-49505814D01*
X170770602Y-49505827D01*
X170710264Y-49651498D01*
X170710261Y-49651510D01*
X170679500Y-49806153D01*
X170679500Y-49963846D01*
X170710261Y-50118489D01*
X170710264Y-50118501D01*
X170770602Y-50264172D01*
X170770609Y-50264185D01*
X170858210Y-50395288D01*
X170858213Y-50395292D01*
X170895240Y-50432319D01*
X170928725Y-50493642D01*
X170923741Y-50563334D01*
X170895240Y-50607681D01*
X170858213Y-50644707D01*
X170858210Y-50644711D01*
X170770609Y-50775814D01*
X170770602Y-50775827D01*
X170710264Y-50921498D01*
X170710261Y-50921510D01*
X170679500Y-51076153D01*
X170679500Y-51233846D01*
X170710261Y-51388489D01*
X170710264Y-51388501D01*
X170770602Y-51534172D01*
X170770609Y-51534185D01*
X170858210Y-51665288D01*
X170858213Y-51665292D01*
X170969706Y-51776785D01*
X170969709Y-51776787D01*
X170969711Y-51776789D01*
X171024391Y-51813325D01*
X171069195Y-51866935D01*
X171079500Y-51916426D01*
X171079500Y-56590953D01*
X171059815Y-56657992D01*
X171007011Y-56703747D01*
X170937853Y-56713691D01*
X170874297Y-56684666D01*
X170867819Y-56678634D01*
X170847213Y-56658028D01*
X170681613Y-56537715D01*
X170681612Y-56537714D01*
X170681610Y-56537713D01*
X170624653Y-56508691D01*
X170499223Y-56444781D01*
X170304534Y-56381522D01*
X170129995Y-56353878D01*
X170102352Y-56349500D01*
X169897648Y-56349500D01*
X169873329Y-56353351D01*
X169695465Y-56381522D01*
X169500776Y-56444781D01*
X169318386Y-56537715D01*
X169152786Y-56658028D01*
X169008028Y-56802786D01*
X168887715Y-56968386D01*
X168794781Y-57150776D01*
X168731522Y-57345465D01*
X168699500Y-57547648D01*
X168699500Y-57752351D01*
X168731522Y-57954534D01*
X168794781Y-58149223D01*
X168887715Y-58331613D01*
X169008028Y-58497213D01*
X169137042Y-58626227D01*
X169170527Y-58687550D01*
X169165543Y-58757242D01*
X169137042Y-58801589D01*
X166917048Y-61021584D01*
X166917046Y-61021586D01*
X166394733Y-61543898D01*
X166333410Y-61577383D01*
X166263718Y-61572399D01*
X166207785Y-61530527D01*
X166183368Y-61465063D01*
X166198220Y-61396790D01*
X166203946Y-61387331D01*
X166209394Y-61379179D01*
X166213728Y-61368717D01*
X166228724Y-61332512D01*
X166269737Y-61233497D01*
X166300500Y-61078842D01*
X166300500Y-60921158D01*
X166300500Y-60921155D01*
X166300499Y-60921153D01*
X166292272Y-60879792D01*
X166269737Y-60766503D01*
X166237427Y-60688500D01*
X166209397Y-60620828D01*
X166209396Y-60620827D01*
X166209394Y-60620821D01*
X166171396Y-60563953D01*
X166150520Y-60497276D01*
X166150500Y-60495064D01*
X166150500Y-53731711D01*
X166170185Y-53664672D01*
X166222989Y-53618917D01*
X166292147Y-53608973D01*
X166355703Y-53637998D01*
X166393477Y-53696776D01*
X166396117Y-53707520D01*
X166405261Y-53753489D01*
X166405264Y-53753501D01*
X166465602Y-53899172D01*
X166465609Y-53899185D01*
X166553210Y-54030288D01*
X166553213Y-54030292D01*
X166664707Y-54141786D01*
X166664711Y-54141789D01*
X166795814Y-54229390D01*
X166795827Y-54229397D01*
X166940986Y-54289523D01*
X166941503Y-54289737D01*
X167096153Y-54320499D01*
X167096156Y-54320500D01*
X167096158Y-54320500D01*
X167253844Y-54320500D01*
X167253845Y-54320499D01*
X167408497Y-54289737D01*
X167544266Y-54233500D01*
X167554172Y-54229397D01*
X167554172Y-54229396D01*
X167554179Y-54229394D01*
X167685289Y-54141789D01*
X167796789Y-54030289D01*
X167884394Y-53899179D01*
X167944737Y-53753497D01*
X167975500Y-53598842D01*
X167975500Y-53441158D01*
X167975500Y-53441155D01*
X167975499Y-53441153D01*
X167973075Y-53428965D01*
X167944737Y-53286503D01*
X167906726Y-53194735D01*
X167884397Y-53140827D01*
X167884390Y-53140814D01*
X167796398Y-53009125D01*
X167775520Y-52942447D01*
X167775500Y-52940234D01*
X167775500Y-49264060D01*
X167775501Y-49264047D01*
X167775501Y-49095944D01*
X167773536Y-49088609D01*
X167734577Y-48943216D01*
X167693339Y-48871789D01*
X167655524Y-48806290D01*
X167655518Y-48806282D01*
X167168935Y-48319699D01*
X167135450Y-48258376D01*
X167140434Y-48188684D01*
X167182306Y-48132751D01*
X167209164Y-48117457D01*
X167216545Y-48114399D01*
X167308127Y-48076465D01*
X167341159Y-48054394D01*
X167414669Y-48005277D01*
X167602932Y-47817012D01*
X167664251Y-47783530D01*
X167666316Y-47783099D01*
X167733497Y-47769737D01*
X167879179Y-47709394D01*
X168010289Y-47621789D01*
X168121789Y-47510289D01*
X168209394Y-47379179D01*
X168269737Y-47233497D01*
X168300500Y-47078842D01*
X168300500Y-46921158D01*
X168300500Y-46921155D01*
X168300499Y-46921153D01*
X168285031Y-46843391D01*
X168269737Y-46766503D01*
X168269735Y-46766498D01*
X168209397Y-46620827D01*
X168209390Y-46620814D01*
X168121789Y-46489711D01*
X168121786Y-46489707D01*
X168010292Y-46378213D01*
X168010288Y-46378210D01*
X167879185Y-46290609D01*
X167879172Y-46290602D01*
X167733501Y-46230264D01*
X167733489Y-46230261D01*
X167578845Y-46199500D01*
X167578842Y-46199500D01*
X167421158Y-46199500D01*
X167421155Y-46199500D01*
X167266510Y-46230261D01*
X167266498Y-46230264D01*
X167120827Y-46290602D01*
X167120814Y-46290609D01*
X166989711Y-46378210D01*
X166989707Y-46378213D01*
X166878213Y-46489707D01*
X166878210Y-46489711D01*
X166790609Y-46620814D01*
X166790602Y-46620827D01*
X166727932Y-46772131D01*
X166725477Y-46771114D01*
X166693490Y-46819930D01*
X166629679Y-46848390D01*
X166613122Y-46849500D01*
X166077352Y-46849500D01*
X166010313Y-46829815D01*
X165964558Y-46777011D01*
X165954614Y-46707853D01*
X165983639Y-46644297D01*
X166029900Y-46610939D01*
X166044373Y-46604943D01*
X166113127Y-46576465D01*
X166147006Y-46553828D01*
X166219669Y-46505277D01*
X167102931Y-45622013D01*
X167164252Y-45588530D01*
X167166284Y-45588106D01*
X167233497Y-45574737D01*
X167379179Y-45514394D01*
X167510289Y-45426789D01*
X167621789Y-45315289D01*
X167709394Y-45184179D01*
X167769737Y-45038497D01*
X167800500Y-44883842D01*
X167800500Y-44726158D01*
X167800500Y-44726155D01*
X167800499Y-44726153D01*
X167785671Y-44651610D01*
X167769737Y-44571503D01*
X167742305Y-44505275D01*
X167709397Y-44425827D01*
X167709390Y-44425814D01*
X167621789Y-44294711D01*
X167621786Y-44294707D01*
X167510292Y-44183213D01*
X167510288Y-44183210D01*
X167379185Y-44095609D01*
X167379172Y-44095602D01*
X167233501Y-44035264D01*
X167233489Y-44035261D01*
X167078845Y-44004500D01*
X167078842Y-44004500D01*
X166921158Y-44004500D01*
X166921155Y-44004500D01*
X166766510Y-44035261D01*
X166766498Y-44035264D01*
X166620827Y-44095602D01*
X166620814Y-44095609D01*
X166489711Y-44183210D01*
X166489707Y-44183213D01*
X166378213Y-44294707D01*
X166378210Y-44294711D01*
X166290609Y-44425814D01*
X166290602Y-44425827D01*
X166230263Y-44571500D01*
X166230261Y-44571506D01*
X166216919Y-44638581D01*
X166184533Y-44700491D01*
X166182983Y-44702069D01*
X165571873Y-45313181D01*
X165510550Y-45346666D01*
X165484192Y-45349500D01*
X151435929Y-45349500D01*
X151310261Y-45374497D01*
X151310255Y-45374499D01*
X151191874Y-45423534D01*
X151085326Y-45494726D01*
X150494724Y-46085328D01*
X150458816Y-46139068D01*
X150458817Y-46139069D01*
X150423534Y-46191874D01*
X150374499Y-46310255D01*
X150374497Y-46310261D01*
X150349500Y-46435928D01*
X150349500Y-49679191D01*
X150329815Y-49746230D01*
X150313181Y-49766872D01*
X148494727Y-51585325D01*
X148494726Y-51585326D01*
X148447998Y-51655262D01*
X148447996Y-51655264D01*
X148423539Y-51691864D01*
X148423533Y-51691875D01*
X148374499Y-51810255D01*
X148374497Y-51810261D01*
X148349500Y-51935928D01*
X148349500Y-60679192D01*
X148329815Y-60746231D01*
X148313181Y-60766873D01*
X147226873Y-61853181D01*
X147165550Y-61886666D01*
X147139192Y-61889500D01*
X145759618Y-61889500D01*
X145754292Y-61887936D01*
X145748851Y-61889032D01*
X145721124Y-61878196D01*
X145692579Y-61869815D01*
X145687580Y-61865088D01*
X145683774Y-61863601D01*
X145671281Y-61849676D01*
X145659208Y-61838259D01*
X145655631Y-61833323D01*
X145655051Y-61832184D01*
X145562007Y-61704119D01*
X145550260Y-61671067D01*
X145538619Y-61638439D01*
X145538637Y-61638360D01*
X145538610Y-61638283D01*
X145546645Y-61603922D01*
X145554445Y-61570385D01*
X145554508Y-61570300D01*
X145554521Y-61570249D01*
X145554624Y-61570148D01*
X145574732Y-61543683D01*
X147005276Y-60113141D01*
X147045340Y-60053181D01*
X147076464Y-60006600D01*
X147088138Y-59978416D01*
X147125501Y-59888215D01*
X147127543Y-59877949D01*
X147139205Y-59819324D01*
X147150500Y-59762542D01*
X147150500Y-51820807D01*
X147170185Y-51753768D01*
X147186814Y-51733131D01*
X148852931Y-50067013D01*
X148914252Y-50033530D01*
X148916317Y-50033099D01*
X148983497Y-50019737D01*
X149118436Y-49963844D01*
X149129172Y-49959397D01*
X149129172Y-49959396D01*
X149129179Y-49959394D01*
X149260289Y-49871789D01*
X149371789Y-49760289D01*
X149459394Y-49629179D01*
X149519737Y-49483497D01*
X149550500Y-49328842D01*
X149550500Y-49171158D01*
X149550500Y-49171155D01*
X149550499Y-49171153D01*
X149533277Y-49084574D01*
X149519737Y-49016503D01*
X149517163Y-49010288D01*
X149459397Y-48870827D01*
X149459390Y-48870814D01*
X149371789Y-48739711D01*
X149371786Y-48739707D01*
X149260292Y-48628213D01*
X149260288Y-48628210D01*
X149129185Y-48540609D01*
X149129172Y-48540602D01*
X148983501Y-48480264D01*
X148983489Y-48480261D01*
X148828845Y-48449500D01*
X148828842Y-48449500D01*
X148671158Y-48449500D01*
X148671155Y-48449500D01*
X148516510Y-48480261D01*
X148516498Y-48480264D01*
X148370827Y-48540602D01*
X148370814Y-48540609D01*
X148239711Y-48628210D01*
X148239707Y-48628213D01*
X148128213Y-48739707D01*
X148128210Y-48739711D01*
X148040609Y-48870814D01*
X148040602Y-48870827D01*
X147980264Y-49016498D01*
X147980261Y-49016508D01*
X147966920Y-49083579D01*
X147934535Y-49145490D01*
X147932984Y-49147068D01*
X145994724Y-51085328D01*
X145948897Y-51153913D01*
X145948898Y-51153914D01*
X145923534Y-51191874D01*
X145874499Y-51310255D01*
X145874497Y-51310261D01*
X145849500Y-51435928D01*
X145849500Y-59178186D01*
X145829815Y-59245225D01*
X145777011Y-59290980D01*
X145707853Y-59300924D01*
X145644297Y-59271899D01*
X145625182Y-59251071D01*
X145530109Y-59120214D01*
X145530105Y-59120209D01*
X145379786Y-58969890D01*
X145203875Y-58842085D01*
X145204851Y-58840740D01*
X145162834Y-58794295D01*
X145150500Y-58740382D01*
X145150500Y-45320808D01*
X145170185Y-45253769D01*
X145186819Y-45233127D01*
X146198127Y-44221819D01*
X146259450Y-44188334D01*
X146285808Y-44185500D01*
X153475065Y-44185500D01*
X153542104Y-44205185D01*
X153543909Y-44206366D01*
X153600821Y-44244394D01*
X153600823Y-44244395D01*
X153600827Y-44244397D01*
X153720021Y-44293768D01*
X153746503Y-44304737D01*
X153901153Y-44335499D01*
X153901156Y-44335500D01*
X153901158Y-44335500D01*
X154058844Y-44335500D01*
X154058845Y-44335499D01*
X154213497Y-44304737D01*
X154359179Y-44244394D01*
X154490289Y-44156789D01*
X154601789Y-44045289D01*
X154689394Y-43914179D01*
X154749737Y-43768497D01*
X154780500Y-43613842D01*
X154780500Y-43456158D01*
X154780500Y-43456155D01*
X154780499Y-43456153D01*
X154765310Y-43379792D01*
X154749737Y-43301503D01*
X154731925Y-43258501D01*
X154689397Y-43155827D01*
X154689390Y-43155814D01*
X154601789Y-43024711D01*
X154601786Y-43024707D01*
X154564760Y-42987681D01*
X154531275Y-42926358D01*
X154536259Y-42856666D01*
X154564760Y-42812319D01*
X154601786Y-42775292D01*
X154601789Y-42775289D01*
X154689394Y-42644179D01*
X154749737Y-42498497D01*
X154780500Y-42343842D01*
X154780500Y-42186158D01*
X154780500Y-42186155D01*
X154780499Y-42186153D01*
X170679500Y-42186153D01*
X170679500Y-42343846D01*
X170710261Y-42498489D01*
X170710264Y-42498501D01*
X170770602Y-42644172D01*
X170770609Y-42644185D01*
X170858210Y-42775288D01*
X170858213Y-42775292D01*
X170969707Y-42886786D01*
X170969711Y-42886789D01*
X171100814Y-42974390D01*
X171100827Y-42974397D01*
X171207095Y-43018414D01*
X171246503Y-43034737D01*
X171401153Y-43065499D01*
X171401156Y-43065500D01*
X171401158Y-43065500D01*
X171558844Y-43065500D01*
X171558845Y-43065499D01*
X171713497Y-43034737D01*
X171859179Y-42974394D01*
X171990289Y-42886789D01*
X172101789Y-42775289D01*
X172189394Y-42644179D01*
X172249737Y-42498497D01*
X172280500Y-42343842D01*
X172280500Y-42186158D01*
X172280500Y-42186155D01*
X172280499Y-42186153D01*
X172259153Y-42078842D01*
X172249737Y-42031503D01*
X172229062Y-41981588D01*
X172189397Y-41885827D01*
X172189390Y-41885814D01*
X172101789Y-41754711D01*
X172101786Y-41754707D01*
X171990292Y-41643213D01*
X171990288Y-41643210D01*
X171859181Y-41555607D01*
X171859172Y-41555602D01*
X171713501Y-41495264D01*
X171713489Y-41495261D01*
X171558845Y-41464500D01*
X171558842Y-41464500D01*
X171401158Y-41464500D01*
X171401155Y-41464500D01*
X171246510Y-41495261D01*
X171246498Y-41495264D01*
X171100827Y-41555602D01*
X171100819Y-41555607D01*
X170969711Y-41643210D01*
X170969707Y-41643213D01*
X170858213Y-41754707D01*
X170858210Y-41754711D01*
X170770609Y-41885814D01*
X170770602Y-41885827D01*
X170710264Y-42031498D01*
X170710261Y-42031510D01*
X170679500Y-42186153D01*
X154780499Y-42186153D01*
X154759153Y-42078842D01*
X154749737Y-42031503D01*
X154729062Y-41981588D01*
X154689397Y-41885827D01*
X154689387Y-41885809D01*
X154661044Y-41843390D01*
X154640166Y-41776713D01*
X154658651Y-41709333D01*
X154710630Y-41662643D01*
X154764146Y-41650500D01*
X164564071Y-41650500D01*
X164648615Y-41633682D01*
X164689744Y-41625501D01*
X164808127Y-41576465D01*
X164839345Y-41555606D01*
X164914669Y-41505277D01*
X168548127Y-37871819D01*
X168609450Y-37838334D01*
X168635808Y-37835500D01*
X170699195Y-37835500D01*
X170708946Y-37838363D01*
G37*
%TD.AperFunction*%
%TA.AperFunction,Conductor*%
G36*
X179304808Y-46370185D02*
G01*
X179325450Y-46386819D01*
X180713181Y-47774549D01*
X180746666Y-47835872D01*
X180749500Y-47862230D01*
X180749500Y-59137770D01*
X180729815Y-59204809D01*
X180713181Y-59225451D01*
X179885451Y-60053181D01*
X179824128Y-60086666D01*
X179797770Y-60089500D01*
X178313614Y-60089500D01*
X178246575Y-60069815D01*
X178213297Y-60038387D01*
X178203828Y-60025354D01*
X178064648Y-59886174D01*
X178064646Y-59886172D01*
X177934356Y-59791510D01*
X177905403Y-59770474D01*
X177728787Y-59680485D01*
X177677990Y-59632511D01*
X177661195Y-59564690D01*
X177683732Y-59498555D01*
X177728787Y-59459515D01*
X177905403Y-59369525D01*
X177905402Y-59369525D01*
X177905405Y-59369524D01*
X178064646Y-59253828D01*
X178203828Y-59114646D01*
X178319524Y-58955405D01*
X178408884Y-58780025D01*
X178469709Y-58592826D01*
X178470811Y-58585869D01*
X178500500Y-58398422D01*
X178500500Y-58201577D01*
X178469709Y-58007173D01*
X178408882Y-57819970D01*
X178319523Y-57644594D01*
X178307202Y-57627636D01*
X178203828Y-57485354D01*
X178064646Y-57346172D01*
X177985025Y-57288324D01*
X177905403Y-57230474D01*
X177728787Y-57140485D01*
X177677990Y-57092511D01*
X177661195Y-57024690D01*
X177683732Y-56958555D01*
X177728787Y-56919515D01*
X177905403Y-56829525D01*
X177905402Y-56829525D01*
X177905405Y-56829524D01*
X178064646Y-56713828D01*
X178203828Y-56574646D01*
X178319524Y-56415405D01*
X178408884Y-56240025D01*
X178469709Y-56052826D01*
X178479573Y-55990549D01*
X178500500Y-55858422D01*
X178500500Y-55661577D01*
X178469709Y-55467173D01*
X178408882Y-55279970D01*
X178319523Y-55104594D01*
X178203828Y-54945354D01*
X178064646Y-54806172D01*
X177976946Y-54742454D01*
X177905403Y-54690474D01*
X177728787Y-54600485D01*
X177677990Y-54552511D01*
X177661195Y-54484690D01*
X177683732Y-54418555D01*
X177728787Y-54379515D01*
X177905403Y-54289525D01*
X177905402Y-54289525D01*
X177905405Y-54289524D01*
X178064646Y-54173828D01*
X178203828Y-54034646D01*
X178319524Y-53875405D01*
X178408884Y-53700025D01*
X178469709Y-53512826D01*
X178481060Y-53441158D01*
X178500500Y-53318422D01*
X178500500Y-53121577D01*
X178469709Y-52927173D01*
X178456507Y-52886542D01*
X178432551Y-52812817D01*
X178430557Y-52742978D01*
X178466637Y-52683145D01*
X178529337Y-52652316D01*
X178550483Y-52650500D01*
X178995065Y-52650500D01*
X179062104Y-52670185D01*
X179063909Y-52671366D01*
X179120821Y-52709394D01*
X179120823Y-52709395D01*
X179120827Y-52709397D01*
X179266498Y-52769735D01*
X179266503Y-52769737D01*
X179379165Y-52792147D01*
X179421153Y-52800499D01*
X179421156Y-52800500D01*
X179421158Y-52800500D01*
X179578844Y-52800500D01*
X179578845Y-52800499D01*
X179733497Y-52769737D01*
X179879179Y-52709394D01*
X180010289Y-52621789D01*
X180121789Y-52510289D01*
X180209394Y-52379179D01*
X180269737Y-52233497D01*
X180300500Y-52078842D01*
X180300500Y-51921158D01*
X180300500Y-51921155D01*
X180300499Y-51921153D01*
X180280539Y-51820807D01*
X180269737Y-51766503D01*
X180248655Y-51715606D01*
X180209397Y-51620827D01*
X180209390Y-51620814D01*
X180121789Y-51489711D01*
X180121786Y-51489707D01*
X180010292Y-51378213D01*
X180010288Y-51378210D01*
X179879185Y-51290609D01*
X179879172Y-51290602D01*
X179733501Y-51230264D01*
X179733489Y-51230261D01*
X179578845Y-51199500D01*
X179578842Y-51199500D01*
X179421158Y-51199500D01*
X179421155Y-51199500D01*
X179266510Y-51230261D01*
X179266498Y-51230264D01*
X179120827Y-51290602D01*
X179120820Y-51290606D01*
X179091928Y-51309911D01*
X179063955Y-51328602D01*
X178997279Y-51349480D01*
X178995065Y-51349500D01*
X178514692Y-51349500D01*
X178447653Y-51329815D01*
X178401898Y-51277011D01*
X178391954Y-51207853D01*
X178404206Y-51169207D01*
X178405656Y-51166359D01*
X178408884Y-51160025D01*
X178469709Y-50972826D01*
X178477838Y-50921503D01*
X178500500Y-50778422D01*
X178500500Y-50581577D01*
X178469709Y-50387173D01*
X178429743Y-50264172D01*
X178408884Y-50199975D01*
X178408882Y-50199972D01*
X178408882Y-50199970D01*
X178332031Y-50049142D01*
X178319524Y-50024595D01*
X178203828Y-49865354D01*
X178064646Y-49726172D01*
X177905405Y-49610476D01*
X177890593Y-49602929D01*
X177730029Y-49521117D01*
X177542827Y-49460291D01*
X177366717Y-49432397D01*
X177303583Y-49402467D01*
X177266652Y-49343156D01*
X177267650Y-49273293D01*
X177306260Y-49215061D01*
X177361926Y-49188306D01*
X177556274Y-49149649D01*
X177703636Y-49088609D01*
X177255026Y-48640000D01*
X177315826Y-48640000D01*
X177442993Y-48605925D01*
X177557007Y-48540099D01*
X177650099Y-48447007D01*
X177715925Y-48332993D01*
X177750000Y-48205826D01*
X177750000Y-48145027D01*
X178198609Y-48593636D01*
X178259649Y-48446274D01*
X178259651Y-48446266D01*
X178299999Y-48243420D01*
X178300000Y-48243417D01*
X178300000Y-48036583D01*
X178299999Y-48036579D01*
X178259651Y-47833733D01*
X178259649Y-47833725D01*
X178198609Y-47686362D01*
X177750000Y-48134972D01*
X177750000Y-48074174D01*
X177715925Y-47947007D01*
X177650099Y-47832993D01*
X177557007Y-47739901D01*
X177442993Y-47674075D01*
X177315826Y-47640000D01*
X177255027Y-47640000D01*
X177703636Y-47191388D01*
X177556277Y-47130351D01*
X177556265Y-47130348D01*
X177361925Y-47091692D01*
X177300014Y-47059308D01*
X177265440Y-46998592D01*
X177269179Y-46928822D01*
X177310045Y-46872150D01*
X177366718Y-46847602D01*
X177542826Y-46819709D01*
X177730025Y-46758884D01*
X177905405Y-46669524D01*
X178064646Y-46553828D01*
X178203828Y-46414646D01*
X178213297Y-46401612D01*
X178268628Y-46358948D01*
X178313614Y-46350500D01*
X179237769Y-46350500D01*
X179304808Y-46370185D01*
G37*
%TD.AperFunction*%
%TA.AperFunction,Conductor*%
G36*
X153262893Y-41670185D02*
G01*
X153308648Y-41722989D01*
X153318592Y-41792147D01*
X153298956Y-41843390D01*
X153270612Y-41885809D01*
X153270602Y-41885827D01*
X153210264Y-42031498D01*
X153210261Y-42031510D01*
X153179500Y-42186153D01*
X153179500Y-42343846D01*
X153210261Y-42498489D01*
X153210264Y-42498501D01*
X153270602Y-42644172D01*
X153270609Y-42644185D01*
X153302297Y-42691609D01*
X153323175Y-42758287D01*
X153304690Y-42825667D01*
X153252711Y-42872357D01*
X153199195Y-42884500D01*
X145900929Y-42884500D01*
X145775261Y-42909497D01*
X145775255Y-42909499D01*
X145656874Y-42958534D01*
X145550326Y-43029726D01*
X143994724Y-44585328D01*
X143941155Y-44665500D01*
X143941156Y-44665501D01*
X143923534Y-44691874D01*
X143874499Y-44810255D01*
X143874497Y-44810261D01*
X143849500Y-44935928D01*
X143849500Y-58740382D01*
X143829815Y-58807421D01*
X143795408Y-58841099D01*
X143796125Y-58842085D01*
X143620213Y-58969890D01*
X143469890Y-59120213D01*
X143344949Y-59292182D01*
X143340484Y-59300946D01*
X143292509Y-59351742D01*
X143224688Y-59368536D01*
X143158553Y-59345998D01*
X143119516Y-59300946D01*
X143115050Y-59292182D01*
X142990109Y-59120213D01*
X142839786Y-58969890D01*
X142663875Y-58842085D01*
X142664851Y-58840740D01*
X142622834Y-58794295D01*
X142610500Y-58740382D01*
X142610500Y-44360807D01*
X142630185Y-44293768D01*
X142646819Y-44273126D01*
X145233126Y-41686819D01*
X145294449Y-41653334D01*
X145320807Y-41650500D01*
X153195854Y-41650500D01*
X153262893Y-41670185D01*
G37*
%TD.AperFunction*%
%TA.AperFunction,Conductor*%
G36*
X165392539Y-48170185D02*
G01*
X165438294Y-48222989D01*
X165449500Y-48274500D01*
X165449500Y-48328846D01*
X165480261Y-48483489D01*
X165480264Y-48483501D01*
X165540602Y-48629172D01*
X165540609Y-48629185D01*
X165628210Y-48760288D01*
X165628213Y-48760292D01*
X165739707Y-48871786D01*
X165739711Y-48871789D01*
X165870814Y-48959390D01*
X165870827Y-48959397D01*
X166008683Y-49016498D01*
X166016503Y-49019737D01*
X166081147Y-49032595D01*
X166171849Y-49050638D01*
X166233760Y-49083023D01*
X166235339Y-49084574D01*
X166538181Y-49387416D01*
X166571666Y-49448739D01*
X166574500Y-49475097D01*
X166574500Y-52940234D01*
X166554815Y-53007273D01*
X166553602Y-53009125D01*
X166465609Y-53140814D01*
X166465602Y-53140827D01*
X166405264Y-53286498D01*
X166405261Y-53286508D01*
X166396117Y-53332480D01*
X166363732Y-53394391D01*
X166303016Y-53428965D01*
X166233246Y-53425224D01*
X166176575Y-53384358D01*
X166150993Y-53319340D01*
X166150500Y-53308288D01*
X166150500Y-50935928D01*
X166125502Y-50810261D01*
X166125501Y-50810260D01*
X166125501Y-50810256D01*
X166076465Y-50691873D01*
X166076464Y-50691872D01*
X166076461Y-50691866D01*
X166005277Y-50585332D01*
X165964391Y-50544446D01*
X165914669Y-50494724D01*
X164317015Y-48897070D01*
X164283530Y-48835747D01*
X164283095Y-48833660D01*
X164269737Y-48766503D01*
X164235143Y-48682984D01*
X164209397Y-48620827D01*
X164209390Y-48620814D01*
X164121789Y-48489711D01*
X164121786Y-48489707D01*
X164010291Y-48378212D01*
X164009379Y-48377603D01*
X164009008Y-48377160D01*
X164005581Y-48374347D01*
X164006114Y-48373696D01*
X163964573Y-48323990D01*
X163955866Y-48254666D01*
X163986020Y-48191638D01*
X164045463Y-48154918D01*
X164078269Y-48150500D01*
X165325500Y-48150500D01*
X165392539Y-48170185D01*
G37*
%TD.AperFunction*%
%TA.AperFunction,Conductor*%
G36*
X174355703Y-45767516D02*
G01*
X174362181Y-45773548D01*
X174771580Y-46182948D01*
X174771584Y-46182951D01*
X174894498Y-46265080D01*
X174894511Y-46265087D01*
X175003560Y-46310256D01*
X175031087Y-46321658D01*
X175031091Y-46321658D01*
X175031092Y-46321659D01*
X175176079Y-46350500D01*
X175176082Y-46350500D01*
X175323917Y-46350500D01*
X176186386Y-46350500D01*
X176253425Y-46370185D01*
X176286702Y-46401612D01*
X176296172Y-46414646D01*
X176435354Y-46553828D01*
X176594595Y-46669524D01*
X176628539Y-46686819D01*
X176769970Y-46758882D01*
X176769972Y-46758882D01*
X176769975Y-46758884D01*
X176824850Y-46776714D01*
X176957173Y-46819709D01*
X177133281Y-46847602D01*
X177196416Y-46877531D01*
X177233347Y-46936843D01*
X177232349Y-47006705D01*
X177193739Y-47064938D01*
X177138074Y-47091692D01*
X176943734Y-47130348D01*
X176943722Y-47130351D01*
X176796362Y-47191389D01*
X177244974Y-47640000D01*
X177184174Y-47640000D01*
X177057007Y-47674075D01*
X176942993Y-47739901D01*
X176849901Y-47832993D01*
X176784075Y-47947007D01*
X176750000Y-48074174D01*
X176750000Y-48134973D01*
X176301389Y-47686362D01*
X176240351Y-47833722D01*
X176240348Y-47833734D01*
X176200000Y-48036579D01*
X176200000Y-48243414D01*
X176236119Y-48425003D01*
X176229891Y-48494594D01*
X176187027Y-48549771D01*
X176121137Y-48573015D01*
X176053140Y-48556947D01*
X176026820Y-48536874D01*
X174186819Y-46696873D01*
X174153334Y-46635550D01*
X174150500Y-46609192D01*
X174150500Y-45861229D01*
X174170185Y-45794190D01*
X174222989Y-45748435D01*
X174292147Y-45738491D01*
X174355703Y-45767516D01*
G37*
%TD.AperFunction*%
%TA.AperFunction,Conductor*%
G36*
X167597231Y-36770185D02*
G01*
X167642986Y-36822989D01*
X167652930Y-36892147D01*
X167623905Y-36955703D01*
X167617873Y-36962181D01*
X164266873Y-40313181D01*
X164205550Y-40346666D01*
X164179192Y-40349500D01*
X163397757Y-40349500D01*
X163330718Y-40329815D01*
X163284963Y-40277011D01*
X163275019Y-40207853D01*
X163276140Y-40201308D01*
X163300500Y-40078844D01*
X163300500Y-39921155D01*
X163300499Y-39921153D01*
X163269738Y-39766510D01*
X163269737Y-39766503D01*
X163218896Y-39643760D01*
X163209397Y-39620827D01*
X163209390Y-39620814D01*
X163121789Y-39489711D01*
X163121786Y-39489707D01*
X163010292Y-39378213D01*
X163010288Y-39378210D01*
X162879185Y-39290609D01*
X162879172Y-39290602D01*
X162733501Y-39230264D01*
X162733489Y-39230261D01*
X162578845Y-39199500D01*
X162578842Y-39199500D01*
X162421158Y-39199500D01*
X162421155Y-39199500D01*
X162266510Y-39230261D01*
X162266498Y-39230264D01*
X162120827Y-39290602D01*
X162120814Y-39290609D01*
X161989125Y-39378602D01*
X161922447Y-39399480D01*
X161920234Y-39399500D01*
X154414363Y-39399500D01*
X154347324Y-39379815D01*
X154301569Y-39327011D01*
X154291625Y-39257853D01*
X154320650Y-39194297D01*
X154355912Y-39166140D01*
X154359172Y-39164396D01*
X154359179Y-39164394D01*
X154490289Y-39076789D01*
X154601789Y-38965289D01*
X154689394Y-38834179D01*
X154749737Y-38688497D01*
X154780500Y-38533842D01*
X154780500Y-38376158D01*
X154780500Y-38376155D01*
X154780499Y-38376153D01*
X154749737Y-38221503D01*
X154728611Y-38170500D01*
X154689397Y-38075827D01*
X154689390Y-38075814D01*
X154601789Y-37944711D01*
X154601786Y-37944707D01*
X154564760Y-37907681D01*
X154531275Y-37846358D01*
X154536259Y-37776666D01*
X154564760Y-37732319D01*
X154601786Y-37695292D01*
X154601789Y-37695289D01*
X154689394Y-37564179D01*
X154749737Y-37418497D01*
X154780500Y-37263842D01*
X154780500Y-37247229D01*
X154800185Y-37180190D01*
X154816819Y-37159548D01*
X155189548Y-36786819D01*
X155250871Y-36753334D01*
X155277229Y-36750500D01*
X167530192Y-36750500D01*
X167597231Y-36770185D01*
G37*
%TD.AperFunction*%
%TD*%
M02*
