%TF.GenerationSoftware,KiCad,Pcbnew,9.0.3-9.0.3-0~ubuntu24.04.1*%
%TF.CreationDate,2025-10-01T20:11:17-03:00*%
%TF.ProjectId,Drone-HW,44726f6e-652d-4485-972e-6b696361645f,rev?*%
%TF.SameCoordinates,Original*%
%TF.FileFunction,Copper,L1,Top*%
%TF.FilePolarity,Positive*%
%FSLAX46Y46*%
G04 Gerber Fmt 4.6, Leading zero omitted, Abs format (unit mm)*
G04 Created by KiCad (PCBNEW 9.0.3-9.0.3-0~ubuntu24.04.1) date 2025-10-01 20:11:17*
%MOMM*%
%LPD*%
G01*
G04 APERTURE LIST*
G04 Aperture macros list*
%AMRoundRect*
0 Rectangle with rounded corners*
0 $1 Rounding radius*
0 $2 $3 $4 $5 $6 $7 $8 $9 X,Y pos of 4 corners*
0 Add a 4 corners polygon primitive as box body*
4,1,4,$2,$3,$4,$5,$6,$7,$8,$9,$2,$3,0*
0 Add four circle primitives for the rounded corners*
1,1,$1+$1,$2,$3*
1,1,$1+$1,$4,$5*
1,1,$1+$1,$6,$7*
1,1,$1+$1,$8,$9*
0 Add four rect primitives between the rounded corners*
20,1,$1+$1,$2,$3,$4,$5,0*
20,1,$1+$1,$4,$5,$6,$7,0*
20,1,$1+$1,$6,$7,$8,$9,0*
20,1,$1+$1,$8,$9,$2,$3,0*%
G04 Aperture macros list end*
%TA.AperFunction,ComponentPad*%
%ADD10C,1.500000*%
%TD*%
%TA.AperFunction,SMDPad,CuDef*%
%ADD11RoundRect,0.250000X-0.450000X0.325000X-0.450000X-0.325000X0.450000X-0.325000X0.450000X0.325000X0*%
%TD*%
%TA.AperFunction,SMDPad,CuDef*%
%ADD12RoundRect,0.250000X0.450000X-0.325000X0.450000X0.325000X-0.450000X0.325000X-0.450000X-0.325000X0*%
%TD*%
%TA.AperFunction,SMDPad,CuDef*%
%ADD13R,0.900000X0.800000*%
%TD*%
%TA.AperFunction,SMDPad,CuDef*%
%ADD14RoundRect,0.250000X-0.325000X-0.450000X0.325000X-0.450000X0.325000X0.450000X-0.325000X0.450000X0*%
%TD*%
%TA.AperFunction,ComponentPad*%
%ADD15R,1.700000X1.700000*%
%TD*%
%TA.AperFunction,ComponentPad*%
%ADD16O,1.700000X1.700000*%
%TD*%
%TA.AperFunction,SMDPad,CuDef*%
%ADD17R,1.500000X0.900000*%
%TD*%
%TA.AperFunction,SMDPad,CuDef*%
%ADD18R,0.900000X1.500000*%
%TD*%
%TA.AperFunction,SMDPad,CuDef*%
%ADD19R,0.900000X0.900000*%
%TD*%
%TA.AperFunction,HeatsinkPad*%
%ADD20C,0.600000*%
%TD*%
%TA.AperFunction,HeatsinkPad*%
%ADD21R,3.800000X3.800000*%
%TD*%
%TA.AperFunction,ComponentPad*%
%ADD22R,1.350000X1.350000*%
%TD*%
%TA.AperFunction,ComponentPad*%
%ADD23C,1.350000*%
%TD*%
%TA.AperFunction,ComponentPad*%
%ADD24C,1.700000*%
%TD*%
%TA.AperFunction,SMDPad,CuDef*%
%ADD25RoundRect,0.250000X0.325000X0.450000X-0.325000X0.450000X-0.325000X-0.450000X0.325000X-0.450000X0*%
%TD*%
%TA.AperFunction,ComponentPad*%
%ADD26C,1.600000*%
%TD*%
%TA.AperFunction,ComponentPad*%
%ADD27R,1.600000X1.600000*%
%TD*%
%TA.AperFunction,ComponentPad*%
%ADD28R,1.800000X1.800000*%
%TD*%
%TA.AperFunction,ComponentPad*%
%ADD29C,1.800000*%
%TD*%
%TA.AperFunction,ViaPad*%
%ADD30C,0.600000*%
%TD*%
%TA.AperFunction,Conductor*%
%ADD31C,0.300000*%
%TD*%
%TA.AperFunction,Conductor*%
%ADD32C,0.500000*%
%TD*%
%TA.AperFunction,Conductor*%
%ADD33C,0.200000*%
%TD*%
%TA.AperFunction,Conductor*%
%ADD34C,1.000000*%
%TD*%
G04 APERTURE END LIST*
D10*
%TO.P,U2,1,VCC*%
%TO.N,+3V3*%
X177250000Y-45600000D03*
%TO.P,U2,2,GND*%
%TO.N,GND*%
X177250000Y-48140000D03*
%TO.P,U2,3,SCL*%
%TO.N,/SCL-SPU*%
X177250000Y-50680000D03*
%TO.P,U2,4,SDA*%
%TO.N,/SDA-SPU*%
X177250000Y-53220000D03*
%TO.P,U2,5,XCL*%
%TO.N,unconnected-(U2-XCL-Pad5)*%
X177250000Y-55760000D03*
%TO.P,U2,6,XDA*%
%TO.N,unconnected-(U2-XDA-Pad6)*%
X177250000Y-58300000D03*
%TO.P,U2,7,ADO*%
%TO.N,+3V3*%
X177250000Y-60840000D03*
%TO.P,U2,8,INT*%
%TO.N,/INT*%
X177250000Y-63380000D03*
%TD*%
D11*
%TO.P,C2,1*%
%TO.N,+3V3*%
X180500000Y-67950000D03*
%TO.P,C2,2*%
%TO.N,GND*%
X180500000Y-70000000D03*
%TD*%
D12*
%TO.P,R25,1*%
%TO.N,+3V3*%
X193000000Y-56050000D03*
%TO.P,R25,2*%
%TO.N,Net-(D6-A2)*%
X193000000Y-54000000D03*
%TD*%
D13*
%TO.P,Q5,1,B*%
%TO.N,Net-(Q5-B)*%
X193500000Y-42900000D03*
%TO.P,Q5,2,E*%
%TO.N,/RTS_ESP*%
X193500000Y-41000000D03*
%TO.P,Q5,3,C*%
%TO.N,/EN_ESP*%
X191500000Y-41950000D03*
%TD*%
D12*
%TO.P,R2,1*%
%TO.N,+7V4*%
X193000000Y-64050000D03*
%TO.P,R2,2*%
%TO.N,/V_Bat*%
X193000000Y-62000000D03*
%TD*%
D14*
%TO.P,C1,1*%
%TO.N,+3V3*%
X180475000Y-66000000D03*
%TO.P,C1,2*%
%TO.N,GND*%
X182525000Y-66000000D03*
%TD*%
D13*
%TO.P,Q6,1,B*%
%TO.N,Net-(Q6-B)*%
X185500000Y-41050000D03*
%TO.P,Q6,2,E*%
%TO.N,/DTR_ESP*%
X185500000Y-42950000D03*
%TO.P,Q6,3,C*%
%TO.N,/IO0_ESP*%
X187500000Y-42000000D03*
%TD*%
D14*
%TO.P,C4,1*%
%TO.N,/EN_ESP*%
X191975000Y-39000000D03*
%TO.P,C4,2*%
%TO.N,GND*%
X194025000Y-39000000D03*
%TD*%
%TO.P,R14,1*%
%TO.N,+3V3*%
X191975000Y-36000000D03*
%TO.P,R14,2*%
%TO.N,/EN_ESP*%
X194025000Y-36000000D03*
%TD*%
D12*
%TO.P,R1,1*%
%TO.N,/V_Bat*%
X193000000Y-60025000D03*
%TO.P,R1,2*%
%TO.N,GND*%
X193000000Y-57975000D03*
%TD*%
D15*
%TO.P,Con5,1,3v3*%
%TO.N,unconnected-(Con5-3v3-Pad1)*%
X178460000Y-37420000D03*
D16*
%TO.P,Con5,2,GND*%
%TO.N,GND*%
X181000000Y-37420000D03*
%TO.P,Con5,3,TX*%
%TO.N,Net-(Con5-TX)*%
X178460000Y-39960000D03*
%TO.P,Con5,4,RX*%
%TO.N,Net-(Con5-RX)*%
X181000000Y-39960000D03*
%TO.P,Con5,5,DTR*%
%TO.N,/DTR_ESP*%
X178460000Y-42500000D03*
%TO.P,Con5,6,RTS*%
%TO.N,/RTS_ESP*%
X181000000Y-42500000D03*
%TD*%
D17*
%TO.P,U1,1,GND*%
%TO.N,GND*%
X153980000Y-35915000D03*
%TO.P,U1,2,VDD*%
%TO.N,+3V3*%
X153980000Y-37185000D03*
%TO.P,U1,3,EN*%
%TO.N,/EN_ESP*%
X153980000Y-38455000D03*
%TO.P,U1,4,SENSOR_VP_(IN)*%
%TO.N,unconnected-(U1-SENSOR_VP_(IN)-Pad4)*%
X153980000Y-39725000D03*
%TO.P,U1,5,SENSOR_VN_(IN)*%
%TO.N,unconnected-(U1-SENSOR_VN_(IN)-Pad5)*%
X153980000Y-40995000D03*
%TO.P,U1,6,IO34_(IN)*%
%TO.N,/INT*%
X153980000Y-42265000D03*
%TO.P,U1,7,IO35_(IN)*%
%TO.N,/IRQ*%
X153980000Y-43535000D03*
%TO.P,U1,8,IO32*%
%TO.N,/CE*%
X153980000Y-44805000D03*
%TO.P,U1,9,IO33*%
%TO.N,/~{CSN}*%
X153980000Y-46075000D03*
%TO.P,U1,10,IO25*%
%TO.N,/sw4*%
X153980000Y-47345000D03*
%TO.P,U1,11,IO26*%
%TO.N,/V_Bat*%
X153980000Y-48615000D03*
%TO.P,U1,12,IO27*%
%TO.N,/B_START*%
X153980000Y-49885000D03*
%TO.P,U1,13,IO14*%
%TO.N,/Motor4*%
X153980000Y-51155000D03*
%TO.P,U1,14,IO12(SPD)*%
%TO.N,/sw2*%
X153980000Y-52425000D03*
D18*
%TO.P,U1,15,GND*%
%TO.N,GND*%
X157015000Y-53520000D03*
%TO.P,U1,16,IO13*%
%TO.N,/Motor3*%
X158285000Y-53520000D03*
%TO.P,U1,17,SHD/SD2*%
%TO.N,unconnected-(U1-SHD{slash}SD2-Pad17)*%
X159555000Y-53520000D03*
%TO.P,U1,18,SWP/SD3*%
%TO.N,unconnected-(U1-SWP{slash}SD3-Pad18)*%
X160825000Y-53520000D03*
%TO.P,U1,19,SCS/CMD*%
%TO.N,unconnected-(U1-SCS{slash}CMD-Pad19)*%
X162095000Y-53520000D03*
%TO.P,U1,20,SCK/CLK*%
%TO.N,unconnected-(U1-SCK{slash}CLK-Pad20)*%
X163365000Y-53520000D03*
%TO.P,U1,21,SDO/SD0*%
%TO.N,unconnected-(U1-SDO{slash}SD0-Pad21)*%
X164635000Y-53520000D03*
%TO.P,U1,22,SDI/SD1*%
%TO.N,unconnected-(U1-SDI{slash}SD1-Pad22)*%
X165905000Y-53520000D03*
%TO.P,U1,23,IO15(SPU)*%
%TO.N,/sw3*%
X167175000Y-53520000D03*
%TO.P,U1,24,IO2(SPD)*%
%TO.N,unconnected-(U1-IO2(SPD)-Pad24)*%
X168445000Y-53520000D03*
D17*
%TO.P,U1,25,IO0(SPU)*%
%TO.N,/IO0_ESP*%
X171480000Y-52425000D03*
%TO.P,U1,26,IO4*%
%TO.N,/Motor1*%
X171480000Y-51155000D03*
%TO.P,U1,27,IO16*%
%TO.N,/Motor2*%
X171480000Y-49885000D03*
%TO.P,U1,28,IO17*%
%TO.N,Net-(D1-K)*%
X171480000Y-48615000D03*
%TO.P,U1,29,IO5(SPU)*%
%TO.N,/sw1*%
X171480000Y-47345000D03*
%TO.P,U1,30,IO18*%
%TO.N,/SCK*%
X171480000Y-46075000D03*
%TO.P,U1,31,IO19*%
%TO.N,/MISO*%
X171480000Y-44805000D03*
%TO.P,U1,32,NC*%
%TO.N,unconnected-(U1-NC-Pad32)*%
X171480000Y-43535000D03*
%TO.P,U1,33,IO21*%
%TO.N,/SDA-SPU*%
X171480000Y-42265000D03*
%TO.P,U1,34,RXD0/IO3*%
%TO.N,/RX_USB*%
X171480000Y-40995000D03*
%TO.P,U1,35,TXD0/IO1*%
%TO.N,/TX_USB*%
X171480000Y-39725000D03*
%TO.P,U1,36,IO22*%
%TO.N,/SCL-SPU*%
X171480000Y-38455000D03*
%TO.P,U1,37,IO23*%
%TO.N,/MOSI*%
X171480000Y-37185000D03*
%TO.P,U1,38,GND*%
%TO.N,GND*%
X171480000Y-35915000D03*
D19*
%TO.P,U1,39,PAD*%
X159830000Y-42080000D03*
D20*
X159830000Y-42780000D03*
D19*
X159830000Y-43480000D03*
D20*
X159830000Y-44180000D03*
D19*
X159830000Y-44880000D03*
D20*
X160530000Y-42080000D03*
X160530000Y-43480000D03*
X160530000Y-44880000D03*
D19*
X161230000Y-42080000D03*
D20*
X161230000Y-42780000D03*
D19*
X161230000Y-43480000D03*
D21*
X161230000Y-43480000D03*
D20*
X161230000Y-44180000D03*
D19*
X161230000Y-44880000D03*
D20*
X161930000Y-42080000D03*
X161930000Y-43480000D03*
X161930000Y-44880000D03*
D19*
X162630000Y-42080000D03*
D20*
X162630000Y-42780000D03*
D19*
X162630000Y-43480000D03*
D20*
X162630000Y-44180000D03*
D19*
X162630000Y-44880000D03*
%TD*%
D13*
%TO.P,D6,1,common*%
%TO.N,Net-(D6-A2)*%
X190000000Y-38500000D03*
%TO.P,D6,2,A2*%
X190000000Y-36600000D03*
%TO.P,D6,3,A1*%
%TO.N,GND*%
X188000000Y-37550000D03*
%TD*%
D22*
%TO.P,J1,1,Pin_1*%
%TO.N,/Motor1*%
X148500000Y-68500000D03*
D23*
%TO.P,J1,2,Pin_2*%
%TO.N,GND*%
X148500000Y-70500000D03*
%TO.P,J1,3,Pin_3*%
%TO.N,/sw1*%
X148500000Y-72500000D03*
%TD*%
D15*
%TO.P,U3,1,GND*%
%TO.N,GND*%
X136880000Y-62540000D03*
D24*
%TO.P,U3,2,VCC*%
%TO.N,+3V3*%
X136880000Y-60000000D03*
%TO.P,U3,3,CE*%
%TO.N,/CE*%
X139420000Y-62540000D03*
%TO.P,U3,4,~{CSN}*%
%TO.N,/~{CSN}*%
X139420000Y-60000000D03*
%TO.P,U3,5,SCK*%
%TO.N,/SCK*%
X141960000Y-62540000D03*
%TO.P,U3,6,MOSI*%
%TO.N,/MOSI*%
X141960000Y-60000000D03*
%TO.P,U3,7,MISO*%
%TO.N,/MISO*%
X144500000Y-62540000D03*
%TO.P,U3,8,IRQ*%
%TO.N,/IRQ*%
X144500000Y-60000000D03*
%TD*%
D11*
%TO.P,R11,1*%
%TO.N,Net-(Q5-B)*%
X193000000Y-45475000D03*
%TO.P,R11,2*%
%TO.N,/DTR_ESP*%
X193000000Y-47525000D03*
%TD*%
D22*
%TO.P,J3,1,Pin_1*%
%TO.N,/Motor3*%
X140500000Y-68500000D03*
D23*
%TO.P,J3,2,Pin_2*%
%TO.N,GND*%
X140500000Y-70500000D03*
%TO.P,J3,3,Pin_3*%
%TO.N,/sw3*%
X140500000Y-72500000D03*
%TD*%
D15*
%TO.P,J5,1,Pin_1*%
%TO.N,+7V4*%
X160500000Y-70000000D03*
D24*
%TO.P,J5,2,Pin_2*%
%TO.N,GND_7V4*%
X157960000Y-70000000D03*
%TD*%
D12*
%TO.P,R10,1*%
%TO.N,Net-(Con5-RX)*%
X175000000Y-42525000D03*
%TO.P,R10,2*%
%TO.N,/RX_USB*%
X175000000Y-40475000D03*
%TD*%
D11*
%TO.P,R12,1*%
%TO.N,Net-(Q6-B)*%
X189500000Y-40975000D03*
%TO.P,R12,2*%
%TO.N,/RTS_ESP*%
X189500000Y-43025000D03*
%TD*%
D25*
%TO.P,R3,1*%
%TO.N,+3V3*%
X170525000Y-70500000D03*
%TO.P,R3,2*%
%TO.N,Net-(D1-A)*%
X168475000Y-70500000D03*
%TD*%
D26*
%TO.P,STEP_DOWN1,1,+IN*%
%TO.N,+7V4*%
X155060000Y-57650000D03*
%TO.P,STEP_DOWN1,2,-IN*%
%TO.N,GND_7V4*%
X155050000Y-66650000D03*
%TO.P,STEP_DOWN1,3,+OUT*%
%TO.N,+3V3*%
X170000000Y-57650000D03*
%TO.P,STEP_DOWN1,4,-OUT*%
%TO.N,GND*%
X170130000Y-66700000D03*
%TD*%
D24*
%TO.P,SW3,1,1*%
%TO.N,Net-(D6-A2)*%
X185750000Y-68250000D03*
%TO.P,SW3,2,2*%
%TO.N,GND*%
X192250000Y-68250000D03*
%TO.P,SW3,3*%
%TO.N,N/C*%
X185750000Y-72750000D03*
%TO.P,SW3,4*%
X192250000Y-72750000D03*
%TD*%
D12*
%TO.P,R24,1*%
%TO.N,/B_START*%
X193000000Y-51550000D03*
%TO.P,R24,2*%
%TO.N,Net-(D6-A2)*%
X193000000Y-49500000D03*
%TD*%
D27*
%TO.P,C3,1*%
%TO.N,+3V3*%
X174000000Y-68500000D03*
D26*
%TO.P,C3,2*%
%TO.N,GND*%
X176500000Y-68500000D03*
%TD*%
D22*
%TO.P,J2,1,Pin_1*%
%TO.N,/Motor2*%
X144500000Y-68500000D03*
D23*
%TO.P,J2,2,Pin_2*%
%TO.N,GND*%
X144500000Y-70500000D03*
%TO.P,J2,3,Pin_3*%
%TO.N,/sw2*%
X144500000Y-72500000D03*
%TD*%
D12*
%TO.P,R9,1*%
%TO.N,/TX_USB*%
X175000000Y-38500000D03*
%TO.P,R9,2*%
%TO.N,Net-(Con5-TX)*%
X175000000Y-36450000D03*
%TD*%
D13*
%TO.P,D4,1,common*%
%TO.N,Net-(Con5-TX)*%
X184500000Y-36550000D03*
%TO.P,D4,2,A2*%
%TO.N,Net-(Con5-RX)*%
X184500000Y-38450000D03*
%TO.P,D4,3,A1*%
%TO.N,GND*%
X186500000Y-37500000D03*
%TD*%
D28*
%TO.P,D1,1,K*%
%TO.N,Net-(D1-K)*%
X174000000Y-56000000D03*
D29*
%TO.P,D1,2,A*%
%TO.N,Net-(D1-A)*%
X174000000Y-58540000D03*
%TD*%
D22*
%TO.P,J4,1,Pin_1*%
%TO.N,/Motor4*%
X136500000Y-68500000D03*
D23*
%TO.P,J4,2,Pin_2*%
%TO.N,GND*%
X136500000Y-70500000D03*
%TO.P,J4,3,Pin_3*%
%TO.N,/sw4*%
X136500000Y-72500000D03*
%TD*%
D30*
%TO.N,/Motor1*%
X171480000Y-51155000D03*
X155000000Y-72000000D03*
%TO.N,GND*%
X137500000Y-42000000D03*
X146500000Y-72500000D03*
X151500000Y-54000000D03*
X165000000Y-48500000D03*
X152000000Y-71500000D03*
X143000000Y-51000000D03*
X190500000Y-45000000D03*
X159500000Y-47000000D03*
X168500000Y-51500000D03*
X185000000Y-63000000D03*
X157500000Y-48500000D03*
X187000000Y-56500000D03*
X147500000Y-42500000D03*
X179500000Y-49000000D03*
X143500000Y-38000000D03*
X159500000Y-38000000D03*
X155500000Y-61000000D03*
X179500000Y-57000000D03*
X161500000Y-51500000D03*
X186500000Y-39500000D03*
X167500000Y-59000000D03*
X180000000Y-71000000D03*
X163500000Y-38000000D03*
X167500000Y-42000000D03*
X184000000Y-48500000D03*
X141000000Y-56500000D03*
X164000000Y-58000000D03*
X138500000Y-71500000D03*
X161000000Y-58000000D03*
X148000000Y-54000000D03*
X166500000Y-71000000D03*
X184000000Y-41500000D03*
X156500000Y-65000000D03*
X156500000Y-47500000D03*
X163500000Y-68500000D03*
X136000000Y-53500000D03*
%TO.N,/Motor2*%
X171480000Y-49885000D03*
X164500000Y-64000000D03*
%TO.N,/Motor3*%
X158285000Y-53520000D03*
X158500000Y-61000000D03*
%TO.N,/Motor4*%
X153730000Y-51155000D03*
%TO.N,+3V3*%
X173250000Y-36750000D03*
X152000000Y-63000000D03*
X153980000Y-37185000D03*
%TO.N,/EN_ESP*%
X194025000Y-36000000D03*
X191975000Y-39000000D03*
X153980000Y-38455000D03*
%TO.N,/RTS_ESP*%
X189500000Y-43025000D03*
%TO.N,Net-(D6-A2)*%
X190000000Y-36600000D03*
X193000000Y-49500000D03*
X190000000Y-38500000D03*
X193000000Y-54000000D03*
%TO.N,/IO0_ESP*%
X186500000Y-44500000D03*
X184000000Y-54000000D03*
X187500000Y-42000000D03*
%TO.N,/B_START*%
X169000000Y-48500000D03*
X153980000Y-49885000D03*
X179500000Y-52000000D03*
%TO.N,Net-(D1-K)*%
X173000000Y-51000000D03*
%TO.N,/sw1*%
X171480000Y-47345000D03*
%TO.N,/sw2*%
X153980000Y-52425000D03*
%TO.N,/INT*%
X153980000Y-42265000D03*
X174500000Y-63380000D03*
X171500000Y-63380000D03*
X163500000Y-49000000D03*
X165500000Y-61000000D03*
%TO.N,/MOSI*%
X171480000Y-37185000D03*
%TO.N,/SDA-SPU*%
X171480000Y-42265000D03*
%TO.N,/sw3*%
X167175000Y-53520000D03*
X162500000Y-40000000D03*
X166250000Y-48250000D03*
%TO.N,/SCL-SPU*%
X171480000Y-38455000D03*
%TO.N,Net-(D1-A)*%
X168475000Y-70500000D03*
%TO.N,/SCK*%
X167500000Y-47000000D03*
X171480000Y-46075000D03*
%TO.N,/IRQ*%
X153980000Y-43535000D03*
%TO.N,/MISO*%
X171480000Y-44805000D03*
X167000000Y-44805000D03*
%TO.N,/V_Bat*%
X193000000Y-60025000D03*
X148750000Y-49250000D03*
%TO.N,/sw4*%
X153980000Y-47345000D03*
%TD*%
D31*
%TO.N,Net-(Con5-TX)*%
X184500000Y-36550000D02*
X184450000Y-36550000D01*
X184450000Y-36550000D02*
X182241000Y-38759000D01*
X182241000Y-38759000D02*
X179661000Y-38759000D01*
X179661000Y-38759000D02*
X178460000Y-39960000D01*
%TO.N,Net-(Con5-RX)*%
X175000000Y-42525000D02*
X176525000Y-42525000D01*
X179661000Y-41299000D02*
X181000000Y-39960000D01*
X176525000Y-42525000D02*
X177751000Y-41299000D01*
X177751000Y-41299000D02*
X179661000Y-41299000D01*
%TO.N,/RX_USB*%
X171480000Y-40995000D02*
X174480000Y-40995000D01*
X174480000Y-40995000D02*
X175000000Y-40475000D01*
%TO.N,/TX_USB*%
X171480000Y-39725000D02*
X171705000Y-39500000D01*
X171705000Y-39500000D02*
X174000000Y-39500000D01*
X174000000Y-39500000D02*
X175000000Y-38500000D01*
%TO.N,+3V3*%
X191975000Y-36000000D02*
X191925000Y-36000000D01*
X191925000Y-36000000D02*
X190425000Y-34500000D01*
X190425000Y-34500000D02*
X175000000Y-34500000D01*
X175000000Y-34500000D02*
X173250000Y-36250000D01*
X173250000Y-36250000D02*
X173250000Y-36750000D01*
D32*
X180475000Y-66000000D02*
X180475000Y-68025000D01*
D31*
%TO.N,/Motor1*%
X151500000Y-68500000D02*
X148500000Y-68500000D01*
X155000000Y-72000000D02*
X151500000Y-68500000D01*
D33*
%TO.N,GND*%
X179500000Y-49000000D02*
X178110000Y-49000000D01*
X178110000Y-49000000D02*
X177250000Y-48140000D01*
D31*
%TO.N,+7V4*%
X189000000Y-68500000D02*
X187500000Y-70000000D01*
X189950000Y-64050000D02*
X189000000Y-65000000D01*
D34*
X160500000Y-70000000D02*
X160500000Y-60000000D01*
D31*
X184000000Y-70000000D02*
X181849000Y-72151000D01*
X187500000Y-70000000D02*
X184000000Y-70000000D01*
X160500000Y-70500000D02*
X160500000Y-70000000D01*
X162151000Y-72151000D02*
X160500000Y-70500000D01*
X193000000Y-64050000D02*
X189950000Y-64050000D01*
X189000000Y-65000000D02*
X189000000Y-68500000D01*
D34*
X158150000Y-57650000D02*
X155060000Y-57650000D01*
X160500000Y-60000000D02*
X158150000Y-57650000D01*
D31*
X181849000Y-72151000D02*
X162151000Y-72151000D01*
D34*
%TO.N,GND_7V4*%
X156650000Y-66650000D02*
X155050000Y-66650000D01*
X157960000Y-70000000D02*
X157960000Y-67960000D01*
X157960000Y-67960000D02*
X156650000Y-66650000D01*
D31*
%TO.N,/Motor2*%
X169500000Y-50733000D02*
X169500000Y-55500000D01*
X164000000Y-60000000D02*
X164000000Y-63500000D01*
X164000000Y-63500000D02*
X164500000Y-64000000D01*
X170348000Y-49885000D02*
X169500000Y-50733000D01*
X166000000Y-59000000D02*
X165000000Y-59000000D01*
X171480000Y-49885000D02*
X170348000Y-49885000D01*
X165000000Y-59000000D02*
X164000000Y-60000000D01*
X169500000Y-55500000D02*
X166000000Y-59000000D01*
%TO.N,/Motor3*%
X142000000Y-67000000D02*
X140500000Y-68500000D01*
X158500000Y-61000000D02*
X152500000Y-67000000D01*
X152500000Y-67000000D02*
X142000000Y-67000000D01*
%TO.N,/Motor4*%
X154000000Y-63500000D02*
X154000000Y-61500000D01*
X136500000Y-68500000D02*
X136500000Y-67500000D01*
X149500000Y-57000000D02*
X149500000Y-52000000D01*
X154000000Y-61500000D02*
X149500000Y-57000000D01*
X151500000Y-66000000D02*
X154000000Y-63500000D01*
X149500000Y-52000000D02*
X150345000Y-51155000D01*
X150345000Y-51155000D02*
X153730000Y-51155000D01*
X138000000Y-66000000D02*
X151500000Y-66000000D01*
X136500000Y-67500000D02*
X138000000Y-66000000D01*
D32*
%TO.N,+3V3*%
X173000000Y-67000000D02*
X173000000Y-67500000D01*
X174000000Y-68500000D02*
X173000000Y-69500000D01*
D31*
X193000000Y-56050000D02*
X190950000Y-56050000D01*
D32*
X135000000Y-60500000D02*
X135500000Y-60000000D01*
X173000000Y-62000000D02*
X173000000Y-67000000D01*
X135500000Y-64500000D02*
X135000000Y-64000000D01*
X173000000Y-69500000D02*
X171525000Y-69500000D01*
X174160000Y-60840000D02*
X173000000Y-62000000D01*
X135000000Y-64000000D02*
X135000000Y-60500000D01*
X135500000Y-60000000D02*
X136880000Y-60000000D01*
X147500000Y-63000000D02*
X146000000Y-64500000D01*
X170000000Y-57650000D02*
X170000000Y-59000000D01*
X177250000Y-60840000D02*
X174160000Y-60840000D01*
X171525000Y-69500000D02*
X170525000Y-70500000D01*
X173000000Y-67500000D02*
X174000000Y-68500000D01*
D31*
X190950000Y-56050000D02*
X186160000Y-60840000D01*
D32*
X180475000Y-66000000D02*
X174000000Y-66000000D01*
D31*
X186160000Y-60840000D02*
X177250000Y-60840000D01*
D32*
X152000000Y-63000000D02*
X147500000Y-63000000D01*
X146000000Y-64500000D02*
X135500000Y-64500000D01*
X174000000Y-66000000D02*
X173000000Y-67000000D01*
X170000000Y-59000000D02*
X173000000Y-62000000D01*
D31*
%TO.N,/EN_ESP*%
X194025000Y-36000000D02*
X193500000Y-36525000D01*
X191475000Y-39500000D02*
X191475000Y-41925000D01*
X191975000Y-39000000D02*
X191475000Y-39500000D01*
X193500000Y-36525000D02*
X193500000Y-36975000D01*
X191475000Y-41925000D02*
X191500000Y-41950000D01*
X193500000Y-36975000D02*
X191975000Y-38500000D01*
X191975000Y-38500000D02*
X191975000Y-39000000D01*
%TO.N,/DTR_ESP*%
X178460000Y-43460000D02*
X178460000Y-42500000D01*
X179475000Y-44475000D02*
X178460000Y-43460000D01*
X185500000Y-42950000D02*
X184475000Y-43975000D01*
X187525000Y-47525000D02*
X184475000Y-44475000D01*
X184475000Y-44475000D02*
X179475000Y-44475000D01*
X193000000Y-47525000D02*
X187525000Y-47525000D01*
X184475000Y-43975000D02*
X184475000Y-44475000D01*
%TO.N,/RTS_ESP*%
X189500000Y-43025000D02*
X191823000Y-43025000D01*
X191823000Y-43025000D02*
X193500000Y-41348000D01*
X193500000Y-41348000D02*
X193500000Y-41000000D01*
%TO.N,Net-(Con5-RX)*%
X184500000Y-38450000D02*
X184000000Y-38450000D01*
X182490000Y-39960000D02*
X181000000Y-39960000D01*
X184000000Y-38450000D02*
X182490000Y-39960000D01*
%TO.N,Net-(Q5-B)*%
X193500000Y-42900000D02*
X193500000Y-44975000D01*
X193500000Y-44975000D02*
X193000000Y-45475000D01*
%TO.N,/IO0_ESP*%
X184000000Y-54000000D02*
X183679000Y-54321000D01*
X187500000Y-42000000D02*
X186500000Y-43000000D01*
X174321000Y-54321000D02*
X172425000Y-52425000D01*
X172425000Y-52425000D02*
X171480000Y-52425000D01*
X183679000Y-54321000D02*
X174321000Y-54321000D01*
X186500000Y-43701000D02*
X186500000Y-44500000D01*
X186500000Y-43000000D02*
X186500000Y-43701000D01*
%TO.N,Net-(Q6-B)*%
X185575000Y-40975000D02*
X185500000Y-41050000D01*
X189500000Y-40975000D02*
X185575000Y-40975000D01*
%TO.N,/B_START*%
X179950000Y-51550000D02*
X193000000Y-51550000D01*
X153980000Y-49885000D02*
X167615000Y-49885000D01*
X167615000Y-49885000D02*
X169000000Y-48500000D01*
X179500000Y-52000000D02*
X179950000Y-51550000D01*
D33*
%TO.N,Net-(D1-K)*%
X173000000Y-51000000D02*
X173000000Y-49185000D01*
X172430000Y-48615000D02*
X171480000Y-48615000D01*
X173000000Y-49185000D02*
X172430000Y-48615000D01*
%TO.N,/sw1*%
X156601000Y-64399000D02*
X155743950Y-64399000D01*
X154500000Y-59500000D02*
X158867214Y-59500000D01*
X171480000Y-47345000D02*
X170507057Y-47345000D01*
X169601000Y-48748943D02*
X167750943Y-50599000D01*
X155743950Y-64399000D02*
X152618950Y-67524000D01*
X170507057Y-47345000D02*
X169601000Y-48251057D01*
X146500000Y-68000000D02*
X146500000Y-71500000D01*
X153500000Y-56000000D02*
X153500000Y-58500000D01*
X146976000Y-67524000D02*
X146500000Y-68000000D01*
X155500000Y-51500000D02*
X155500000Y-54000000D01*
X169601000Y-48251057D02*
X169601000Y-48748943D01*
X153500000Y-58500000D02*
X154500000Y-59500000D01*
X155500000Y-54000000D02*
X153500000Y-56000000D01*
X159699000Y-60331786D02*
X159699000Y-61301000D01*
X147500000Y-72500000D02*
X148500000Y-72500000D01*
X156401000Y-50599000D02*
X155500000Y-51500000D01*
X158867214Y-59500000D02*
X159699000Y-60331786D01*
X159699000Y-61301000D02*
X156601000Y-64399000D01*
X167750943Y-50599000D02*
X156401000Y-50599000D01*
X146500000Y-71500000D02*
X147500000Y-72500000D01*
X152618950Y-67524000D02*
X146976000Y-67524000D01*
D31*
%TO.N,/~{CSN}*%
X139420000Y-48580000D02*
X139420000Y-60000000D01*
X153980000Y-46075000D02*
X141925000Y-46075000D01*
X141925000Y-46075000D02*
X139420000Y-48580000D01*
D33*
%TO.N,/sw2*%
X151686810Y-66451000D02*
X139549000Y-66451000D01*
X138500000Y-67500000D02*
X138500000Y-70500000D01*
X154451000Y-61313190D02*
X154451000Y-63686810D01*
X143500000Y-71500000D02*
X144500000Y-72500000D01*
X138500000Y-70500000D02*
X139500000Y-71500000D01*
X152101000Y-58963190D02*
X154451000Y-61313190D01*
X139549000Y-66451000D02*
X138500000Y-67500000D01*
X153980000Y-52425000D02*
X153730000Y-52425000D01*
X139500000Y-71500000D02*
X143500000Y-71500000D01*
X152101000Y-54054000D02*
X152101000Y-58963190D01*
X154451000Y-63686810D02*
X151686810Y-66451000D01*
X153730000Y-52425000D02*
X152101000Y-54054000D01*
D31*
%TO.N,/INT*%
X168620000Y-63380000D02*
X167880000Y-63380000D01*
X162250000Y-47750000D02*
X163500000Y-49000000D01*
X156465260Y-42265000D02*
X157500000Y-43299740D01*
X153980000Y-42265000D02*
X156465260Y-42265000D01*
X177250000Y-63380000D02*
X174500000Y-63380000D01*
X171500000Y-63380000D02*
X168620000Y-63380000D01*
X157500000Y-46500000D02*
X158750000Y-47750000D01*
X157500000Y-43299740D02*
X157500000Y-46500000D01*
X167880000Y-63380000D02*
X165500000Y-61000000D01*
X158750000Y-47750000D02*
X162250000Y-47750000D01*
%TO.N,/SDA-SPU*%
X173500000Y-43500000D02*
X173500000Y-49470000D01*
X172265000Y-42265000D02*
X173500000Y-43500000D01*
X171480000Y-42265000D02*
X172265000Y-42265000D01*
X173500000Y-49470000D02*
X177250000Y-53220000D01*
D33*
%TO.N,/sw3*%
X163917000Y-40000000D02*
X162500000Y-40000000D01*
X165500000Y-41583000D02*
X163917000Y-40000000D01*
X166250000Y-48250000D02*
X165500000Y-47500000D01*
X165500000Y-47500000D02*
X165500000Y-41583000D01*
D31*
%TO.N,/SCK*%
X167500000Y-47000000D02*
X168500000Y-47000000D01*
X168500000Y-47000000D02*
X169425000Y-46075000D01*
X169425000Y-46075000D02*
X171480000Y-46075000D01*
%TO.N,/CE*%
X138219000Y-61339000D02*
X139420000Y-62540000D01*
X141695000Y-44805000D02*
X138219000Y-48281000D01*
X138219000Y-48281000D02*
X138219000Y-61339000D01*
X153980000Y-44805000D02*
X141695000Y-44805000D01*
%TO.N,/MISO*%
X171480000Y-44805000D02*
X167000000Y-44805000D01*
%TO.N,/V_Bat*%
X193000000Y-62000000D02*
X193000000Y-60025000D01*
D33*
X151115000Y-48615000D02*
X153980000Y-48615000D01*
X150480000Y-49250000D02*
X151115000Y-48615000D01*
X148750000Y-49250000D02*
X150480000Y-49250000D01*
%TO.N,/sw4*%
X147155000Y-47345000D02*
X146086810Y-48413190D01*
X153000000Y-63557947D02*
X151506947Y-65051000D01*
X146086810Y-48413190D02*
X146086810Y-57586810D01*
X135000000Y-67500000D02*
X135000000Y-71000000D01*
X151506947Y-65051000D02*
X137449000Y-65051000D01*
X147000000Y-60000000D02*
X147500000Y-60500000D01*
X147500000Y-60500000D02*
X151000000Y-60500000D01*
X153000000Y-62500000D02*
X153000000Y-63557947D01*
X135000000Y-71000000D02*
X136500000Y-72500000D01*
X151000000Y-60500000D02*
X153000000Y-62500000D01*
X137449000Y-65051000D02*
X135000000Y-67500000D01*
X147000000Y-58500000D02*
X147000000Y-60000000D01*
X153980000Y-47345000D02*
X147155000Y-47345000D01*
X146086810Y-57586810D02*
X147000000Y-58500000D01*
D31*
%TO.N,Net-(Con5-TX)*%
X175000000Y-36500000D02*
X178460000Y-39960000D01*
%TD*%
%TA.AperFunction,Conductor*%
%TO.N,GND*%
G36*
X174347731Y-34019685D02*
G01*
X174393486Y-34072489D01*
X174403430Y-34141647D01*
X174374405Y-34205203D01*
X174368373Y-34211681D01*
X172741680Y-35838373D01*
X172680357Y-35871858D01*
X172610665Y-35866874D01*
X172554732Y-35825002D01*
X172530315Y-35759538D01*
X172529999Y-35750692D01*
X172529999Y-35420214D01*
X172529997Y-35420191D01*
X172527091Y-35395130D01*
X172527090Y-35395126D01*
X172481788Y-35292525D01*
X172481785Y-35292520D01*
X172402479Y-35213214D01*
X172402474Y-35213211D01*
X172299876Y-35167910D01*
X172274794Y-35165000D01*
X171830000Y-35165000D01*
X171830000Y-35791000D01*
X171810315Y-35858039D01*
X171757511Y-35903794D01*
X171706000Y-35915000D01*
X171480000Y-35915000D01*
X171480000Y-36110500D01*
X171460315Y-36177539D01*
X171407511Y-36223294D01*
X171356000Y-36234500D01*
X170682129Y-36234500D01*
X170682123Y-36234501D01*
X170622518Y-36240908D01*
X170597164Y-36250365D01*
X170578885Y-36257182D01*
X170535554Y-36265000D01*
X170430001Y-36265000D01*
X170430001Y-36272307D01*
X170410315Y-36339346D01*
X170380314Y-36371570D01*
X170372453Y-36377454D01*
X170372452Y-36377455D01*
X170286206Y-36492664D01*
X170286202Y-36492671D01*
X170235908Y-36627517D01*
X170231252Y-36670830D01*
X170229501Y-36687123D01*
X170229500Y-36687135D01*
X170229500Y-37682870D01*
X170229501Y-37682876D01*
X170235908Y-37742481D01*
X170248659Y-37776669D01*
X170253642Y-37846361D01*
X170248659Y-37863331D01*
X170235908Y-37897518D01*
X170230827Y-37944785D01*
X170229501Y-37957123D01*
X170229500Y-37957135D01*
X170229500Y-38952870D01*
X170229501Y-38952876D01*
X170235908Y-39012481D01*
X170248659Y-39046669D01*
X170253642Y-39116361D01*
X170248659Y-39133331D01*
X170235908Y-39167518D01*
X170233290Y-39191873D01*
X170229501Y-39227123D01*
X170229500Y-39227135D01*
X170229500Y-40222870D01*
X170229501Y-40222876D01*
X170235908Y-40282481D01*
X170248659Y-40316669D01*
X170253642Y-40386361D01*
X170248659Y-40403331D01*
X170235908Y-40437518D01*
X170229501Y-40497116D01*
X170229501Y-40497123D01*
X170229500Y-40497135D01*
X170229500Y-41492870D01*
X170229501Y-41492876D01*
X170235908Y-41552481D01*
X170248659Y-41586669D01*
X170253642Y-41656361D01*
X170248659Y-41673331D01*
X170235908Y-41707518D01*
X170229501Y-41767116D01*
X170229500Y-41767135D01*
X170229500Y-42762870D01*
X170229501Y-42762876D01*
X170235908Y-42822481D01*
X170248659Y-42856669D01*
X170253642Y-42926361D01*
X170248659Y-42943331D01*
X170235908Y-42977518D01*
X170231669Y-43016953D01*
X170229500Y-43037127D01*
X170229500Y-43534814D01*
X170229501Y-44030500D01*
X170209817Y-44097539D01*
X170157013Y-44143294D01*
X170105501Y-44154500D01*
X167504935Y-44154500D01*
X167437896Y-44134815D01*
X167436090Y-44133633D01*
X167379179Y-44095606D01*
X167379172Y-44095602D01*
X167233501Y-44035264D01*
X167233489Y-44035261D01*
X167078845Y-44004500D01*
X167078842Y-44004500D01*
X166921158Y-44004500D01*
X166921155Y-44004500D01*
X166766510Y-44035261D01*
X166766498Y-44035264D01*
X166620827Y-44095602D01*
X166620814Y-44095609D01*
X166489711Y-44183210D01*
X166489707Y-44183213D01*
X166378213Y-44294707D01*
X166378210Y-44294711D01*
X166327602Y-44370451D01*
X166273989Y-44415256D01*
X166204664Y-44423963D01*
X166141637Y-44393808D01*
X166104918Y-44334365D01*
X166100500Y-44301560D01*
X166100500Y-41503944D01*
X166100500Y-41503943D01*
X166088043Y-41457454D01*
X166059577Y-41351215D01*
X166011911Y-41268656D01*
X166004546Y-41255900D01*
X165980521Y-41214286D01*
X165980520Y-41214284D01*
X165868716Y-41102480D01*
X165868715Y-41102479D01*
X165864385Y-41098149D01*
X165864374Y-41098139D01*
X164404590Y-39638355D01*
X164404588Y-39638352D01*
X164285717Y-39519481D01*
X164285716Y-39519480D01*
X164191675Y-39465186D01*
X164191674Y-39465185D01*
X164160276Y-39447058D01*
X164148785Y-39440423D01*
X164148784Y-39440422D01*
X164148783Y-39440422D01*
X164092881Y-39425443D01*
X163996057Y-39399499D01*
X163837943Y-39399499D01*
X163830347Y-39399499D01*
X163830331Y-39399500D01*
X163079766Y-39399500D01*
X163012727Y-39379815D01*
X163010875Y-39378602D01*
X162879185Y-39290609D01*
X162879172Y-39290602D01*
X162733501Y-39230264D01*
X162733489Y-39230261D01*
X162578845Y-39199500D01*
X162578842Y-39199500D01*
X162421158Y-39199500D01*
X162421155Y-39199500D01*
X162266510Y-39230261D01*
X162266498Y-39230264D01*
X162120827Y-39290602D01*
X162120814Y-39290609D01*
X161989711Y-39378210D01*
X161989707Y-39378213D01*
X161878213Y-39489707D01*
X161878210Y-39489711D01*
X161790609Y-39620814D01*
X161790602Y-39620827D01*
X161730264Y-39766498D01*
X161730261Y-39766510D01*
X161699500Y-39921153D01*
X161699500Y-40078846D01*
X161730261Y-40233489D01*
X161730264Y-40233501D01*
X161790602Y-40379172D01*
X161790609Y-40379185D01*
X161878210Y-40510288D01*
X161878213Y-40510292D01*
X161989707Y-40621786D01*
X161989711Y-40621789D01*
X162120814Y-40709390D01*
X162120827Y-40709397D01*
X162266498Y-40769735D01*
X162266503Y-40769737D01*
X162387088Y-40793723D01*
X162421153Y-40800499D01*
X162421156Y-40800500D01*
X162421158Y-40800500D01*
X162578844Y-40800500D01*
X162578845Y-40800499D01*
X162733497Y-40769737D01*
X162879179Y-40709394D01*
X162941405Y-40667816D01*
X163010875Y-40621398D01*
X163077553Y-40600520D01*
X163079766Y-40600500D01*
X163616903Y-40600500D01*
X163683942Y-40620185D01*
X163704584Y-40636819D01*
X164863181Y-41795416D01*
X164896666Y-41856739D01*
X164899500Y-41883097D01*
X164899500Y-47413330D01*
X164899499Y-47413348D01*
X164899499Y-47579054D01*
X164899498Y-47579054D01*
X164940423Y-47731785D01*
X164969358Y-47781900D01*
X164969359Y-47781904D01*
X164969360Y-47781904D01*
X165019479Y-47868714D01*
X165019481Y-47868717D01*
X165138349Y-47987585D01*
X165138355Y-47987590D01*
X165415425Y-48264660D01*
X165448910Y-48325983D01*
X165449361Y-48328149D01*
X165480261Y-48483491D01*
X165480264Y-48483501D01*
X165540602Y-48629172D01*
X165540609Y-48629185D01*
X165628210Y-48760288D01*
X165628213Y-48760292D01*
X165739707Y-48871786D01*
X165739711Y-48871789D01*
X165870814Y-48959390D01*
X165870827Y-48959397D01*
X165959048Y-48995939D01*
X166013452Y-49039780D01*
X166035517Y-49106074D01*
X166018238Y-49173773D01*
X165967101Y-49221384D01*
X165911596Y-49234500D01*
X164420632Y-49234500D01*
X164353593Y-49214815D01*
X164307838Y-49162011D01*
X164297894Y-49092853D01*
X164299011Y-49086323D01*
X164300500Y-49078842D01*
X164300500Y-48921158D01*
X164300500Y-48921155D01*
X164300499Y-48921153D01*
X164283117Y-48833769D01*
X164269737Y-48766503D01*
X164267163Y-48760288D01*
X164209397Y-48620827D01*
X164209390Y-48620814D01*
X164121789Y-48489711D01*
X164121786Y-48489707D01*
X164010292Y-48378213D01*
X164010288Y-48378210D01*
X163879185Y-48290609D01*
X163879172Y-48290602D01*
X163733501Y-48230264D01*
X163733489Y-48230261D01*
X163666420Y-48216920D01*
X163604509Y-48184535D01*
X163602930Y-48182984D01*
X162664674Y-47244727D01*
X162664673Y-47244726D01*
X162664669Y-47244723D01*
X162558127Y-47173535D01*
X162501289Y-47149992D01*
X162439744Y-47124499D01*
X162439738Y-47124497D01*
X162314071Y-47099500D01*
X162314069Y-47099500D01*
X159070808Y-47099500D01*
X159003769Y-47079815D01*
X158983127Y-47063181D01*
X158186819Y-46266873D01*
X158153334Y-46205550D01*
X158150500Y-46179192D01*
X158150500Y-45374785D01*
X159080001Y-45374785D01*
X159080002Y-45374808D01*
X159082908Y-45399869D01*
X159082909Y-45399873D01*
X159128211Y-45502474D01*
X159128214Y-45502479D01*
X159207520Y-45581785D01*
X159207525Y-45581788D01*
X159310123Y-45627089D01*
X159335206Y-45629999D01*
X159479999Y-45629999D01*
X160180000Y-45629999D01*
X160324786Y-45629999D01*
X160324808Y-45629997D01*
X160349869Y-45627091D01*
X160349873Y-45627090D01*
X160452475Y-45581788D01*
X160459919Y-45576689D01*
X160526349Y-45555040D01*
X160593939Y-45572742D01*
X160600081Y-45576689D01*
X160607524Y-45581788D01*
X160710123Y-45627089D01*
X160735206Y-45629999D01*
X160879999Y-45629999D01*
X161580000Y-45629999D01*
X161724786Y-45629999D01*
X161724808Y-45629997D01*
X161749869Y-45627091D01*
X161749873Y-45627090D01*
X161852475Y-45581788D01*
X161859919Y-45576689D01*
X161926349Y-45555040D01*
X161993939Y-45572742D01*
X162000081Y-45576689D01*
X162007524Y-45581788D01*
X162110123Y-45627089D01*
X162135206Y-45629999D01*
X162279999Y-45629999D01*
X162980000Y-45629999D01*
X163124786Y-45629999D01*
X163124808Y-45629997D01*
X163149869Y-45627091D01*
X163149873Y-45627090D01*
X163252474Y-45581788D01*
X163252479Y-45581785D01*
X163331785Y-45502479D01*
X163331788Y-45502474D01*
X163377089Y-45399877D01*
X163377089Y-45399875D01*
X163379999Y-45374794D01*
X163380000Y-45374791D01*
X163380000Y-45230000D01*
X162980000Y-45230000D01*
X162980000Y-45629999D01*
X162279999Y-45629999D01*
X162280000Y-45629998D01*
X162280000Y-45230000D01*
X161580000Y-45230000D01*
X161580000Y-45629999D01*
X160879999Y-45629999D01*
X160880000Y-45629998D01*
X160880000Y-45230000D01*
X160180000Y-45230000D01*
X160180000Y-45629999D01*
X159479999Y-45629999D01*
X159480000Y-45629998D01*
X159480000Y-45230000D01*
X159080001Y-45230000D01*
X159080001Y-45374785D01*
X158150500Y-45374785D01*
X158150500Y-44403943D01*
X159080000Y-44403943D01*
X159080000Y-44530000D01*
X159480000Y-44530000D01*
X160180000Y-44530000D01*
X160880000Y-44530000D01*
X161580000Y-44530000D01*
X162280000Y-44530000D01*
X162980000Y-44530000D01*
X163379999Y-44530000D01*
X163379999Y-44385214D01*
X163379997Y-44385191D01*
X163377091Y-44360130D01*
X163377090Y-44360126D01*
X163331788Y-44257524D01*
X163326689Y-44250081D01*
X163305040Y-44183651D01*
X163322742Y-44116061D01*
X163326689Y-44109919D01*
X163331788Y-44102475D01*
X163377089Y-43999877D01*
X163377089Y-43999875D01*
X163379999Y-43974794D01*
X163380000Y-43974791D01*
X163380000Y-43830000D01*
X162980000Y-43830000D01*
X162980000Y-44530000D01*
X162280000Y-44530000D01*
X162280000Y-43830000D01*
X161580000Y-43830000D01*
X161580000Y-44530000D01*
X160880000Y-44530000D01*
X160880000Y-43830000D01*
X160180000Y-43830000D01*
X160180000Y-44530000D01*
X159480000Y-44530000D01*
X159480000Y-43830000D01*
X159080001Y-43830000D01*
X159080001Y-43974785D01*
X159080002Y-43974808D01*
X159082908Y-43999869D01*
X159082909Y-43999873D01*
X159128213Y-44102480D01*
X159133312Y-44109923D01*
X159135285Y-44115980D01*
X159139796Y-44120483D01*
X159145980Y-44148800D01*
X159154959Y-44176354D01*
X159153344Y-44182518D01*
X159154704Y-44188744D01*
X159147230Y-44223238D01*
X159080000Y-44403943D01*
X158150500Y-44403943D01*
X158150500Y-43235668D01*
X158125502Y-43110001D01*
X158125501Y-43110000D01*
X158125501Y-43109996D01*
X158096301Y-43039500D01*
X158091984Y-43029077D01*
X158081573Y-43003943D01*
X159080000Y-43003943D01*
X159080000Y-43130000D01*
X159480000Y-43130000D01*
X160180000Y-43130000D01*
X160880000Y-43130000D01*
X161580000Y-43130000D01*
X162280000Y-43130000D01*
X162980000Y-43130000D01*
X163379999Y-43130000D01*
X163379999Y-42985214D01*
X163379997Y-42985191D01*
X163377091Y-42960130D01*
X163377090Y-42960126D01*
X163331788Y-42857524D01*
X163326689Y-42850081D01*
X163305040Y-42783651D01*
X163322742Y-42716061D01*
X163326689Y-42709919D01*
X163331788Y-42702475D01*
X163377089Y-42599877D01*
X163377089Y-42599875D01*
X163379999Y-42574794D01*
X163380000Y-42574791D01*
X163380000Y-42430000D01*
X162980000Y-42430000D01*
X162980000Y-43130000D01*
X162280000Y-43130000D01*
X162280000Y-42430000D01*
X161580000Y-42430000D01*
X161580000Y-43130000D01*
X160880000Y-43130000D01*
X160880000Y-42430000D01*
X160180000Y-42430000D01*
X160180000Y-43130000D01*
X159480000Y-43130000D01*
X159480000Y-42430000D01*
X159080001Y-42430000D01*
X159080001Y-42574785D01*
X159080002Y-42574808D01*
X159082908Y-42599869D01*
X159082909Y-42599873D01*
X159128213Y-42702480D01*
X159133312Y-42709923D01*
X159135285Y-42715980D01*
X159139796Y-42720483D01*
X159145980Y-42748800D01*
X159154959Y-42776354D01*
X159153344Y-42782518D01*
X159154704Y-42788744D01*
X159147230Y-42823238D01*
X159080000Y-43003943D01*
X158081573Y-43003943D01*
X158076466Y-42991614D01*
X158041369Y-42939088D01*
X158024079Y-42913211D01*
X158005276Y-42885070D01*
X158005273Y-42885067D01*
X158005271Y-42885064D01*
X156879933Y-41759726D01*
X156876672Y-41757547D01*
X156773387Y-41688535D01*
X156736681Y-41673331D01*
X156655004Y-41639499D01*
X156654998Y-41639497D01*
X156529331Y-41614500D01*
X156529329Y-41614500D01*
X155354500Y-41614500D01*
X155287461Y-41594815D01*
X155279134Y-41585205D01*
X159080000Y-41585205D01*
X159080000Y-41730000D01*
X159480000Y-41730000D01*
X160180000Y-41730000D01*
X160880000Y-41730000D01*
X161580000Y-41730000D01*
X162280000Y-41730000D01*
X162980000Y-41730000D01*
X163379999Y-41730000D01*
X163379999Y-41585214D01*
X163379997Y-41585191D01*
X163377091Y-41560130D01*
X163377090Y-41560126D01*
X163331788Y-41457525D01*
X163331785Y-41457520D01*
X163252479Y-41378214D01*
X163252474Y-41378211D01*
X163149876Y-41332910D01*
X163124794Y-41330000D01*
X162980000Y-41330000D01*
X162980000Y-41730000D01*
X162280000Y-41730000D01*
X162280000Y-41330000D01*
X162135214Y-41330000D01*
X162135191Y-41330002D01*
X162110130Y-41332908D01*
X162110126Y-41332909D01*
X162007519Y-41378213D01*
X162000077Y-41383312D01*
X161933646Y-41404959D01*
X161866056Y-41387254D01*
X161859923Y-41383312D01*
X161852480Y-41378213D01*
X161749876Y-41332910D01*
X161724794Y-41330000D01*
X161580000Y-41330000D01*
X161580000Y-41730000D01*
X160880000Y-41730000D01*
X160880000Y-41330000D01*
X160735214Y-41330000D01*
X160735191Y-41330002D01*
X160710130Y-41332908D01*
X160710126Y-41332909D01*
X160607519Y-41378213D01*
X160600077Y-41383312D01*
X160533646Y-41404959D01*
X160466056Y-41387254D01*
X160459923Y-41383312D01*
X160452480Y-41378213D01*
X160349876Y-41332910D01*
X160324794Y-41330000D01*
X160180000Y-41330000D01*
X160180000Y-41730000D01*
X159480000Y-41730000D01*
X159480000Y-41330000D01*
X159335214Y-41330000D01*
X159335191Y-41330002D01*
X159310130Y-41332908D01*
X159310126Y-41332909D01*
X159207525Y-41378211D01*
X159207520Y-41378214D01*
X159128214Y-41457520D01*
X159128211Y-41457525D01*
X159082910Y-41560122D01*
X159082910Y-41560124D01*
X159080000Y-41585205D01*
X155279134Y-41585205D01*
X155241706Y-41542011D01*
X155230500Y-41490500D01*
X155230499Y-40497129D01*
X155230498Y-40497123D01*
X155230497Y-40497116D01*
X155224091Y-40437517D01*
X155211340Y-40403332D01*
X155206357Y-40333642D01*
X155211340Y-40316669D01*
X155224091Y-40282483D01*
X155230500Y-40222873D01*
X155230499Y-39227128D01*
X155224091Y-39167517D01*
X155211340Y-39133332D01*
X155206357Y-39063642D01*
X155211340Y-39046669D01*
X155224091Y-39012483D01*
X155230500Y-38952873D01*
X155230499Y-37957128D01*
X155224091Y-37897517D01*
X155211340Y-37863332D01*
X155206357Y-37793642D01*
X155211340Y-37776669D01*
X155224091Y-37742483D01*
X155230500Y-37682873D01*
X155230499Y-36687128D01*
X155224091Y-36627517D01*
X155214870Y-36602795D01*
X155173797Y-36492671D01*
X155173793Y-36492664D01*
X155087548Y-36377457D01*
X155087546Y-36377454D01*
X155087544Y-36377452D01*
X155087542Y-36377450D01*
X155079688Y-36371571D01*
X155037818Y-36315637D01*
X155030000Y-36272303D01*
X155030000Y-36265000D01*
X154924446Y-36265000D01*
X154881112Y-36257181D01*
X154837491Y-36240911D01*
X154837480Y-36240908D01*
X154777883Y-36234501D01*
X154777881Y-36234500D01*
X154777873Y-36234500D01*
X154777865Y-36234500D01*
X153182129Y-36234500D01*
X153182123Y-36234501D01*
X153122518Y-36240908D01*
X153097164Y-36250365D01*
X153078885Y-36257182D01*
X153035554Y-36265000D01*
X152930001Y-36265000D01*
X152930001Y-36272307D01*
X152910315Y-36339346D01*
X152880314Y-36371570D01*
X152872453Y-36377454D01*
X152872452Y-36377455D01*
X152786206Y-36492664D01*
X152786202Y-36492671D01*
X152735908Y-36627517D01*
X152731252Y-36670830D01*
X152729501Y-36687123D01*
X152729500Y-36687135D01*
X152729500Y-37682870D01*
X152729501Y-37682876D01*
X152735908Y-37742481D01*
X152748659Y-37776669D01*
X152753642Y-37846361D01*
X152748659Y-37863331D01*
X152735908Y-37897518D01*
X152730827Y-37944785D01*
X152729501Y-37957123D01*
X152729500Y-37957135D01*
X152729500Y-38952870D01*
X152729501Y-38952876D01*
X152735908Y-39012481D01*
X152748659Y-39046669D01*
X152753642Y-39116361D01*
X152748659Y-39133331D01*
X152735908Y-39167518D01*
X152733290Y-39191873D01*
X152729501Y-39227123D01*
X152729500Y-39227135D01*
X152729500Y-40222870D01*
X152729501Y-40222876D01*
X152735908Y-40282481D01*
X152748659Y-40316669D01*
X152753642Y-40386361D01*
X152748659Y-40403331D01*
X152735908Y-40437518D01*
X152729501Y-40497116D01*
X152729501Y-40497123D01*
X152729500Y-40497135D01*
X152729500Y-41492870D01*
X152729501Y-41492876D01*
X152735908Y-41552481D01*
X152748659Y-41586669D01*
X152753642Y-41656361D01*
X152748659Y-41673331D01*
X152735908Y-41707518D01*
X152729501Y-41767116D01*
X152729500Y-41767135D01*
X152729500Y-42762870D01*
X152729501Y-42762876D01*
X152735908Y-42822481D01*
X152748659Y-42856669D01*
X152753642Y-42926361D01*
X152748659Y-42943331D01*
X152735908Y-42977518D01*
X152731669Y-43016953D01*
X152729500Y-43037127D01*
X152729500Y-43534814D01*
X152729501Y-44030500D01*
X152709817Y-44097539D01*
X152657013Y-44143294D01*
X152605501Y-44154500D01*
X141630929Y-44154500D01*
X141505261Y-44179497D01*
X141505255Y-44179499D01*
X141386870Y-44228535D01*
X141280331Y-44299722D01*
X141280324Y-44299728D01*
X137713726Y-47866326D01*
X137660826Y-47945499D01*
X137660824Y-47945501D01*
X137642539Y-47972864D01*
X137642533Y-47972875D01*
X137593499Y-48091255D01*
X137593497Y-48091261D01*
X137568500Y-48216928D01*
X137568500Y-58633316D01*
X137548815Y-58700355D01*
X137496011Y-58746110D01*
X137426853Y-58756054D01*
X137403172Y-58749560D01*
X137403046Y-58749949D01*
X137398413Y-58748443D01*
X137398412Y-58748443D01*
X137196243Y-58682754D01*
X137196241Y-58682753D01*
X137196240Y-58682753D01*
X136993882Y-58650703D01*
X136986287Y-58649500D01*
X136773713Y-58649500D01*
X136766118Y-58650703D01*
X136563760Y-58682753D01*
X136361585Y-58748444D01*
X136172179Y-58844951D01*
X136000213Y-58969890D01*
X135849892Y-59120211D01*
X135793097Y-59198385D01*
X135737767Y-59241051D01*
X135692779Y-59249500D01*
X135426080Y-59249500D01*
X135281092Y-59278340D01*
X135281082Y-59278343D01*
X135144509Y-59334913D01*
X135144507Y-59334914D01*
X135103645Y-59362218D01*
X135103643Y-59362219D01*
X135021589Y-59417043D01*
X135021584Y-59417047D01*
X134417048Y-60021583D01*
X134405821Y-60038387D01*
X134378647Y-60079057D01*
X134334919Y-60144499D01*
X134334912Y-60144511D01*
X134278343Y-60281082D01*
X134278340Y-60281092D01*
X134249500Y-60426079D01*
X134249500Y-60426082D01*
X134249500Y-64073918D01*
X134249500Y-64073920D01*
X134249499Y-64073920D01*
X134278340Y-64218907D01*
X134278342Y-64218913D01*
X134334915Y-64355493D01*
X134336668Y-64358116D01*
X134336672Y-64358128D01*
X134336675Y-64358127D01*
X134398395Y-64450500D01*
X134417051Y-64478420D01*
X134417052Y-64478421D01*
X135021584Y-65082952D01*
X135021586Y-65082954D01*
X135053559Y-65104316D01*
X135069547Y-65114999D01*
X135144505Y-65165084D01*
X135144506Y-65165084D01*
X135144507Y-65165085D01*
X135281082Y-65221656D01*
X135281087Y-65221658D01*
X135281091Y-65221658D01*
X135281092Y-65221659D01*
X135426079Y-65250500D01*
X135426082Y-65250500D01*
X135426083Y-65250500D01*
X135573918Y-65250500D01*
X136100903Y-65250500D01*
X136167942Y-65270185D01*
X136213697Y-65322989D01*
X136223641Y-65392147D01*
X136194616Y-65455703D01*
X136188585Y-65462179D01*
X135373022Y-66277742D01*
X134631286Y-67019478D01*
X134519481Y-67131282D01*
X134519475Y-67131290D01*
X134476396Y-67205907D01*
X134476396Y-67205908D01*
X134440423Y-67268214D01*
X134440423Y-67268215D01*
X134399499Y-67420943D01*
X134399499Y-67420945D01*
X134399499Y-67589046D01*
X134399500Y-67589059D01*
X134399500Y-70913330D01*
X134399499Y-70913348D01*
X134399499Y-71079054D01*
X134399498Y-71079054D01*
X134440424Y-71231789D01*
X134440425Y-71231790D01*
X134461455Y-71268214D01*
X134461456Y-71268216D01*
X134519475Y-71368709D01*
X134519481Y-71368717D01*
X134638349Y-71487585D01*
X134638355Y-71487590D01*
X135311784Y-72161019D01*
X135345269Y-72222342D01*
X135346576Y-72268097D01*
X135324500Y-72407485D01*
X135324500Y-72592513D01*
X135353445Y-72775265D01*
X135410619Y-72951232D01*
X135410620Y-72951235D01*
X135487977Y-73103054D01*
X135494622Y-73116096D01*
X135603379Y-73265787D01*
X135734213Y-73396621D01*
X135883904Y-73505378D01*
X135964763Y-73546577D01*
X136048764Y-73589379D01*
X136048767Y-73589380D01*
X136136750Y-73617967D01*
X136224736Y-73646555D01*
X136407486Y-73675500D01*
X136407487Y-73675500D01*
X136592513Y-73675500D01*
X136592514Y-73675500D01*
X136775264Y-73646555D01*
X136951235Y-73589379D01*
X137116096Y-73505378D01*
X137265787Y-73396621D01*
X137396621Y-73265787D01*
X137505378Y-73116096D01*
X137589379Y-72951235D01*
X137646555Y-72775264D01*
X137675500Y-72592514D01*
X137675500Y-72407486D01*
X137646555Y-72224736D01*
X137611117Y-72115669D01*
X137589380Y-72048767D01*
X137589379Y-72048764D01*
X137505377Y-71883903D01*
X137494340Y-71868712D01*
X137396621Y-71734213D01*
X137265787Y-71603379D01*
X137116096Y-71494622D01*
X137102285Y-71487585D01*
X136951235Y-71410620D01*
X136951229Y-71410618D01*
X136926833Y-71402692D01*
X136877469Y-71372442D01*
X136389539Y-70884512D01*
X136447339Y-70900000D01*
X136552661Y-70900000D01*
X136654394Y-70872741D01*
X136745606Y-70820080D01*
X136820080Y-70745606D01*
X136872741Y-70654394D01*
X136900000Y-70552661D01*
X136900000Y-70499999D01*
X136994974Y-70499999D01*
X136994974Y-70500001D01*
X137391206Y-70896233D01*
X137437532Y-70784393D01*
X137437533Y-70784389D01*
X137474999Y-70596033D01*
X137475000Y-70596030D01*
X137475000Y-70403970D01*
X137474999Y-70403966D01*
X137437533Y-70215610D01*
X137437531Y-70215602D01*
X137391206Y-70103765D01*
X136994974Y-70499999D01*
X136900000Y-70499999D01*
X136900000Y-70447339D01*
X136872741Y-70345606D01*
X136820080Y-70254394D01*
X136745606Y-70179920D01*
X136654394Y-70127259D01*
X136552661Y-70100000D01*
X136447339Y-70100000D01*
X136389535Y-70115488D01*
X136793207Y-69711818D01*
X136854530Y-69678333D01*
X136880885Y-69675499D01*
X137222872Y-69675499D01*
X137282483Y-69669091D01*
X137417331Y-69618796D01*
X137532546Y-69532546D01*
X137618796Y-69417331D01*
X137656684Y-69315747D01*
X137659318Y-69308686D01*
X137701189Y-69252752D01*
X137766653Y-69228335D01*
X137834926Y-69243186D01*
X137884332Y-69292591D01*
X137899500Y-69352019D01*
X137899500Y-70413330D01*
X137899499Y-70413348D01*
X137899499Y-70579054D01*
X137899498Y-70579054D01*
X137940424Y-70731789D01*
X137940425Y-70731790D01*
X137961455Y-70768214D01*
X137961456Y-70768216D01*
X138019475Y-70868709D01*
X138019481Y-70868717D01*
X138138349Y-70987585D01*
X138138354Y-70987589D01*
X139131284Y-71980520D01*
X139131286Y-71980521D01*
X139131290Y-71980524D01*
X139238090Y-72042184D01*
X139268216Y-72059577D01*
X139269766Y-72059992D01*
X139270925Y-72060698D01*
X139275723Y-72062686D01*
X139275413Y-72063434D01*
X139329426Y-72096355D01*
X139359957Y-72159201D01*
X139355607Y-72218078D01*
X139353445Y-72224730D01*
X139353445Y-72224732D01*
X139324500Y-72407486D01*
X139324500Y-72592513D01*
X139353445Y-72775265D01*
X139410619Y-72951232D01*
X139410620Y-72951235D01*
X139487977Y-73103054D01*
X139494622Y-73116096D01*
X139603379Y-73265787D01*
X139734213Y-73396621D01*
X139883904Y-73505378D01*
X139964763Y-73546577D01*
X140048764Y-73589379D01*
X140048767Y-73589380D01*
X140136750Y-73617967D01*
X140224736Y-73646555D01*
X140407486Y-73675500D01*
X140407487Y-73675500D01*
X140592513Y-73675500D01*
X140592514Y-73675500D01*
X140775264Y-73646555D01*
X140951235Y-73589379D01*
X141116096Y-73505378D01*
X141265787Y-73396621D01*
X141396621Y-73265787D01*
X141505378Y-73116096D01*
X141589379Y-72951235D01*
X141646555Y-72775264D01*
X141675500Y-72592514D01*
X141675500Y-72407486D01*
X141649590Y-72243898D01*
X141658545Y-72174604D01*
X141703541Y-72121153D01*
X141770292Y-72100513D01*
X141772063Y-72100500D01*
X143199902Y-72100500D01*
X143229344Y-72109145D01*
X143259331Y-72115669D01*
X143264345Y-72119422D01*
X143266941Y-72120185D01*
X143287585Y-72136821D01*
X143311786Y-72161023D01*
X143345270Y-72222346D01*
X143346576Y-72268099D01*
X143324500Y-72407485D01*
X143324500Y-72592513D01*
X143353445Y-72775265D01*
X143410619Y-72951232D01*
X143410620Y-72951235D01*
X143487977Y-73103054D01*
X143494622Y-73116096D01*
X143603379Y-73265787D01*
X143734213Y-73396621D01*
X143883904Y-73505378D01*
X143964763Y-73546577D01*
X144048764Y-73589379D01*
X144048767Y-73589380D01*
X144136750Y-73617967D01*
X144224736Y-73646555D01*
X144407486Y-73675500D01*
X144407487Y-73675500D01*
X144592513Y-73675500D01*
X144592514Y-73675500D01*
X144775264Y-73646555D01*
X144951235Y-73589379D01*
X145116096Y-73505378D01*
X145265787Y-73396621D01*
X145396621Y-73265787D01*
X145505378Y-73116096D01*
X145589379Y-72951235D01*
X145646555Y-72775264D01*
X145675500Y-72592514D01*
X145675500Y-72407486D01*
X145646555Y-72224736D01*
X145611117Y-72115669D01*
X145589380Y-72048767D01*
X145589379Y-72048764D01*
X145505377Y-71883903D01*
X145494340Y-71868712D01*
X145396621Y-71734213D01*
X145265787Y-71603379D01*
X145116096Y-71494622D01*
X145102285Y-71487585D01*
X144951235Y-71410620D01*
X144951229Y-71410618D01*
X144926833Y-71402692D01*
X144877469Y-71372442D01*
X144389538Y-70884512D01*
X144447339Y-70900000D01*
X144552661Y-70900000D01*
X144654394Y-70872741D01*
X144745606Y-70820080D01*
X144820080Y-70745606D01*
X144872741Y-70654394D01*
X144900000Y-70552661D01*
X144900000Y-70499999D01*
X144994974Y-70499999D01*
X144994974Y-70500001D01*
X145391206Y-70896233D01*
X145437532Y-70784393D01*
X145437533Y-70784389D01*
X145474999Y-70596033D01*
X145475000Y-70596030D01*
X145475000Y-70403970D01*
X145474999Y-70403966D01*
X145437533Y-70215610D01*
X145437531Y-70215602D01*
X145391206Y-70103765D01*
X144994974Y-70499999D01*
X144900000Y-70499999D01*
X144900000Y-70447339D01*
X144872741Y-70345606D01*
X144820080Y-70254394D01*
X144745606Y-70179920D01*
X144654394Y-70127259D01*
X144552661Y-70100000D01*
X144447339Y-70100000D01*
X144345606Y-70127259D01*
X144254394Y-70179920D01*
X144179920Y-70254394D01*
X144127259Y-70345606D01*
X144100000Y-70447339D01*
X144100000Y-70552661D01*
X144115487Y-70610461D01*
X144041345Y-70536319D01*
X143608792Y-70103765D01*
X143562469Y-70215599D01*
X143562466Y-70215611D01*
X143525000Y-70403966D01*
X143525000Y-70596033D01*
X143555886Y-70751308D01*
X143554008Y-70772287D01*
X143557008Y-70793140D01*
X143550957Y-70806390D01*
X143549659Y-70820900D01*
X143536735Y-70837536D01*
X143527986Y-70856697D01*
X143515733Y-70864572D01*
X143506796Y-70876077D01*
X143486929Y-70883085D01*
X143469210Y-70894474D01*
X143444622Y-70898010D01*
X143440906Y-70899321D01*
X143434275Y-70899499D01*
X143420943Y-70899499D01*
X143420940Y-70899499D01*
X143413337Y-70899500D01*
X143413335Y-70899499D01*
X143413331Y-70899500D01*
X141565731Y-70899500D01*
X141498692Y-70879815D01*
X141452937Y-70827011D01*
X141442993Y-70757853D01*
X141444114Y-70751309D01*
X141474999Y-70596033D01*
X141475000Y-70596030D01*
X141475000Y-70403970D01*
X141474999Y-70403966D01*
X141437533Y-70215610D01*
X141437531Y-70215602D01*
X141391206Y-70103765D01*
X140884513Y-70610458D01*
X140900000Y-70552661D01*
X140900000Y-70447339D01*
X140872741Y-70345606D01*
X140820080Y-70254394D01*
X140745606Y-70179920D01*
X140654394Y-70127259D01*
X140552661Y-70100000D01*
X140447339Y-70100000D01*
X140345606Y-70127259D01*
X140254394Y-70179920D01*
X140179920Y-70254394D01*
X140127259Y-70345606D01*
X140100000Y-70447339D01*
X140100000Y-70552661D01*
X140115487Y-70610460D01*
X139608792Y-70103765D01*
X139562469Y-70215599D01*
X139562466Y-70215611D01*
X139525164Y-70403140D01*
X139492779Y-70465051D01*
X139432063Y-70499625D01*
X139362294Y-70495886D01*
X139315866Y-70466630D01*
X139136819Y-70287583D01*
X139103334Y-70226260D01*
X139100500Y-70199902D01*
X139100500Y-69352019D01*
X139120185Y-69284980D01*
X139172989Y-69239225D01*
X139242147Y-69229281D01*
X139305703Y-69258306D01*
X139340682Y-69308686D01*
X139381202Y-69417328D01*
X139381206Y-69417335D01*
X139467452Y-69532544D01*
X139467455Y-69532547D01*
X139582664Y-69618793D01*
X139582671Y-69618797D01*
X139615135Y-69630905D01*
X139717517Y-69669091D01*
X139777127Y-69675500D01*
X140119113Y-69675499D01*
X140186150Y-69695183D01*
X140206792Y-69711818D01*
X140499999Y-70005025D01*
X140793206Y-69711818D01*
X140854530Y-69678333D01*
X140880885Y-69675499D01*
X141222872Y-69675499D01*
X141282483Y-69669091D01*
X141417331Y-69618796D01*
X141532546Y-69532546D01*
X141618796Y-69417331D01*
X141669091Y-69282483D01*
X141675500Y-69222873D01*
X141675499Y-68295807D01*
X141695183Y-68228769D01*
X141711818Y-68208127D01*
X142233127Y-67686819D01*
X142294450Y-67653334D01*
X142320808Y-67650500D01*
X143200500Y-67650500D01*
X143267539Y-67670185D01*
X143313294Y-67722989D01*
X143324500Y-67774500D01*
X143324500Y-69222870D01*
X143324501Y-69222876D01*
X143330908Y-69282483D01*
X143381202Y-69417328D01*
X143381206Y-69417335D01*
X143467452Y-69532544D01*
X143467455Y-69532547D01*
X143582664Y-69618793D01*
X143582671Y-69618797D01*
X143615135Y-69630905D01*
X143717517Y-69669091D01*
X143777127Y-69675500D01*
X144119113Y-69675499D01*
X144186150Y-69695183D01*
X144206792Y-69711818D01*
X144499999Y-70005025D01*
X144793206Y-69711818D01*
X144854530Y-69678333D01*
X144880885Y-69675499D01*
X145222872Y-69675499D01*
X145282483Y-69669091D01*
X145417331Y-69618796D01*
X145532546Y-69532546D01*
X145618796Y-69417331D01*
X145656684Y-69315747D01*
X145659318Y-69308686D01*
X145701189Y-69252752D01*
X145766653Y-69228335D01*
X145834926Y-69243186D01*
X145884332Y-69292591D01*
X145899500Y-69352019D01*
X145899500Y-71413330D01*
X145899499Y-71413348D01*
X145899499Y-71579054D01*
X145899498Y-71579054D01*
X145937236Y-71719890D01*
X145940423Y-71731785D01*
X145941819Y-71734203D01*
X145941822Y-71734214D01*
X145941825Y-71734213D01*
X146019477Y-71868712D01*
X146019481Y-71868717D01*
X146138349Y-71987585D01*
X146138354Y-71987589D01*
X147131284Y-72980520D01*
X147131286Y-72980521D01*
X147131290Y-72980524D01*
X147268209Y-73059573D01*
X147268216Y-73059577D01*
X147420943Y-73100501D01*
X147420945Y-73100501D01*
X147429002Y-73101562D01*
X147428805Y-73103054D01*
X147487149Y-73120186D01*
X147520428Y-73151615D01*
X147603379Y-73265787D01*
X147734213Y-73396621D01*
X147883904Y-73505378D01*
X147964763Y-73546577D01*
X148048764Y-73589379D01*
X148048767Y-73589380D01*
X148136750Y-73617967D01*
X148224736Y-73646555D01*
X148407486Y-73675500D01*
X148407487Y-73675500D01*
X148592513Y-73675500D01*
X148592514Y-73675500D01*
X148775264Y-73646555D01*
X148951235Y-73589379D01*
X149116096Y-73505378D01*
X149265787Y-73396621D01*
X149396621Y-73265787D01*
X149505378Y-73116096D01*
X149589379Y-72951235D01*
X149646555Y-72775264D01*
X149675500Y-72592514D01*
X149675500Y-72407486D01*
X149646555Y-72224736D01*
X149611117Y-72115669D01*
X149589380Y-72048767D01*
X149589379Y-72048764D01*
X149505377Y-71883903D01*
X149494340Y-71868712D01*
X149396621Y-71734213D01*
X149265787Y-71603379D01*
X149116096Y-71494622D01*
X149102285Y-71487585D01*
X148951235Y-71410620D01*
X148951229Y-71410618D01*
X148926833Y-71402692D01*
X148877469Y-71372442D01*
X148500001Y-70994974D01*
X148122529Y-71372443D01*
X148073170Y-71402691D01*
X148048761Y-71410622D01*
X147883903Y-71494622D01*
X147734213Y-71603379D01*
X147681093Y-71656498D01*
X147619769Y-71689982D01*
X147550077Y-71684996D01*
X147505732Y-71656496D01*
X147136819Y-71287583D01*
X147103334Y-71226260D01*
X147100500Y-71199902D01*
X147100500Y-70403966D01*
X147525000Y-70403966D01*
X147525000Y-70596033D01*
X147562466Y-70784389D01*
X147562468Y-70784397D01*
X147608792Y-70896233D01*
X148005026Y-70500000D01*
X148005026Y-70499999D01*
X147952366Y-70447339D01*
X148100000Y-70447339D01*
X148100000Y-70552661D01*
X148127259Y-70654394D01*
X148179920Y-70745606D01*
X148254394Y-70820080D01*
X148345606Y-70872741D01*
X148447339Y-70900000D01*
X148552661Y-70900000D01*
X148654394Y-70872741D01*
X148745606Y-70820080D01*
X148820080Y-70745606D01*
X148872741Y-70654394D01*
X148900000Y-70552661D01*
X148900000Y-70499999D01*
X148994974Y-70499999D01*
X148994974Y-70500001D01*
X149391206Y-70896233D01*
X149437532Y-70784393D01*
X149437533Y-70784389D01*
X149474999Y-70596033D01*
X149475000Y-70596030D01*
X149475000Y-70403970D01*
X149474999Y-70403966D01*
X149437533Y-70215610D01*
X149437531Y-70215602D01*
X149391206Y-70103765D01*
X148994974Y-70499999D01*
X148900000Y-70499999D01*
X148900000Y-70447339D01*
X148872741Y-70345606D01*
X148820080Y-70254394D01*
X148745606Y-70179920D01*
X148654394Y-70127259D01*
X148552661Y-70100000D01*
X148447339Y-70100000D01*
X148345606Y-70127259D01*
X148254394Y-70179920D01*
X148179920Y-70254394D01*
X148127259Y-70345606D01*
X148100000Y-70447339D01*
X147952366Y-70447339D01*
X147608792Y-70103765D01*
X147562469Y-70215599D01*
X147562466Y-70215611D01*
X147525000Y-70403966D01*
X147100500Y-70403966D01*
X147100500Y-69352019D01*
X147120185Y-69284980D01*
X147172989Y-69239225D01*
X147242147Y-69229281D01*
X147305703Y-69258306D01*
X147340682Y-69308686D01*
X147381202Y-69417328D01*
X147381206Y-69417335D01*
X147467452Y-69532544D01*
X147467455Y-69532547D01*
X147582664Y-69618793D01*
X147582671Y-69618797D01*
X147615135Y-69630905D01*
X147717517Y-69669091D01*
X147777127Y-69675500D01*
X148119113Y-69675499D01*
X148186150Y-69695183D01*
X148206792Y-69711818D01*
X148499999Y-70005025D01*
X148793206Y-69711818D01*
X148854530Y-69678333D01*
X148880885Y-69675499D01*
X149222872Y-69675499D01*
X149282483Y-69669091D01*
X149417331Y-69618796D01*
X149532546Y-69532546D01*
X149618796Y-69417331D01*
X149669091Y-69282483D01*
X149670208Y-69272093D01*
X149671375Y-69261243D01*
X149698114Y-69196692D01*
X149755507Y-69156845D01*
X149794664Y-69150500D01*
X151179192Y-69150500D01*
X151246231Y-69170185D01*
X151266873Y-69186819D01*
X154182984Y-72102930D01*
X154216469Y-72164253D01*
X154216920Y-72166420D01*
X154230261Y-72233489D01*
X154230264Y-72233501D01*
X154290602Y-72379172D01*
X154290609Y-72379185D01*
X154378210Y-72510288D01*
X154378213Y-72510292D01*
X154489707Y-72621786D01*
X154489711Y-72621789D01*
X154620814Y-72709390D01*
X154620827Y-72709397D01*
X154733790Y-72756187D01*
X154766503Y-72769737D01*
X154921153Y-72800499D01*
X154921156Y-72800500D01*
X154921158Y-72800500D01*
X155078844Y-72800500D01*
X155078845Y-72800499D01*
X155233497Y-72769737D01*
X155379179Y-72709394D01*
X155510289Y-72621789D01*
X155621789Y-72510289D01*
X155709394Y-72379179D01*
X155769737Y-72233497D01*
X155800500Y-72078842D01*
X155800500Y-71921158D01*
X155800500Y-71921155D01*
X155800499Y-71921153D01*
X155790069Y-71868717D01*
X155769737Y-71766503D01*
X155769735Y-71766498D01*
X155709397Y-71620827D01*
X155709390Y-71620814D01*
X155621789Y-71489711D01*
X155621786Y-71489707D01*
X155510292Y-71378213D01*
X155510288Y-71378210D01*
X155379185Y-71290609D01*
X155379172Y-71290602D01*
X155233501Y-71230264D01*
X155233489Y-71230261D01*
X155166420Y-71216920D01*
X155104509Y-71184535D01*
X155102930Y-71182984D01*
X152256127Y-68336181D01*
X152245514Y-68316744D01*
X152231014Y-68300011D01*
X152229097Y-68286679D01*
X152222642Y-68274858D01*
X152224221Y-68252771D01*
X152221070Y-68230853D01*
X152226665Y-68218601D01*
X152227626Y-68205166D01*
X152240896Y-68187439D01*
X152250095Y-68167297D01*
X152261426Y-68160014D01*
X152269498Y-68149233D01*
X152290243Y-68141495D01*
X152308873Y-68129523D01*
X152330791Y-68126371D01*
X152334962Y-68124816D01*
X152343808Y-68124500D01*
X152532281Y-68124500D01*
X152532297Y-68124501D01*
X152539893Y-68124501D01*
X152698004Y-68124501D01*
X152698007Y-68124501D01*
X152850735Y-68083577D01*
X152900854Y-68054639D01*
X152987666Y-68004520D01*
X153099470Y-67892716D01*
X153099470Y-67892714D01*
X153109678Y-67882507D01*
X153109680Y-67882504D01*
X153723486Y-67268697D01*
X153784807Y-67235214D01*
X153854499Y-67240198D01*
X153910432Y-67282070D01*
X153921649Y-67300084D01*
X153937713Y-67331611D01*
X154058028Y-67497213D01*
X154202786Y-67641971D01*
X154349737Y-67748735D01*
X154368390Y-67762287D01*
X154459190Y-67808552D01*
X154550776Y-67855218D01*
X154550778Y-67855218D01*
X154550781Y-67855220D01*
X154634743Y-67882501D01*
X154745465Y-67918477D01*
X154846557Y-67934488D01*
X154947648Y-67950500D01*
X154947649Y-67950500D01*
X155152351Y-67950500D01*
X155152352Y-67950500D01*
X155354534Y-67918477D01*
X155549219Y-67855220D01*
X155731610Y-67762287D01*
X155852877Y-67674181D01*
X155918683Y-67650702D01*
X155925762Y-67650500D01*
X156184218Y-67650500D01*
X156251257Y-67670185D01*
X156271899Y-67686819D01*
X156923181Y-68338101D01*
X156956666Y-68399424D01*
X156959500Y-68425782D01*
X156959500Y-69039800D01*
X156939815Y-69106839D01*
X156930506Y-69119365D01*
X156804951Y-69292179D01*
X156708444Y-69481585D01*
X156708443Y-69481587D01*
X156708443Y-69481588D01*
X156704175Y-69494724D01*
X156642753Y-69683760D01*
X156609500Y-69893713D01*
X156609500Y-70106286D01*
X156638214Y-70287583D01*
X156642754Y-70316243D01*
X156704175Y-70505278D01*
X156708444Y-70518414D01*
X156804951Y-70707820D01*
X156929890Y-70879786D01*
X157080213Y-71030109D01*
X157252179Y-71155048D01*
X157252181Y-71155049D01*
X157252184Y-71155051D01*
X157441588Y-71251557D01*
X157643757Y-71317246D01*
X157853713Y-71350500D01*
X157853714Y-71350500D01*
X158066286Y-71350500D01*
X158066287Y-71350500D01*
X158276243Y-71317246D01*
X158478412Y-71251557D01*
X158667816Y-71155051D01*
X158839792Y-71030104D01*
X158953329Y-70916566D01*
X159014648Y-70883084D01*
X159084340Y-70888068D01*
X159140274Y-70929939D01*
X159157189Y-70960917D01*
X159206202Y-71092328D01*
X159206206Y-71092335D01*
X159292452Y-71207544D01*
X159292455Y-71207547D01*
X159407664Y-71293793D01*
X159407671Y-71293797D01*
X159542517Y-71344091D01*
X159542516Y-71344091D01*
X159549444Y-71344835D01*
X159602127Y-71350500D01*
X160379191Y-71350499D01*
X160446230Y-71370183D01*
X160466872Y-71386818D01*
X161736325Y-72656272D01*
X161736332Y-72656278D01*
X161842868Y-72727462D01*
X161842874Y-72727466D01*
X161912221Y-72756189D01*
X161961256Y-72776501D01*
X161961259Y-72776501D01*
X161961260Y-72776502D01*
X162086928Y-72801500D01*
X162086931Y-72801500D01*
X181913071Y-72801500D01*
X181997615Y-72784682D01*
X182038744Y-72776501D01*
X182157127Y-72727465D01*
X182263669Y-72656277D01*
X182276233Y-72643713D01*
X184399500Y-72643713D01*
X184399500Y-72856286D01*
X184431697Y-73059573D01*
X184432754Y-73066243D01*
X184497590Y-73265788D01*
X184498444Y-73268414D01*
X184594951Y-73457820D01*
X184719890Y-73629786D01*
X184870213Y-73780109D01*
X185042179Y-73905048D01*
X185042181Y-73905049D01*
X185042184Y-73905051D01*
X185231588Y-74001557D01*
X185433757Y-74067246D01*
X185643713Y-74100500D01*
X185643714Y-74100500D01*
X185856286Y-74100500D01*
X185856287Y-74100500D01*
X186066243Y-74067246D01*
X186268412Y-74001557D01*
X186457816Y-73905051D01*
X186479789Y-73889086D01*
X186629786Y-73780109D01*
X186629788Y-73780106D01*
X186629792Y-73780104D01*
X186780104Y-73629792D01*
X186780106Y-73629788D01*
X186780109Y-73629786D01*
X186905048Y-73457820D01*
X186905047Y-73457820D01*
X186905051Y-73457816D01*
X187001557Y-73268412D01*
X187067246Y-73066243D01*
X187100500Y-72856287D01*
X187100500Y-72643713D01*
X190899500Y-72643713D01*
X190899500Y-72856286D01*
X190931697Y-73059573D01*
X190932754Y-73066243D01*
X190997590Y-73265788D01*
X190998444Y-73268414D01*
X191094951Y-73457820D01*
X191219890Y-73629786D01*
X191370213Y-73780109D01*
X191542179Y-73905048D01*
X191542181Y-73905049D01*
X191542184Y-73905051D01*
X191731588Y-74001557D01*
X191933757Y-74067246D01*
X192143713Y-74100500D01*
X192143714Y-74100500D01*
X192356286Y-74100500D01*
X192356287Y-74100500D01*
X192566243Y-74067246D01*
X192768412Y-74001557D01*
X192957816Y-73905051D01*
X192979789Y-73889086D01*
X193129786Y-73780109D01*
X193129788Y-73780106D01*
X193129792Y-73780104D01*
X193280104Y-73629792D01*
X193280106Y-73629788D01*
X193280109Y-73629786D01*
X193405048Y-73457820D01*
X193405047Y-73457820D01*
X193405051Y-73457816D01*
X193501557Y-73268412D01*
X193567246Y-73066243D01*
X193600500Y-72856287D01*
X193600500Y-72643713D01*
X193567246Y-72433757D01*
X193501557Y-72231588D01*
X193405051Y-72042184D01*
X193405049Y-72042181D01*
X193405048Y-72042179D01*
X193280109Y-71870213D01*
X193129786Y-71719890D01*
X192957820Y-71594951D01*
X192768414Y-71498444D01*
X192768413Y-71498443D01*
X192768412Y-71498443D01*
X192566243Y-71432754D01*
X192566241Y-71432753D01*
X192566240Y-71432753D01*
X192376440Y-71402692D01*
X192356287Y-71399500D01*
X192143713Y-71399500D01*
X192123560Y-71402692D01*
X191933760Y-71432753D01*
X191731585Y-71498444D01*
X191542179Y-71594951D01*
X191370213Y-71719890D01*
X191219890Y-71870213D01*
X191094951Y-72042179D01*
X190998444Y-72231585D01*
X190932753Y-72433760D01*
X190899500Y-72643713D01*
X187100500Y-72643713D01*
X187067246Y-72433757D01*
X187001557Y-72231588D01*
X186905051Y-72042184D01*
X186905049Y-72042181D01*
X186905048Y-72042179D01*
X186780109Y-71870213D01*
X186629786Y-71719890D01*
X186457820Y-71594951D01*
X186268414Y-71498444D01*
X186268413Y-71498443D01*
X186268412Y-71498443D01*
X186066243Y-71432754D01*
X186066241Y-71432753D01*
X186066240Y-71432753D01*
X185876440Y-71402692D01*
X185856287Y-71399500D01*
X185643713Y-71399500D01*
X185623560Y-71402692D01*
X185433760Y-71432753D01*
X185231585Y-71498444D01*
X185042179Y-71594951D01*
X184870213Y-71719890D01*
X184719890Y-71870213D01*
X184594951Y-72042179D01*
X184498444Y-72231585D01*
X184432753Y-72433760D01*
X184399500Y-72643713D01*
X182276233Y-72643713D01*
X182298160Y-72621786D01*
X182368787Y-72551160D01*
X184233127Y-70686819D01*
X184294450Y-70653334D01*
X184320808Y-70650500D01*
X187564071Y-70650500D01*
X187648615Y-70633682D01*
X187689744Y-70625501D01*
X187808127Y-70576465D01*
X187826679Y-70564069D01*
X187914669Y-70505277D01*
X188583128Y-69836818D01*
X189278540Y-69141407D01*
X189505271Y-68914675D01*
X189505276Y-68914670D01*
X189558565Y-68834917D01*
X189576464Y-68808129D01*
X189576465Y-68808127D01*
X189625501Y-68689744D01*
X189633506Y-68649500D01*
X189650068Y-68566243D01*
X189650500Y-68564070D01*
X189650500Y-68159493D01*
X191100000Y-68159493D01*
X191100000Y-68340506D01*
X191128317Y-68519293D01*
X191184251Y-68691444D01*
X191184252Y-68691447D01*
X191227904Y-68777118D01*
X191750000Y-68255024D01*
X191750000Y-68315826D01*
X191784075Y-68442993D01*
X191849901Y-68557007D01*
X191942993Y-68650099D01*
X192057007Y-68715925D01*
X192184174Y-68750000D01*
X192244974Y-68750000D01*
X191722879Y-69272093D01*
X191808552Y-69315747D01*
X191808555Y-69315748D01*
X191980706Y-69371682D01*
X192159494Y-69400000D01*
X192340506Y-69400000D01*
X192519293Y-69371682D01*
X192691445Y-69315747D01*
X192691452Y-69315744D01*
X192777119Y-69272093D01*
X192255027Y-68750000D01*
X192315826Y-68750000D01*
X192442993Y-68715925D01*
X192557007Y-68650099D01*
X192650099Y-68557007D01*
X192715925Y-68442993D01*
X192750000Y-68315826D01*
X192750000Y-68255026D01*
X193272093Y-68777119D01*
X193315744Y-68691452D01*
X193315747Y-68691445D01*
X193371682Y-68519293D01*
X193400000Y-68340506D01*
X193400000Y-68159493D01*
X193371682Y-67980706D01*
X193315748Y-67808555D01*
X193315747Y-67808552D01*
X193272093Y-67722879D01*
X192750000Y-68244972D01*
X192750000Y-68184174D01*
X192715925Y-68057007D01*
X192650099Y-67942993D01*
X192557007Y-67849901D01*
X192442993Y-67784075D01*
X192315826Y-67750000D01*
X192255026Y-67750000D01*
X192777119Y-67227905D01*
X192691447Y-67184252D01*
X192691444Y-67184251D01*
X192519293Y-67128317D01*
X192340506Y-67100000D01*
X192159494Y-67100000D01*
X191980706Y-67128317D01*
X191808553Y-67184252D01*
X191722879Y-67227904D01*
X192244975Y-67750000D01*
X192184174Y-67750000D01*
X192057007Y-67784075D01*
X191942993Y-67849901D01*
X191849901Y-67942993D01*
X191784075Y-68057007D01*
X191750000Y-68184174D01*
X191750000Y-68244974D01*
X191227904Y-67722879D01*
X191184252Y-67808553D01*
X191128317Y-67980706D01*
X191100000Y-68159493D01*
X189650500Y-68159493D01*
X189650500Y-65320808D01*
X189670185Y-65253769D01*
X189686819Y-65233127D01*
X190183127Y-64736819D01*
X190244450Y-64703334D01*
X190270808Y-64700500D01*
X191799782Y-64700500D01*
X191866821Y-64720185D01*
X191905319Y-64759401D01*
X191957288Y-64843656D01*
X192081344Y-64967712D01*
X192230666Y-65059814D01*
X192397203Y-65114999D01*
X192499991Y-65125500D01*
X193500008Y-65125499D01*
X193500016Y-65125498D01*
X193500019Y-65125498D01*
X193556302Y-65119748D01*
X193602797Y-65114999D01*
X193769334Y-65059814D01*
X193918656Y-64967712D01*
X194042712Y-64843656D01*
X194134814Y-64694334D01*
X194189999Y-64527797D01*
X194200500Y-64425009D01*
X194200499Y-63674992D01*
X194189999Y-63572203D01*
X194134814Y-63405666D01*
X194042712Y-63256344D01*
X193918656Y-63132288D01*
X193915819Y-63130538D01*
X193914283Y-63128830D01*
X193912989Y-63127807D01*
X193913163Y-63127585D01*
X193869096Y-63078594D01*
X193857872Y-63009632D01*
X193885713Y-62945549D01*
X193915817Y-62919462D01*
X193918656Y-62917712D01*
X194042712Y-62793656D01*
X194134814Y-62644334D01*
X194189999Y-62477797D01*
X194200500Y-62375009D01*
X194200499Y-61624992D01*
X194199611Y-61616303D01*
X194189999Y-61522203D01*
X194189998Y-61522200D01*
X194185919Y-61509890D01*
X194134814Y-61355666D01*
X194042712Y-61206344D01*
X193936549Y-61100181D01*
X193903064Y-61038858D01*
X193908048Y-60969166D01*
X193936549Y-60924819D01*
X193981916Y-60879452D01*
X194042712Y-60818656D01*
X194134814Y-60669334D01*
X194189999Y-60502797D01*
X194200500Y-60400009D01*
X194200499Y-59649992D01*
X194198235Y-59627832D01*
X194189999Y-59547203D01*
X194189998Y-59547200D01*
X194187065Y-59538349D01*
X194134814Y-59380666D01*
X194042712Y-59231344D01*
X193918656Y-59107288D01*
X193769334Y-59015186D01*
X193747180Y-59007845D01*
X193689737Y-58968072D01*
X193662915Y-58903556D01*
X193675231Y-58834781D01*
X193716398Y-58790446D01*
X193715336Y-58789046D01*
X193842564Y-58692564D01*
X193933920Y-58572095D01*
X193989386Y-58431443D01*
X194000000Y-58343053D01*
X194000000Y-58325000D01*
X192000000Y-58325000D01*
X192000000Y-58343053D01*
X192010613Y-58431443D01*
X192066079Y-58572095D01*
X192157435Y-58692564D01*
X192284664Y-58789046D01*
X192283238Y-58790926D01*
X192323371Y-58832066D01*
X192337376Y-58900518D01*
X192312150Y-58965675D01*
X192255701Y-59006850D01*
X192252819Y-59007845D01*
X192230668Y-59015185D01*
X192230663Y-59015187D01*
X192081342Y-59107289D01*
X191957289Y-59231342D01*
X191865187Y-59380663D01*
X191865185Y-59380668D01*
X191853130Y-59417048D01*
X191810001Y-59547203D01*
X191810001Y-59547204D01*
X191810000Y-59547204D01*
X191799500Y-59649983D01*
X191799500Y-60400001D01*
X191799501Y-60400019D01*
X191810000Y-60502796D01*
X191810001Y-60502799D01*
X191865185Y-60669331D01*
X191865187Y-60669336D01*
X191888922Y-60707816D01*
X191952484Y-60810868D01*
X191957289Y-60818657D01*
X192063451Y-60924819D01*
X192096936Y-60986142D01*
X192091952Y-61055834D01*
X192063451Y-61100181D01*
X191957289Y-61206342D01*
X191865187Y-61355663D01*
X191865185Y-61355668D01*
X191855482Y-61384951D01*
X191810001Y-61522203D01*
X191810001Y-61522204D01*
X191810000Y-61522204D01*
X191799500Y-61624983D01*
X191799500Y-62375001D01*
X191799501Y-62375019D01*
X191810000Y-62477796D01*
X191810001Y-62477799D01*
X191865185Y-62644331D01*
X191865187Y-62644336D01*
X191881392Y-62670609D01*
X191952405Y-62785740D01*
X191957289Y-62793657D01*
X192081346Y-62917714D01*
X192084182Y-62919463D01*
X192085717Y-62921170D01*
X192087011Y-62922193D01*
X192086836Y-62922414D01*
X192130905Y-62971411D01*
X192142126Y-63040374D01*
X192114282Y-63104456D01*
X192084182Y-63130537D01*
X192081346Y-63132285D01*
X191957289Y-63256342D01*
X191940122Y-63284174D01*
X191928202Y-63303501D01*
X191905321Y-63340597D01*
X191853373Y-63387321D01*
X191799782Y-63399500D01*
X189885929Y-63399500D01*
X189765102Y-63423535D01*
X189765097Y-63423536D01*
X189760258Y-63424498D01*
X189760257Y-63424498D01*
X189641874Y-63473534D01*
X189535326Y-63544726D01*
X189535325Y-63544727D01*
X188494725Y-64585328D01*
X188494724Y-64585329D01*
X188441436Y-64665083D01*
X188441435Y-64665083D01*
X188423536Y-64691870D01*
X188423534Y-64691874D01*
X188374499Y-64810255D01*
X188374497Y-64810261D01*
X188349500Y-64935928D01*
X188349500Y-68179192D01*
X188329815Y-68246231D01*
X188313181Y-68266873D01*
X187266873Y-69313181D01*
X187205550Y-69346666D01*
X187179192Y-69349500D01*
X186859758Y-69349500D01*
X186792719Y-69329815D01*
X186746964Y-69277011D01*
X186737020Y-69207853D01*
X186766045Y-69144297D01*
X186772077Y-69137819D01*
X186780104Y-69129792D01*
X186780106Y-69129788D01*
X186780109Y-69129786D01*
X186905048Y-68957820D01*
X186905047Y-68957820D01*
X186905051Y-68957816D01*
X187001557Y-68768412D01*
X187067246Y-68566243D01*
X187100500Y-68356287D01*
X187100500Y-68143713D01*
X187067246Y-67933757D01*
X187001557Y-67731588D01*
X186905051Y-67542184D01*
X186905049Y-67542181D01*
X186905048Y-67542179D01*
X186780109Y-67370213D01*
X186629786Y-67219890D01*
X186457820Y-67094951D01*
X186268414Y-66998444D01*
X186268413Y-66998443D01*
X186268412Y-66998443D01*
X186066243Y-66932754D01*
X186066241Y-66932753D01*
X186066240Y-66932753D01*
X185904957Y-66907208D01*
X185856287Y-66899500D01*
X185643713Y-66899500D01*
X185595042Y-66907208D01*
X185433760Y-66932753D01*
X185433757Y-66932754D01*
X185232598Y-66998115D01*
X185231585Y-66998444D01*
X185042179Y-67094951D01*
X184870213Y-67219890D01*
X184719890Y-67370213D01*
X184594951Y-67542179D01*
X184498444Y-67731585D01*
X184432753Y-67933760D01*
X184399500Y-68143713D01*
X184399500Y-68356286D01*
X184432409Y-68564070D01*
X184432754Y-68566243D01*
X184494161Y-68755234D01*
X184498444Y-68768414D01*
X184594951Y-68957820D01*
X184719890Y-69129786D01*
X184727923Y-69137819D01*
X184761408Y-69199142D01*
X184756424Y-69268834D01*
X184714552Y-69324767D01*
X184649088Y-69349184D01*
X184640242Y-69349500D01*
X183935929Y-69349500D01*
X183810261Y-69374497D01*
X183810255Y-69374499D01*
X183691870Y-69423535D01*
X183585331Y-69494722D01*
X183585324Y-69494728D01*
X181615873Y-71464181D01*
X181554550Y-71497666D01*
X181528192Y-71500500D01*
X171614404Y-71500500D01*
X171547365Y-71480815D01*
X171501610Y-71428011D01*
X171491666Y-71358853D01*
X171508863Y-71311406D01*
X171534814Y-71269334D01*
X171589999Y-71102797D01*
X171600500Y-71000009D01*
X171600499Y-70537228D01*
X171609145Y-70507782D01*
X171615667Y-70477802D01*
X171619420Y-70472788D01*
X171620183Y-70470190D01*
X171636813Y-70449552D01*
X171718312Y-70368053D01*
X179500000Y-70368053D01*
X179510613Y-70456443D01*
X179566079Y-70597095D01*
X179657435Y-70717564D01*
X179777904Y-70808920D01*
X179918556Y-70864386D01*
X180006946Y-70875000D01*
X180150000Y-70875000D01*
X180850000Y-70875000D01*
X180993054Y-70875000D01*
X181081443Y-70864386D01*
X181222095Y-70808920D01*
X181342564Y-70717564D01*
X181433920Y-70597095D01*
X181489386Y-70456443D01*
X181500000Y-70368053D01*
X181500000Y-70350000D01*
X180850000Y-70350000D01*
X180850000Y-70875000D01*
X180150000Y-70875000D01*
X180150000Y-70350000D01*
X179500000Y-70350000D01*
X179500000Y-70368053D01*
X171718312Y-70368053D01*
X171799549Y-70286816D01*
X171860871Y-70253334D01*
X171887229Y-70250500D01*
X173073920Y-70250500D01*
X173171462Y-70231096D01*
X173218913Y-70221658D01*
X173355495Y-70165084D01*
X173406080Y-70131284D01*
X173478416Y-70082952D01*
X173724550Y-69836816D01*
X173785871Y-69803333D01*
X173812230Y-69800499D01*
X174847871Y-69800499D01*
X174847872Y-69800499D01*
X174907483Y-69794091D01*
X175042331Y-69743796D01*
X175157546Y-69657546D01*
X175243796Y-69542331D01*
X175265209Y-69484919D01*
X176010054Y-69484919D01*
X176077742Y-69519408D01*
X176242415Y-69572914D01*
X176413429Y-69600000D01*
X176586571Y-69600000D01*
X176757584Y-69572914D01*
X176922254Y-69519408D01*
X176922258Y-69519407D01*
X176989944Y-69484918D01*
X176500001Y-68994974D01*
X176500000Y-68994974D01*
X176010054Y-69484919D01*
X175265209Y-69484919D01*
X175294091Y-69407483D01*
X175300500Y-69347873D01*
X175300499Y-69085301D01*
X175320183Y-69018265D01*
X175372987Y-68972510D01*
X175442146Y-68962566D01*
X175495200Y-68986795D01*
X175515080Y-68989944D01*
X176005025Y-68500000D01*
X175952364Y-68447339D01*
X176100000Y-68447339D01*
X176100000Y-68552661D01*
X176127259Y-68654394D01*
X176179920Y-68745606D01*
X176254394Y-68820080D01*
X176345606Y-68872741D01*
X176447339Y-68900000D01*
X176552661Y-68900000D01*
X176654394Y-68872741D01*
X176745606Y-68820080D01*
X176820080Y-68745606D01*
X176872741Y-68654394D01*
X176900000Y-68552661D01*
X176900000Y-68500000D01*
X176994974Y-68500000D01*
X177484918Y-68989944D01*
X177519407Y-68922258D01*
X177519408Y-68922254D01*
X177572914Y-68757584D01*
X177600000Y-68586571D01*
X177600000Y-68413428D01*
X177572914Y-68242415D01*
X177519408Y-68077742D01*
X177484918Y-68010054D01*
X176994974Y-68500000D01*
X176900000Y-68500000D01*
X176900000Y-68447339D01*
X176872741Y-68345606D01*
X176820080Y-68254394D01*
X176745606Y-68179920D01*
X176654394Y-68127259D01*
X176552661Y-68100000D01*
X176447339Y-68100000D01*
X176345606Y-68127259D01*
X176254394Y-68179920D01*
X176179920Y-68254394D01*
X176127259Y-68345606D01*
X176100000Y-68447339D01*
X175952364Y-68447339D01*
X175515079Y-68010054D01*
X175495099Y-68013219D01*
X175487008Y-68021787D01*
X175419186Y-68038581D01*
X175353052Y-68016042D01*
X175309601Y-67961327D01*
X175300499Y-67914695D01*
X175300499Y-67652129D01*
X175300498Y-67652123D01*
X175300345Y-67650702D01*
X175294091Y-67592517D01*
X175292801Y-67589059D01*
X175265209Y-67515079D01*
X176010054Y-67515079D01*
X176500000Y-68005025D01*
X176500001Y-68005025D01*
X176989944Y-67515080D01*
X176989944Y-67515079D01*
X176922253Y-67480590D01*
X176922250Y-67480588D01*
X176757586Y-67427086D01*
X176586571Y-67400000D01*
X176413429Y-67400000D01*
X176242414Y-67427086D01*
X176242411Y-67427086D01*
X176077748Y-67480589D01*
X176077747Y-67480589D01*
X176010054Y-67515079D01*
X175265209Y-67515079D01*
X175243797Y-67457671D01*
X175243793Y-67457664D01*
X175157547Y-67342455D01*
X175157544Y-67342452D01*
X175042335Y-67256206D01*
X175042328Y-67256202D01*
X174907482Y-67205908D01*
X174907483Y-67205908D01*
X174847883Y-67199501D01*
X174847881Y-67199500D01*
X174847873Y-67199500D01*
X174847865Y-67199500D01*
X174161229Y-67199500D01*
X174094190Y-67179815D01*
X174048435Y-67127011D01*
X174038491Y-67057853D01*
X174067516Y-66994297D01*
X174073548Y-66987819D01*
X174274548Y-66786819D01*
X174335871Y-66753334D01*
X174362229Y-66750500D01*
X179384362Y-66750500D01*
X179394152Y-66753374D01*
X179404278Y-66752110D01*
X179427109Y-66763052D01*
X179451401Y-66770185D01*
X179459760Y-66778700D01*
X179467286Y-66782307D01*
X179489899Y-66809401D01*
X179557288Y-66918656D01*
X179557289Y-66918657D01*
X179558344Y-66920367D01*
X179576784Y-66987760D01*
X179555861Y-67054423D01*
X179540487Y-67073145D01*
X179457287Y-67156345D01*
X179365187Y-67305663D01*
X179365185Y-67305668D01*
X179352995Y-67342455D01*
X179310001Y-67472203D01*
X179310001Y-67472204D01*
X179310000Y-67472204D01*
X179299500Y-67574983D01*
X179299500Y-68325001D01*
X179299501Y-68325019D01*
X179310000Y-68427796D01*
X179310001Y-68427799D01*
X179362377Y-68585858D01*
X179365186Y-68594334D01*
X179457288Y-68743656D01*
X179581344Y-68867712D01*
X179730666Y-68959814D01*
X179752816Y-68967153D01*
X179810260Y-69006925D01*
X179837084Y-69071440D01*
X179824770Y-69140216D01*
X179783601Y-69184552D01*
X179784664Y-69185954D01*
X179657435Y-69282435D01*
X179566079Y-69402904D01*
X179510613Y-69543556D01*
X179500000Y-69631946D01*
X179500000Y-69650000D01*
X181500000Y-69650000D01*
X181500000Y-69631946D01*
X181489386Y-69543556D01*
X181433920Y-69402904D01*
X181342564Y-69282435D01*
X181215336Y-69185954D01*
X181216760Y-69184075D01*
X181176623Y-69142924D01*
X181162624Y-69074471D01*
X181187856Y-69009316D01*
X181244307Y-68968146D01*
X181247150Y-68967164D01*
X181269334Y-68959814D01*
X181418656Y-68867712D01*
X181542712Y-68743656D01*
X181634814Y-68594334D01*
X181689999Y-68427797D01*
X181700500Y-68325009D01*
X181700499Y-67574992D01*
X181700389Y-67573920D01*
X181689999Y-67472203D01*
X181689998Y-67472200D01*
X181688425Y-67467454D01*
X181634814Y-67305666D01*
X181542712Y-67156344D01*
X181428588Y-67042220D01*
X181415707Y-67018630D01*
X181399762Y-66996991D01*
X181399214Y-66988427D01*
X181395103Y-66980897D01*
X181397020Y-66954088D01*
X181395306Y-66927264D01*
X181399711Y-66916462D01*
X181400087Y-66911205D01*
X181407890Y-66894289D01*
X181409245Y-66891851D01*
X181484814Y-66769334D01*
X181495821Y-66736115D01*
X181501480Y-66725937D01*
X181518404Y-66709267D01*
X181531924Y-66689740D01*
X181542836Y-66685202D01*
X181551258Y-66676908D01*
X181574504Y-66672035D01*
X181596439Y-66662915D01*
X181608075Y-66664998D01*
X181619642Y-66662574D01*
X181641831Y-66671042D01*
X181665215Y-66675229D01*
X181673877Y-66683271D01*
X181684919Y-66687486D01*
X181699008Y-66706607D01*
X181709552Y-66716398D01*
X181710954Y-66715336D01*
X181807435Y-66842564D01*
X181927904Y-66933920D01*
X182068556Y-66989386D01*
X182156946Y-67000000D01*
X182175000Y-67000000D01*
X182875000Y-67000000D01*
X182893054Y-67000000D01*
X182981443Y-66989386D01*
X183122095Y-66933920D01*
X183242564Y-66842564D01*
X183333920Y-66722095D01*
X183389386Y-66581443D01*
X183400000Y-66493053D01*
X183400000Y-66350000D01*
X182875000Y-66350000D01*
X182875000Y-67000000D01*
X182175000Y-67000000D01*
X182175000Y-65650000D01*
X182875000Y-65650000D01*
X183400000Y-65650000D01*
X183400000Y-65506946D01*
X183389386Y-65418556D01*
X183333920Y-65277904D01*
X183242564Y-65157435D01*
X183122095Y-65066079D01*
X182981443Y-65010613D01*
X182893054Y-65000000D01*
X182875000Y-65000000D01*
X182875000Y-65650000D01*
X182175000Y-65650000D01*
X182175000Y-65000000D01*
X182156946Y-65000000D01*
X182068556Y-65010613D01*
X181927904Y-65066079D01*
X181807435Y-65157435D01*
X181710954Y-65284664D01*
X181709076Y-65283240D01*
X181667912Y-65323382D01*
X181599458Y-65337374D01*
X181534306Y-65312136D01*
X181493141Y-65255680D01*
X181492153Y-65252815D01*
X181491386Y-65250500D01*
X181484814Y-65230666D01*
X181392712Y-65081344D01*
X181268656Y-64957288D01*
X181119334Y-64865186D01*
X180952797Y-64810001D01*
X180952795Y-64810000D01*
X180850010Y-64799500D01*
X180099998Y-64799500D01*
X180099980Y-64799501D01*
X179997203Y-64810000D01*
X179997200Y-64810001D01*
X179830668Y-64865185D01*
X179830663Y-64865187D01*
X179681342Y-64957289D01*
X179557289Y-65081342D01*
X179557288Y-65081344D01*
X179505637Y-65165085D01*
X179489901Y-65190597D01*
X179437953Y-65237321D01*
X179384362Y-65249500D01*
X173926079Y-65249500D01*
X173898683Y-65254948D01*
X173829092Y-65248716D01*
X173773918Y-65205849D01*
X173750677Y-65139958D01*
X173750500Y-65133329D01*
X173750500Y-64061941D01*
X173770185Y-63994902D01*
X173822989Y-63949147D01*
X173892147Y-63939203D01*
X173955703Y-63968228D01*
X173962181Y-63974260D01*
X173989707Y-64001786D01*
X173989711Y-64001789D01*
X174120814Y-64089390D01*
X174120827Y-64089397D01*
X174266498Y-64149735D01*
X174266503Y-64149737D01*
X174350374Y-64166420D01*
X174421153Y-64180499D01*
X174421156Y-64180500D01*
X174421158Y-64180500D01*
X174578844Y-64180500D01*
X174578845Y-64180499D01*
X174733497Y-64149737D01*
X174879179Y-64089394D01*
X174936044Y-64051397D01*
X175002721Y-64030520D01*
X175004935Y-64030500D01*
X176113732Y-64030500D01*
X176180771Y-64050185D01*
X176214050Y-64081615D01*
X176285893Y-64180499D01*
X176296172Y-64194646D01*
X176435354Y-64333828D01*
X176594595Y-64449524D01*
X176596511Y-64450500D01*
X176769970Y-64538882D01*
X176769972Y-64538882D01*
X176769975Y-64538884D01*
X176870317Y-64571487D01*
X176957173Y-64599709D01*
X177151578Y-64630500D01*
X177151583Y-64630500D01*
X177348422Y-64630500D01*
X177542826Y-64599709D01*
X177730025Y-64538884D01*
X177905405Y-64449524D01*
X178064646Y-64333828D01*
X178203828Y-64194646D01*
X178319524Y-64035405D01*
X178408884Y-63860025D01*
X178469709Y-63672826D01*
X178480000Y-63607853D01*
X178500500Y-63478422D01*
X178500500Y-63281577D01*
X178469709Y-63087173D01*
X178416103Y-62922193D01*
X178408884Y-62899975D01*
X178408882Y-62899972D01*
X178408882Y-62899970D01*
X178336652Y-62758211D01*
X178319524Y-62724595D01*
X178203828Y-62565354D01*
X178064646Y-62426172D01*
X177976638Y-62362230D01*
X177905403Y-62310474D01*
X177728787Y-62220485D01*
X177677990Y-62172511D01*
X177661195Y-62104690D01*
X177683732Y-62038555D01*
X177728787Y-61999515D01*
X177905403Y-61909525D01*
X177905402Y-61909525D01*
X177905405Y-61909524D01*
X178064646Y-61793828D01*
X178203828Y-61654646D01*
X178285950Y-61541614D01*
X178341280Y-61498949D01*
X178386268Y-61490500D01*
X186224071Y-61490500D01*
X186308615Y-61473682D01*
X186349744Y-61465501D01*
X186468127Y-61416465D01*
X186504372Y-61392247D01*
X186574669Y-61345277D01*
X191183127Y-56736819D01*
X191244450Y-56703334D01*
X191270808Y-56700500D01*
X191799782Y-56700500D01*
X191866821Y-56720185D01*
X191905319Y-56759401D01*
X191957288Y-56843656D01*
X192081344Y-56967712D01*
X192179973Y-57028547D01*
X192226698Y-57080493D01*
X192237921Y-57149456D01*
X192210078Y-57213538D01*
X192189804Y-57232888D01*
X192157435Y-57257434D01*
X192066079Y-57377904D01*
X192010613Y-57518556D01*
X192000000Y-57606946D01*
X192000000Y-57625000D01*
X194000000Y-57625000D01*
X194000000Y-57606946D01*
X193989386Y-57518556D01*
X193933920Y-57377904D01*
X193842563Y-57257433D01*
X193810197Y-57232889D01*
X193768673Y-57176696D01*
X193764122Y-57106975D01*
X193797987Y-57045861D01*
X193820019Y-57028551D01*
X193918656Y-56967712D01*
X194042712Y-56843656D01*
X194134814Y-56694334D01*
X194189999Y-56527797D01*
X194200500Y-56425009D01*
X194200499Y-55674992D01*
X194189999Y-55572203D01*
X194134814Y-55405666D01*
X194042712Y-55256344D01*
X193918656Y-55132288D01*
X193915819Y-55130538D01*
X193914283Y-55128830D01*
X193912989Y-55127807D01*
X193913163Y-55127585D01*
X193869096Y-55078594D01*
X193857872Y-55009632D01*
X193885713Y-54945549D01*
X193915817Y-54919462D01*
X193918656Y-54917712D01*
X194042712Y-54793656D01*
X194134814Y-54644334D01*
X194189999Y-54477797D01*
X194200500Y-54375009D01*
X194200499Y-53624992D01*
X194196652Y-53587336D01*
X194189999Y-53522203D01*
X194189998Y-53522200D01*
X194170899Y-53464564D01*
X194134814Y-53355666D01*
X194042712Y-53206344D01*
X193918656Y-53082288D01*
X193769334Y-52990186D01*
X193602797Y-52935001D01*
X193602795Y-52935000D01*
X193500010Y-52924500D01*
X192499998Y-52924500D01*
X192499980Y-52924501D01*
X192397203Y-52935000D01*
X192397200Y-52935001D01*
X192230668Y-52990185D01*
X192230663Y-52990187D01*
X192081342Y-53082289D01*
X191957289Y-53206342D01*
X191865187Y-53355663D01*
X191865185Y-53355668D01*
X191857675Y-53378333D01*
X191810001Y-53522203D01*
X191810001Y-53522204D01*
X191810000Y-53522204D01*
X191799500Y-53624983D01*
X191799500Y-54375001D01*
X191799501Y-54375019D01*
X191810000Y-54477796D01*
X191810001Y-54477799D01*
X191865185Y-54644331D01*
X191865187Y-54644336D01*
X191900069Y-54700888D01*
X191955290Y-54790417D01*
X191957289Y-54793657D01*
X192081346Y-54917714D01*
X192084182Y-54919463D01*
X192085717Y-54921170D01*
X192087011Y-54922193D01*
X192086836Y-54922414D01*
X192130905Y-54971411D01*
X192142126Y-55040374D01*
X192114282Y-55104456D01*
X192084182Y-55130537D01*
X192081346Y-55132285D01*
X191957289Y-55256342D01*
X191905321Y-55340597D01*
X191853373Y-55387321D01*
X191799782Y-55399500D01*
X190885929Y-55399500D01*
X190760261Y-55424497D01*
X190760255Y-55424499D01*
X190641874Y-55473534D01*
X190535326Y-55544726D01*
X190535325Y-55544727D01*
X185926873Y-60153181D01*
X185865550Y-60186666D01*
X185839192Y-60189500D01*
X178386268Y-60189500D01*
X178319229Y-60169815D01*
X178285950Y-60138385D01*
X178284235Y-60136025D01*
X178203828Y-60025354D01*
X178064646Y-59886172D01*
X177928951Y-59787583D01*
X177905403Y-59770474D01*
X177728787Y-59680485D01*
X177677990Y-59632511D01*
X177661195Y-59564690D01*
X177683732Y-59498555D01*
X177728787Y-59459515D01*
X177905403Y-59369525D01*
X177905402Y-59369525D01*
X177905405Y-59369524D01*
X178064646Y-59253828D01*
X178203828Y-59114646D01*
X178319524Y-58955405D01*
X178408884Y-58780025D01*
X178469709Y-58592826D01*
X178471890Y-58579057D01*
X178500500Y-58398422D01*
X178500500Y-58201577D01*
X178469709Y-58007173D01*
X178418065Y-57848231D01*
X178408884Y-57819975D01*
X178408882Y-57819972D01*
X178408882Y-57819970D01*
X178361743Y-57727455D01*
X178319524Y-57644595D01*
X178203828Y-57485354D01*
X178064646Y-57346172D01*
X177942665Y-57257547D01*
X177905403Y-57230474D01*
X177728787Y-57140485D01*
X177677990Y-57092511D01*
X177661195Y-57024690D01*
X177683732Y-56958555D01*
X177728787Y-56919515D01*
X177905403Y-56829525D01*
X177905402Y-56829525D01*
X177905405Y-56829524D01*
X178064646Y-56713828D01*
X178203828Y-56574646D01*
X178319524Y-56415405D01*
X178408884Y-56240025D01*
X178469709Y-56052826D01*
X178500500Y-55858422D01*
X178500500Y-55661577D01*
X178469709Y-55467173D01*
X178408882Y-55279970D01*
X178343573Y-55151795D01*
X178330677Y-55083126D01*
X178356953Y-55018385D01*
X178414060Y-54978128D01*
X178454058Y-54971500D01*
X183743071Y-54971500D01*
X183827615Y-54954682D01*
X183868744Y-54946501D01*
X183987127Y-54897465D01*
X184093669Y-54826277D01*
X184102926Y-54817018D01*
X184164244Y-54783532D01*
X184166339Y-54783094D01*
X184233497Y-54769737D01*
X184379179Y-54709394D01*
X184510289Y-54621789D01*
X184621789Y-54510289D01*
X184709394Y-54379179D01*
X184769737Y-54233497D01*
X184800500Y-54078842D01*
X184800500Y-53921158D01*
X184800500Y-53921155D01*
X184800499Y-53921153D01*
X184769738Y-53766510D01*
X184769737Y-53766503D01*
X184742150Y-53699902D01*
X184709397Y-53620827D01*
X184709390Y-53620814D01*
X184621789Y-53489711D01*
X184621786Y-53489707D01*
X184510292Y-53378213D01*
X184510288Y-53378210D01*
X184379185Y-53290609D01*
X184379172Y-53290602D01*
X184233501Y-53230264D01*
X184233489Y-53230261D01*
X184078845Y-53199500D01*
X184078842Y-53199500D01*
X183921158Y-53199500D01*
X183921155Y-53199500D01*
X183766510Y-53230261D01*
X183766498Y-53230264D01*
X183620827Y-53290602D01*
X183620814Y-53290609D01*
X183489711Y-53378210D01*
X183489707Y-53378213D01*
X183378213Y-53489707D01*
X183378210Y-53489711D01*
X183294234Y-53615391D01*
X183240622Y-53660196D01*
X183191132Y-53670500D01*
X178589148Y-53670500D01*
X178522109Y-53650815D01*
X178476354Y-53598011D01*
X178466410Y-53528853D01*
X178468574Y-53517554D01*
X178469709Y-53512824D01*
X178473371Y-53489707D01*
X178485707Y-53411818D01*
X178500500Y-53318422D01*
X178500500Y-53121577D01*
X178469709Y-52927173D01*
X178428550Y-52800500D01*
X178408884Y-52739975D01*
X178408882Y-52739972D01*
X178408882Y-52739970D01*
X178350555Y-52625498D01*
X178319524Y-52564595D01*
X178203828Y-52405354D01*
X178064646Y-52266172D01*
X177985025Y-52208324D01*
X177905403Y-52150474D01*
X177728787Y-52060485D01*
X177677990Y-52012511D01*
X177661195Y-51944690D01*
X177683732Y-51878555D01*
X177728787Y-51839515D01*
X177905403Y-51749525D01*
X177905402Y-51749525D01*
X177905405Y-51749524D01*
X178064646Y-51633828D01*
X178203828Y-51494646D01*
X178319524Y-51335405D01*
X178408884Y-51160025D01*
X178469709Y-50972826D01*
X178477641Y-50922744D01*
X178500500Y-50778422D01*
X178500500Y-50581577D01*
X178469709Y-50387173D01*
X178408882Y-50199970D01*
X178332723Y-50050500D01*
X178319524Y-50024595D01*
X178203828Y-49865354D01*
X178064646Y-49726172D01*
X177905405Y-49610476D01*
X177901527Y-49608500D01*
X177730029Y-49521117D01*
X177542827Y-49460291D01*
X177366717Y-49432397D01*
X177303583Y-49402467D01*
X177266652Y-49343156D01*
X177267650Y-49273293D01*
X177306260Y-49215061D01*
X177361926Y-49188306D01*
X177556274Y-49149649D01*
X177703636Y-49088609D01*
X177255027Y-48640000D01*
X177315826Y-48640000D01*
X177442993Y-48605925D01*
X177557007Y-48540099D01*
X177650099Y-48447007D01*
X177715925Y-48332993D01*
X177750000Y-48205826D01*
X177750000Y-48145027D01*
X178198609Y-48593636D01*
X178259649Y-48446274D01*
X178259651Y-48446266D01*
X178299999Y-48243420D01*
X178300000Y-48243417D01*
X178300000Y-48036583D01*
X178299999Y-48036579D01*
X178259651Y-47833733D01*
X178259649Y-47833725D01*
X178198609Y-47686362D01*
X177750000Y-48134972D01*
X177750000Y-48074174D01*
X177715925Y-47947007D01*
X177650099Y-47832993D01*
X177557007Y-47739901D01*
X177442993Y-47674075D01*
X177315826Y-47640000D01*
X177255027Y-47640000D01*
X177703636Y-47191388D01*
X177556277Y-47130351D01*
X177556265Y-47130348D01*
X177361925Y-47091692D01*
X177300014Y-47059308D01*
X177265440Y-46998592D01*
X177269179Y-46928822D01*
X177310045Y-46872150D01*
X177366718Y-46847602D01*
X177542826Y-46819709D01*
X177559288Y-46814360D01*
X177730025Y-46758884D01*
X177905405Y-46669524D01*
X178064646Y-46553828D01*
X178203828Y-46414646D01*
X178319524Y-46255405D01*
X178408884Y-46080025D01*
X178469709Y-45892826D01*
X178476489Y-45850019D01*
X178500500Y-45698422D01*
X178500500Y-45501577D01*
X178469709Y-45307173D01*
X178408882Y-45119970D01*
X178352998Y-45010292D01*
X178319524Y-44944595D01*
X178203828Y-44785354D01*
X178064646Y-44646172D01*
X177905405Y-44530476D01*
X177904471Y-44530000D01*
X177730029Y-44441117D01*
X177542826Y-44380290D01*
X177348422Y-44349500D01*
X177348417Y-44349500D01*
X177151583Y-44349500D01*
X177151578Y-44349500D01*
X176957173Y-44380290D01*
X176769970Y-44441117D01*
X176594594Y-44530476D01*
X176528020Y-44578846D01*
X176435354Y-44646172D01*
X176435352Y-44646174D01*
X176435351Y-44646174D01*
X176296174Y-44785351D01*
X176296174Y-44785352D01*
X176296172Y-44785354D01*
X176263253Y-44830663D01*
X176180476Y-44944594D01*
X176091117Y-45119970D01*
X176030290Y-45307173D01*
X175999500Y-45501577D01*
X175999500Y-45698422D01*
X176030290Y-45892826D01*
X176091117Y-46080029D01*
X176167666Y-46230264D01*
X176180476Y-46255405D01*
X176296172Y-46414646D01*
X176435354Y-46553828D01*
X176594595Y-46669524D01*
X176674034Y-46710000D01*
X176769970Y-46758882D01*
X176769972Y-46758882D01*
X176769975Y-46758884D01*
X176851653Y-46785423D01*
X176957173Y-46819709D01*
X177133281Y-46847602D01*
X177196416Y-46877531D01*
X177233347Y-46936843D01*
X177232349Y-47006705D01*
X177193739Y-47064938D01*
X177138074Y-47091692D01*
X176943734Y-47130348D01*
X176943722Y-47130351D01*
X176796362Y-47191389D01*
X177244974Y-47640000D01*
X177184174Y-47640000D01*
X177057007Y-47674075D01*
X176942993Y-47739901D01*
X176849901Y-47832993D01*
X176784075Y-47947007D01*
X176750000Y-48074174D01*
X176750000Y-48134973D01*
X176301389Y-47686362D01*
X176240351Y-47833722D01*
X176240348Y-47833734D01*
X176200000Y-48036579D01*
X176200000Y-48243420D01*
X176240348Y-48446265D01*
X176240351Y-48446277D01*
X176301388Y-48593635D01*
X176750000Y-48145025D01*
X176750000Y-48205826D01*
X176784075Y-48332993D01*
X176849901Y-48447007D01*
X176942993Y-48540099D01*
X177057007Y-48605925D01*
X177184174Y-48640000D01*
X177244974Y-48640000D01*
X176796362Y-49088609D01*
X176943725Y-49149649D01*
X177138073Y-49188306D01*
X177199985Y-49220691D01*
X177234559Y-49281406D01*
X177230820Y-49351176D01*
X177189954Y-49407848D01*
X177133282Y-49432397D01*
X176957172Y-49460291D01*
X176769970Y-49521117D01*
X176594594Y-49610476D01*
X176568844Y-49629185D01*
X176435354Y-49726172D01*
X176435352Y-49726174D01*
X176435351Y-49726174D01*
X176296174Y-49865351D01*
X176296174Y-49865352D01*
X176296172Y-49865354D01*
X176289150Y-49875019D01*
X176180476Y-50024594D01*
X176091117Y-50199970D01*
X176030290Y-50387173D01*
X175999500Y-50581577D01*
X175999500Y-50750192D01*
X175979815Y-50817231D01*
X175927011Y-50862986D01*
X175857853Y-50872930D01*
X175794297Y-50843905D01*
X175787819Y-50837873D01*
X174186819Y-49236873D01*
X174153334Y-49175550D01*
X174150500Y-49149192D01*
X174150500Y-43679969D01*
X174170185Y-43612930D01*
X174222989Y-43567175D01*
X174292147Y-43557231D01*
X174313492Y-43562260D01*
X174397203Y-43589999D01*
X174499991Y-43600500D01*
X175500008Y-43600499D01*
X175500016Y-43600498D01*
X175500019Y-43600498D01*
X175556302Y-43594748D01*
X175602797Y-43589999D01*
X175769334Y-43534814D01*
X175918656Y-43442712D01*
X176042712Y-43318656D01*
X176094680Y-43234402D01*
X176146627Y-43187679D01*
X176200218Y-43175500D01*
X176589071Y-43175500D01*
X176673615Y-43158682D01*
X176714744Y-43150501D01*
X176833127Y-43101465D01*
X176851679Y-43089069D01*
X176939669Y-43030277D01*
X177002357Y-42967588D01*
X177063679Y-42934104D01*
X177133371Y-42939088D01*
X177189305Y-42980959D01*
X177206428Y-43013982D01*
X177206582Y-43013919D01*
X177207320Y-43015702D01*
X177207969Y-43016953D01*
X177208443Y-43018413D01*
X177304951Y-43207820D01*
X177429890Y-43379786D01*
X177580213Y-43530109D01*
X177752182Y-43655050D01*
X177752184Y-43655051D01*
X177806748Y-43682853D01*
X177818544Y-43688863D01*
X177869340Y-43736837D01*
X177876811Y-43751894D01*
X177883534Y-43768126D01*
X177894980Y-43785256D01*
X177951726Y-43870184D01*
X177954726Y-43874673D01*
X179060325Y-44980272D01*
X179060332Y-44980278D01*
X179147465Y-45038498D01*
X179147466Y-45038498D01*
X179166873Y-45051465D01*
X179285256Y-45100501D01*
X179285260Y-45100501D01*
X179285261Y-45100502D01*
X179410928Y-45125500D01*
X179410931Y-45125500D01*
X184154192Y-45125500D01*
X184221231Y-45145185D01*
X184241873Y-45161819D01*
X187110324Y-48030271D01*
X187110327Y-48030274D01*
X187154184Y-48059578D01*
X187216866Y-48101461D01*
X187216872Y-48101464D01*
X187216873Y-48101465D01*
X187335256Y-48150501D01*
X187335260Y-48150501D01*
X187335261Y-48150502D01*
X187460928Y-48175500D01*
X187460931Y-48175500D01*
X191799782Y-48175500D01*
X191866821Y-48195185D01*
X191905319Y-48234401D01*
X191957288Y-48318656D01*
X191957289Y-48318657D01*
X192063451Y-48424819D01*
X192096936Y-48486142D01*
X192091952Y-48555834D01*
X192063451Y-48600181D01*
X191957289Y-48706342D01*
X191865187Y-48855663D01*
X191865186Y-48855666D01*
X191810001Y-49022203D01*
X191810001Y-49022204D01*
X191810000Y-49022204D01*
X191799500Y-49124983D01*
X191799500Y-49875001D01*
X191799501Y-49875019D01*
X191810000Y-49977796D01*
X191810001Y-49977799D01*
X191865185Y-50144331D01*
X191865187Y-50144336D01*
X191957289Y-50293657D01*
X192081346Y-50417714D01*
X192084182Y-50419463D01*
X192085717Y-50421170D01*
X192087011Y-50422193D01*
X192086836Y-50422414D01*
X192130905Y-50471411D01*
X192142126Y-50540374D01*
X192114282Y-50604456D01*
X192084182Y-50630537D01*
X192081346Y-50632285D01*
X191957289Y-50756342D01*
X191905321Y-50840597D01*
X191853373Y-50887321D01*
X191799782Y-50899500D01*
X179885929Y-50899500D01*
X179781541Y-50920265D01*
X179769079Y-50922744D01*
X179760256Y-50924499D01*
X179760255Y-50924499D01*
X179641874Y-50973534D01*
X179535329Y-51044724D01*
X179535327Y-51044726D01*
X179397066Y-51182985D01*
X179335743Y-51216469D01*
X179333578Y-51216920D01*
X179266508Y-51230261D01*
X179266498Y-51230264D01*
X179120827Y-51290602D01*
X179120814Y-51290609D01*
X178989711Y-51378210D01*
X178989707Y-51378213D01*
X178878213Y-51489707D01*
X178878210Y-51489711D01*
X178790609Y-51620814D01*
X178790602Y-51620827D01*
X178730264Y-51766498D01*
X178730261Y-51766510D01*
X178699500Y-51921153D01*
X178699500Y-52078846D01*
X178730261Y-52233489D01*
X178730264Y-52233501D01*
X178790602Y-52379172D01*
X178790609Y-52379185D01*
X178878210Y-52510288D01*
X178878213Y-52510292D01*
X178989707Y-52621786D01*
X178989711Y-52621789D01*
X179120814Y-52709390D01*
X179120827Y-52709397D01*
X179266498Y-52769735D01*
X179266503Y-52769737D01*
X179421153Y-52800499D01*
X179421156Y-52800500D01*
X179421158Y-52800500D01*
X179578844Y-52800500D01*
X179578845Y-52800499D01*
X179733497Y-52769737D01*
X179879179Y-52709394D01*
X180010289Y-52621789D01*
X180121789Y-52510289D01*
X180209394Y-52379179D01*
X180233572Y-52320808D01*
X180251698Y-52277048D01*
X180295538Y-52222644D01*
X180361833Y-52200579D01*
X180366259Y-52200500D01*
X191799782Y-52200500D01*
X191866821Y-52220185D01*
X191905319Y-52259401D01*
X191957288Y-52343656D01*
X192081344Y-52467712D01*
X192230666Y-52559814D01*
X192397203Y-52614999D01*
X192499991Y-52625500D01*
X193500008Y-52625499D01*
X193500016Y-52625498D01*
X193500019Y-52625498D01*
X193564745Y-52618886D01*
X193602797Y-52614999D01*
X193769334Y-52559814D01*
X193918656Y-52467712D01*
X194042712Y-52343656D01*
X194134814Y-52194334D01*
X194189999Y-52027797D01*
X194200500Y-51925009D01*
X194200499Y-51174992D01*
X194195866Y-51129642D01*
X194189999Y-51072203D01*
X194189998Y-51072200D01*
X194180893Y-51044723D01*
X194134814Y-50905666D01*
X194042712Y-50756344D01*
X193918656Y-50632288D01*
X193915819Y-50630538D01*
X193914283Y-50628830D01*
X193912989Y-50627807D01*
X193913163Y-50627585D01*
X193869096Y-50578594D01*
X193857872Y-50509632D01*
X193885713Y-50445549D01*
X193915817Y-50419462D01*
X193918656Y-50417712D01*
X194042712Y-50293656D01*
X194134814Y-50144334D01*
X194189999Y-49977797D01*
X194200500Y-49875009D01*
X194200499Y-49124992D01*
X194196782Y-49088609D01*
X194189999Y-49022203D01*
X194189998Y-49022200D01*
X194189182Y-49019737D01*
X194134814Y-48855666D01*
X194042712Y-48706344D01*
X193936549Y-48600181D01*
X193903064Y-48538858D01*
X193908048Y-48469166D01*
X193936549Y-48424819D01*
X193985868Y-48375500D01*
X194042712Y-48318656D01*
X194134814Y-48169334D01*
X194189999Y-48002797D01*
X194200500Y-47900009D01*
X194200499Y-47149992D01*
X194198492Y-47130348D01*
X194189999Y-47047203D01*
X194189998Y-47047200D01*
X194166499Y-46976286D01*
X194134814Y-46880666D01*
X194042712Y-46731344D01*
X193918656Y-46607288D01*
X193915819Y-46605538D01*
X193914283Y-46603830D01*
X193912989Y-46602807D01*
X193913163Y-46602585D01*
X193869096Y-46553594D01*
X193857872Y-46484632D01*
X193885713Y-46420549D01*
X193915817Y-46394462D01*
X193918656Y-46392712D01*
X194042712Y-46268656D01*
X194134814Y-46119334D01*
X194189999Y-45952797D01*
X194200500Y-45850009D01*
X194200499Y-45099992D01*
X194189999Y-44997203D01*
X194184389Y-44980272D01*
X194156794Y-44896996D01*
X194150500Y-44857992D01*
X194150500Y-43837180D01*
X194170185Y-43770141D01*
X194200187Y-43737914D01*
X194307546Y-43657546D01*
X194393796Y-43542331D01*
X194444091Y-43407483D01*
X194450500Y-43347873D01*
X194450499Y-42452128D01*
X194444091Y-42392517D01*
X194393796Y-42257669D01*
X194393795Y-42257668D01*
X194393793Y-42257664D01*
X194307547Y-42142455D01*
X194307544Y-42142452D01*
X194185231Y-42050888D01*
X194186930Y-42048617D01*
X194147743Y-42009435D01*
X194132886Y-41941163D01*
X194157298Y-41875697D01*
X194186311Y-41850556D01*
X194185231Y-41849112D01*
X194292705Y-41768656D01*
X194307546Y-41757546D01*
X194393796Y-41642331D01*
X194444091Y-41507483D01*
X194450500Y-41447873D01*
X194450499Y-40552128D01*
X194444091Y-40492517D01*
X194438830Y-40478412D01*
X194393797Y-40357671D01*
X194393793Y-40357664D01*
X194307547Y-40242455D01*
X194300253Y-40236995D01*
X194281913Y-40223265D01*
X194240044Y-40167332D01*
X194235060Y-40097640D01*
X194268546Y-40036318D01*
X194329869Y-40002833D01*
X194356226Y-40000000D01*
X194393054Y-40000000D01*
X194481443Y-39989386D01*
X194622095Y-39933920D01*
X194742564Y-39842564D01*
X194833920Y-39722095D01*
X194889386Y-39581443D01*
X194900000Y-39493053D01*
X194900000Y-39350000D01*
X194149000Y-39350000D01*
X194081961Y-39330315D01*
X194036206Y-39277511D01*
X194025000Y-39226000D01*
X194025000Y-39000000D01*
X193799000Y-39000000D01*
X193731961Y-38980315D01*
X193686206Y-38927511D01*
X193675000Y-38876000D01*
X193675000Y-38650000D01*
X194375000Y-38650000D01*
X194900000Y-38650000D01*
X194900000Y-38506946D01*
X194889386Y-38418556D01*
X194833920Y-38277904D01*
X194742564Y-38157435D01*
X194622095Y-38066079D01*
X194481443Y-38010613D01*
X194393054Y-38000000D01*
X194375000Y-38000000D01*
X194375000Y-38650000D01*
X193675000Y-38650000D01*
X193675000Y-38013527D01*
X193623621Y-37977879D01*
X193603006Y-37952314D01*
X193581514Y-37927511D01*
X193581190Y-37925260D01*
X193579763Y-37923490D01*
X193576243Y-37890854D01*
X193571570Y-37858353D01*
X193572514Y-37856284D01*
X193572271Y-37854023D01*
X193586957Y-37824658D01*
X193600595Y-37794797D01*
X193603399Y-37791785D01*
X193603525Y-37791534D01*
X193603767Y-37791390D01*
X193606627Y-37788319D01*
X194005273Y-37389673D01*
X194005273Y-37389672D01*
X194005277Y-37389669D01*
X194076465Y-37283127D01*
X194078982Y-37277049D01*
X194122819Y-37222646D01*
X194189113Y-37200578D01*
X194193544Y-37200499D01*
X194400002Y-37200499D01*
X194400008Y-37200499D01*
X194502797Y-37189999D01*
X194669334Y-37134814D01*
X194818656Y-37042712D01*
X194942712Y-36918656D01*
X195034814Y-36769334D01*
X195089999Y-36602797D01*
X195100500Y-36500009D01*
X195100499Y-35499992D01*
X195089999Y-35397203D01*
X195034814Y-35230666D01*
X194942712Y-35081344D01*
X194818656Y-34957288D01*
X194669334Y-34865186D01*
X194502797Y-34810001D01*
X194502795Y-34810000D01*
X194400010Y-34799500D01*
X193649998Y-34799500D01*
X193649980Y-34799501D01*
X193547203Y-34810000D01*
X193547200Y-34810001D01*
X193380668Y-34865185D01*
X193380663Y-34865187D01*
X193231342Y-34957289D01*
X193107285Y-35081346D01*
X193105537Y-35084182D01*
X193103829Y-35085717D01*
X193102807Y-35087011D01*
X193102585Y-35086836D01*
X193053589Y-35130905D01*
X192984626Y-35142126D01*
X192920544Y-35114282D01*
X192894463Y-35084182D01*
X192892714Y-35081346D01*
X192768657Y-34957289D01*
X192768656Y-34957288D01*
X192619334Y-34865186D01*
X192452797Y-34810001D01*
X192452795Y-34810000D01*
X192350016Y-34799500D01*
X192350009Y-34799500D01*
X191695808Y-34799500D01*
X191628769Y-34779815D01*
X191608127Y-34763181D01*
X191056627Y-34211681D01*
X191023142Y-34150358D01*
X191028126Y-34080666D01*
X191069998Y-34024733D01*
X191135462Y-34000316D01*
X191144308Y-34000000D01*
X195375500Y-34000000D01*
X195442539Y-34019685D01*
X195488294Y-34072489D01*
X195499500Y-34124000D01*
X195499500Y-74625500D01*
X195479815Y-74692539D01*
X195427011Y-74738294D01*
X195375500Y-74749500D01*
X134124500Y-74749500D01*
X134057461Y-74729815D01*
X134011706Y-74677011D01*
X134000500Y-74625500D01*
X134000500Y-35420205D01*
X152930000Y-35420205D01*
X152930000Y-35565000D01*
X153630000Y-35565000D01*
X154330000Y-35565000D01*
X155029999Y-35565000D01*
X155029999Y-35420205D01*
X170430000Y-35420205D01*
X170430000Y-35565000D01*
X171130000Y-35565000D01*
X171130000Y-35165000D01*
X170685214Y-35165000D01*
X170685191Y-35165002D01*
X170660130Y-35167908D01*
X170660126Y-35167909D01*
X170557525Y-35213211D01*
X170557520Y-35213214D01*
X170478214Y-35292520D01*
X170478211Y-35292525D01*
X170432910Y-35395122D01*
X170432910Y-35395124D01*
X170430000Y-35420205D01*
X155029999Y-35420205D01*
X155029999Y-35420202D01*
X155027091Y-35395130D01*
X155027090Y-35395126D01*
X154981788Y-35292525D01*
X154981785Y-35292520D01*
X154902479Y-35213214D01*
X154902474Y-35213211D01*
X154799876Y-35167910D01*
X154774794Y-35165000D01*
X154330000Y-35165000D01*
X154330000Y-35565000D01*
X153630000Y-35565000D01*
X153630000Y-35165000D01*
X153185214Y-35165000D01*
X153185191Y-35165002D01*
X153160130Y-35167908D01*
X153160126Y-35167909D01*
X153057525Y-35213211D01*
X153057520Y-35213214D01*
X152978214Y-35292520D01*
X152978211Y-35292525D01*
X152932910Y-35395122D01*
X152932910Y-35395124D01*
X152930000Y-35420205D01*
X134000500Y-35420205D01*
X134000500Y-34124000D01*
X134020185Y-34056961D01*
X134072989Y-34011206D01*
X134124500Y-34000000D01*
X174280692Y-34000000D01*
X174347731Y-34019685D01*
G37*
%TD.AperFunction*%
%TA.AperFunction,Conductor*%
G36*
X168770740Y-50530951D02*
G01*
X168826673Y-50572823D01*
X168851090Y-50638287D01*
X168849556Y-50662812D01*
X168850097Y-50662866D01*
X168849500Y-50668928D01*
X168849500Y-52145500D01*
X168829815Y-52212539D01*
X168777011Y-52258294D01*
X168725500Y-52269500D01*
X167947129Y-52269500D01*
X167947123Y-52269501D01*
X167887518Y-52275908D01*
X167853331Y-52288659D01*
X167783639Y-52293642D01*
X167766669Y-52288659D01*
X167732480Y-52275908D01*
X167732482Y-52275908D01*
X167672883Y-52269501D01*
X167672881Y-52269500D01*
X167672873Y-52269500D01*
X167672864Y-52269500D01*
X166677129Y-52269500D01*
X166677123Y-52269501D01*
X166617518Y-52275908D01*
X166583331Y-52288659D01*
X166513639Y-52293642D01*
X166496669Y-52288659D01*
X166462480Y-52275908D01*
X166462482Y-52275908D01*
X166402883Y-52269501D01*
X166402881Y-52269500D01*
X166402873Y-52269500D01*
X166402864Y-52269500D01*
X165407129Y-52269500D01*
X165407123Y-52269501D01*
X165347518Y-52275908D01*
X165313331Y-52288659D01*
X165243639Y-52293642D01*
X165226669Y-52288659D01*
X165192480Y-52275908D01*
X165192482Y-52275908D01*
X165132883Y-52269501D01*
X165132881Y-52269500D01*
X165132873Y-52269500D01*
X165132864Y-52269500D01*
X164137129Y-52269500D01*
X164137123Y-52269501D01*
X164077518Y-52275908D01*
X164043331Y-52288659D01*
X163973639Y-52293642D01*
X163956669Y-52288659D01*
X163922480Y-52275908D01*
X163922482Y-52275908D01*
X163862883Y-52269501D01*
X163862881Y-52269500D01*
X163862873Y-52269500D01*
X163862864Y-52269500D01*
X162867129Y-52269500D01*
X162867123Y-52269501D01*
X162807518Y-52275908D01*
X162773331Y-52288659D01*
X162703639Y-52293642D01*
X162686669Y-52288659D01*
X162652480Y-52275908D01*
X162652482Y-52275908D01*
X162592883Y-52269501D01*
X162592881Y-52269500D01*
X162592873Y-52269500D01*
X162592864Y-52269500D01*
X161597129Y-52269500D01*
X161597123Y-52269501D01*
X161537518Y-52275908D01*
X161503331Y-52288659D01*
X161433639Y-52293642D01*
X161416669Y-52288659D01*
X161382480Y-52275908D01*
X161382482Y-52275908D01*
X161322883Y-52269501D01*
X161322881Y-52269500D01*
X161322873Y-52269500D01*
X161322864Y-52269500D01*
X160327129Y-52269500D01*
X160327123Y-52269501D01*
X160267518Y-52275908D01*
X160233331Y-52288659D01*
X160163639Y-52293642D01*
X160146669Y-52288659D01*
X160112480Y-52275908D01*
X160112482Y-52275908D01*
X160052883Y-52269501D01*
X160052881Y-52269500D01*
X160052873Y-52269500D01*
X160052864Y-52269500D01*
X159057129Y-52269500D01*
X159057123Y-52269501D01*
X158997518Y-52275908D01*
X158963331Y-52288659D01*
X158893639Y-52293642D01*
X158876669Y-52288659D01*
X158842480Y-52275908D01*
X158842482Y-52275908D01*
X158782883Y-52269501D01*
X158782881Y-52269500D01*
X158782873Y-52269500D01*
X158782864Y-52269500D01*
X157787129Y-52269500D01*
X157787123Y-52269501D01*
X157727516Y-52275908D01*
X157592671Y-52326202D01*
X157592664Y-52326206D01*
X157477455Y-52412452D01*
X157477454Y-52412454D01*
X157471570Y-52420312D01*
X157415638Y-52462182D01*
X157372306Y-52470000D01*
X157365000Y-52470000D01*
X157365000Y-52575553D01*
X157357182Y-52618886D01*
X157340908Y-52662517D01*
X157334501Y-52722116D01*
X157334500Y-52722127D01*
X157334500Y-53517554D01*
X157334501Y-53520000D01*
X157334501Y-54317876D01*
X157340908Y-54377481D01*
X157357182Y-54421112D01*
X157365000Y-54464446D01*
X157365000Y-54569999D01*
X157372305Y-54569999D01*
X157439344Y-54589684D01*
X157471572Y-54619689D01*
X157477454Y-54627546D01*
X157477457Y-54627548D01*
X157592664Y-54713793D01*
X157592671Y-54713797D01*
X157727517Y-54764091D01*
X157727516Y-54764091D01*
X157734444Y-54764835D01*
X157787127Y-54770500D01*
X158782872Y-54770499D01*
X158842483Y-54764091D01*
X158876667Y-54751340D01*
X158946358Y-54746357D01*
X158963327Y-54751338D01*
X158997517Y-54764091D01*
X159057127Y-54770500D01*
X160052872Y-54770499D01*
X160112483Y-54764091D01*
X160146667Y-54751340D01*
X160216358Y-54746357D01*
X160233327Y-54751338D01*
X160267517Y-54764091D01*
X160327127Y-54770500D01*
X161322872Y-54770499D01*
X161382483Y-54764091D01*
X161416667Y-54751340D01*
X161486358Y-54746357D01*
X161503327Y-54751338D01*
X161537517Y-54764091D01*
X161597127Y-54770500D01*
X162592872Y-54770499D01*
X162652483Y-54764091D01*
X162686667Y-54751340D01*
X162756358Y-54746357D01*
X162773327Y-54751338D01*
X162807517Y-54764091D01*
X162867127Y-54770500D01*
X163862872Y-54770499D01*
X163922483Y-54764091D01*
X163956667Y-54751340D01*
X164026358Y-54746357D01*
X164043327Y-54751338D01*
X164077517Y-54764091D01*
X164137127Y-54770500D01*
X165132872Y-54770499D01*
X165192483Y-54764091D01*
X165226667Y-54751340D01*
X165296358Y-54746357D01*
X165313327Y-54751338D01*
X165347517Y-54764091D01*
X165407127Y-54770500D01*
X166402872Y-54770499D01*
X166462483Y-54764091D01*
X166496667Y-54751340D01*
X166566358Y-54746357D01*
X166583327Y-54751338D01*
X166617517Y-54764091D01*
X166677127Y-54770500D01*
X167672872Y-54770499D01*
X167732483Y-54764091D01*
X167766667Y-54751340D01*
X167836358Y-54746357D01*
X167853327Y-54751338D01*
X167887517Y-54764091D01*
X167947127Y-54770500D01*
X168725500Y-54770499D01*
X168792539Y-54790183D01*
X168838294Y-54842987D01*
X168849500Y-54894499D01*
X168849500Y-55179192D01*
X168829815Y-55246231D01*
X168813181Y-55266873D01*
X165766873Y-58313181D01*
X165705550Y-58346666D01*
X165679192Y-58349500D01*
X164935929Y-58349500D01*
X164810261Y-58374497D01*
X164810251Y-58374500D01*
X164761220Y-58394810D01*
X164691881Y-58423530D01*
X164691863Y-58423540D01*
X164585332Y-58494721D01*
X164585325Y-58494727D01*
X163494726Y-59585326D01*
X163479414Y-59608243D01*
X163428960Y-59683755D01*
X163428959Y-59683756D01*
X163428958Y-59683755D01*
X163423535Y-59691872D01*
X163423534Y-59691874D01*
X163374499Y-59810255D01*
X163374497Y-59810261D01*
X163349500Y-59935928D01*
X163349500Y-63564070D01*
X163351471Y-63573978D01*
X163366693Y-63650500D01*
X163374499Y-63689744D01*
X163423535Y-63808127D01*
X163478433Y-63890289D01*
X163494726Y-63914673D01*
X163494727Y-63914674D01*
X163682984Y-64102930D01*
X163716469Y-64164253D01*
X163716920Y-64166420D01*
X163730261Y-64233489D01*
X163730264Y-64233501D01*
X163790602Y-64379172D01*
X163790609Y-64379185D01*
X163878210Y-64510288D01*
X163878213Y-64510292D01*
X163989707Y-64621786D01*
X163989711Y-64621789D01*
X164120814Y-64709390D01*
X164120827Y-64709397D01*
X164261624Y-64767716D01*
X164266503Y-64769737D01*
X164416131Y-64799500D01*
X164421153Y-64800499D01*
X164421156Y-64800500D01*
X164421158Y-64800500D01*
X164578844Y-64800500D01*
X164578845Y-64800499D01*
X164733497Y-64769737D01*
X164879179Y-64709394D01*
X165010289Y-64621789D01*
X165121789Y-64510289D01*
X165209394Y-64379179D01*
X165269737Y-64233497D01*
X165300500Y-64078842D01*
X165300500Y-63921158D01*
X165300500Y-63921155D01*
X165300499Y-63921153D01*
X165293363Y-63885277D01*
X165269737Y-63766503D01*
X165264282Y-63753334D01*
X165209397Y-63620827D01*
X165209390Y-63620814D01*
X165121789Y-63489711D01*
X165121786Y-63489707D01*
X165010292Y-63378213D01*
X165010288Y-63378210D01*
X164879185Y-63290609D01*
X164879172Y-63290602D01*
X164727870Y-63227932D01*
X164728879Y-63225494D01*
X164680008Y-63193416D01*
X164651598Y-63129583D01*
X164650500Y-63113121D01*
X164650500Y-61578269D01*
X164670185Y-61511230D01*
X164722989Y-61465475D01*
X164792147Y-61455531D01*
X164855703Y-61484556D01*
X164874292Y-61505626D01*
X164874347Y-61505581D01*
X164875609Y-61507119D01*
X164877603Y-61509379D01*
X164878212Y-61510291D01*
X164989707Y-61621786D01*
X164989711Y-61621789D01*
X165120814Y-61709390D01*
X165120827Y-61709397D01*
X165208230Y-61745599D01*
X165266503Y-61769737D01*
X165333580Y-61783079D01*
X165395488Y-61815461D01*
X165397068Y-61817014D01*
X167465324Y-63885271D01*
X167465331Y-63885277D01*
X167571871Y-63956464D01*
X167571870Y-63956464D01*
X167600271Y-63968228D01*
X167690256Y-64005501D01*
X167690260Y-64005501D01*
X167690261Y-64005502D01*
X167815928Y-64030500D01*
X167815931Y-64030500D01*
X168555931Y-64030500D01*
X170995065Y-64030500D01*
X171062104Y-64050185D01*
X171063909Y-64051366D01*
X171120821Y-64089394D01*
X171120823Y-64089395D01*
X171120827Y-64089397D01*
X171266498Y-64149735D01*
X171266503Y-64149737D01*
X171350374Y-64166420D01*
X171421153Y-64180499D01*
X171421156Y-64180500D01*
X171421158Y-64180500D01*
X171578844Y-64180500D01*
X171578845Y-64180499D01*
X171733497Y-64149737D01*
X171879179Y-64089394D01*
X172010289Y-64001789D01*
X172017176Y-63994902D01*
X172037819Y-63974260D01*
X172099142Y-63940775D01*
X172168834Y-63945759D01*
X172224767Y-63987631D01*
X172249184Y-64053095D01*
X172249500Y-64061941D01*
X172249500Y-66926082D01*
X172249500Y-67573918D01*
X172249500Y-67573920D01*
X172249499Y-67573920D01*
X172278340Y-67718907D01*
X172278342Y-67718913D01*
X172286318Y-67738170D01*
X172334917Y-67855497D01*
X172334919Y-67855500D01*
X172338895Y-67861450D01*
X172338898Y-67861462D01*
X172338902Y-67861460D01*
X172398395Y-67950500D01*
X172417051Y-67978420D01*
X172417052Y-67978421D01*
X172663181Y-68224549D01*
X172696666Y-68285872D01*
X172699500Y-68312230D01*
X172699500Y-68625500D01*
X172679815Y-68692539D01*
X172627011Y-68738294D01*
X172575500Y-68749500D01*
X171451076Y-68749500D01*
X171422242Y-68755234D01*
X171422243Y-68755235D01*
X171306093Y-68778339D01*
X171306083Y-68778342D01*
X171226081Y-68811479D01*
X171226082Y-68811480D01*
X171169506Y-68834915D01*
X171169503Y-68834917D01*
X171153594Y-68845547D01*
X171090385Y-68887782D01*
X171090384Y-68887783D01*
X171046586Y-68917046D01*
X171046581Y-68917050D01*
X170700450Y-69263181D01*
X170639127Y-69296666D01*
X170612769Y-69299500D01*
X170149998Y-69299500D01*
X170149980Y-69299501D01*
X170047203Y-69310000D01*
X170047200Y-69310001D01*
X169880668Y-69365185D01*
X169880663Y-69365187D01*
X169731342Y-69457289D01*
X169607285Y-69581346D01*
X169605537Y-69584182D01*
X169603829Y-69585717D01*
X169602807Y-69587011D01*
X169602585Y-69586836D01*
X169553589Y-69630905D01*
X169484626Y-69642126D01*
X169420544Y-69614282D01*
X169394463Y-69584182D01*
X169392714Y-69581346D01*
X169268657Y-69457289D01*
X169268656Y-69457288D01*
X169119334Y-69365186D01*
X168952797Y-69310001D01*
X168952795Y-69310000D01*
X168850010Y-69299500D01*
X168099998Y-69299500D01*
X168099980Y-69299501D01*
X167997203Y-69310000D01*
X167997200Y-69310001D01*
X167830668Y-69365185D01*
X167830663Y-69365187D01*
X167681342Y-69457289D01*
X167557289Y-69581342D01*
X167465187Y-69730663D01*
X167465186Y-69730666D01*
X167410001Y-69897203D01*
X167410001Y-69897204D01*
X167410000Y-69897204D01*
X167399500Y-69999983D01*
X167399500Y-71000001D01*
X167399501Y-71000019D01*
X167410000Y-71102796D01*
X167410001Y-71102799D01*
X167452238Y-71230261D01*
X167465186Y-71269334D01*
X167491135Y-71311405D01*
X167509575Y-71378795D01*
X167488653Y-71445459D01*
X167435011Y-71490229D01*
X167385596Y-71500500D01*
X162471808Y-71500500D01*
X162404769Y-71480815D01*
X162384127Y-71464181D01*
X161886818Y-70966872D01*
X161853333Y-70905549D01*
X161850499Y-70879200D01*
X161850499Y-69102128D01*
X161844091Y-69042517D01*
X161833827Y-69014999D01*
X161793797Y-68907671D01*
X161793793Y-68907664D01*
X161707547Y-68792455D01*
X161707544Y-68792452D01*
X161592335Y-68706206D01*
X161592332Y-68706205D01*
X161592331Y-68706204D01*
X161581161Y-68702038D01*
X161525231Y-68660166D01*
X161500816Y-68594701D01*
X161500500Y-68585858D01*
X161500500Y-66613428D01*
X169030000Y-66613428D01*
X169030000Y-66786571D01*
X169057086Y-66957585D01*
X169057086Y-66957588D01*
X169110588Y-67122250D01*
X169110590Y-67122253D01*
X169145080Y-67189944D01*
X169535501Y-66799523D01*
X169570889Y-66931591D01*
X169649881Y-67068408D01*
X169761592Y-67180119D01*
X169898409Y-67259111D01*
X170030475Y-67294498D01*
X169640054Y-67684919D01*
X169707742Y-67719408D01*
X169872415Y-67772914D01*
X170043429Y-67800000D01*
X170216571Y-67800000D01*
X170387584Y-67772914D01*
X170552254Y-67719408D01*
X170552258Y-67719407D01*
X170619944Y-67684918D01*
X170229524Y-67294497D01*
X170361591Y-67259111D01*
X170498408Y-67180119D01*
X170610119Y-67068408D01*
X170689111Y-66931591D01*
X170724498Y-66799524D01*
X171114918Y-67189944D01*
X171149407Y-67122258D01*
X171149408Y-67122254D01*
X171202914Y-66957584D01*
X171230000Y-66786571D01*
X171230000Y-66613428D01*
X171202914Y-66442415D01*
X171149408Y-66277742D01*
X171114918Y-66210054D01*
X170724498Y-66600475D01*
X170689111Y-66468409D01*
X170610119Y-66331592D01*
X170498408Y-66219881D01*
X170361591Y-66140889D01*
X170229523Y-66105501D01*
X170619944Y-65715080D01*
X170619944Y-65715079D01*
X170552253Y-65680590D01*
X170552250Y-65680588D01*
X170387586Y-65627086D01*
X170216571Y-65600000D01*
X170043429Y-65600000D01*
X169872414Y-65627086D01*
X169872411Y-65627086D01*
X169707748Y-65680589D01*
X169707747Y-65680589D01*
X169640054Y-65715079D01*
X170030476Y-66105501D01*
X169898409Y-66140889D01*
X169761592Y-66219881D01*
X169649881Y-66331592D01*
X169570889Y-66468409D01*
X169535501Y-66600476D01*
X169145079Y-66210054D01*
X169110589Y-66277747D01*
X169110589Y-66277748D01*
X169057086Y-66442411D01*
X169057086Y-66442414D01*
X169030000Y-66613428D01*
X161500500Y-66613428D01*
X161500500Y-59901456D01*
X161469596Y-59746096D01*
X161467949Y-59737815D01*
X161462051Y-59708164D01*
X161430206Y-59631284D01*
X161386632Y-59526086D01*
X161372725Y-59505272D01*
X161277139Y-59362217D01*
X161134686Y-59219764D01*
X161134655Y-59219735D01*
X158931479Y-57016559D01*
X158931459Y-57016537D01*
X158787785Y-56872863D01*
X158787781Y-56872860D01*
X158623920Y-56763371D01*
X158623907Y-56763364D01*
X158480153Y-56703820D01*
X158480148Y-56703818D01*
X158472136Y-56700500D01*
X158441836Y-56687949D01*
X158345188Y-56668724D01*
X158341755Y-56668041D01*
X158341739Y-56668037D01*
X158248544Y-56649500D01*
X158248541Y-56649500D01*
X155935762Y-56649500D01*
X155868723Y-56629815D01*
X155862877Y-56625818D01*
X155840319Y-56609429D01*
X155792444Y-56574646D01*
X155741613Y-56537715D01*
X155741612Y-56537714D01*
X155741610Y-56537713D01*
X155660229Y-56496247D01*
X155559223Y-56444781D01*
X155364534Y-56381522D01*
X155189995Y-56353878D01*
X155162352Y-56349500D01*
X154957648Y-56349500D01*
X154933329Y-56353351D01*
X154755465Y-56381522D01*
X154560776Y-56444781D01*
X154378390Y-56537712D01*
X154297385Y-56596566D01*
X154285524Y-56600797D01*
X154276011Y-56609041D01*
X154253245Y-56612314D01*
X154231578Y-56620045D01*
X154219314Y-56617193D01*
X154206853Y-56618985D01*
X154185928Y-56609429D01*
X154163524Y-56604219D01*
X154154749Y-56595190D01*
X154143297Y-56589960D01*
X154130860Y-56570608D01*
X154114830Y-56554113D01*
X154111426Y-56540367D01*
X154105523Y-56531182D01*
X154100500Y-56496247D01*
X154100500Y-56300096D01*
X154120185Y-56233057D01*
X154136814Y-56212420D01*
X155858506Y-54490727D01*
X155858511Y-54490724D01*
X155868714Y-54480520D01*
X155868716Y-54480520D01*
X155980520Y-54368716D01*
X156035238Y-54273940D01*
X156085801Y-54225729D01*
X156154408Y-54212505D01*
X156219273Y-54238473D01*
X156259802Y-54295387D01*
X156265796Y-54321655D01*
X156267909Y-54339870D01*
X156267909Y-54339873D01*
X156313211Y-54442474D01*
X156313214Y-54442479D01*
X156392520Y-54521785D01*
X156392525Y-54521788D01*
X156495123Y-54567089D01*
X156520206Y-54569999D01*
X156664999Y-54569999D01*
X156665000Y-54569998D01*
X156665000Y-52470000D01*
X156520214Y-52470000D01*
X156520191Y-52470002D01*
X156495130Y-52472908D01*
X156495126Y-52472909D01*
X156392525Y-52518211D01*
X156392520Y-52518214D01*
X156312181Y-52598554D01*
X156250858Y-52632039D01*
X156181166Y-52627055D01*
X156125233Y-52585183D01*
X156100816Y-52519719D01*
X156100500Y-52510873D01*
X156100500Y-51800097D01*
X156120185Y-51733058D01*
X156136819Y-51712416D01*
X156613416Y-51235819D01*
X156674739Y-51202334D01*
X156701097Y-51199500D01*
X167664274Y-51199500D01*
X167664290Y-51199501D01*
X167671886Y-51199501D01*
X167829997Y-51199501D01*
X167830000Y-51199501D01*
X167982728Y-51158577D01*
X168032847Y-51129639D01*
X168119659Y-51079520D01*
X168231463Y-50967716D01*
X168231463Y-50967714D01*
X168241671Y-50957507D01*
X168241672Y-50957504D01*
X168639725Y-50559451D01*
X168701048Y-50525967D01*
X168770740Y-50530951D01*
G37*
%TD.AperFunction*%
%TA.AperFunction,Conductor*%
G36*
X159418834Y-62532914D02*
G01*
X159474767Y-62574786D01*
X159499184Y-62640250D01*
X159499500Y-62649096D01*
X159499500Y-68585858D01*
X159479815Y-68652897D01*
X159427011Y-68698652D01*
X159418847Y-68702034D01*
X159407669Y-68706204D01*
X159407664Y-68706206D01*
X159292455Y-68792452D01*
X159292452Y-68792455D01*
X159206206Y-68907664D01*
X159206202Y-68907671D01*
X159200682Y-68922473D01*
X159158811Y-68978407D01*
X159093346Y-69002824D01*
X159025073Y-68987972D01*
X158975668Y-68938567D01*
X158960500Y-68879140D01*
X158960500Y-67861456D01*
X158960499Y-67861450D01*
X158935976Y-67738170D01*
X158934667Y-67731588D01*
X158922051Y-67668164D01*
X158890717Y-67592517D01*
X158883013Y-67573918D01*
X158846635Y-67486092D01*
X158846628Y-67486079D01*
X158742946Y-67330909D01*
X158742943Y-67330905D01*
X158738665Y-67324501D01*
X158737140Y-67322219D01*
X158737139Y-67322218D01*
X158737137Y-67322215D01*
X157434209Y-66019289D01*
X157434206Y-66019285D01*
X157434206Y-66019286D01*
X157427139Y-66012219D01*
X157427139Y-66012218D01*
X157287782Y-65872861D01*
X157287781Y-65872860D01*
X157287780Y-65872859D01*
X157123920Y-65763371D01*
X157123907Y-65763364D01*
X156999135Y-65711683D01*
X156999133Y-65711682D01*
X156992097Y-65708768D01*
X156941836Y-65687949D01*
X156845188Y-65668724D01*
X156840699Y-65667831D01*
X156748544Y-65649500D01*
X156748541Y-65649500D01*
X155925762Y-65649500D01*
X155907344Y-65644092D01*
X155888152Y-65643659D01*
X155863626Y-65631254D01*
X155858723Y-65629815D01*
X155856386Y-65628277D01*
X155854622Y-65627086D01*
X155731610Y-65537713D01*
X155693307Y-65518196D01*
X155687004Y-65513942D01*
X155669378Y-65492648D01*
X155649289Y-65473675D01*
X155647417Y-65466117D01*
X155642452Y-65460119D01*
X155639136Y-65432675D01*
X155632494Y-65405853D01*
X155635005Y-65398484D01*
X155634071Y-65390754D01*
X155646117Y-65365877D01*
X155655032Y-65339719D01*
X155663867Y-65329222D01*
X155664523Y-65327869D01*
X155665519Y-65327259D01*
X155668686Y-65323497D01*
X155956368Y-65035816D01*
X156017689Y-65002334D01*
X156044047Y-64999500D01*
X156514331Y-64999500D01*
X156514347Y-64999501D01*
X156521943Y-64999501D01*
X156680054Y-64999501D01*
X156680057Y-64999501D01*
X156832785Y-64958577D01*
X156882904Y-64929639D01*
X156969716Y-64879520D01*
X157081520Y-64767716D01*
X157081520Y-64767714D01*
X157091728Y-64757507D01*
X157091729Y-64757504D01*
X159287821Y-62561413D01*
X159349142Y-62527930D01*
X159418834Y-62532914D01*
G37*
%TD.AperFunction*%
%TA.AperFunction,Conductor*%
G36*
X146692941Y-46745185D02*
G01*
X146738696Y-46797989D01*
X146748640Y-46867147D01*
X146719615Y-46930703D01*
X146713583Y-46937181D01*
X145606291Y-48044472D01*
X145606289Y-48044475D01*
X145589143Y-48074174D01*
X145562212Y-48120821D01*
X145556171Y-48131284D01*
X145556169Y-48131286D01*
X145527235Y-48181399D01*
X145527234Y-48181400D01*
X145517714Y-48216928D01*
X145486309Y-48334133D01*
X145486309Y-48334135D01*
X145486309Y-48502236D01*
X145486310Y-48502249D01*
X145486310Y-57500140D01*
X145486309Y-57500158D01*
X145486309Y-57665864D01*
X145486308Y-57665864D01*
X145527233Y-57818595D01*
X145527235Y-57818599D01*
X145528035Y-57819985D01*
X145528038Y-57819989D01*
X145606287Y-57955522D01*
X145606291Y-57955527D01*
X145725159Y-58074395D01*
X145725165Y-58074400D01*
X146363181Y-58712416D01*
X146396666Y-58773739D01*
X146399500Y-58800097D01*
X146399500Y-59913330D01*
X146399499Y-59913348D01*
X146399499Y-60079054D01*
X146399498Y-60079054D01*
X146403737Y-60094872D01*
X146440015Y-60230264D01*
X146440424Y-60231787D01*
X146458753Y-60263533D01*
X146458754Y-60263535D01*
X146519477Y-60368712D01*
X146519479Y-60368715D01*
X146519480Y-60368716D01*
X146631284Y-60480520D01*
X146631285Y-60480521D01*
X147131284Y-60980520D01*
X147131286Y-60980521D01*
X147131290Y-60980524D01*
X147217175Y-61030109D01*
X147268216Y-61059577D01*
X147420943Y-61100501D01*
X147420945Y-61100501D01*
X147586654Y-61100501D01*
X147586670Y-61100500D01*
X150699903Y-61100500D01*
X150766942Y-61120185D01*
X150787584Y-61136819D01*
X151688584Y-62037819D01*
X151722069Y-62099142D01*
X151717085Y-62168834D01*
X151675213Y-62224767D01*
X151609749Y-62249184D01*
X151600903Y-62249500D01*
X147426080Y-62249500D01*
X147281092Y-62278340D01*
X147281082Y-62278343D01*
X147144511Y-62334912D01*
X147144498Y-62334919D01*
X147021584Y-62417048D01*
X147021580Y-62417051D01*
X145725451Y-63713181D01*
X145698523Y-63727884D01*
X145672705Y-63744477D01*
X145666504Y-63745368D01*
X145664128Y-63746666D01*
X145637770Y-63749500D01*
X145499758Y-63749500D01*
X145432719Y-63729815D01*
X145386964Y-63677011D01*
X145377020Y-63607853D01*
X145406045Y-63544297D01*
X145412077Y-63537819D01*
X145460189Y-63489707D01*
X145530104Y-63419792D01*
X145530106Y-63419788D01*
X145530109Y-63419786D01*
X145648855Y-63256344D01*
X145655051Y-63247816D01*
X145751557Y-63058412D01*
X145817246Y-62856243D01*
X145850500Y-62646287D01*
X145850500Y-62433713D01*
X145817246Y-62223757D01*
X145751557Y-62021588D01*
X145655051Y-61832184D01*
X145655049Y-61832181D01*
X145655048Y-61832179D01*
X145530109Y-61660213D01*
X145379786Y-61509890D01*
X145207820Y-61384951D01*
X145207115Y-61384591D01*
X145199054Y-61380485D01*
X145148259Y-61332512D01*
X145131463Y-61264692D01*
X145153999Y-61198556D01*
X145199054Y-61159515D01*
X145207816Y-61155051D01*
X145283339Y-61100181D01*
X145379786Y-61030109D01*
X145379788Y-61030106D01*
X145379792Y-61030104D01*
X145530104Y-60879792D01*
X145530106Y-60879788D01*
X145530109Y-60879786D01*
X145655048Y-60707820D01*
X145655047Y-60707820D01*
X145655051Y-60707816D01*
X145751557Y-60518412D01*
X145817246Y-60316243D01*
X145850500Y-60106287D01*
X145850500Y-59893713D01*
X145817246Y-59683757D01*
X145751557Y-59481588D01*
X145655051Y-59292184D01*
X145655049Y-59292181D01*
X145655048Y-59292179D01*
X145530109Y-59120213D01*
X145379786Y-58969890D01*
X145207820Y-58844951D01*
X145018414Y-58748444D01*
X145018413Y-58748443D01*
X145018412Y-58748443D01*
X144816243Y-58682754D01*
X144816241Y-58682753D01*
X144816240Y-58682753D01*
X144613882Y-58650703D01*
X144606287Y-58649500D01*
X144393713Y-58649500D01*
X144386118Y-58650703D01*
X144183760Y-58682753D01*
X143981585Y-58748444D01*
X143792179Y-58844951D01*
X143620213Y-58969890D01*
X143469890Y-59120213D01*
X143344949Y-59292182D01*
X143340484Y-59300946D01*
X143292509Y-59351742D01*
X143224688Y-59368536D01*
X143158553Y-59345998D01*
X143119516Y-59300946D01*
X143115050Y-59292182D01*
X142990109Y-59120213D01*
X142839786Y-58969890D01*
X142667820Y-58844951D01*
X142478414Y-58748444D01*
X142478413Y-58748443D01*
X142478412Y-58748443D01*
X142276243Y-58682754D01*
X142276241Y-58682753D01*
X142276240Y-58682753D01*
X142073882Y-58650703D01*
X142066287Y-58649500D01*
X141853713Y-58649500D01*
X141846118Y-58650703D01*
X141643760Y-58682753D01*
X141441585Y-58748444D01*
X141252179Y-58844951D01*
X141080213Y-58969890D01*
X140929890Y-59120213D01*
X140804949Y-59292182D01*
X140800484Y-59300946D01*
X140752509Y-59351742D01*
X140684688Y-59368536D01*
X140618553Y-59345998D01*
X140579516Y-59300946D01*
X140575050Y-59292182D01*
X140450109Y-59120213D01*
X140299786Y-58969890D01*
X140123875Y-58842085D01*
X140124851Y-58840740D01*
X140082834Y-58794295D01*
X140070500Y-58740382D01*
X140070500Y-48900808D01*
X140090185Y-48833769D01*
X140106819Y-48813127D01*
X142158127Y-46761819D01*
X142219450Y-46728334D01*
X142245808Y-46725500D01*
X146625902Y-46725500D01*
X146692941Y-46745185D01*
G37*
%TD.AperFunction*%
%TA.AperFunction,Conductor*%
G36*
X154398658Y-60094529D02*
G01*
X154420943Y-60100501D01*
X154579058Y-60100501D01*
X154579062Y-60100500D01*
X157996561Y-60100500D01*
X158063600Y-60120185D01*
X158109355Y-60172989D01*
X158119299Y-60242147D01*
X158090274Y-60305703D01*
X158065452Y-60327602D01*
X157989711Y-60378210D01*
X157989707Y-60378213D01*
X157878213Y-60489707D01*
X157878210Y-60489711D01*
X157790609Y-60620814D01*
X157790602Y-60620827D01*
X157730264Y-60766498D01*
X157730261Y-60766508D01*
X157716920Y-60833579D01*
X157684535Y-60895490D01*
X157682984Y-60897068D01*
X155263181Y-63316872D01*
X155201858Y-63350357D01*
X155132166Y-63345373D01*
X155076233Y-63303501D01*
X155051816Y-63238037D01*
X155051500Y-63229191D01*
X155051500Y-61402249D01*
X155051501Y-61402236D01*
X155051501Y-61234135D01*
X155051501Y-61234133D01*
X155010577Y-61081405D01*
X154963866Y-61000500D01*
X154931520Y-60944474D01*
X154819716Y-60832670D01*
X154819715Y-60832669D01*
X154815385Y-60828339D01*
X154815374Y-60828329D01*
X154292744Y-60305699D01*
X154281228Y-60284609D01*
X154266068Y-60265961D01*
X154264785Y-60254497D01*
X154259259Y-60244376D01*
X154260973Y-60220407D01*
X154258302Y-60196524D01*
X154263420Y-60186188D01*
X154264243Y-60174684D01*
X154278644Y-60155445D01*
X154289309Y-60133912D01*
X154299202Y-60127984D01*
X154306115Y-60118751D01*
X154328629Y-60110353D01*
X154349245Y-60098002D01*
X154367098Y-60096005D01*
X154371579Y-60094334D01*
X154377221Y-60094872D01*
X154384320Y-60094079D01*
X154398658Y-60094529D01*
G37*
%TD.AperFunction*%
%TA.AperFunction,Conductor*%
G36*
X168622236Y-57400221D02*
G01*
X168678170Y-57442092D01*
X168702587Y-57507557D01*
X168701377Y-57535797D01*
X168699500Y-57547650D01*
X168699500Y-57752351D01*
X168731522Y-57954534D01*
X168794781Y-58149223D01*
X168887715Y-58331613D01*
X169008028Y-58497213D01*
X169008034Y-58497219D01*
X169152781Y-58641966D01*
X169198384Y-58675098D01*
X169241050Y-58730425D01*
X169249500Y-58775416D01*
X169249500Y-59073918D01*
X169249500Y-59073920D01*
X169249499Y-59073920D01*
X169278340Y-59218907D01*
X169278343Y-59218917D01*
X169334912Y-59355488D01*
X169334920Y-59355503D01*
X169366798Y-59403210D01*
X169366800Y-59403213D01*
X169417043Y-59478410D01*
X169417047Y-59478415D01*
X169417048Y-59478416D01*
X170823068Y-60884436D01*
X172213181Y-62274548D01*
X172246666Y-62335871D01*
X172249500Y-62362229D01*
X172249500Y-62698059D01*
X172229815Y-62765098D01*
X172177011Y-62810853D01*
X172107853Y-62820797D01*
X172044297Y-62791772D01*
X172037819Y-62785740D01*
X172010292Y-62758213D01*
X172010288Y-62758210D01*
X171879185Y-62670609D01*
X171879172Y-62670602D01*
X171733501Y-62610264D01*
X171733489Y-62610261D01*
X171578845Y-62579500D01*
X171578842Y-62579500D01*
X171421158Y-62579500D01*
X171421155Y-62579500D01*
X171266510Y-62610261D01*
X171266498Y-62610264D01*
X171120827Y-62670602D01*
X171120820Y-62670606D01*
X171091928Y-62689911D01*
X171063955Y-62708602D01*
X170997279Y-62729480D01*
X170995065Y-62729500D01*
X168200808Y-62729500D01*
X168133769Y-62709815D01*
X168113127Y-62693181D01*
X166317015Y-60897069D01*
X166283530Y-60835746D01*
X166283093Y-60833652D01*
X166269737Y-60766503D01*
X166241800Y-60699056D01*
X166209397Y-60620827D01*
X166209390Y-60620814D01*
X166121789Y-60489711D01*
X166121786Y-60489707D01*
X166010292Y-60378213D01*
X166010288Y-60378210D01*
X165879185Y-60290609D01*
X165879172Y-60290602D01*
X165733501Y-60230264D01*
X165733489Y-60230261D01*
X165578845Y-60199500D01*
X165578842Y-60199500D01*
X165421158Y-60199500D01*
X165421155Y-60199500D01*
X165266510Y-60230261D01*
X165266498Y-60230264D01*
X165120827Y-60290602D01*
X165120814Y-60290609D01*
X164989711Y-60378210D01*
X164989707Y-60378213D01*
X164878213Y-60489707D01*
X164878206Y-60489716D01*
X164877597Y-60490628D01*
X164877155Y-60490997D01*
X164874347Y-60494419D01*
X164873697Y-60493886D01*
X164823982Y-60535429D01*
X164754656Y-60544132D01*
X164691631Y-60513973D01*
X164654916Y-60454527D01*
X164650500Y-60421730D01*
X164650500Y-60320808D01*
X164670185Y-60253769D01*
X164686819Y-60233127D01*
X165233127Y-59686819D01*
X165294450Y-59653334D01*
X165320808Y-59650500D01*
X166064071Y-59650500D01*
X166154503Y-59632511D01*
X166189744Y-59625501D01*
X166308127Y-59576465D01*
X166319588Y-59568806D01*
X166327247Y-59563690D01*
X166385396Y-59524835D01*
X166414669Y-59505277D01*
X168491224Y-57428720D01*
X168552545Y-57395237D01*
X168622236Y-57400221D01*
G37*
%TD.AperFunction*%
%TA.AperFunction,Conductor*%
G36*
X150702941Y-47965185D02*
G01*
X150748696Y-48017989D01*
X150758640Y-48087147D01*
X150729615Y-48150703D01*
X150723583Y-48157181D01*
X150267584Y-48613181D01*
X150206261Y-48646666D01*
X150179903Y-48649500D01*
X149329766Y-48649500D01*
X149262727Y-48629815D01*
X149260875Y-48628602D01*
X149129185Y-48540609D01*
X149129172Y-48540602D01*
X148983501Y-48480264D01*
X148983489Y-48480261D01*
X148828845Y-48449500D01*
X148828842Y-48449500D01*
X148671158Y-48449500D01*
X148671155Y-48449500D01*
X148516510Y-48480261D01*
X148516498Y-48480264D01*
X148370827Y-48540602D01*
X148370814Y-48540609D01*
X148239711Y-48628210D01*
X148239707Y-48628213D01*
X148128213Y-48739707D01*
X148128210Y-48739711D01*
X148040609Y-48870814D01*
X148040602Y-48870827D01*
X147980264Y-49016498D01*
X147980261Y-49016510D01*
X147949500Y-49171153D01*
X147949500Y-49328846D01*
X147980261Y-49483489D01*
X147980264Y-49483501D01*
X148040602Y-49629172D01*
X148040609Y-49629185D01*
X148128210Y-49760288D01*
X148128213Y-49760292D01*
X148239707Y-49871786D01*
X148239711Y-49871789D01*
X148370814Y-49959390D01*
X148370827Y-49959397D01*
X148516498Y-50019735D01*
X148516503Y-50019737D01*
X148671153Y-50050499D01*
X148671156Y-50050500D01*
X148671158Y-50050500D01*
X148828844Y-50050500D01*
X148828845Y-50050499D01*
X148983497Y-50019737D01*
X149129179Y-49959394D01*
X149129185Y-49959390D01*
X149260875Y-49871398D01*
X149327553Y-49850520D01*
X149329766Y-49850500D01*
X150393331Y-49850500D01*
X150393347Y-49850501D01*
X150400943Y-49850501D01*
X150559054Y-49850501D01*
X150559057Y-49850501D01*
X150711785Y-49809577D01*
X150726542Y-49801056D01*
X150766234Y-49778141D01*
X150766245Y-49778133D01*
X150766257Y-49778127D01*
X150848716Y-49730520D01*
X150960520Y-49618716D01*
X150960520Y-49618714D01*
X150970721Y-49608514D01*
X150970724Y-49608509D01*
X151327418Y-49251817D01*
X151388740Y-49218334D01*
X151415098Y-49215500D01*
X152609906Y-49215500D01*
X152676945Y-49235185D01*
X152722700Y-49287989D01*
X152733195Y-49352752D01*
X152729500Y-49387127D01*
X152729500Y-49387131D01*
X152729500Y-49387132D01*
X152729500Y-49387135D01*
X152729501Y-50380500D01*
X152709817Y-50447539D01*
X152657013Y-50493294D01*
X152605501Y-50504500D01*
X150280929Y-50504500D01*
X150155261Y-50529497D01*
X150155255Y-50529499D01*
X150036870Y-50578535D01*
X149930331Y-50649722D01*
X149930324Y-50649728D01*
X148994725Y-51585328D01*
X148994724Y-51585329D01*
X148949595Y-51652872D01*
X148949593Y-51652874D01*
X148923539Y-51691864D01*
X148923533Y-51691875D01*
X148874499Y-51810255D01*
X148874497Y-51810261D01*
X148849500Y-51935928D01*
X148849500Y-57064069D01*
X148857899Y-57106290D01*
X148857899Y-57106293D01*
X148874497Y-57189736D01*
X148874499Y-57189744D01*
X148914664Y-57286712D01*
X148923535Y-57308127D01*
X148985255Y-57400499D01*
X148994726Y-57414673D01*
X148994727Y-57414674D01*
X151298914Y-59718860D01*
X151332399Y-59780183D01*
X151327415Y-59849875D01*
X151285543Y-59905808D01*
X151220079Y-59930225D01*
X151179140Y-59926316D01*
X151110360Y-59907886D01*
X151079057Y-59899499D01*
X150920943Y-59899499D01*
X150913347Y-59899499D01*
X150913331Y-59899500D01*
X147800098Y-59899500D01*
X147770657Y-59890855D01*
X147740671Y-59884332D01*
X147735655Y-59880577D01*
X147733059Y-59879815D01*
X147712417Y-59863181D01*
X147636819Y-59787583D01*
X147603334Y-59726260D01*
X147600500Y-59699902D01*
X147600500Y-58589060D01*
X147600501Y-58589047D01*
X147600501Y-58420944D01*
X147594465Y-58398417D01*
X147559577Y-58268216D01*
X147559573Y-58268209D01*
X147480524Y-58131290D01*
X147480518Y-58131282D01*
X146723629Y-57374393D01*
X146690144Y-57313070D01*
X146687310Y-57286712D01*
X146687310Y-48713287D01*
X146706995Y-48646248D01*
X146723629Y-48625606D01*
X147367417Y-47981819D01*
X147428740Y-47948334D01*
X147455098Y-47945500D01*
X150635902Y-47945500D01*
X150702941Y-47965185D01*
G37*
%TD.AperFunction*%
%TA.AperFunction,Conductor*%
G36*
X152672539Y-51825185D02*
G01*
X152718294Y-51877989D01*
X152729500Y-51929500D01*
X152729500Y-52524902D01*
X152709815Y-52591941D01*
X152693181Y-52612583D01*
X151620481Y-53685282D01*
X151620479Y-53685284D01*
X151612040Y-53699902D01*
X151586272Y-53744535D01*
X151541423Y-53822215D01*
X151500499Y-53974943D01*
X151500499Y-53974945D01*
X151500499Y-54143046D01*
X151500500Y-54143059D01*
X151500500Y-57781192D01*
X151480815Y-57848231D01*
X151428011Y-57893986D01*
X151358853Y-57903930D01*
X151295297Y-57874905D01*
X151288819Y-57868873D01*
X150186819Y-56766873D01*
X150153334Y-56705550D01*
X150150500Y-56679192D01*
X150150500Y-52320808D01*
X150170185Y-52253769D01*
X150186819Y-52233127D01*
X150578127Y-51841819D01*
X150639450Y-51808334D01*
X150665808Y-51805500D01*
X152605500Y-51805500D01*
X152672539Y-51825185D01*
G37*
%TD.AperFunction*%
%TA.AperFunction,Conductor*%
G36*
X156211491Y-42935185D02*
G01*
X156232133Y-42951819D01*
X156813181Y-43532867D01*
X156846666Y-43594190D01*
X156849500Y-43620548D01*
X156849500Y-46564070D01*
X156851251Y-46572873D01*
X156860790Y-46620827D01*
X156863109Y-46632482D01*
X156863109Y-46632484D01*
X156874497Y-46689736D01*
X156874499Y-46689744D01*
X156904353Y-46761819D01*
X156923535Y-46808127D01*
X156972005Y-46880668D01*
X156994726Y-46914673D01*
X158335328Y-48255275D01*
X158388209Y-48290609D01*
X158417614Y-48310256D01*
X158417615Y-48310257D01*
X158417614Y-48310257D01*
X158441871Y-48326464D01*
X158441872Y-48326464D01*
X158441873Y-48326465D01*
X158560256Y-48375501D01*
X158560260Y-48375501D01*
X158560261Y-48375502D01*
X158685928Y-48400500D01*
X158685931Y-48400500D01*
X161929192Y-48400500D01*
X161996231Y-48420185D01*
X162016873Y-48436819D01*
X162602873Y-49022819D01*
X162636358Y-49084142D01*
X162631374Y-49153834D01*
X162589502Y-49209767D01*
X162524038Y-49234184D01*
X162515192Y-49234500D01*
X155354500Y-49234500D01*
X155287461Y-49214815D01*
X155241706Y-49162011D01*
X155230500Y-49110500D01*
X155230499Y-48117129D01*
X155230498Y-48117123D01*
X155228814Y-48101461D01*
X155224091Y-48057517D01*
X155211340Y-48023332D01*
X155206357Y-47953642D01*
X155211338Y-47936672D01*
X155224091Y-47902483D01*
X155230500Y-47842873D01*
X155230499Y-46847128D01*
X155224091Y-46787517D01*
X155211340Y-46753332D01*
X155206357Y-46683642D01*
X155211338Y-46666672D01*
X155224091Y-46632483D01*
X155230500Y-46572873D01*
X155230499Y-45577128D01*
X155224091Y-45517517D01*
X155211340Y-45483332D01*
X155206357Y-45413642D01*
X155211338Y-45396672D01*
X155224091Y-45362483D01*
X155230500Y-45302873D01*
X155230499Y-44307128D01*
X155224091Y-44247517D01*
X155211340Y-44213332D01*
X155206357Y-44143642D01*
X155211338Y-44126672D01*
X155224091Y-44092483D01*
X155230500Y-44032873D01*
X155230499Y-43039499D01*
X155250183Y-42972461D01*
X155302987Y-42926706D01*
X155354499Y-42915500D01*
X156144452Y-42915500D01*
X156211491Y-42935185D01*
G37*
%TD.AperFunction*%
%TA.AperFunction,Conductor*%
G36*
X188263181Y-42894735D02*
G01*
X188296666Y-42956058D01*
X188299500Y-42982417D01*
X188299500Y-43400001D01*
X188299501Y-43400019D01*
X188310000Y-43502796D01*
X188310001Y-43502799D01*
X188365185Y-43669331D01*
X188365187Y-43669336D01*
X188390042Y-43709632D01*
X188457288Y-43818656D01*
X188581344Y-43942712D01*
X188730666Y-44034814D01*
X188897203Y-44089999D01*
X188999991Y-44100500D01*
X190000008Y-44100499D01*
X190000016Y-44100498D01*
X190000019Y-44100498D01*
X190078480Y-44092483D01*
X190102797Y-44089999D01*
X190269334Y-44034814D01*
X190418656Y-43942712D01*
X190542712Y-43818656D01*
X190594680Y-43734402D01*
X190646627Y-43687679D01*
X190700218Y-43675500D01*
X191887071Y-43675500D01*
X191977342Y-43657543D01*
X192012744Y-43650501D01*
X192131127Y-43601465D01*
X192148287Y-43589999D01*
X192237669Y-43530277D01*
X192366380Y-43401564D01*
X192427701Y-43368081D01*
X192497393Y-43373065D01*
X192553327Y-43414936D01*
X192570242Y-43445914D01*
X192606202Y-43542328D01*
X192606206Y-43542335D01*
X192650472Y-43601466D01*
X192692454Y-43657546D01*
X192799811Y-43737914D01*
X192841682Y-43793847D01*
X192849500Y-43837180D01*
X192849500Y-44275500D01*
X192829815Y-44342539D01*
X192777011Y-44388294D01*
X192725501Y-44399500D01*
X192499999Y-44399500D01*
X192499980Y-44399501D01*
X192397203Y-44410000D01*
X192397200Y-44410001D01*
X192230668Y-44465185D01*
X192230663Y-44465187D01*
X192081342Y-44557289D01*
X191957289Y-44681342D01*
X191865187Y-44830663D01*
X191865186Y-44830666D01*
X191810001Y-44997203D01*
X191810001Y-44997204D01*
X191810000Y-44997204D01*
X191799500Y-45099983D01*
X191799500Y-45850001D01*
X191799501Y-45850019D01*
X191810000Y-45952796D01*
X191810001Y-45952799D01*
X191865185Y-46119331D01*
X191865186Y-46119334D01*
X191956188Y-46266873D01*
X191957289Y-46268657D01*
X192081346Y-46392714D01*
X192084182Y-46394463D01*
X192085717Y-46396170D01*
X192087011Y-46397193D01*
X192086836Y-46397414D01*
X192130905Y-46446411D01*
X192142126Y-46515374D01*
X192114282Y-46579456D01*
X192084182Y-46605537D01*
X192081346Y-46607285D01*
X191957289Y-46731342D01*
X191940302Y-46758882D01*
X191909930Y-46808125D01*
X191905321Y-46815597D01*
X191853373Y-46862321D01*
X191799782Y-46874500D01*
X187845808Y-46874500D01*
X187778769Y-46854815D01*
X187758127Y-46838181D01*
X186432127Y-45512181D01*
X186398642Y-45450858D01*
X186403626Y-45381166D01*
X186445498Y-45325233D01*
X186510962Y-45300816D01*
X186519808Y-45300500D01*
X186578844Y-45300500D01*
X186578845Y-45300499D01*
X186733497Y-45269737D01*
X186879179Y-45209394D01*
X187010289Y-45121789D01*
X187121789Y-45010289D01*
X187209394Y-44879179D01*
X187269737Y-44733497D01*
X187300500Y-44578842D01*
X187300500Y-44421158D01*
X187300500Y-44421155D01*
X187300499Y-44421153D01*
X187298281Y-44410001D01*
X187269737Y-44266503D01*
X187247714Y-44213334D01*
X187209397Y-44120828D01*
X187209396Y-44120827D01*
X187209394Y-44120821D01*
X187171396Y-44063953D01*
X187150520Y-43997276D01*
X187150500Y-43995064D01*
X187150500Y-43320807D01*
X187170185Y-43253768D01*
X187186815Y-43233130D01*
X187483127Y-42936817D01*
X187544450Y-42903333D01*
X187570808Y-42900499D01*
X187997871Y-42900499D01*
X187997872Y-42900499D01*
X188057483Y-42894091D01*
X188132169Y-42866234D01*
X188201857Y-42861251D01*
X188263181Y-42894735D01*
G37*
%TD.AperFunction*%
%TA.AperFunction,Conductor*%
G36*
X190171231Y-35170185D02*
G01*
X190191873Y-35186819D01*
X190492873Y-35487819D01*
X190526358Y-35549142D01*
X190521374Y-35618834D01*
X190479502Y-35674767D01*
X190414038Y-35699184D01*
X190405192Y-35699500D01*
X189502129Y-35699500D01*
X189502123Y-35699501D01*
X189442516Y-35705908D01*
X189307671Y-35756202D01*
X189307664Y-35756206D01*
X189192455Y-35842452D01*
X189192452Y-35842455D01*
X189106206Y-35957664D01*
X189106202Y-35957671D01*
X189055908Y-36092517D01*
X189049501Y-36152116D01*
X189049500Y-36152135D01*
X189049500Y-37047870D01*
X189049501Y-37047876D01*
X189055908Y-37107483D01*
X189106202Y-37242328D01*
X189106206Y-37242335D01*
X189192452Y-37357544D01*
X189192455Y-37357547D01*
X189314769Y-37449112D01*
X189313070Y-37451381D01*
X189352264Y-37490580D01*
X189367111Y-37558854D01*
X189342690Y-37624317D01*
X189313689Y-37649445D01*
X189314769Y-37650888D01*
X189192455Y-37742452D01*
X189192452Y-37742455D01*
X189106206Y-37857664D01*
X189106202Y-37857671D01*
X189055908Y-37992517D01*
X189049501Y-38052116D01*
X189049500Y-38052135D01*
X189049500Y-38947870D01*
X189049501Y-38947876D01*
X189055908Y-39007483D01*
X189106202Y-39142328D01*
X189106206Y-39142335D01*
X189192452Y-39257544D01*
X189192455Y-39257547D01*
X189307664Y-39343793D01*
X189307671Y-39343797D01*
X189442517Y-39394091D01*
X189442516Y-39394091D01*
X189449444Y-39394835D01*
X189502127Y-39400500D01*
X190497872Y-39400499D01*
X190557483Y-39394091D01*
X190657168Y-39356910D01*
X190726858Y-39351927D01*
X190788181Y-39385412D01*
X190821666Y-39446735D01*
X190824500Y-39473093D01*
X190824500Y-40200957D01*
X190804815Y-40267996D01*
X190752011Y-40313751D01*
X190682853Y-40323695D01*
X190619297Y-40294670D01*
X190594961Y-40266054D01*
X190580405Y-40242455D01*
X190542712Y-40181344D01*
X190418656Y-40057288D01*
X190269334Y-39965186D01*
X190102797Y-39910001D01*
X190102795Y-39910000D01*
X190000010Y-39899500D01*
X188999998Y-39899500D01*
X188999980Y-39899501D01*
X188897203Y-39910000D01*
X188897200Y-39910001D01*
X188730668Y-39965185D01*
X188730663Y-39965187D01*
X188581342Y-40057289D01*
X188457289Y-40181342D01*
X188441954Y-40206204D01*
X188410340Y-40257460D01*
X188405321Y-40265597D01*
X188353373Y-40312321D01*
X188299782Y-40324500D01*
X186390954Y-40324500D01*
X186323915Y-40304815D01*
X186314842Y-40297504D01*
X186314645Y-40297768D01*
X186192335Y-40206206D01*
X186192328Y-40206202D01*
X186057482Y-40155908D01*
X186057483Y-40155908D01*
X185997883Y-40149501D01*
X185997881Y-40149500D01*
X185997873Y-40149500D01*
X185997864Y-40149500D01*
X185002129Y-40149500D01*
X185002123Y-40149501D01*
X184942516Y-40155908D01*
X184807671Y-40206202D01*
X184807664Y-40206206D01*
X184692455Y-40292452D01*
X184692452Y-40292455D01*
X184606206Y-40407664D01*
X184606202Y-40407671D01*
X184555908Y-40542517D01*
X184549501Y-40602116D01*
X184549500Y-40602135D01*
X184549500Y-41497870D01*
X184549501Y-41497876D01*
X184555908Y-41557483D01*
X184606202Y-41692328D01*
X184606206Y-41692335D01*
X184692452Y-41807544D01*
X184692455Y-41807547D01*
X184814769Y-41899112D01*
X184813070Y-41901381D01*
X184852264Y-41940580D01*
X184867111Y-42008854D01*
X184842690Y-42074317D01*
X184813689Y-42099445D01*
X184814769Y-42100888D01*
X184692455Y-42192452D01*
X184692452Y-42192455D01*
X184606206Y-42307664D01*
X184606202Y-42307671D01*
X184555908Y-42442517D01*
X184549501Y-42502116D01*
X184549500Y-42502135D01*
X184549500Y-42929191D01*
X184529815Y-42996230D01*
X184513181Y-43016872D01*
X183969727Y-43560325D01*
X183969724Y-43560328D01*
X183909979Y-43649745D01*
X183898534Y-43666872D01*
X183898533Y-43666874D01*
X183864951Y-43747952D01*
X183821111Y-43802356D01*
X183754817Y-43824421D01*
X183750390Y-43824500D01*
X181856223Y-43824500D01*
X181789184Y-43804815D01*
X181743429Y-43752011D01*
X181733485Y-43682853D01*
X181762510Y-43619297D01*
X181783335Y-43600183D01*
X181879792Y-43530104D01*
X182030104Y-43379792D01*
X182030106Y-43379788D01*
X182030109Y-43379786D01*
X182155048Y-43207820D01*
X182155047Y-43207820D01*
X182155051Y-43207816D01*
X182251557Y-43018412D01*
X182317246Y-42816243D01*
X182350500Y-42606287D01*
X182350500Y-42393713D01*
X182317246Y-42183757D01*
X182251557Y-41981588D01*
X182155051Y-41792184D01*
X182155049Y-41792181D01*
X182155048Y-41792179D01*
X182030109Y-41620213D01*
X181879786Y-41469890D01*
X181707820Y-41344951D01*
X181707115Y-41344591D01*
X181699054Y-41340485D01*
X181648259Y-41292512D01*
X181631463Y-41224692D01*
X181653999Y-41158556D01*
X181699054Y-41119515D01*
X181707816Y-41115051D01*
X181754302Y-41081277D01*
X181879786Y-40990109D01*
X181879788Y-40990106D01*
X181879792Y-40990104D01*
X182030104Y-40839792D01*
X182030106Y-40839788D01*
X182030109Y-40839786D01*
X182157915Y-40663875D01*
X182159259Y-40664851D01*
X182205705Y-40622834D01*
X182259618Y-40610500D01*
X182554071Y-40610500D01*
X182638615Y-40593682D01*
X182679744Y-40585501D01*
X182798127Y-40536465D01*
X182803982Y-40532552D01*
X182803993Y-40532549D01*
X182803992Y-40532547D01*
X182885011Y-40478412D01*
X182904669Y-40465277D01*
X183983127Y-39386817D01*
X184044450Y-39353333D01*
X184070808Y-39350499D01*
X184997871Y-39350499D01*
X184997872Y-39350499D01*
X185057483Y-39344091D01*
X185192331Y-39293796D01*
X185307546Y-39207546D01*
X185393796Y-39092331D01*
X185444091Y-38957483D01*
X185450500Y-38897873D01*
X185450499Y-38002128D01*
X185444335Y-37944785D01*
X185750001Y-37944785D01*
X185750002Y-37944808D01*
X185752908Y-37969869D01*
X185752909Y-37969873D01*
X185798211Y-38072474D01*
X185798214Y-38072479D01*
X185877520Y-38151785D01*
X185877525Y-38151788D01*
X185980123Y-38197089D01*
X186005206Y-38199999D01*
X186149999Y-38199999D01*
X186850000Y-38199999D01*
X186994786Y-38199999D01*
X186994808Y-38199997D01*
X187019869Y-38197091D01*
X187019873Y-38197090D01*
X187122474Y-38151788D01*
X187122479Y-38151785D01*
X187137319Y-38136946D01*
X187198642Y-38103461D01*
X187268334Y-38108445D01*
X187312681Y-38136946D01*
X187377520Y-38201785D01*
X187377525Y-38201788D01*
X187480123Y-38247089D01*
X187505206Y-38249999D01*
X187649999Y-38249999D01*
X188350000Y-38249999D01*
X188494786Y-38249999D01*
X188494808Y-38249997D01*
X188519869Y-38247091D01*
X188519873Y-38247090D01*
X188622474Y-38201788D01*
X188622479Y-38201785D01*
X188701785Y-38122479D01*
X188701788Y-38122474D01*
X188747089Y-38019877D01*
X188747089Y-38019875D01*
X188749999Y-37994794D01*
X188750000Y-37994791D01*
X188750000Y-37900000D01*
X188350000Y-37900000D01*
X188350000Y-38249999D01*
X187649999Y-38249999D01*
X187650000Y-38249998D01*
X187650000Y-37900000D01*
X187221362Y-37900000D01*
X187154323Y-37880315D01*
X187133681Y-37863681D01*
X187120000Y-37850000D01*
X186850000Y-37850000D01*
X186850000Y-38199999D01*
X186149999Y-38199999D01*
X186150000Y-38199998D01*
X186150000Y-37850000D01*
X185750001Y-37850000D01*
X185750001Y-37944785D01*
X185444335Y-37944785D01*
X185444091Y-37942517D01*
X185436994Y-37923490D01*
X185406590Y-37841971D01*
X185406589Y-37841969D01*
X185393798Y-37807673D01*
X185393793Y-37807664D01*
X185307547Y-37692455D01*
X185307544Y-37692452D01*
X185185231Y-37600888D01*
X185186930Y-37598617D01*
X185147743Y-37559435D01*
X185132886Y-37491163D01*
X185157298Y-37425697D01*
X185186311Y-37400556D01*
X185185231Y-37399112D01*
X185265136Y-37339293D01*
X185307546Y-37307546D01*
X185393796Y-37192331D01*
X185444091Y-37057483D01*
X185444336Y-37055205D01*
X185750000Y-37055205D01*
X185750000Y-37150000D01*
X186150000Y-37150000D01*
X186850000Y-37150000D01*
X187278638Y-37150000D01*
X187345677Y-37169685D01*
X187366319Y-37186319D01*
X187380000Y-37200000D01*
X187650000Y-37200000D01*
X188350000Y-37200000D01*
X188749999Y-37200000D01*
X188749999Y-37105214D01*
X188749997Y-37105191D01*
X188747091Y-37080130D01*
X188747090Y-37080126D01*
X188701788Y-36977525D01*
X188701785Y-36977520D01*
X188622479Y-36898214D01*
X188622474Y-36898211D01*
X188519876Y-36852910D01*
X188494794Y-36850000D01*
X188350000Y-36850000D01*
X188350000Y-37200000D01*
X187650000Y-37200000D01*
X187650000Y-36850000D01*
X187505214Y-36850000D01*
X187505191Y-36850002D01*
X187480130Y-36852908D01*
X187480126Y-36852909D01*
X187377525Y-36898211D01*
X187377520Y-36898214D01*
X187362681Y-36913054D01*
X187301358Y-36946539D01*
X187231666Y-36941555D01*
X187187319Y-36913054D01*
X187122479Y-36848214D01*
X187122474Y-36848211D01*
X187019876Y-36802910D01*
X186994794Y-36800000D01*
X186850000Y-36800000D01*
X186850000Y-37150000D01*
X186150000Y-37150000D01*
X186150000Y-36800000D01*
X186005214Y-36800000D01*
X186005191Y-36800002D01*
X185980130Y-36802908D01*
X185980126Y-36802909D01*
X185877525Y-36848211D01*
X185877520Y-36848214D01*
X185798214Y-36927520D01*
X185798211Y-36927525D01*
X185752910Y-37030122D01*
X185752910Y-37030124D01*
X185750000Y-37055205D01*
X185444336Y-37055205D01*
X185450500Y-36997873D01*
X185450499Y-36102128D01*
X185444091Y-36042517D01*
X185417864Y-35972200D01*
X185393797Y-35907671D01*
X185393793Y-35907664D01*
X185307547Y-35792455D01*
X185307544Y-35792452D01*
X185192335Y-35706206D01*
X185192328Y-35706202D01*
X185057482Y-35655908D01*
X185057483Y-35655908D01*
X184997883Y-35649501D01*
X184997881Y-35649500D01*
X184997873Y-35649500D01*
X184997864Y-35649500D01*
X184002129Y-35649500D01*
X184002123Y-35649501D01*
X183942516Y-35655908D01*
X183807671Y-35706202D01*
X183807664Y-35706206D01*
X183692455Y-35792452D01*
X183692452Y-35792455D01*
X183606206Y-35907664D01*
X183606202Y-35907671D01*
X183555908Y-36042517D01*
X183550533Y-36092517D01*
X183549501Y-36102123D01*
X183549500Y-36102135D01*
X183549500Y-36479191D01*
X183529815Y-36546230D01*
X183513181Y-36566872D01*
X182288424Y-37791629D01*
X182227101Y-37825114D01*
X182157409Y-37820130D01*
X182101476Y-37778258D01*
X182100425Y-37776834D01*
X182095460Y-37770000D01*
X181357106Y-37770000D01*
X181400099Y-37727007D01*
X181465925Y-37612993D01*
X181500000Y-37485826D01*
X181500000Y-37354174D01*
X181465925Y-37227007D01*
X181400099Y-37112993D01*
X181357106Y-37070000D01*
X182095460Y-37070000D01*
X182095459Y-37069999D01*
X182065747Y-36978555D01*
X181983565Y-36817264D01*
X181877176Y-36670830D01*
X181749169Y-36542823D01*
X181602735Y-36436434D01*
X181441444Y-36354252D01*
X181350000Y-36324540D01*
X181350000Y-37062894D01*
X181307007Y-37019901D01*
X181192993Y-36954075D01*
X181065826Y-36920000D01*
X180934174Y-36920000D01*
X180807007Y-36954075D01*
X180692993Y-37019901D01*
X180650000Y-37062894D01*
X180650000Y-36324540D01*
X180649999Y-36324540D01*
X180558555Y-36354252D01*
X180397264Y-36436434D01*
X180250830Y-36542823D01*
X180122827Y-36670826D01*
X180122823Y-36670831D01*
X180034817Y-36791962D01*
X179979487Y-36834628D01*
X179909874Y-36840607D01*
X179848079Y-36808001D01*
X179813722Y-36747163D01*
X179810499Y-36719077D01*
X179810499Y-36522129D01*
X179810498Y-36522123D01*
X179810497Y-36522116D01*
X179804091Y-36462517D01*
X179770170Y-36371571D01*
X179753797Y-36327671D01*
X179753793Y-36327664D01*
X179667547Y-36212455D01*
X179667544Y-36212452D01*
X179552335Y-36126206D01*
X179552328Y-36126202D01*
X179417482Y-36075908D01*
X179417483Y-36075908D01*
X179357883Y-36069501D01*
X179357881Y-36069500D01*
X179357873Y-36069500D01*
X179357864Y-36069500D01*
X177562129Y-36069500D01*
X177562123Y-36069501D01*
X177502516Y-36075908D01*
X177367671Y-36126202D01*
X177367664Y-36126206D01*
X177252455Y-36212452D01*
X177252452Y-36212455D01*
X177166206Y-36327664D01*
X177166202Y-36327671D01*
X177115908Y-36462517D01*
X177111878Y-36500009D01*
X177109501Y-36522123D01*
X177109500Y-36522135D01*
X177109500Y-37390192D01*
X177089815Y-37457231D01*
X177037011Y-37502986D01*
X176967853Y-37512930D01*
X176904297Y-37483905D01*
X176897819Y-37477873D01*
X176236818Y-36816872D01*
X176203333Y-36755549D01*
X176200499Y-36729191D01*
X176200499Y-36074998D01*
X176200498Y-36074981D01*
X176189999Y-35972203D01*
X176189998Y-35972200D01*
X176134814Y-35805666D01*
X176042712Y-35656344D01*
X175918656Y-35532288D01*
X175769334Y-35440186D01*
X175624537Y-35392205D01*
X175567094Y-35352433D01*
X175540271Y-35287918D01*
X175552586Y-35219142D01*
X175600129Y-35167942D01*
X175663543Y-35150500D01*
X190104192Y-35150500D01*
X190171231Y-35170185D01*
G37*
%TD.AperFunction*%
%TD*%
M02*
