%TF.GenerationSoftware,KiCad,Pcbnew,9.0.0*%
%TF.CreationDate,2025-10-12T16:24:59-03:00*%
%TF.ProjectId,Drone-HW,44726f6e-652d-4485-972e-6b696361645f,rev?*%
%TF.SameCoordinates,Original*%
%TF.FileFunction,Copper,L2,Bot*%
%TF.FilePolarity,Positive*%
%FSLAX46Y46*%
G04 Gerber Fmt 4.6, Leading zero omitted, Abs format (unit mm)*
G04 Created by KiCad (PCBNEW 9.0.0) date 2025-10-12 16:24:59*
%MOMM*%
%LPD*%
G01*
G04 APERTURE LIST*
%TA.AperFunction,ComponentPad*%
%ADD10C,1.600000*%
%TD*%
%TA.AperFunction,HeatsinkPad*%
%ADD11C,0.600000*%
%TD*%
%TA.AperFunction,ComponentPad*%
%ADD12C,1.700000*%
%TD*%
%TA.AperFunction,ComponentPad*%
%ADD13C,1.350000*%
%TD*%
%TA.AperFunction,ComponentPad*%
%ADD14R,1.350000X1.350000*%
%TD*%
%TA.AperFunction,ComponentPad*%
%ADD15C,1.500000*%
%TD*%
%TA.AperFunction,ComponentPad*%
%ADD16R,1.700000X1.700000*%
%TD*%
%TA.AperFunction,ComponentPad*%
%ADD17O,1.700000X1.700000*%
%TD*%
%TA.AperFunction,ComponentPad*%
%ADD18R,1.600000X1.600000*%
%TD*%
%TA.AperFunction,ComponentPad*%
%ADD19R,1.800000X1.800000*%
%TD*%
%TA.AperFunction,ComponentPad*%
%ADD20C,1.800000*%
%TD*%
%TA.AperFunction,ViaPad*%
%ADD21C,0.600000*%
%TD*%
%TA.AperFunction,Conductor*%
%ADD22C,0.300000*%
%TD*%
%TA.AperFunction,Conductor*%
%ADD23C,0.200000*%
%TD*%
%TA.AperFunction,Conductor*%
%ADD24C,0.500000*%
%TD*%
G04 APERTURE END LIST*
D10*
%TO.P,STEP_DOWN1,1,+IN*%
%TO.N,+7V4*%
X154968000Y-57664000D03*
%TO.P,STEP_DOWN1,2,-IN*%
%TO.N,GND_7V4*%
X154958000Y-66664000D03*
%TO.P,STEP_DOWN1,3,+OUT*%
%TO.N,+3V3*%
X169908000Y-57664000D03*
%TO.P,STEP_DOWN1,4,-OUT*%
%TO.N,GND*%
X170038000Y-66714000D03*
%TD*%
D11*
%TO.P,U1,39,PAD*%
%TO.N,GND*%
X159830000Y-42780000D03*
X159830000Y-44180000D03*
X160530000Y-42080000D03*
X160530000Y-43480000D03*
X160530000Y-44880000D03*
X161230000Y-42780000D03*
X161230000Y-44180000D03*
X161930000Y-42080000D03*
X161930000Y-43480000D03*
X161930000Y-44880000D03*
X162630000Y-42780000D03*
X162630000Y-44180000D03*
%TD*%
D12*
%TO.P,SW3,1,1*%
%TO.N,Net-(D6-A2)*%
X185750000Y-68250000D03*
%TO.P,SW3,2,2*%
%TO.N,GND*%
X192250000Y-68250000D03*
%TO.P,SW3,3*%
%TO.N,N/C*%
X185750000Y-72750000D03*
%TO.P,SW3,4*%
X192250000Y-72750000D03*
%TD*%
D13*
%TO.P,J1,3,Pin_3*%
%TO.N,/sw1*%
X185212000Y-31930000D03*
%TO.P,J1,2,Pin_2*%
%TO.N,GND*%
X183212000Y-31930000D03*
D14*
%TO.P,J1,1,Pin_1*%
%TO.N,/Motor1*%
X181212000Y-31930000D03*
%TD*%
D15*
%TO.P,U2,1,VCC*%
%TO.N,+3V3*%
X177250000Y-45600000D03*
%TO.P,U2,2,GND*%
%TO.N,GND*%
X177250000Y-48140000D03*
%TO.P,U2,3,SCL*%
%TO.N,/SCL-SPU*%
X177250000Y-50680000D03*
%TO.P,U2,4,SDA*%
%TO.N,/SDA-SPU*%
X177250000Y-53220000D03*
%TO.P,U2,5,XCL*%
%TO.N,unconnected-(U2-XCL-Pad5)*%
X177250000Y-55760000D03*
%TO.P,U2,6,XDA*%
%TO.N,unconnected-(U2-XDA-Pad6)*%
X177250000Y-58300000D03*
%TO.P,U2,7,ADO*%
%TO.N,+3V3*%
X177250000Y-60840000D03*
%TO.P,U2,8,INT*%
%TO.N,/INT*%
X177250000Y-63380000D03*
%TD*%
D16*
%TO.P,Con5,1,3v3*%
%TO.N,unconnected-(Con5-3v3-Pad1)*%
X178460000Y-37420000D03*
D17*
%TO.P,Con5,2,GND*%
%TO.N,GND*%
X181000000Y-37420000D03*
%TO.P,Con5,3,TX*%
%TO.N,Net-(Con5-TX)*%
X178460000Y-39960000D03*
%TO.P,Con5,4,RX*%
%TO.N,Net-(Con5-RX)*%
X181000000Y-39960000D03*
%TO.P,Con5,5,DTR*%
%TO.N,/DTR_ESP*%
X178460000Y-42500000D03*
%TO.P,Con5,6,RTS*%
%TO.N,/RTS_ESP*%
X181000000Y-42500000D03*
%TD*%
D16*
%TO.P,U3,1,GND*%
%TO.N,GND*%
X136880000Y-62540000D03*
D12*
%TO.P,U3,2,VCC*%
%TO.N,+3V3*%
X136880000Y-60000000D03*
%TO.P,U3,3,CE*%
%TO.N,/CE*%
X139420000Y-62540000D03*
%TO.P,U3,4,~{CSN}*%
%TO.N,/~{CSN}*%
X139420000Y-60000000D03*
%TO.P,U3,5,SCK*%
%TO.N,/SCK*%
X141960000Y-62540000D03*
%TO.P,U3,6,MOSI*%
%TO.N,/MOSI*%
X141960000Y-60000000D03*
%TO.P,U3,7,MISO*%
%TO.N,/MISO*%
X144500000Y-62540000D03*
%TO.P,U3,8,IRQ*%
%TO.N,/IRQ*%
X144500000Y-60000000D03*
%TD*%
D14*
%TO.P,J3,1,Pin_1*%
%TO.N,/Motor3*%
X179688000Y-77291000D03*
D13*
%TO.P,J3,2,Pin_2*%
%TO.N,GND*%
X181688000Y-77291000D03*
%TO.P,J3,3,Pin_3*%
%TO.N,/sw3*%
X183688000Y-77291000D03*
%TD*%
D16*
%TO.P,J5,1,Pin_1*%
%TO.N,+7V4*%
X160500000Y-70000000D03*
D12*
%TO.P,J5,2,Pin_2*%
%TO.N,GND_7V4*%
X157960000Y-70000000D03*
%TD*%
D18*
%TO.P,C3,1*%
%TO.N,+3V3*%
X174000000Y-68500000D03*
D10*
%TO.P,C3,2*%
%TO.N,GND*%
X176500000Y-68500000D03*
%TD*%
D14*
%TO.P,J2,1,Pin_1*%
%TO.N,/Motor2*%
X144271000Y-32246000D03*
D13*
%TO.P,J2,2,Pin_2*%
%TO.N,GND*%
X146271000Y-32246000D03*
%TO.P,J2,3,Pin_3*%
%TO.N,/sw2*%
X148271000Y-32246000D03*
%TD*%
D19*
%TO.P,D1,1,K*%
%TO.N,Net-(D1-K)*%
X174000000Y-56000000D03*
D20*
%TO.P,D1,2,A*%
%TO.N,Net-(D1-A)*%
X174000000Y-58540000D03*
%TD*%
D14*
%TO.P,J4,1,Pin_1*%
%TO.N,/Motor4*%
X141950000Y-77529000D03*
D13*
%TO.P,J4,2,Pin_2*%
%TO.N,GND*%
X143950000Y-77529000D03*
%TO.P,J4,3,Pin_3*%
%TO.N,/sw4*%
X145950000Y-77529000D03*
%TD*%
D21*
%TO.N,/Motor1*%
X168437000Y-49003000D03*
X167421000Y-40330000D03*
%TO.N,/sw1*%
X169535000Y-39147000D03*
X171480000Y-47345000D03*
%TO.N,GND*%
X155668000Y-44085000D03*
X156418000Y-46814000D03*
X148981000Y-53023000D03*
%TO.N,/sw2*%
X148284000Y-43797000D03*
%TO.N,/sw3*%
X165854000Y-73395000D03*
X165872000Y-69701000D03*
%TO.N,/Motor3*%
X163780000Y-73402000D03*
X163777000Y-69744000D03*
%TO.N,/sw4*%
X148615000Y-73152000D03*
X148652000Y-76896000D03*
X148610000Y-66218000D03*
%TO.N,GND*%
X137500000Y-42000000D03*
X146500000Y-72500000D03*
X151500000Y-54000000D03*
X165000000Y-48500000D03*
X152000000Y-71500000D03*
X143000000Y-51000000D03*
X190500000Y-45000000D03*
X167236000Y-51765000D03*
X185000000Y-63000000D03*
X187000000Y-56500000D03*
X145841000Y-42284000D03*
X179500000Y-49000000D03*
X143500000Y-38000000D03*
X159500000Y-38000000D03*
X155500000Y-61000000D03*
X179500000Y-57000000D03*
X161500000Y-51500000D03*
X186500000Y-39500000D03*
X167500000Y-59000000D03*
X180000000Y-71000000D03*
X163500000Y-38000000D03*
X168528000Y-40728000D03*
X184000000Y-48500000D03*
X141000000Y-56500000D03*
X164000000Y-58000000D03*
X138500000Y-71500000D03*
X148159000Y-58625000D03*
X184000000Y-41500000D03*
X156500000Y-65000000D03*
X136000000Y-53500000D03*
%TO.N,+3V3*%
X173250000Y-36750000D03*
X152000000Y-63000000D03*
X153980000Y-37185000D03*
%TO.N,/EN_ESP*%
X194025000Y-36000000D03*
X191975000Y-39000000D03*
X153980000Y-38455000D03*
%TO.N,/RTS_ESP*%
X189500000Y-43025000D03*
%TO.N,Net-(D6-A2)*%
X190000000Y-36600000D03*
X193000000Y-49500000D03*
X190000000Y-38500000D03*
X193000000Y-54000000D03*
%TO.N,/IO0_ESP*%
X186500000Y-44500000D03*
X184000000Y-54000000D03*
X187500000Y-42000000D03*
%TO.N,/B_START*%
X179500000Y-52000000D03*
%TO.N,Net-(D1-K)*%
X173000000Y-50352000D03*
%TO.N,/sw2*%
X153980000Y-52425000D03*
%TO.N,/INT*%
X174500000Y-63380000D03*
X171500000Y-63380000D03*
X163500000Y-49000000D03*
X165500000Y-61000000D03*
%TO.N,/MOSI*%
X171480000Y-37185000D03*
%TO.N,/SCL-SPU*%
X171480000Y-38455000D03*
%TO.N,Net-(D1-A)*%
X168475000Y-70500000D03*
%TO.N,/SCK*%
X167500000Y-47000000D03*
%TO.N,/IRQ*%
X151201000Y-43535000D03*
%TO.N,/MISO*%
X167000000Y-44805000D03*
%TO.N,/V_Bat*%
X193000000Y-60025000D03*
X147027000Y-50973000D03*
%TO.N,/B_START*%
X166708000Y-49885000D03*
%TD*%
D22*
%TO.N,/Motor1*%
X168417000Y-48983000D02*
X168437000Y-49003000D01*
X167421000Y-42281000D02*
X168417000Y-43277000D01*
X167421000Y-40330000D02*
X167421000Y-42281000D01*
X168417000Y-43277000D02*
X168417000Y-48983000D01*
%TO.N,/B_START*%
X171229000Y-49438000D02*
X173438000Y-49438000D01*
X173438000Y-49438000D02*
X176000000Y-52000000D01*
X176000000Y-52000000D02*
X179500000Y-52000000D01*
X166708000Y-49885000D02*
X170782000Y-49885000D01*
X170782000Y-49885000D02*
X171229000Y-49438000D01*
%TO.N,/sw1*%
X169860000Y-39472000D02*
X169535000Y-39147000D01*
X170593000Y-47345000D02*
X169860000Y-46612000D01*
X171480000Y-47345000D02*
X170593000Y-47345000D01*
X169860000Y-46612000D02*
X169860000Y-39472000D01*
%TO.N,/SCK*%
X141960000Y-63460000D02*
X141960000Y-62540000D01*
X146917000Y-64500000D02*
X143000000Y-64500000D01*
X149911000Y-61506000D02*
X146917000Y-64500000D01*
X149911000Y-59407000D02*
X149911000Y-61506000D01*
X161818000Y-47500000D02*
X149911000Y-59407000D01*
X167000000Y-47500000D02*
X161818000Y-47500000D01*
X167500000Y-47000000D02*
X167000000Y-47500000D01*
X143000000Y-64500000D02*
X141960000Y-63460000D01*
%TO.N,/sw2*%
X148284000Y-43797000D02*
X153980000Y-49493000D01*
X153980000Y-49493000D02*
X153980000Y-52425000D01*
%TO.N,/MISO*%
X149000000Y-61000000D02*
X147460000Y-62540000D01*
X147460000Y-62540000D02*
X144500000Y-62540000D01*
X162391000Y-46000000D02*
X149000000Y-59391000D01*
X149000000Y-59391000D02*
X149000000Y-61000000D01*
X165805000Y-46000000D02*
X162391000Y-46000000D01*
X167000000Y-44805000D02*
X165805000Y-46000000D01*
%TO.N,/V_Bat*%
X186500000Y-70000000D02*
X193000000Y-63500000D01*
X184000000Y-70000000D02*
X186500000Y-70000000D01*
X179231000Y-74769000D02*
X184000000Y-70000000D01*
X142500000Y-66000000D02*
X142500000Y-73500000D01*
X140759000Y-64259000D02*
X142500000Y-66000000D01*
X193000000Y-63500000D02*
X193000000Y-60025000D01*
X146443000Y-60683000D02*
X145787000Y-61339000D01*
X142500000Y-73500000D02*
X143769000Y-74769000D01*
X146443000Y-51557000D02*
X146443000Y-60683000D01*
X141462529Y-61339000D02*
X140759000Y-62042529D01*
X140759000Y-62042529D02*
X140759000Y-64259000D01*
X143769000Y-74769000D02*
X179231000Y-74769000D01*
X147027000Y-50973000D02*
X146443000Y-51557000D01*
X145787000Y-61339000D02*
X141462529Y-61339000D01*
%TO.N,/IRQ*%
X144500000Y-45000000D02*
X144500000Y-60000000D01*
X146631000Y-42869000D02*
X144500000Y-45000000D01*
X150535000Y-42869000D02*
X146631000Y-42869000D01*
X151201000Y-43535000D02*
X150535000Y-42869000D01*
D23*
%TO.N,Net-(D1-K)*%
X174000000Y-52000000D02*
X174000000Y-56000000D01*
X173000000Y-51000000D02*
X174000000Y-52000000D01*
X173000000Y-50352000D02*
X173000000Y-51000000D01*
D22*
%TO.N,/sw3*%
X165872000Y-73377000D02*
X165854000Y-73395000D01*
X165872000Y-69701000D02*
X165872000Y-73377000D01*
%TO.N,/Motor3*%
X163777000Y-73399000D02*
X163780000Y-73402000D01*
X163777000Y-69744000D02*
X163777000Y-73399000D01*
D23*
%TO.N,/sw4*%
X148610000Y-66218000D02*
X148610000Y-66640000D01*
X148615000Y-66645000D02*
X148615000Y-73152000D01*
X148610000Y-66640000D02*
X148615000Y-66645000D01*
X148652000Y-76896000D02*
X148660000Y-76888000D01*
X148019000Y-77529000D02*
X148652000Y-76896000D01*
X145950000Y-77529000D02*
X148019000Y-77529000D01*
D24*
%TO.N,+3V3*%
X174500000Y-38000000D02*
X173250000Y-36750000D01*
X177250000Y-45600000D02*
X175250000Y-45600000D01*
X175250000Y-45600000D02*
X174500000Y-44850000D01*
X166000000Y-63000000D02*
X152000000Y-63000000D01*
X177250000Y-60840000D02*
X180160000Y-60840000D01*
X170000000Y-57650000D02*
X170000000Y-59000000D01*
X153980000Y-37185000D02*
X153980000Y-36935000D01*
X180160000Y-60840000D02*
X181500000Y-59500000D01*
X170000000Y-59000000D02*
X167500000Y-61500000D01*
X174500000Y-44850000D02*
X174500000Y-38000000D01*
X181500000Y-47500001D02*
X179599999Y-45600000D01*
X179599999Y-45600000D02*
X177250000Y-45600000D01*
X153980000Y-36935000D02*
X154915000Y-36000000D01*
X154915000Y-36000000D02*
X172500000Y-36000000D01*
X181500000Y-59500000D02*
X181500000Y-47500001D01*
X173250000Y-36750000D02*
X172500000Y-36000000D01*
X167500000Y-61500000D02*
X166000000Y-63000000D01*
D22*
%TO.N,/EN_ESP*%
X193500000Y-36000000D02*
X192500000Y-35000000D01*
X153935000Y-38500000D02*
X153980000Y-38455000D01*
X151500000Y-35000000D02*
X151000000Y-35500000D01*
X151000000Y-35500000D02*
X151000000Y-38000000D01*
X151000000Y-38000000D02*
X151500000Y-38500000D01*
X151500000Y-38500000D02*
X153935000Y-38500000D01*
X192500000Y-35000000D02*
X151500000Y-35000000D01*
X194025000Y-36000000D02*
X193500000Y-36000000D01*
%TO.N,/RTS_ESP*%
X182500000Y-44000000D02*
X181000000Y-42500000D01*
X186920654Y-44000000D02*
X186769654Y-43849000D01*
X186079346Y-44000000D02*
X182500000Y-44000000D01*
X188525000Y-44000000D02*
X186920654Y-44000000D01*
X186769654Y-43849000D02*
X186230346Y-43849000D01*
X186230346Y-43849000D02*
X186079346Y-44000000D01*
X189500000Y-43025000D02*
X188525000Y-44000000D01*
%TO.N,Net-(D6-A2)*%
X192500000Y-37000000D02*
X194500000Y-39000000D01*
X191000000Y-37000000D02*
X192500000Y-37000000D01*
X190000000Y-38500000D02*
X190000000Y-38000000D01*
X193000000Y-54000000D02*
X193000000Y-49500000D01*
X191000000Y-56000000D02*
X191000000Y-63000000D01*
X191000000Y-37000000D02*
X190400000Y-37000000D01*
X190400000Y-37000000D02*
X190000000Y-36600000D01*
X193000000Y-54000000D02*
X191000000Y-56000000D01*
X190000000Y-38000000D02*
X191000000Y-37000000D01*
X191000000Y-63000000D02*
X185750000Y-68250000D01*
X194500000Y-48000000D02*
X193000000Y-49500000D01*
X194500000Y-39000000D02*
X194500000Y-48000000D01*
%TO.N,/IO0_ESP*%
X184000000Y-54000000D02*
X186500000Y-51500000D01*
X186500000Y-51500000D02*
X186500000Y-44500000D01*
%TO.N,/INT*%
X165500000Y-51000000D02*
X163500000Y-49000000D01*
X174500000Y-63380000D02*
X171500000Y-63380000D01*
X165500000Y-61000000D02*
X165500000Y-51000000D01*
%TO.N,/MOSI*%
X145000000Y-41000000D02*
X141960000Y-44040000D01*
X171480000Y-37185000D02*
X168315000Y-37185000D01*
X141960000Y-44040000D02*
X141960000Y-60000000D01*
X164500000Y-41000000D02*
X145000000Y-41000000D01*
X168315000Y-37185000D02*
X164500000Y-41000000D01*
%TO.N,/SCL-SPU*%
X173500000Y-40225000D02*
X173500000Y-46930000D01*
X171480000Y-38455000D02*
X171730000Y-38455000D01*
X173500000Y-46930000D02*
X177250000Y-50680000D01*
X171730000Y-38455000D02*
X173500000Y-40225000D01*
D23*
%TO.N,Net-(D1-A)*%
X175500000Y-62500000D02*
X174000000Y-61000000D01*
X174000000Y-61000000D02*
X174000000Y-58540000D01*
X168500000Y-70525000D02*
X168500000Y-72000000D01*
X168500000Y-72000000D02*
X171000000Y-72000000D01*
X172500000Y-67510735D02*
X175500000Y-64510735D01*
X171000000Y-72000000D02*
X172500000Y-70500000D01*
X172500000Y-70500000D02*
X172500000Y-67510735D01*
X168475000Y-70500000D02*
X168500000Y-70525000D01*
X175500000Y-64510735D02*
X175500000Y-62500000D01*
D24*
%TO.N,unconnected-(Con5-3v3-Pad1)*%
X178420000Y-37420000D02*
X178460000Y-37420000D01*
%TD*%
%TA.AperFunction,Conductor*%
%TO.N,GND*%
G36*
X195141539Y-29700185D02*
G01*
X195187294Y-29752989D01*
X195198500Y-29804500D01*
X195198500Y-38479192D01*
X195192261Y-38500437D01*
X195190682Y-38522525D01*
X195182609Y-38533308D01*
X195178815Y-38546231D01*
X195162083Y-38560729D01*
X195148811Y-38578459D01*
X195136188Y-38583166D01*
X195126011Y-38591986D01*
X195104095Y-38595137D01*
X195083347Y-38602876D01*
X195070185Y-38600013D01*
X195056853Y-38601930D01*
X195036711Y-38592731D01*
X195015074Y-38588025D01*
X194997345Y-38574753D01*
X194993297Y-38572905D01*
X194986819Y-38566874D01*
X194953253Y-38533308D01*
X194914669Y-38494724D01*
X194099137Y-37679192D01*
X193268741Y-36848795D01*
X193235256Y-36787472D01*
X193240240Y-36717780D01*
X193282112Y-36661847D01*
X193347576Y-36637430D01*
X193380614Y-36639497D01*
X193435928Y-36650500D01*
X193435931Y-36650500D01*
X193520065Y-36650500D01*
X193587104Y-36670185D01*
X193588909Y-36671366D01*
X193645821Y-36709394D01*
X193645823Y-36709395D01*
X193645827Y-36709397D01*
X193737004Y-36747163D01*
X193791503Y-36769737D01*
X193903235Y-36791962D01*
X193946153Y-36800499D01*
X193946156Y-36800500D01*
X193946158Y-36800500D01*
X194103844Y-36800500D01*
X194103845Y-36800499D01*
X194258497Y-36769737D01*
X194383933Y-36717780D01*
X194404172Y-36709397D01*
X194404172Y-36709396D01*
X194404179Y-36709394D01*
X194535289Y-36621789D01*
X194646789Y-36510289D01*
X194734394Y-36379179D01*
X194737859Y-36370815D01*
X194792163Y-36239711D01*
X194794737Y-36233497D01*
X194825500Y-36078842D01*
X194825500Y-35921158D01*
X194825500Y-35921155D01*
X194825499Y-35921153D01*
X194805539Y-35820808D01*
X194794737Y-35766503D01*
X194794735Y-35766498D01*
X194734397Y-35620827D01*
X194734390Y-35620814D01*
X194646789Y-35489711D01*
X194646786Y-35489707D01*
X194535292Y-35378213D01*
X194535288Y-35378210D01*
X194404185Y-35290609D01*
X194404172Y-35290602D01*
X194258501Y-35230264D01*
X194258489Y-35230261D01*
X194103845Y-35199500D01*
X194103842Y-35199500D01*
X193946158Y-35199500D01*
X193946155Y-35199500D01*
X193791505Y-35230261D01*
X193791498Y-35230264D01*
X193768134Y-35239941D01*
X193698665Y-35247407D01*
X193636187Y-35216130D01*
X193633005Y-35213059D01*
X192914674Y-34494727D01*
X192914673Y-34494726D01*
X192914669Y-34494723D01*
X192808127Y-34423535D01*
X192689744Y-34374499D01*
X192689738Y-34374497D01*
X192564071Y-34349500D01*
X192564069Y-34349500D01*
X151435931Y-34349500D01*
X151435929Y-34349500D01*
X151310261Y-34374497D01*
X151310255Y-34374499D01*
X151191874Y-34423534D01*
X151085326Y-34494726D01*
X150494724Y-35085328D01*
X150424955Y-35189747D01*
X150423535Y-35191871D01*
X150423532Y-35191877D01*
X150374500Y-35310251D01*
X150374497Y-35310261D01*
X150349500Y-35435928D01*
X150349500Y-38064071D01*
X150360788Y-38120817D01*
X150370671Y-38170500D01*
X150373410Y-38184270D01*
X150374499Y-38189744D01*
X150416277Y-38290606D01*
X150423535Y-38308127D01*
X150487304Y-38403565D01*
X150494726Y-38414673D01*
X151085328Y-39005275D01*
X151163236Y-39057331D01*
X151163235Y-39057331D01*
X151184736Y-39071696D01*
X151191873Y-39076465D01*
X151310256Y-39125501D01*
X151310260Y-39125501D01*
X151310261Y-39125502D01*
X151435928Y-39150500D01*
X151435931Y-39150500D01*
X153543767Y-39150500D01*
X153594698Y-39163256D01*
X153595193Y-39162063D01*
X153746498Y-39224735D01*
X153746503Y-39224737D01*
X153899605Y-39255191D01*
X153901153Y-39255499D01*
X153901156Y-39255500D01*
X153901158Y-39255500D01*
X154058844Y-39255500D01*
X154058845Y-39255499D01*
X154213497Y-39224737D01*
X154359179Y-39164394D01*
X154490289Y-39076789D01*
X154601789Y-38965289D01*
X154689394Y-38834179D01*
X154749737Y-38688497D01*
X154780500Y-38533842D01*
X154780500Y-38376158D01*
X154780500Y-38376155D01*
X154780499Y-38376153D01*
X154749737Y-38221503D01*
X154728611Y-38170500D01*
X154689397Y-38075827D01*
X154689390Y-38075814D01*
X154601789Y-37944711D01*
X154601786Y-37944707D01*
X154564760Y-37907681D01*
X154531275Y-37846358D01*
X154536259Y-37776666D01*
X154564760Y-37732319D01*
X154601786Y-37695292D01*
X154601789Y-37695289D01*
X154689394Y-37564179D01*
X154749737Y-37418497D01*
X154780500Y-37263842D01*
X154780500Y-37247229D01*
X154800185Y-37180190D01*
X154816819Y-37159548D01*
X155189548Y-36786819D01*
X155250871Y-36753334D01*
X155277229Y-36750500D01*
X167530192Y-36750500D01*
X167597231Y-36770185D01*
X167642986Y-36822989D01*
X167652930Y-36892147D01*
X167623905Y-36955703D01*
X167617873Y-36962181D01*
X164266873Y-40313181D01*
X164205550Y-40346666D01*
X164179192Y-40349500D01*
X144935929Y-40349500D01*
X144810261Y-40374497D01*
X144810255Y-40374499D01*
X144691875Y-40423533D01*
X144691866Y-40423538D01*
X144585331Y-40494723D01*
X144585327Y-40494726D01*
X141454727Y-43625325D01*
X141454721Y-43625332D01*
X141410261Y-43691872D01*
X141410262Y-43691873D01*
X141383534Y-43731874D01*
X141334499Y-43850255D01*
X141334497Y-43850261D01*
X141309500Y-43975928D01*
X141309500Y-58740382D01*
X141289815Y-58807421D01*
X141255408Y-58841099D01*
X141256125Y-58842085D01*
X141080213Y-58969890D01*
X140929890Y-59120213D01*
X140804949Y-59292182D01*
X140800484Y-59300946D01*
X140752509Y-59351742D01*
X140684688Y-59368536D01*
X140618553Y-59345998D01*
X140579516Y-59300946D01*
X140575050Y-59292182D01*
X140450109Y-59120213D01*
X140299786Y-58969890D01*
X140127820Y-58844951D01*
X139938414Y-58748444D01*
X139938413Y-58748443D01*
X139938412Y-58748443D01*
X139736243Y-58682754D01*
X139736241Y-58682753D01*
X139736240Y-58682753D01*
X139530845Y-58650222D01*
X139526287Y-58649500D01*
X139313713Y-58649500D01*
X139309155Y-58650222D01*
X139103760Y-58682753D01*
X138901585Y-58748444D01*
X138712179Y-58844951D01*
X138540213Y-58969890D01*
X138389890Y-59120213D01*
X138264949Y-59292182D01*
X138260484Y-59300946D01*
X138212509Y-59351742D01*
X138144688Y-59368536D01*
X138078553Y-59345998D01*
X138039516Y-59300946D01*
X138035050Y-59292182D01*
X137910109Y-59120213D01*
X137759786Y-58969890D01*
X137587820Y-58844951D01*
X137398414Y-58748444D01*
X137398413Y-58748443D01*
X137398412Y-58748443D01*
X137196243Y-58682754D01*
X137196241Y-58682753D01*
X137196240Y-58682753D01*
X136990845Y-58650222D01*
X136986287Y-58649500D01*
X136773713Y-58649500D01*
X136769155Y-58650222D01*
X136563760Y-58682753D01*
X136361585Y-58748444D01*
X136172179Y-58844951D01*
X136000213Y-58969890D01*
X135849890Y-59120213D01*
X135724951Y-59292179D01*
X135628444Y-59481585D01*
X135562753Y-59683760D01*
X135529500Y-59893713D01*
X135529500Y-60106286D01*
X135553608Y-60258501D01*
X135562754Y-60316243D01*
X135621575Y-60497276D01*
X135628444Y-60518414D01*
X135724951Y-60707820D01*
X135849890Y-60879786D01*
X136000213Y-61030109D01*
X136172180Y-61155049D01*
X136173087Y-61155511D01*
X136173370Y-61155778D01*
X136176336Y-61157596D01*
X136175954Y-61158218D01*
X136223887Y-61203481D01*
X136240688Y-61271300D01*
X136218155Y-61337437D01*
X136163444Y-61380893D01*
X136116802Y-61390000D01*
X135985214Y-61390000D01*
X135985191Y-61390002D01*
X135960130Y-61392908D01*
X135960126Y-61392909D01*
X135857525Y-61438211D01*
X135857520Y-61438214D01*
X135778214Y-61517520D01*
X135778211Y-61517525D01*
X135732910Y-61620122D01*
X135732910Y-61620124D01*
X135730000Y-61645205D01*
X135730000Y-62190000D01*
X136522894Y-62190000D01*
X136479901Y-62232993D01*
X136414075Y-62347007D01*
X136380000Y-62474174D01*
X136380000Y-62605826D01*
X136414075Y-62732993D01*
X136479901Y-62847007D01*
X136522894Y-62890000D01*
X135730001Y-62890000D01*
X135730001Y-63434785D01*
X135730002Y-63434808D01*
X135732908Y-63459869D01*
X135732909Y-63459873D01*
X135778211Y-63562474D01*
X135778214Y-63562479D01*
X135857520Y-63641785D01*
X135857525Y-63641788D01*
X135960123Y-63687089D01*
X135985206Y-63689999D01*
X136529999Y-63689999D01*
X136530000Y-63689998D01*
X136530000Y-62897106D01*
X136572993Y-62940099D01*
X136687007Y-63005925D01*
X136814174Y-63040000D01*
X136945826Y-63040000D01*
X137072993Y-63005925D01*
X137187007Y-62940099D01*
X137230000Y-62897106D01*
X137230000Y-63689999D01*
X137774786Y-63689999D01*
X137774808Y-63689997D01*
X137799869Y-63687091D01*
X137799873Y-63687090D01*
X137902474Y-63641788D01*
X137902479Y-63641785D01*
X137981785Y-63562479D01*
X137981788Y-63562474D01*
X138027089Y-63459877D01*
X138027089Y-63459875D01*
X138029999Y-63434794D01*
X138029999Y-63303200D01*
X138049683Y-63236160D01*
X138102487Y-63190405D01*
X138171645Y-63180461D01*
X138235201Y-63209485D01*
X138262097Y-63243851D01*
X138262404Y-63243664D01*
X138264040Y-63246333D01*
X138264480Y-63246896D01*
X138264950Y-63247818D01*
X138389890Y-63419786D01*
X138540213Y-63570109D01*
X138712179Y-63695048D01*
X138712181Y-63695049D01*
X138712184Y-63695051D01*
X138901588Y-63791557D01*
X139103757Y-63857246D01*
X139313713Y-63890500D01*
X139313714Y-63890500D01*
X139526286Y-63890500D01*
X139526287Y-63890500D01*
X139736243Y-63857246D01*
X139938412Y-63791557D01*
X139938413Y-63791556D01*
X139943046Y-63790051D01*
X139943495Y-63791435D01*
X140006483Y-63784646D01*
X140068970Y-63815903D01*
X140104640Y-63875982D01*
X140108500Y-63906682D01*
X140108500Y-64323071D01*
X140130104Y-64431677D01*
X140130105Y-64431680D01*
X140133498Y-64448743D01*
X140170836Y-64538884D01*
X140182535Y-64567127D01*
X140224879Y-64630500D01*
X140253726Y-64673673D01*
X140253727Y-64673674D01*
X141813181Y-66233127D01*
X141846666Y-66294450D01*
X141849500Y-66320808D01*
X141849500Y-73564071D01*
X141863934Y-73636632D01*
X141863934Y-73636633D01*
X141874496Y-73689737D01*
X141874498Y-73689742D01*
X141911930Y-73780109D01*
X141923535Y-73808127D01*
X141994723Y-73914669D01*
X141994726Y-73914673D01*
X143354326Y-75274273D01*
X143354329Y-75274275D01*
X143354331Y-75274277D01*
X143460873Y-75345465D01*
X143579256Y-75394501D01*
X143579260Y-75394501D01*
X143579261Y-75394502D01*
X143704928Y-75419500D01*
X143704931Y-75419500D01*
X179295071Y-75419500D01*
X179379615Y-75402682D01*
X179420744Y-75394501D01*
X179539127Y-75345465D01*
X179645669Y-75274277D01*
X182276233Y-72643713D01*
X184399500Y-72643713D01*
X184399500Y-72856287D01*
X184409117Y-72917003D01*
X184425877Y-73022828D01*
X184432754Y-73066243D01*
X184486236Y-73230844D01*
X184498444Y-73268414D01*
X184594951Y-73457820D01*
X184719890Y-73629786D01*
X184870213Y-73780109D01*
X185042179Y-73905048D01*
X185042181Y-73905049D01*
X185042184Y-73905051D01*
X185231588Y-74001557D01*
X185433757Y-74067246D01*
X185643713Y-74100500D01*
X185643714Y-74100500D01*
X185856286Y-74100500D01*
X185856287Y-74100500D01*
X186066243Y-74067246D01*
X186268412Y-74001557D01*
X186457816Y-73905051D01*
X186517911Y-73861390D01*
X186629786Y-73780109D01*
X186629788Y-73780106D01*
X186629792Y-73780104D01*
X186780104Y-73629792D01*
X186780106Y-73629788D01*
X186780109Y-73629786D01*
X186893406Y-73473844D01*
X186905051Y-73457816D01*
X187001557Y-73268412D01*
X187067246Y-73066243D01*
X187100500Y-72856287D01*
X187100500Y-72643713D01*
X190899500Y-72643713D01*
X190899500Y-72856287D01*
X190909117Y-72917003D01*
X190925877Y-73022828D01*
X190932754Y-73066243D01*
X190986236Y-73230844D01*
X190998444Y-73268414D01*
X191094951Y-73457820D01*
X191219890Y-73629786D01*
X191370213Y-73780109D01*
X191542179Y-73905048D01*
X191542181Y-73905049D01*
X191542184Y-73905051D01*
X191731588Y-74001557D01*
X191933757Y-74067246D01*
X192143713Y-74100500D01*
X192143714Y-74100500D01*
X192356286Y-74100500D01*
X192356287Y-74100500D01*
X192566243Y-74067246D01*
X192768412Y-74001557D01*
X192957816Y-73905051D01*
X193017911Y-73861390D01*
X193129786Y-73780109D01*
X193129788Y-73780106D01*
X193129792Y-73780104D01*
X193280104Y-73629792D01*
X193280106Y-73629788D01*
X193280109Y-73629786D01*
X193393406Y-73473844D01*
X193405051Y-73457816D01*
X193501557Y-73268412D01*
X193567246Y-73066243D01*
X193600500Y-72856287D01*
X193600500Y-72643713D01*
X193567246Y-72433757D01*
X193501557Y-72231588D01*
X193405051Y-72042184D01*
X193405049Y-72042181D01*
X193405048Y-72042179D01*
X193280109Y-71870213D01*
X193129786Y-71719890D01*
X192957820Y-71594951D01*
X192768414Y-71498444D01*
X192768413Y-71498443D01*
X192768412Y-71498443D01*
X192566243Y-71432754D01*
X192566241Y-71432753D01*
X192566240Y-71432753D01*
X192404957Y-71407208D01*
X192356287Y-71399500D01*
X192143713Y-71399500D01*
X192095042Y-71407208D01*
X191933760Y-71432753D01*
X191731585Y-71498444D01*
X191542179Y-71594951D01*
X191370213Y-71719890D01*
X191219890Y-71870213D01*
X191094951Y-72042179D01*
X190998444Y-72231585D01*
X190932753Y-72433760D01*
X190912826Y-72559576D01*
X190899500Y-72643713D01*
X187100500Y-72643713D01*
X187067246Y-72433757D01*
X187001557Y-72231588D01*
X186905051Y-72042184D01*
X186905049Y-72042181D01*
X186905048Y-72042179D01*
X186780109Y-71870213D01*
X186629786Y-71719890D01*
X186457820Y-71594951D01*
X186268414Y-71498444D01*
X186268413Y-71498443D01*
X186268412Y-71498443D01*
X186066243Y-71432754D01*
X186066241Y-71432753D01*
X186066240Y-71432753D01*
X185904957Y-71407208D01*
X185856287Y-71399500D01*
X185643713Y-71399500D01*
X185595042Y-71407208D01*
X185433760Y-71432753D01*
X185231585Y-71498444D01*
X185042179Y-71594951D01*
X184870213Y-71719890D01*
X184719890Y-71870213D01*
X184594951Y-72042179D01*
X184498444Y-72231585D01*
X184432753Y-72433760D01*
X184412826Y-72559576D01*
X184399500Y-72643713D01*
X182276233Y-72643713D01*
X184233127Y-70686819D01*
X184294450Y-70653334D01*
X184320808Y-70650500D01*
X186564071Y-70650500D01*
X186648615Y-70633682D01*
X186689744Y-70625501D01*
X186808127Y-70576465D01*
X186826679Y-70564069D01*
X186914669Y-70505277D01*
X187562486Y-69857460D01*
X188278540Y-69141407D01*
X189260454Y-68159493D01*
X191100000Y-68159493D01*
X191100000Y-68340506D01*
X191128317Y-68519293D01*
X191184251Y-68691444D01*
X191184252Y-68691447D01*
X191227904Y-68777118D01*
X191750000Y-68255024D01*
X191750000Y-68315826D01*
X191784075Y-68442993D01*
X191849901Y-68557007D01*
X191942993Y-68650099D01*
X192057007Y-68715925D01*
X192184174Y-68750000D01*
X192244974Y-68750000D01*
X191722879Y-69272093D01*
X191808552Y-69315747D01*
X191808555Y-69315748D01*
X191980706Y-69371682D01*
X192159494Y-69400000D01*
X192340506Y-69400000D01*
X192519293Y-69371682D01*
X192691445Y-69315747D01*
X192691452Y-69315744D01*
X192777119Y-69272093D01*
X192255027Y-68750000D01*
X192315826Y-68750000D01*
X192442993Y-68715925D01*
X192557007Y-68650099D01*
X192650099Y-68557007D01*
X192715925Y-68442993D01*
X192750000Y-68315826D01*
X192750000Y-68255026D01*
X193272093Y-68777119D01*
X193315744Y-68691452D01*
X193315747Y-68691445D01*
X193371682Y-68519293D01*
X193400000Y-68340506D01*
X193400000Y-68159493D01*
X193371682Y-67980706D01*
X193315748Y-67808555D01*
X193315747Y-67808552D01*
X193272093Y-67722879D01*
X192750000Y-68244972D01*
X192750000Y-68184174D01*
X192715925Y-68057007D01*
X192650099Y-67942993D01*
X192557007Y-67849901D01*
X192442993Y-67784075D01*
X192315826Y-67750000D01*
X192255026Y-67750000D01*
X192777119Y-67227905D01*
X192691447Y-67184252D01*
X192691444Y-67184251D01*
X192519293Y-67128317D01*
X192340506Y-67100000D01*
X192159494Y-67100000D01*
X191980706Y-67128317D01*
X191808553Y-67184252D01*
X191722879Y-67227904D01*
X192244975Y-67750000D01*
X192184174Y-67750000D01*
X192057007Y-67784075D01*
X191942993Y-67849901D01*
X191849901Y-67942993D01*
X191784075Y-68057007D01*
X191750000Y-68184174D01*
X191750000Y-68244974D01*
X191227904Y-67722879D01*
X191184252Y-67808553D01*
X191128317Y-67980706D01*
X191100000Y-68159493D01*
X189260454Y-68159493D01*
X190236718Y-67183229D01*
X193505273Y-63914672D01*
X193505272Y-63914672D01*
X193505276Y-63914669D01*
X193576465Y-63808127D01*
X193625501Y-63689744D01*
X193633307Y-63650500D01*
X193650500Y-63564069D01*
X193650500Y-60529935D01*
X193670185Y-60462896D01*
X193671366Y-60461090D01*
X193709394Y-60404179D01*
X193769737Y-60258497D01*
X193800500Y-60103842D01*
X193800500Y-59946158D01*
X193800500Y-59946155D01*
X193800499Y-59946153D01*
X193769738Y-59791510D01*
X193769737Y-59791503D01*
X193769735Y-59791498D01*
X193709397Y-59645827D01*
X193709390Y-59645814D01*
X193621789Y-59514711D01*
X193621786Y-59514707D01*
X193510292Y-59403213D01*
X193510288Y-59403210D01*
X193379185Y-59315609D01*
X193379172Y-59315602D01*
X193233501Y-59255264D01*
X193233489Y-59255261D01*
X193078845Y-59224500D01*
X193078842Y-59224500D01*
X192921158Y-59224500D01*
X192921155Y-59224500D01*
X192766510Y-59255261D01*
X192766498Y-59255264D01*
X192620827Y-59315602D01*
X192620814Y-59315609D01*
X192489711Y-59403210D01*
X192489707Y-59403213D01*
X192378213Y-59514707D01*
X192378210Y-59514711D01*
X192290609Y-59645814D01*
X192290602Y-59645827D01*
X192230264Y-59791498D01*
X192230261Y-59791510D01*
X192199500Y-59946153D01*
X192199500Y-60103846D01*
X192230261Y-60258489D01*
X192230264Y-60258501D01*
X192290602Y-60404172D01*
X192290606Y-60404179D01*
X192328602Y-60461044D01*
X192349480Y-60527721D01*
X192349500Y-60529935D01*
X192349500Y-63179192D01*
X192329815Y-63246231D01*
X192313181Y-63266873D01*
X187312181Y-68267873D01*
X187250858Y-68301358D01*
X187181166Y-68296374D01*
X187125233Y-68254502D01*
X187100816Y-68189038D01*
X187100500Y-68180192D01*
X187100500Y-68143713D01*
X187066484Y-67928945D01*
X187068123Y-67928685D01*
X187071257Y-67866126D01*
X187100655Y-67819289D01*
X191505276Y-63414669D01*
X191576465Y-63308127D01*
X191625501Y-63189744D01*
X191634102Y-63146503D01*
X191650500Y-63064069D01*
X191650500Y-56320807D01*
X191670185Y-56253768D01*
X191686819Y-56233126D01*
X192334617Y-55585328D01*
X193102931Y-54817013D01*
X193164252Y-54783530D01*
X193166284Y-54783106D01*
X193233497Y-54769737D01*
X193379179Y-54709394D01*
X193510289Y-54621789D01*
X193621789Y-54510289D01*
X193709394Y-54379179D01*
X193769737Y-54233497D01*
X193800500Y-54078842D01*
X193800500Y-53921158D01*
X193800500Y-53921155D01*
X193800499Y-53921153D01*
X193769738Y-53766510D01*
X193769737Y-53766503D01*
X193709394Y-53620821D01*
X193671396Y-53563953D01*
X193650520Y-53497276D01*
X193650500Y-53495064D01*
X193650500Y-50004935D01*
X193670185Y-49937896D01*
X193671366Y-49936090D01*
X193709394Y-49879179D01*
X193769737Y-49733497D01*
X193783079Y-49666416D01*
X193815463Y-49604509D01*
X193816958Y-49602986D01*
X194986819Y-48433127D01*
X195048142Y-48399642D01*
X195117834Y-48404626D01*
X195173767Y-48446498D01*
X195198184Y-48511962D01*
X195198500Y-48520808D01*
X195198500Y-79101500D01*
X195178815Y-79168539D01*
X195126011Y-79214294D01*
X195074500Y-79225500D01*
X134663500Y-79225500D01*
X134596461Y-79205815D01*
X134550706Y-79153011D01*
X134539500Y-79101500D01*
X134539500Y-76404648D01*
X135851500Y-76404648D01*
X135851500Y-76609352D01*
X135855878Y-76636995D01*
X135883522Y-76811534D01*
X135946781Y-77006223D01*
X136009340Y-77129000D01*
X136023229Y-77156259D01*
X136039715Y-77188613D01*
X136160028Y-77354213D01*
X136304786Y-77498971D01*
X136450518Y-77604849D01*
X136470390Y-77619287D01*
X136561555Y-77665738D01*
X136652776Y-77712218D01*
X136652778Y-77712218D01*
X136652781Y-77712220D01*
X136745158Y-77742235D01*
X136847465Y-77775477D01*
X136913740Y-77785974D01*
X137049648Y-77807500D01*
X137049649Y-77807500D01*
X137254351Y-77807500D01*
X137254352Y-77807500D01*
X137456534Y-77775477D01*
X137651219Y-77712220D01*
X137833610Y-77619287D01*
X137957879Y-77529001D01*
X137999213Y-77498971D01*
X137999215Y-77498968D01*
X137999219Y-77498966D01*
X138143966Y-77354219D01*
X138143968Y-77354215D01*
X138143971Y-77354213D01*
X138201391Y-77275179D01*
X138264287Y-77188610D01*
X138357220Y-77006219D01*
X138420477Y-76811534D01*
X138421332Y-76806135D01*
X140774500Y-76806135D01*
X140774500Y-78251870D01*
X140774501Y-78251876D01*
X140780908Y-78311483D01*
X140831202Y-78446328D01*
X140831206Y-78446335D01*
X140917452Y-78561544D01*
X140917455Y-78561547D01*
X141032664Y-78647793D01*
X141032671Y-78647797D01*
X141167517Y-78698091D01*
X141167516Y-78698091D01*
X141174444Y-78698835D01*
X141227127Y-78704500D01*
X142672872Y-78704499D01*
X142732483Y-78698091D01*
X142867331Y-78647796D01*
X142982546Y-78561546D01*
X143068796Y-78446331D01*
X143078540Y-78420206D01*
X143553765Y-78420206D01*
X143665602Y-78466531D01*
X143665610Y-78466533D01*
X143853966Y-78503999D01*
X143853970Y-78504000D01*
X144046030Y-78504000D01*
X144046033Y-78503999D01*
X144234389Y-78466533D01*
X144234393Y-78466532D01*
X144346233Y-78420206D01*
X143950001Y-78023974D01*
X143950000Y-78023974D01*
X143553765Y-78420206D01*
X143078540Y-78420206D01*
X143093394Y-78380380D01*
X143109925Y-78336059D01*
X143114591Y-78323547D01*
X143119091Y-78311483D01*
X143125500Y-78251873D01*
X143125499Y-77909885D01*
X143145183Y-77842849D01*
X143161818Y-77822206D01*
X143455025Y-77528999D01*
X143402365Y-77476339D01*
X143550000Y-77476339D01*
X143550000Y-77581661D01*
X143577259Y-77683394D01*
X143629920Y-77774606D01*
X143704394Y-77849080D01*
X143795606Y-77901741D01*
X143897339Y-77929000D01*
X144002661Y-77929000D01*
X144104394Y-77901741D01*
X144195606Y-77849080D01*
X144270080Y-77774606D01*
X144322741Y-77683394D01*
X144350000Y-77581661D01*
X144350000Y-77529000D01*
X144444974Y-77529000D01*
X144444974Y-77529001D01*
X144822442Y-77906469D01*
X144852692Y-77955833D01*
X144860618Y-77980229D01*
X144860620Y-77980235D01*
X144915824Y-78088577D01*
X144944622Y-78145096D01*
X145053379Y-78294787D01*
X145184213Y-78425621D01*
X145333904Y-78534378D01*
X145387224Y-78561546D01*
X145498764Y-78618379D01*
X145498767Y-78618380D01*
X145586750Y-78646967D01*
X145674736Y-78675555D01*
X145857486Y-78704500D01*
X145857487Y-78704500D01*
X146042513Y-78704500D01*
X146042514Y-78704500D01*
X146225264Y-78675555D01*
X146401235Y-78618379D01*
X146566096Y-78534378D01*
X146715787Y-78425621D01*
X146846621Y-78294787D01*
X146929572Y-78180615D01*
X146984902Y-78137949D01*
X147029890Y-78129500D01*
X147932331Y-78129500D01*
X147932347Y-78129501D01*
X147939943Y-78129501D01*
X148098054Y-78129501D01*
X148098057Y-78129501D01*
X148250785Y-78088577D01*
X148305846Y-78056787D01*
X148387716Y-78009520D01*
X148499520Y-77897716D01*
X148499520Y-77897714D01*
X148509720Y-77887515D01*
X148509723Y-77887510D01*
X148666664Y-77730570D01*
X148727983Y-77697089D01*
X148730150Y-77696638D01*
X148796730Y-77683394D01*
X148885497Y-77665737D01*
X149031179Y-77605394D01*
X149162289Y-77517789D01*
X149273789Y-77406289D01*
X149361394Y-77275179D01*
X149421737Y-77129497D01*
X149452500Y-76974842D01*
X149452500Y-76817158D01*
X149452500Y-76817155D01*
X149452499Y-76817153D01*
X149450304Y-76806116D01*
X149421737Y-76662503D01*
X149382649Y-76568135D01*
X178512500Y-76568135D01*
X178512500Y-78013870D01*
X178512501Y-78013876D01*
X178518908Y-78073483D01*
X178569202Y-78208328D01*
X178569206Y-78208335D01*
X178655452Y-78323544D01*
X178655455Y-78323547D01*
X178770664Y-78409793D01*
X178770671Y-78409797D01*
X178905517Y-78460091D01*
X178905516Y-78460091D01*
X178912444Y-78460835D01*
X178965127Y-78466500D01*
X180410872Y-78466499D01*
X180470483Y-78460091D01*
X180605331Y-78409796D01*
X180720546Y-78323546D01*
X180806796Y-78208331D01*
X180816540Y-78182206D01*
X181291765Y-78182206D01*
X181403602Y-78228531D01*
X181403610Y-78228533D01*
X181591966Y-78265999D01*
X181591970Y-78266000D01*
X181784030Y-78266000D01*
X181784033Y-78265999D01*
X181972389Y-78228533D01*
X181972393Y-78228532D01*
X182084233Y-78182206D01*
X181688001Y-77785974D01*
X181688000Y-77785974D01*
X181291765Y-78182206D01*
X180816540Y-78182206D01*
X180857091Y-78073483D01*
X180863500Y-78013873D01*
X180863499Y-77671885D01*
X180883183Y-77604849D01*
X180899818Y-77584206D01*
X181193025Y-77290999D01*
X181140365Y-77238339D01*
X181288000Y-77238339D01*
X181288000Y-77343661D01*
X181315259Y-77445394D01*
X181367920Y-77536606D01*
X181442394Y-77611080D01*
X181533606Y-77663741D01*
X181635339Y-77691000D01*
X181740661Y-77691000D01*
X181842394Y-77663741D01*
X181933606Y-77611080D01*
X182008080Y-77536606D01*
X182060741Y-77445394D01*
X182088000Y-77343661D01*
X182088000Y-77291000D01*
X182182974Y-77291000D01*
X182182974Y-77291001D01*
X182560442Y-77668469D01*
X182590692Y-77717833D01*
X182598618Y-77742229D01*
X182598620Y-77742235D01*
X182630226Y-77804264D01*
X182682622Y-77907096D01*
X182791379Y-78056787D01*
X182922213Y-78187621D01*
X183071904Y-78296378D01*
X183125224Y-78323546D01*
X183236764Y-78380379D01*
X183236767Y-78380380D01*
X183324750Y-78408967D01*
X183412736Y-78437555D01*
X183595486Y-78466500D01*
X183595487Y-78466500D01*
X183780513Y-78466500D01*
X183780514Y-78466500D01*
X183963264Y-78437555D01*
X184139235Y-78380379D01*
X184304096Y-78296378D01*
X184453787Y-78187621D01*
X184584621Y-78056787D01*
X184693378Y-77907096D01*
X184777379Y-77742235D01*
X184834555Y-77566264D01*
X184863500Y-77383514D01*
X184863500Y-77198486D01*
X184834555Y-77015736D01*
X184790886Y-76881335D01*
X184777380Y-76839767D01*
X184777379Y-76839764D01*
X184729865Y-76746514D01*
X184693378Y-76674904D01*
X184584621Y-76525213D01*
X184464056Y-76404648D01*
X189532500Y-76404648D01*
X189532500Y-76609352D01*
X189536878Y-76636995D01*
X189564522Y-76811534D01*
X189627781Y-77006223D01*
X189690340Y-77129000D01*
X189704229Y-77156259D01*
X189720715Y-77188613D01*
X189841028Y-77354213D01*
X189985786Y-77498971D01*
X190131518Y-77604849D01*
X190151390Y-77619287D01*
X190242555Y-77665738D01*
X190333776Y-77712218D01*
X190333778Y-77712218D01*
X190333781Y-77712220D01*
X190426158Y-77742235D01*
X190528465Y-77775477D01*
X190594740Y-77785974D01*
X190730648Y-77807500D01*
X190730649Y-77807500D01*
X190935351Y-77807500D01*
X190935352Y-77807500D01*
X191137534Y-77775477D01*
X191332219Y-77712220D01*
X191514610Y-77619287D01*
X191638879Y-77529001D01*
X191680213Y-77498971D01*
X191680215Y-77498968D01*
X191680219Y-77498966D01*
X191824966Y-77354219D01*
X191824968Y-77354215D01*
X191824971Y-77354213D01*
X191882391Y-77275179D01*
X191945287Y-77188610D01*
X192038220Y-77006219D01*
X192101477Y-76811534D01*
X192133500Y-76609352D01*
X192133500Y-76404648D01*
X192112841Y-76274213D01*
X192101477Y-76202465D01*
X192038218Y-76007776D01*
X192004503Y-75941607D01*
X191945287Y-75825390D01*
X191937556Y-75814749D01*
X191824971Y-75659786D01*
X191680213Y-75515028D01*
X191514613Y-75394715D01*
X191514612Y-75394714D01*
X191514610Y-75394713D01*
X191417956Y-75345465D01*
X191332223Y-75301781D01*
X191137534Y-75238522D01*
X190962995Y-75210878D01*
X190935352Y-75206500D01*
X190730648Y-75206500D01*
X190706329Y-75210351D01*
X190528465Y-75238522D01*
X190333776Y-75301781D01*
X190151386Y-75394715D01*
X189985786Y-75515028D01*
X189841028Y-75659786D01*
X189720715Y-75825386D01*
X189627781Y-76007776D01*
X189564522Y-76202465D01*
X189537406Y-76373671D01*
X189532500Y-76404648D01*
X184464056Y-76404648D01*
X184453787Y-76394379D01*
X184304096Y-76285622D01*
X184250778Y-76258455D01*
X184139235Y-76201620D01*
X184139232Y-76201619D01*
X183963265Y-76144445D01*
X183871889Y-76129972D01*
X183780514Y-76115500D01*
X183595486Y-76115500D01*
X183555028Y-76121908D01*
X183412734Y-76144445D01*
X183236767Y-76201619D01*
X183236764Y-76201620D01*
X183071903Y-76285622D01*
X183030092Y-76316000D01*
X182922213Y-76394379D01*
X182922211Y-76394381D01*
X182922210Y-76394381D01*
X182791381Y-76525210D01*
X182791381Y-76525211D01*
X182791379Y-76525213D01*
X182760199Y-76568129D01*
X182682622Y-76674903D01*
X182598622Y-76839761D01*
X182590691Y-76864170D01*
X182560443Y-76913529D01*
X182182974Y-77291000D01*
X182088000Y-77291000D01*
X182088000Y-77238339D01*
X182060741Y-77136606D01*
X182008080Y-77045394D01*
X181933606Y-76970920D01*
X181842394Y-76918259D01*
X181740661Y-76891000D01*
X181635339Y-76891000D01*
X181533606Y-76918259D01*
X181442394Y-76970920D01*
X181367920Y-77045394D01*
X181315259Y-77136606D01*
X181288000Y-77238339D01*
X181140365Y-77238339D01*
X180899818Y-76997792D01*
X180866333Y-76936469D01*
X180863499Y-76910111D01*
X180863499Y-76568129D01*
X180863498Y-76568123D01*
X180857091Y-76508517D01*
X180857090Y-76508514D01*
X180847925Y-76483939D01*
X180816540Y-76399792D01*
X181291765Y-76399792D01*
X181688000Y-76796026D01*
X181688001Y-76796026D01*
X182084233Y-76399792D01*
X181972397Y-76353468D01*
X181972389Y-76353466D01*
X181784033Y-76316000D01*
X181591966Y-76316000D01*
X181403611Y-76353466D01*
X181403599Y-76353469D01*
X181291765Y-76399792D01*
X180816540Y-76399792D01*
X180806797Y-76373671D01*
X180806793Y-76373664D01*
X180720547Y-76258455D01*
X180720544Y-76258452D01*
X180605335Y-76172206D01*
X180605328Y-76172202D01*
X180470482Y-76121908D01*
X180470483Y-76121908D01*
X180410883Y-76115501D01*
X180410881Y-76115500D01*
X180410873Y-76115500D01*
X180410864Y-76115500D01*
X178965129Y-76115500D01*
X178965123Y-76115501D01*
X178905516Y-76121908D01*
X178770671Y-76172202D01*
X178770664Y-76172206D01*
X178655455Y-76258452D01*
X178655452Y-76258455D01*
X178569206Y-76373664D01*
X178569202Y-76373671D01*
X178518908Y-76508517D01*
X178512501Y-76568116D01*
X178512501Y-76568123D01*
X178512500Y-76568135D01*
X149382649Y-76568135D01*
X149382646Y-76568128D01*
X149361397Y-76516826D01*
X149361390Y-76516814D01*
X149273789Y-76385711D01*
X149273786Y-76385707D01*
X149162292Y-76274213D01*
X149162288Y-76274210D01*
X149031185Y-76186609D01*
X149031172Y-76186602D01*
X148885501Y-76126264D01*
X148885489Y-76126261D01*
X148730845Y-76095500D01*
X148730842Y-76095500D01*
X148573158Y-76095500D01*
X148573155Y-76095500D01*
X148418510Y-76126261D01*
X148418498Y-76126264D01*
X148272827Y-76186602D01*
X148272814Y-76186609D01*
X148141711Y-76274210D01*
X148141707Y-76274213D01*
X148030213Y-76385707D01*
X148030210Y-76385711D01*
X147942609Y-76516814D01*
X147942602Y-76516827D01*
X147882264Y-76662498D01*
X147882261Y-76662508D01*
X147851361Y-76817850D01*
X147842597Y-76834603D01*
X147838579Y-76853080D01*
X147819831Y-76878125D01*
X147818976Y-76879761D01*
X147817429Y-76881335D01*
X147806588Y-76892177D01*
X147745267Y-76925665D01*
X147718903Y-76928500D01*
X147029890Y-76928500D01*
X146962851Y-76908815D01*
X146929572Y-76877385D01*
X146870461Y-76796026D01*
X146846621Y-76763213D01*
X146715787Y-76632379D01*
X146566096Y-76523622D01*
X146512778Y-76496455D01*
X146401235Y-76439620D01*
X146401232Y-76439619D01*
X146225265Y-76382445D01*
X146082972Y-76359908D01*
X146042514Y-76353500D01*
X145857486Y-76353500D01*
X145817028Y-76359908D01*
X145674734Y-76382445D01*
X145498767Y-76439619D01*
X145498764Y-76439620D01*
X145333903Y-76523622D01*
X145272648Y-76568127D01*
X145184213Y-76632379D01*
X145184211Y-76632381D01*
X145184210Y-76632381D01*
X145053381Y-76763210D01*
X145053381Y-76763211D01*
X145053379Y-76763213D01*
X145022199Y-76806129D01*
X144944622Y-76912903D01*
X144860622Y-77077761D01*
X144852691Y-77102170D01*
X144822443Y-77151529D01*
X144444974Y-77529000D01*
X144350000Y-77529000D01*
X144350000Y-77476339D01*
X144322741Y-77374606D01*
X144270080Y-77283394D01*
X144195606Y-77208920D01*
X144104394Y-77156259D01*
X144002661Y-77129000D01*
X143897339Y-77129000D01*
X143795606Y-77156259D01*
X143704394Y-77208920D01*
X143629920Y-77283394D01*
X143577259Y-77374606D01*
X143550000Y-77476339D01*
X143402365Y-77476339D01*
X143161818Y-77235792D01*
X143128333Y-77174469D01*
X143125499Y-77148111D01*
X143125499Y-76806129D01*
X143125498Y-76806123D01*
X143119091Y-76746517D01*
X143119090Y-76746514D01*
X143109925Y-76721939D01*
X143078540Y-76637792D01*
X143553765Y-76637792D01*
X143950000Y-77034026D01*
X143950001Y-77034026D01*
X144346233Y-76637792D01*
X144234397Y-76591468D01*
X144234389Y-76591466D01*
X144046033Y-76554000D01*
X143853966Y-76554000D01*
X143665611Y-76591466D01*
X143665599Y-76591469D01*
X143553765Y-76637792D01*
X143078540Y-76637792D01*
X143068797Y-76611671D01*
X143068793Y-76611664D01*
X142982547Y-76496455D01*
X142982544Y-76496452D01*
X142867335Y-76410206D01*
X142867328Y-76410202D01*
X142732482Y-76359908D01*
X142732483Y-76359908D01*
X142672883Y-76353501D01*
X142672881Y-76353500D01*
X142672873Y-76353500D01*
X142672864Y-76353500D01*
X141227129Y-76353500D01*
X141227123Y-76353501D01*
X141167516Y-76359908D01*
X141032671Y-76410202D01*
X141032664Y-76410206D01*
X140917455Y-76496452D01*
X140917452Y-76496455D01*
X140831206Y-76611664D01*
X140831202Y-76611671D01*
X140780908Y-76746517D01*
X140775586Y-76796026D01*
X140774501Y-76806123D01*
X140774500Y-76806135D01*
X138421332Y-76806135D01*
X138428131Y-76763213D01*
X138447995Y-76637792D01*
X138452500Y-76609352D01*
X138452500Y-76404648D01*
X138431841Y-76274213D01*
X138420477Y-76202465D01*
X138357218Y-76007776D01*
X138323503Y-75941607D01*
X138264287Y-75825390D01*
X138256556Y-75814749D01*
X138143971Y-75659786D01*
X137999213Y-75515028D01*
X137833613Y-75394715D01*
X137833612Y-75394714D01*
X137833610Y-75394713D01*
X137736956Y-75345465D01*
X137651223Y-75301781D01*
X137456534Y-75238522D01*
X137281995Y-75210878D01*
X137254352Y-75206500D01*
X137049648Y-75206500D01*
X137025329Y-75210351D01*
X136847465Y-75238522D01*
X136652776Y-75301781D01*
X136470386Y-75394715D01*
X136304786Y-75515028D01*
X136160028Y-75659786D01*
X136039715Y-75825386D01*
X135946781Y-76007776D01*
X135883522Y-76202465D01*
X135856406Y-76373671D01*
X135851500Y-76404648D01*
X134539500Y-76404648D01*
X134539500Y-32113648D01*
X135851500Y-32113648D01*
X135851500Y-32318351D01*
X135883522Y-32520534D01*
X135946781Y-32715223D01*
X136000783Y-32821206D01*
X136028687Y-32875971D01*
X136039715Y-32897613D01*
X136160028Y-33063213D01*
X136304786Y-33207971D01*
X136401928Y-33278547D01*
X136470390Y-33328287D01*
X136586607Y-33387503D01*
X136652776Y-33421218D01*
X136652778Y-33421218D01*
X136652781Y-33421220D01*
X136757137Y-33455127D01*
X136847465Y-33484477D01*
X136948557Y-33500488D01*
X137049648Y-33516500D01*
X137049649Y-33516500D01*
X137254351Y-33516500D01*
X137254352Y-33516500D01*
X137456534Y-33484477D01*
X137651219Y-33421220D01*
X137833610Y-33328287D01*
X137939467Y-33251378D01*
X137999213Y-33207971D01*
X137999215Y-33207968D01*
X137999219Y-33207966D01*
X138143966Y-33063219D01*
X138143968Y-33063215D01*
X138143971Y-33063213D01*
X138196732Y-32990590D01*
X138264287Y-32897610D01*
X138357220Y-32715219D01*
X138420477Y-32520534D01*
X138452500Y-32318352D01*
X138452500Y-32113648D01*
X138423413Y-31930000D01*
X138420477Y-31911465D01*
X138382559Y-31794767D01*
X138357220Y-31716781D01*
X138357218Y-31716778D01*
X138357218Y-31716776D01*
X138285540Y-31576101D01*
X138285539Y-31576097D01*
X138264288Y-31534391D01*
X138264287Y-31534389D01*
X138256111Y-31523135D01*
X143095500Y-31523135D01*
X143095500Y-32968870D01*
X143095501Y-32968876D01*
X143101908Y-33028483D01*
X143152202Y-33163328D01*
X143152206Y-33163335D01*
X143238452Y-33278544D01*
X143238455Y-33278547D01*
X143353664Y-33364793D01*
X143353671Y-33364797D01*
X143488517Y-33415091D01*
X143488516Y-33415091D01*
X143495444Y-33415835D01*
X143548127Y-33421500D01*
X144993872Y-33421499D01*
X145053483Y-33415091D01*
X145188331Y-33364796D01*
X145303546Y-33278546D01*
X145389796Y-33163331D01*
X145399540Y-33137206D01*
X145874765Y-33137206D01*
X145986602Y-33183531D01*
X145986610Y-33183533D01*
X146174966Y-33220999D01*
X146174970Y-33221000D01*
X146367030Y-33221000D01*
X146367033Y-33220999D01*
X146555389Y-33183533D01*
X146555393Y-33183532D01*
X146667233Y-33137206D01*
X146271001Y-32740974D01*
X146271000Y-32740974D01*
X145874765Y-33137206D01*
X145399540Y-33137206D01*
X145422162Y-33076554D01*
X145430925Y-33053059D01*
X145432924Y-33047698D01*
X145440091Y-33028483D01*
X145446500Y-32968873D01*
X145446499Y-32626885D01*
X145466183Y-32559849D01*
X145482818Y-32539206D01*
X145776025Y-32245999D01*
X145723365Y-32193339D01*
X145871000Y-32193339D01*
X145871000Y-32298661D01*
X145898259Y-32400394D01*
X145950920Y-32491606D01*
X146025394Y-32566080D01*
X146116606Y-32618741D01*
X146218339Y-32646000D01*
X146323661Y-32646000D01*
X146425394Y-32618741D01*
X146516606Y-32566080D01*
X146591080Y-32491606D01*
X146643741Y-32400394D01*
X146671000Y-32298661D01*
X146671000Y-32246000D01*
X146765974Y-32246000D01*
X146765974Y-32246001D01*
X147143442Y-32623469D01*
X147173692Y-32672833D01*
X147181618Y-32697229D01*
X147181620Y-32697235D01*
X147258097Y-32847328D01*
X147265622Y-32862096D01*
X147374379Y-33011787D01*
X147505213Y-33142621D01*
X147654904Y-33251378D01*
X147708224Y-33278546D01*
X147819764Y-33335379D01*
X147819767Y-33335380D01*
X147907750Y-33363967D01*
X147995736Y-33392555D01*
X148178486Y-33421500D01*
X148178487Y-33421500D01*
X148363513Y-33421500D01*
X148363514Y-33421500D01*
X148546264Y-33392555D01*
X148722235Y-33335379D01*
X148887096Y-33251378D01*
X149036787Y-33142621D01*
X149167621Y-33011787D01*
X149276378Y-32862096D01*
X149360379Y-32697235D01*
X149417555Y-32521264D01*
X149446500Y-32338514D01*
X149446500Y-32153486D01*
X149417555Y-31970736D01*
X149374260Y-31837486D01*
X149360380Y-31794767D01*
X149360379Y-31794764D01*
X149304142Y-31684394D01*
X149276378Y-31629904D01*
X149167621Y-31480213D01*
X149036787Y-31349379D01*
X148887096Y-31240622D01*
X148821375Y-31207135D01*
X180036500Y-31207135D01*
X180036500Y-32652870D01*
X180036501Y-32652876D01*
X180042908Y-32712483D01*
X180093202Y-32847328D01*
X180093206Y-32847335D01*
X180179452Y-32962544D01*
X180179455Y-32962547D01*
X180294664Y-33048793D01*
X180294671Y-33048797D01*
X180429517Y-33099091D01*
X180429516Y-33099091D01*
X180436444Y-33099835D01*
X180489127Y-33105500D01*
X181934872Y-33105499D01*
X181994483Y-33099091D01*
X182129331Y-33048796D01*
X182244546Y-32962546D01*
X182330796Y-32847331D01*
X182340540Y-32821206D01*
X182815765Y-32821206D01*
X182927602Y-32867531D01*
X182927610Y-32867533D01*
X183115966Y-32904999D01*
X183115970Y-32905000D01*
X183308030Y-32905000D01*
X183308033Y-32904999D01*
X183496389Y-32867533D01*
X183496393Y-32867532D01*
X183608233Y-32821206D01*
X183212001Y-32424974D01*
X183212000Y-32424974D01*
X182815765Y-32821206D01*
X182340540Y-32821206D01*
X182381091Y-32712483D01*
X182387500Y-32652873D01*
X182387499Y-32310885D01*
X182407183Y-32243849D01*
X182423818Y-32223206D01*
X182717025Y-31929999D01*
X182664365Y-31877339D01*
X182812000Y-31877339D01*
X182812000Y-31982661D01*
X182839259Y-32084394D01*
X182891920Y-32175606D01*
X182966394Y-32250080D01*
X183057606Y-32302741D01*
X183159339Y-32330000D01*
X183264661Y-32330000D01*
X183366394Y-32302741D01*
X183457606Y-32250080D01*
X183532080Y-32175606D01*
X183584741Y-32084394D01*
X183612000Y-31982661D01*
X183612000Y-31930000D01*
X183706974Y-31930000D01*
X184084442Y-32307468D01*
X184114691Y-32356830D01*
X184119920Y-32372922D01*
X184122621Y-32381236D01*
X184132383Y-32400394D01*
X184206622Y-32546096D01*
X184315379Y-32695787D01*
X184446213Y-32826621D01*
X184595904Y-32935378D01*
X184676763Y-32976577D01*
X184760764Y-33019379D01*
X184760767Y-33019380D01*
X184848750Y-33047967D01*
X184936736Y-33076555D01*
X185119486Y-33105500D01*
X185119487Y-33105500D01*
X185304513Y-33105500D01*
X185304514Y-33105500D01*
X185487264Y-33076555D01*
X185663235Y-33019379D01*
X185828096Y-32935378D01*
X185977787Y-32826621D01*
X186108621Y-32695787D01*
X186217378Y-32546096D01*
X186301379Y-32381235D01*
X186358555Y-32205264D01*
X186387500Y-32022514D01*
X186387500Y-31837486D01*
X186380733Y-31794764D01*
X186378656Y-31781648D01*
X190006500Y-31781648D01*
X190006500Y-31986351D01*
X190038522Y-32188534D01*
X190101781Y-32383223D01*
X190123055Y-32424974D01*
X190181259Y-32539206D01*
X190194715Y-32565613D01*
X190315028Y-32731213D01*
X190459786Y-32875971D01*
X190614749Y-32988556D01*
X190625390Y-32996287D01*
X190728439Y-33048793D01*
X190807776Y-33089218D01*
X190807778Y-33089218D01*
X190807781Y-33089220D01*
X190857880Y-33105498D01*
X191002465Y-33152477D01*
X191103557Y-33168488D01*
X191204648Y-33184500D01*
X191204649Y-33184500D01*
X191409351Y-33184500D01*
X191409352Y-33184500D01*
X191611534Y-33152477D01*
X191806219Y-33089220D01*
X191988610Y-32996287D01*
X192114257Y-32905000D01*
X192154213Y-32875971D01*
X192154215Y-32875968D01*
X192154219Y-32875966D01*
X192298966Y-32731219D01*
X192298968Y-32731215D01*
X192298971Y-32731213D01*
X192380685Y-32618741D01*
X192419287Y-32565610D01*
X192512220Y-32383219D01*
X192575477Y-32188534D01*
X192607500Y-31986352D01*
X192607500Y-31781648D01*
X192587399Y-31654736D01*
X192575477Y-31579465D01*
X192529817Y-31438939D01*
X192512220Y-31384781D01*
X192512218Y-31384778D01*
X192512218Y-31384776D01*
X192473337Y-31308469D01*
X192419287Y-31202390D01*
X192386034Y-31156621D01*
X192298971Y-31036786D01*
X192154213Y-30892028D01*
X191988613Y-30771715D01*
X191988612Y-30771714D01*
X191988610Y-30771713D01*
X191931653Y-30742691D01*
X191806223Y-30678781D01*
X191611534Y-30615522D01*
X191436995Y-30587878D01*
X191409352Y-30583500D01*
X191204648Y-30583500D01*
X191180329Y-30587351D01*
X191002465Y-30615522D01*
X190807776Y-30678781D01*
X190625386Y-30771715D01*
X190459786Y-30892028D01*
X190315028Y-31036786D01*
X190194715Y-31202386D01*
X190101781Y-31384776D01*
X190038522Y-31579465D01*
X190006500Y-31781648D01*
X186378656Y-31781648D01*
X186363252Y-31684394D01*
X186358555Y-31654736D01*
X186315792Y-31523123D01*
X186301380Y-31478767D01*
X186301379Y-31478764D01*
X186245339Y-31368781D01*
X186217378Y-31313904D01*
X186108621Y-31164213D01*
X185977787Y-31033379D01*
X185828096Y-30924622D01*
X185774778Y-30897455D01*
X185663235Y-30840620D01*
X185663232Y-30840619D01*
X185487265Y-30783445D01*
X185344972Y-30760908D01*
X185304514Y-30754500D01*
X185119486Y-30754500D01*
X185079028Y-30760908D01*
X184936734Y-30783445D01*
X184760767Y-30840619D01*
X184760764Y-30840620D01*
X184595903Y-30924622D01*
X184554092Y-30955000D01*
X184446213Y-31033379D01*
X184446211Y-31033381D01*
X184446210Y-31033381D01*
X184315381Y-31164210D01*
X184315381Y-31164211D01*
X184315379Y-31164213D01*
X184284199Y-31207129D01*
X184206622Y-31313903D01*
X184122622Y-31478761D01*
X184114691Y-31503170D01*
X184084443Y-31552529D01*
X183706974Y-31930000D01*
X183612000Y-31930000D01*
X183612000Y-31877339D01*
X183584741Y-31775606D01*
X183532080Y-31684394D01*
X183457606Y-31609920D01*
X183366394Y-31557259D01*
X183264661Y-31530000D01*
X183159339Y-31530000D01*
X183057606Y-31557259D01*
X182966394Y-31609920D01*
X182891920Y-31684394D01*
X182839259Y-31775606D01*
X182812000Y-31877339D01*
X182664365Y-31877339D01*
X182423818Y-31636792D01*
X182390333Y-31575469D01*
X182387499Y-31549111D01*
X182387499Y-31207129D01*
X182387498Y-31207123D01*
X182381091Y-31147517D01*
X182381090Y-31147514D01*
X182371925Y-31122939D01*
X182340540Y-31038792D01*
X182815765Y-31038792D01*
X183212000Y-31435026D01*
X183212001Y-31435026D01*
X183608233Y-31038792D01*
X183496397Y-30992468D01*
X183496389Y-30992466D01*
X183308033Y-30955000D01*
X183115966Y-30955000D01*
X182927611Y-30992466D01*
X182927599Y-30992469D01*
X182815765Y-31038792D01*
X182340540Y-31038792D01*
X182330797Y-31012671D01*
X182330793Y-31012664D01*
X182244547Y-30897455D01*
X182244544Y-30897452D01*
X182129335Y-30811206D01*
X182129328Y-30811202D01*
X181994482Y-30760908D01*
X181994483Y-30760908D01*
X181934883Y-30754501D01*
X181934881Y-30754500D01*
X181934873Y-30754500D01*
X181934864Y-30754500D01*
X180489129Y-30754500D01*
X180489123Y-30754501D01*
X180429516Y-30760908D01*
X180294671Y-30811202D01*
X180294664Y-30811206D01*
X180179455Y-30897452D01*
X180179452Y-30897455D01*
X180093206Y-31012664D01*
X180093202Y-31012671D01*
X180042908Y-31147517D01*
X180037009Y-31202390D01*
X180036501Y-31207123D01*
X180036500Y-31207135D01*
X148821375Y-31207135D01*
X148722235Y-31156620D01*
X148722232Y-31156619D01*
X148546265Y-31099445D01*
X148403972Y-31076908D01*
X148363514Y-31070500D01*
X148178486Y-31070500D01*
X148138028Y-31076908D01*
X147995734Y-31099445D01*
X147819767Y-31156619D01*
X147819764Y-31156620D01*
X147654903Y-31240622D01*
X147613092Y-31271000D01*
X147505213Y-31349379D01*
X147505211Y-31349381D01*
X147505210Y-31349381D01*
X147374381Y-31480210D01*
X147374381Y-31480211D01*
X147374379Y-31480213D01*
X147343199Y-31523129D01*
X147265622Y-31629903D01*
X147181622Y-31794761D01*
X147173691Y-31819170D01*
X147143443Y-31868529D01*
X146765974Y-32246000D01*
X146671000Y-32246000D01*
X146671000Y-32193339D01*
X146643741Y-32091606D01*
X146591080Y-32000394D01*
X146516606Y-31925920D01*
X146425394Y-31873259D01*
X146323661Y-31846000D01*
X146218339Y-31846000D01*
X146116606Y-31873259D01*
X146025394Y-31925920D01*
X145950920Y-32000394D01*
X145898259Y-32091606D01*
X145871000Y-32193339D01*
X145723365Y-32193339D01*
X145482818Y-31952792D01*
X145449333Y-31891469D01*
X145446499Y-31865111D01*
X145446499Y-31523129D01*
X145446498Y-31523123D01*
X145440091Y-31463517D01*
X145440090Y-31463514D01*
X145430925Y-31438939D01*
X145399540Y-31354792D01*
X145874765Y-31354792D01*
X146271000Y-31751026D01*
X146271001Y-31751026D01*
X146667233Y-31354792D01*
X146555397Y-31308468D01*
X146555389Y-31308466D01*
X146367033Y-31271000D01*
X146174966Y-31271000D01*
X145986611Y-31308466D01*
X145986599Y-31308469D01*
X145874765Y-31354792D01*
X145399540Y-31354792D01*
X145389797Y-31328671D01*
X145389793Y-31328664D01*
X145303547Y-31213455D01*
X145303544Y-31213452D01*
X145188335Y-31127206D01*
X145188328Y-31127202D01*
X145053482Y-31076908D01*
X145053483Y-31076908D01*
X144993883Y-31070501D01*
X144993881Y-31070500D01*
X144993873Y-31070500D01*
X144993864Y-31070500D01*
X143548129Y-31070500D01*
X143548123Y-31070501D01*
X143488516Y-31076908D01*
X143353671Y-31127202D01*
X143353664Y-31127206D01*
X143238455Y-31213452D01*
X143238452Y-31213455D01*
X143152206Y-31328664D01*
X143152202Y-31328671D01*
X143101908Y-31463517D01*
X143095501Y-31523116D01*
X143095501Y-31523123D01*
X143095500Y-31523135D01*
X138256111Y-31523135D01*
X138143971Y-31368786D01*
X137999213Y-31224028D01*
X137833613Y-31103715D01*
X137833612Y-31103714D01*
X137833610Y-31103713D01*
X137768426Y-31070500D01*
X137651223Y-31010781D01*
X137456534Y-30947522D01*
X137281995Y-30919878D01*
X137254352Y-30915500D01*
X137049648Y-30915500D01*
X137025329Y-30919351D01*
X136847465Y-30947522D01*
X136652776Y-31010781D01*
X136470386Y-31103715D01*
X136304786Y-31224028D01*
X136160028Y-31368786D01*
X136039715Y-31534386D01*
X135946781Y-31716776D01*
X135883522Y-31911465D01*
X135851500Y-32113648D01*
X134539500Y-32113648D01*
X134539500Y-29804500D01*
X134559185Y-29737461D01*
X134611989Y-29691706D01*
X134663500Y-29680500D01*
X195074500Y-29680500D01*
X195141539Y-29700185D01*
G37*
%TD.AperFunction*%
%TA.AperFunction,Conductor*%
G36*
X189644137Y-35670185D02*
G01*
X189689892Y-35722989D01*
X189699836Y-35792147D01*
X189670811Y-35855703D01*
X189624549Y-35889062D01*
X189620821Y-35890605D01*
X189620814Y-35890609D01*
X189489711Y-35978210D01*
X189489707Y-35978213D01*
X189378213Y-36089707D01*
X189378210Y-36089711D01*
X189290609Y-36220814D01*
X189290602Y-36220827D01*
X189230264Y-36366498D01*
X189230261Y-36366510D01*
X189199500Y-36521153D01*
X189199500Y-36678846D01*
X189230261Y-36833489D01*
X189230264Y-36833501D01*
X189290602Y-36979172D01*
X189290609Y-36979185D01*
X189378210Y-37110288D01*
X189378213Y-37110292D01*
X189489707Y-37221786D01*
X189489711Y-37221789D01*
X189585012Y-37285468D01*
X189629817Y-37339080D01*
X189638524Y-37408405D01*
X189608369Y-37471433D01*
X189603803Y-37476251D01*
X189494718Y-37585336D01*
X189447066Y-37656656D01*
X189447064Y-37656659D01*
X189423539Y-37691864D01*
X189423533Y-37691875D01*
X189374499Y-37810255D01*
X189374497Y-37810261D01*
X189349500Y-37935928D01*
X189349500Y-37995064D01*
X189329815Y-38062103D01*
X189328603Y-38063954D01*
X189290608Y-38120817D01*
X189290602Y-38120828D01*
X189230264Y-38266498D01*
X189230261Y-38266510D01*
X189199500Y-38421153D01*
X189199500Y-38578846D01*
X189230261Y-38733489D01*
X189230264Y-38733501D01*
X189290602Y-38879172D01*
X189290609Y-38879185D01*
X189378210Y-39010288D01*
X189378213Y-39010292D01*
X189489707Y-39121786D01*
X189489711Y-39121789D01*
X189620814Y-39209390D01*
X189620827Y-39209397D01*
X189745279Y-39260946D01*
X189766503Y-39269737D01*
X189890738Y-39294449D01*
X189921153Y-39300499D01*
X189921156Y-39300500D01*
X189921158Y-39300500D01*
X190078844Y-39300500D01*
X190078845Y-39300499D01*
X190233497Y-39269737D01*
X190379179Y-39209394D01*
X190510289Y-39121789D01*
X190621789Y-39010289D01*
X190681348Y-38921153D01*
X191174500Y-38921153D01*
X191174500Y-39078846D01*
X191205261Y-39233489D01*
X191205264Y-39233501D01*
X191265602Y-39379172D01*
X191265609Y-39379185D01*
X191353210Y-39510288D01*
X191353213Y-39510292D01*
X191464707Y-39621786D01*
X191464711Y-39621789D01*
X191595814Y-39709390D01*
X191595827Y-39709397D01*
X191741498Y-39769735D01*
X191741503Y-39769737D01*
X191896153Y-39800499D01*
X191896156Y-39800500D01*
X191896158Y-39800500D01*
X192053844Y-39800500D01*
X192053845Y-39800499D01*
X192208497Y-39769737D01*
X192354179Y-39709394D01*
X192485289Y-39621789D01*
X192596789Y-39510289D01*
X192684394Y-39379179D01*
X192744737Y-39233497D01*
X192775500Y-39078842D01*
X192775500Y-38921158D01*
X192775500Y-38921155D01*
X192775499Y-38921153D01*
X192773979Y-38913510D01*
X192744737Y-38766503D01*
X192722904Y-38713793D01*
X192684397Y-38620827D01*
X192684390Y-38620814D01*
X192596789Y-38489711D01*
X192596786Y-38489707D01*
X192485292Y-38378213D01*
X192485288Y-38378210D01*
X192354185Y-38290609D01*
X192354172Y-38290602D01*
X192208501Y-38230264D01*
X192208489Y-38230261D01*
X192053845Y-38199500D01*
X192053842Y-38199500D01*
X191896158Y-38199500D01*
X191896155Y-38199500D01*
X191741510Y-38230261D01*
X191741498Y-38230264D01*
X191595827Y-38290602D01*
X191595814Y-38290609D01*
X191464711Y-38378210D01*
X191464707Y-38378213D01*
X191353213Y-38489707D01*
X191353210Y-38489711D01*
X191265609Y-38620814D01*
X191265602Y-38620827D01*
X191205264Y-38766498D01*
X191205261Y-38766510D01*
X191174500Y-38921153D01*
X190681348Y-38921153D01*
X190709394Y-38879179D01*
X190769737Y-38733497D01*
X190800500Y-38578842D01*
X190800500Y-38421158D01*
X190800500Y-38421155D01*
X190800499Y-38421153D01*
X190799209Y-38414669D01*
X190769737Y-38266503D01*
X190767382Y-38260819D01*
X190759911Y-38191353D01*
X190791183Y-38128872D01*
X190794230Y-38125714D01*
X191233127Y-37686819D01*
X191294450Y-37653334D01*
X191320808Y-37650500D01*
X192179192Y-37650500D01*
X192246231Y-37670185D01*
X192266873Y-37686819D01*
X193813181Y-39233126D01*
X193846666Y-39294449D01*
X193849500Y-39320807D01*
X193849500Y-47679191D01*
X193829815Y-47746230D01*
X193813181Y-47766872D01*
X192897068Y-48682984D01*
X192835745Y-48716469D01*
X192833579Y-48716920D01*
X192766508Y-48730261D01*
X192766498Y-48730264D01*
X192620827Y-48790602D01*
X192620814Y-48790609D01*
X192489711Y-48878210D01*
X192489707Y-48878213D01*
X192378213Y-48989707D01*
X192378210Y-48989711D01*
X192290609Y-49120814D01*
X192290602Y-49120827D01*
X192230264Y-49266498D01*
X192230261Y-49266510D01*
X192199500Y-49421153D01*
X192199500Y-49578846D01*
X192230261Y-49733489D01*
X192230264Y-49733501D01*
X192290602Y-49879172D01*
X192290606Y-49879179D01*
X192328602Y-49936044D01*
X192349480Y-50002721D01*
X192349500Y-50004935D01*
X192349500Y-53495064D01*
X192329815Y-53562103D01*
X192328603Y-53563954D01*
X192290608Y-53620817D01*
X192290602Y-53620828D01*
X192230263Y-53766500D01*
X192230261Y-53766506D01*
X192216919Y-53833581D01*
X192184533Y-53895491D01*
X192182983Y-53897069D01*
X190494725Y-55585328D01*
X190494724Y-55585329D01*
X190443858Y-55661458D01*
X190443856Y-55661460D01*
X190423539Y-55691864D01*
X190423533Y-55691875D01*
X190374499Y-55810255D01*
X190374497Y-55810261D01*
X190349500Y-55935928D01*
X190349500Y-62679191D01*
X190329815Y-62746230D01*
X190313181Y-62766872D01*
X186180710Y-66899342D01*
X186119387Y-66932827D01*
X186071245Y-66932315D01*
X186071055Y-66933516D01*
X185966111Y-66916894D01*
X185856287Y-66899500D01*
X185643713Y-66899500D01*
X185595042Y-66907208D01*
X185433760Y-66932753D01*
X185231585Y-66998444D01*
X185042179Y-67094951D01*
X184870213Y-67219890D01*
X184719890Y-67370213D01*
X184594951Y-67542179D01*
X184498444Y-67731585D01*
X184432753Y-67933760D01*
X184399500Y-68143713D01*
X184399500Y-68356286D01*
X184430602Y-68552661D01*
X184432754Y-68566243D01*
X184490827Y-68744974D01*
X184498444Y-68768414D01*
X184594951Y-68957820D01*
X184719890Y-69129786D01*
X184727923Y-69137819D01*
X184761408Y-69199142D01*
X184756424Y-69268834D01*
X184714552Y-69324767D01*
X184649088Y-69349184D01*
X184640242Y-69349500D01*
X183935929Y-69349500D01*
X183810261Y-69374497D01*
X183810255Y-69374499D01*
X183691870Y-69423535D01*
X183585331Y-69494722D01*
X183585324Y-69494728D01*
X178997873Y-74082181D01*
X178936550Y-74115666D01*
X178910192Y-74118500D01*
X166561941Y-74118500D01*
X166494902Y-74098815D01*
X166449147Y-74046011D01*
X166439203Y-73976853D01*
X166468228Y-73913297D01*
X166474260Y-73906819D01*
X166475786Y-73905292D01*
X166475789Y-73905289D01*
X166563394Y-73774179D01*
X166623737Y-73628497D01*
X166654500Y-73473842D01*
X166654500Y-73316158D01*
X166654500Y-73316155D01*
X166654499Y-73316153D01*
X166645003Y-73268412D01*
X166623737Y-73161503D01*
X166566296Y-73022827D01*
X166563397Y-73015828D01*
X166563396Y-73015827D01*
X166563394Y-73015821D01*
X166543396Y-72985892D01*
X166522520Y-72919215D01*
X166522500Y-72917003D01*
X166522500Y-70205935D01*
X166542185Y-70138896D01*
X166543366Y-70137090D01*
X166581394Y-70080179D01*
X166641737Y-69934497D01*
X166672500Y-69779842D01*
X166672500Y-69622158D01*
X166672500Y-69622155D01*
X166672499Y-69622153D01*
X166656621Y-69542328D01*
X166641737Y-69467503D01*
X166599205Y-69364821D01*
X166581397Y-69321827D01*
X166581390Y-69321814D01*
X166493789Y-69190711D01*
X166493786Y-69190707D01*
X166382292Y-69079213D01*
X166382288Y-69079210D01*
X166251185Y-68991609D01*
X166251172Y-68991602D01*
X166105501Y-68931264D01*
X166105489Y-68931261D01*
X165950845Y-68900500D01*
X165950842Y-68900500D01*
X165793158Y-68900500D01*
X165793155Y-68900500D01*
X165638510Y-68931261D01*
X165638498Y-68931264D01*
X165492827Y-68991602D01*
X165492814Y-68991609D01*
X165361711Y-69079210D01*
X165361707Y-69079213D01*
X165250213Y-69190707D01*
X165250210Y-69190711D01*
X165162609Y-69321814D01*
X165162602Y-69321827D01*
X165102264Y-69467498D01*
X165102261Y-69467510D01*
X165071500Y-69622153D01*
X165071500Y-69779846D01*
X165102261Y-69934489D01*
X165102264Y-69934501D01*
X165162602Y-70080172D01*
X165162606Y-70080179D01*
X165200602Y-70137044D01*
X165221480Y-70203721D01*
X165221500Y-70205935D01*
X165221500Y-72863125D01*
X165201815Y-72930164D01*
X165200602Y-72932016D01*
X165144609Y-73015814D01*
X165144602Y-73015827D01*
X165084264Y-73161498D01*
X165084261Y-73161510D01*
X165053500Y-73316153D01*
X165053500Y-73473846D01*
X165084261Y-73628489D01*
X165084264Y-73628501D01*
X165144602Y-73774172D01*
X165144609Y-73774185D01*
X165232210Y-73905288D01*
X165232213Y-73905292D01*
X165233740Y-73906819D01*
X165234284Y-73907815D01*
X165236076Y-73909999D01*
X165235661Y-73910338D01*
X165267225Y-73968142D01*
X165262241Y-74037834D01*
X165220369Y-74093767D01*
X165154905Y-74118184D01*
X165146059Y-74118500D01*
X164494732Y-74118500D01*
X164427693Y-74098815D01*
X164381938Y-74046011D01*
X164371994Y-73976853D01*
X164398880Y-73915833D01*
X164401782Y-73912295D01*
X164401789Y-73912289D01*
X164489394Y-73781179D01*
X164492294Y-73774179D01*
X164549735Y-73635501D01*
X164549737Y-73635497D01*
X164580500Y-73480842D01*
X164580500Y-73323158D01*
X164580500Y-73323155D01*
X164580499Y-73323153D01*
X164549738Y-73168510D01*
X164549737Y-73168503D01*
X164549735Y-73168498D01*
X164489397Y-73022827D01*
X164489390Y-73022814D01*
X164448398Y-72961465D01*
X164427520Y-72894787D01*
X164427500Y-72892574D01*
X164427500Y-70248935D01*
X164447185Y-70181896D01*
X164448366Y-70180090D01*
X164486394Y-70123179D01*
X164546737Y-69977497D01*
X164577500Y-69822842D01*
X164577500Y-69665158D01*
X164577500Y-69665155D01*
X164577499Y-69665153D01*
X164546738Y-69510510D01*
X164546737Y-69510503D01*
X164536140Y-69484919D01*
X164486397Y-69364827D01*
X164486390Y-69364814D01*
X164398789Y-69233711D01*
X164398786Y-69233707D01*
X164287292Y-69122213D01*
X164287288Y-69122210D01*
X164156185Y-69034609D01*
X164156172Y-69034602D01*
X164010501Y-68974264D01*
X164010489Y-68974261D01*
X163855845Y-68943500D01*
X163855842Y-68943500D01*
X163698158Y-68943500D01*
X163698155Y-68943500D01*
X163543510Y-68974261D01*
X163543498Y-68974264D01*
X163397827Y-69034602D01*
X163397814Y-69034609D01*
X163266711Y-69122210D01*
X163266707Y-69122213D01*
X163155213Y-69233707D01*
X163155210Y-69233711D01*
X163067609Y-69364814D01*
X163067602Y-69364827D01*
X163007264Y-69510498D01*
X163007261Y-69510510D01*
X162976500Y-69665153D01*
X162976500Y-69822846D01*
X163007261Y-69977489D01*
X163007264Y-69977501D01*
X163067602Y-70123172D01*
X163067606Y-70123179D01*
X163105602Y-70180044D01*
X163126480Y-70246721D01*
X163126500Y-70248935D01*
X163126500Y-72901553D01*
X163106815Y-72968592D01*
X163105603Y-72970442D01*
X163070611Y-73022812D01*
X163070602Y-73022828D01*
X163010264Y-73168498D01*
X163010261Y-73168510D01*
X162979500Y-73323153D01*
X162979500Y-73480846D01*
X163010261Y-73635489D01*
X163010264Y-73635501D01*
X163070602Y-73781172D01*
X163070609Y-73781185D01*
X163158207Y-73912284D01*
X163161120Y-73915833D01*
X163188434Y-73980143D01*
X163176644Y-74049010D01*
X163129493Y-74100571D01*
X163065268Y-74118500D01*
X148996860Y-74118500D01*
X148929821Y-74098815D01*
X148884066Y-74046011D01*
X148874122Y-73976853D01*
X148903147Y-73913297D01*
X148949408Y-73879939D01*
X148994172Y-73861397D01*
X148994172Y-73861396D01*
X148994179Y-73861394D01*
X149125289Y-73773789D01*
X149236789Y-73662289D01*
X149324394Y-73531179D01*
X149384737Y-73385497D01*
X149415500Y-73230842D01*
X149415500Y-73073158D01*
X149415500Y-73073155D01*
X149415499Y-73073153D01*
X149384737Y-72918503D01*
X149361799Y-72863125D01*
X149324397Y-72772827D01*
X149324390Y-72772814D01*
X149236398Y-72641125D01*
X149215520Y-72574447D01*
X149215500Y-72572234D01*
X149215500Y-69893713D01*
X156609500Y-69893713D01*
X156609500Y-70106287D01*
X156642754Y-70316243D01*
X156704175Y-70505278D01*
X156708444Y-70518414D01*
X156804951Y-70707820D01*
X156929890Y-70879786D01*
X157080213Y-71030109D01*
X157252179Y-71155048D01*
X157252181Y-71155049D01*
X157252184Y-71155051D01*
X157441588Y-71251557D01*
X157643757Y-71317246D01*
X157853713Y-71350500D01*
X157853714Y-71350500D01*
X158066286Y-71350500D01*
X158066287Y-71350500D01*
X158276243Y-71317246D01*
X158478412Y-71251557D01*
X158667816Y-71155051D01*
X158768944Y-71081578D01*
X158839784Y-71030110D01*
X158839784Y-71030109D01*
X158839792Y-71030104D01*
X158953329Y-70916566D01*
X159014648Y-70883084D01*
X159084340Y-70888068D01*
X159140274Y-70929939D01*
X159157189Y-70960917D01*
X159206202Y-71092328D01*
X159206206Y-71092335D01*
X159292452Y-71207544D01*
X159292455Y-71207547D01*
X159407664Y-71293793D01*
X159407671Y-71293797D01*
X159542517Y-71344091D01*
X159542516Y-71344091D01*
X159549444Y-71344835D01*
X159602127Y-71350500D01*
X161397872Y-71350499D01*
X161457483Y-71344091D01*
X161592331Y-71293796D01*
X161707546Y-71207546D01*
X161793796Y-71092331D01*
X161844091Y-70957483D01*
X161850500Y-70897873D01*
X161850499Y-69102128D01*
X161844091Y-69042517D01*
X161842810Y-69039083D01*
X161793797Y-68907671D01*
X161793793Y-68907664D01*
X161707547Y-68792455D01*
X161707544Y-68792452D01*
X161592335Y-68706206D01*
X161592328Y-68706202D01*
X161457482Y-68655908D01*
X161457483Y-68655908D01*
X161397883Y-68649501D01*
X161397881Y-68649500D01*
X161397873Y-68649500D01*
X161397864Y-68649500D01*
X159602129Y-68649500D01*
X159602123Y-68649501D01*
X159542516Y-68655908D01*
X159407671Y-68706202D01*
X159407664Y-68706206D01*
X159292455Y-68792452D01*
X159292452Y-68792455D01*
X159206206Y-68907664D01*
X159206203Y-68907669D01*
X159157189Y-69039083D01*
X159115317Y-69095016D01*
X159049853Y-69119433D01*
X158981580Y-69104581D01*
X158953326Y-69083430D01*
X158839786Y-68969890D01*
X158667820Y-68844951D01*
X158478414Y-68748444D01*
X158478413Y-68748443D01*
X158478412Y-68748443D01*
X158276243Y-68682754D01*
X158276241Y-68682753D01*
X158276240Y-68682753D01*
X158114957Y-68657208D01*
X158066287Y-68649500D01*
X157853713Y-68649500D01*
X157805042Y-68657208D01*
X157643760Y-68682753D01*
X157542672Y-68715598D01*
X157452265Y-68744974D01*
X157441585Y-68748444D01*
X157252179Y-68844951D01*
X157080213Y-68969890D01*
X156929890Y-69120213D01*
X156804951Y-69292179D01*
X156708444Y-69481585D01*
X156708443Y-69481587D01*
X156708443Y-69481588D01*
X156704175Y-69494724D01*
X156642753Y-69683760D01*
X156620724Y-69822846D01*
X156609500Y-69893713D01*
X149215500Y-69893713D01*
X149215500Y-66790282D01*
X149235185Y-66723243D01*
X149236398Y-66721391D01*
X149319390Y-66597185D01*
X149319390Y-66597184D01*
X149319394Y-66597179D01*
X149319397Y-66597172D01*
X149334112Y-66561648D01*
X153657500Y-66561648D01*
X153657500Y-66766351D01*
X153689522Y-66968534D01*
X153752781Y-67163223D01*
X153785739Y-67227905D01*
X153844105Y-67342455D01*
X153845715Y-67345613D01*
X153966028Y-67511213D01*
X154110786Y-67655971D01*
X154247125Y-67755025D01*
X154276390Y-67776287D01*
X154392607Y-67835503D01*
X154458776Y-67869218D01*
X154458778Y-67869218D01*
X154458781Y-67869220D01*
X154563137Y-67903127D01*
X154653465Y-67932477D01*
X154719860Y-67942993D01*
X154855648Y-67964500D01*
X154855649Y-67964500D01*
X155060351Y-67964500D01*
X155060352Y-67964500D01*
X155262534Y-67932477D01*
X155457219Y-67869220D01*
X155639610Y-67776287D01*
X155746100Y-67698918D01*
X155805213Y-67655971D01*
X155805215Y-67655968D01*
X155805219Y-67655966D01*
X155949966Y-67511219D01*
X155949968Y-67511215D01*
X155949971Y-67511213D01*
X156011092Y-67427086D01*
X156070287Y-67345610D01*
X156163220Y-67163219D01*
X156226477Y-66968534D01*
X156258500Y-66766352D01*
X156258500Y-66627428D01*
X168938000Y-66627428D01*
X168938000Y-66800571D01*
X168965086Y-66971585D01*
X168965086Y-66971588D01*
X169018588Y-67136250D01*
X169018590Y-67136253D01*
X169053080Y-67203944D01*
X169443501Y-66813523D01*
X169478889Y-66945591D01*
X169557881Y-67082408D01*
X169669592Y-67194119D01*
X169806409Y-67273111D01*
X169938475Y-67308498D01*
X169548054Y-67698919D01*
X169615742Y-67733408D01*
X169780415Y-67786914D01*
X169951429Y-67814000D01*
X170124571Y-67814000D01*
X170295584Y-67786914D01*
X170460254Y-67733408D01*
X170460258Y-67733407D01*
X170527944Y-67698918D01*
X170137524Y-67308497D01*
X170269591Y-67273111D01*
X170406408Y-67194119D01*
X170518119Y-67082408D01*
X170597111Y-66945591D01*
X170632498Y-66813524D01*
X171022918Y-67203944D01*
X171057407Y-67136258D01*
X171057408Y-67136254D01*
X171110914Y-66971584D01*
X171138000Y-66800571D01*
X171138000Y-66627428D01*
X171110914Y-66456415D01*
X171057408Y-66291742D01*
X171022918Y-66224054D01*
X170632498Y-66614475D01*
X170597111Y-66482409D01*
X170518119Y-66345592D01*
X170406408Y-66233881D01*
X170269591Y-66154889D01*
X170137523Y-66119501D01*
X170527944Y-65729080D01*
X170527944Y-65729079D01*
X170460253Y-65694590D01*
X170460250Y-65694588D01*
X170295586Y-65641086D01*
X170124571Y-65614000D01*
X169951429Y-65614000D01*
X169780414Y-65641086D01*
X169780411Y-65641086D01*
X169615748Y-65694589D01*
X169615747Y-65694589D01*
X169548054Y-65729079D01*
X169938476Y-66119501D01*
X169806409Y-66154889D01*
X169669592Y-66233881D01*
X169557881Y-66345592D01*
X169478889Y-66482409D01*
X169443501Y-66614476D01*
X169053079Y-66224054D01*
X169018589Y-66291747D01*
X169018589Y-66291748D01*
X168965086Y-66456411D01*
X168965086Y-66456414D01*
X168938000Y-66627428D01*
X156258500Y-66627428D01*
X156258500Y-66561648D01*
X156245950Y-66482409D01*
X156226477Y-66359465D01*
X156163218Y-66164776D01*
X156129503Y-66098607D01*
X156070287Y-65982390D01*
X156036531Y-65935928D01*
X155970447Y-65844970D01*
X155970446Y-65844969D01*
X155949969Y-65816784D01*
X155805213Y-65672028D01*
X155639613Y-65551715D01*
X155639612Y-65551714D01*
X155639610Y-65551713D01*
X155555000Y-65508602D01*
X155457223Y-65458781D01*
X155262534Y-65395522D01*
X155087995Y-65367878D01*
X155060352Y-65363500D01*
X154855648Y-65363500D01*
X154831329Y-65367351D01*
X154653465Y-65395522D01*
X154458776Y-65458781D01*
X154276386Y-65551715D01*
X154110786Y-65672028D01*
X153966028Y-65816786D01*
X153845715Y-65982386D01*
X153752781Y-66164776D01*
X153689522Y-66359465D01*
X153657500Y-66561648D01*
X149334112Y-66561648D01*
X149355785Y-66509324D01*
X149377700Y-66456414D01*
X149379737Y-66451497D01*
X149410500Y-66296842D01*
X149410500Y-66139158D01*
X149410500Y-66139155D01*
X149410499Y-66139153D01*
X149379738Y-65984510D01*
X149379737Y-65984503D01*
X149321941Y-65844969D01*
X149319397Y-65838827D01*
X149319390Y-65838814D01*
X149231789Y-65707711D01*
X149231786Y-65707707D01*
X149120292Y-65596213D01*
X149120288Y-65596210D01*
X148989185Y-65508609D01*
X148989172Y-65508602D01*
X148843501Y-65448264D01*
X148843489Y-65448261D01*
X148688845Y-65417500D01*
X148688842Y-65417500D01*
X148531158Y-65417500D01*
X148531155Y-65417500D01*
X148376510Y-65448261D01*
X148376498Y-65448264D01*
X148230827Y-65508602D01*
X148230814Y-65508609D01*
X148099711Y-65596210D01*
X148099707Y-65596213D01*
X147988213Y-65707707D01*
X147988210Y-65707711D01*
X147900609Y-65838814D01*
X147900602Y-65838827D01*
X147840264Y-65984498D01*
X147840261Y-65984510D01*
X147809500Y-66139153D01*
X147809500Y-66296846D01*
X147840261Y-66451489D01*
X147840264Y-66451501D01*
X147900602Y-66597172D01*
X147900609Y-66597185D01*
X147991595Y-66733354D01*
X147989934Y-66734463D01*
X148013665Y-66790322D01*
X148014500Y-66804690D01*
X148014500Y-72572234D01*
X147994815Y-72639273D01*
X147993602Y-72641125D01*
X147905609Y-72772814D01*
X147905602Y-72772827D01*
X147845264Y-72918498D01*
X147845261Y-72918510D01*
X147814500Y-73073153D01*
X147814500Y-73230846D01*
X147845261Y-73385489D01*
X147845264Y-73385501D01*
X147905602Y-73531172D01*
X147905609Y-73531185D01*
X147993210Y-73662288D01*
X147993213Y-73662292D01*
X148104707Y-73773786D01*
X148104711Y-73773789D01*
X148235814Y-73861390D01*
X148235827Y-73861397D01*
X148280592Y-73879939D01*
X148334996Y-73923779D01*
X148357061Y-73990073D01*
X148339782Y-74057773D01*
X148288645Y-74105384D01*
X148233140Y-74118500D01*
X144089808Y-74118500D01*
X144022769Y-74098815D01*
X144002127Y-74082181D01*
X143186819Y-73266873D01*
X143153334Y-73205550D01*
X143150500Y-73179192D01*
X143150500Y-65935928D01*
X143125502Y-65810261D01*
X143125501Y-65810260D01*
X143125501Y-65810256D01*
X143083024Y-65707707D01*
X143076466Y-65691875D01*
X143076463Y-65691870D01*
X143063210Y-65672036D01*
X143063208Y-65672033D01*
X143063205Y-65672028D01*
X143005277Y-65585331D01*
X143005275Y-65585329D01*
X143005273Y-65585326D01*
X143005272Y-65585325D01*
X142768741Y-65348795D01*
X142735256Y-65287472D01*
X142740240Y-65217781D01*
X142782111Y-65161847D01*
X142847576Y-65137430D01*
X142880614Y-65139497D01*
X142935928Y-65150500D01*
X142935931Y-65150500D01*
X146981071Y-65150500D01*
X147065615Y-65133682D01*
X147106744Y-65125501D01*
X147225127Y-65076465D01*
X147234336Y-65070312D01*
X147331669Y-65005277D01*
X150416276Y-61920670D01*
X150472626Y-61836336D01*
X150487464Y-61814129D01*
X150487465Y-61814127D01*
X150536501Y-61695744D01*
X150551544Y-61620122D01*
X150561500Y-61570071D01*
X150561500Y-59727808D01*
X150581185Y-59660769D01*
X150597819Y-59640127D01*
X152676298Y-57561648D01*
X153667500Y-57561648D01*
X153667500Y-57766351D01*
X153699522Y-57968534D01*
X153762781Y-58163223D01*
X153855715Y-58345613D01*
X153976028Y-58511213D01*
X154120786Y-58655971D01*
X154248067Y-58748444D01*
X154286390Y-58776287D01*
X154363831Y-58815745D01*
X154468776Y-58869218D01*
X154468778Y-58869218D01*
X154468781Y-58869220D01*
X154573137Y-58903127D01*
X154663465Y-58932477D01*
X154764557Y-58948488D01*
X154865648Y-58964500D01*
X154865649Y-58964500D01*
X155070351Y-58964500D01*
X155070352Y-58964500D01*
X155272534Y-58932477D01*
X155467219Y-58869220D01*
X155649610Y-58776287D01*
X155742590Y-58708732D01*
X155815213Y-58655971D01*
X155815215Y-58655968D01*
X155815219Y-58655966D01*
X155959966Y-58511219D01*
X155959968Y-58511215D01*
X155959971Y-58511213D01*
X156041917Y-58398422D01*
X156080287Y-58345610D01*
X156173220Y-58163219D01*
X156236477Y-57968534D01*
X156268500Y-57766352D01*
X156268500Y-57561648D01*
X156236477Y-57359466D01*
X156173220Y-57164781D01*
X156173218Y-57164778D01*
X156173218Y-57164776D01*
X156139503Y-57098607D01*
X156080287Y-56982390D01*
X156062970Y-56958555D01*
X155959971Y-56816786D01*
X155815213Y-56672028D01*
X155649613Y-56551715D01*
X155649612Y-56551714D01*
X155649610Y-56551713D01*
X155592653Y-56522691D01*
X155467223Y-56458781D01*
X155272534Y-56395522D01*
X155097995Y-56367878D01*
X155070352Y-56363500D01*
X154865648Y-56363500D01*
X154841329Y-56367351D01*
X154663465Y-56395522D01*
X154468776Y-56458781D01*
X154286386Y-56551715D01*
X154120786Y-56672028D01*
X153976028Y-56816786D01*
X153855715Y-56982386D01*
X153762781Y-57164776D01*
X153699522Y-57359465D01*
X153667500Y-57561648D01*
X152676298Y-57561648D01*
X162051127Y-48186819D01*
X162112450Y-48153334D01*
X162138808Y-48150500D01*
X162921731Y-48150500D01*
X162988770Y-48170185D01*
X163034525Y-48222989D01*
X163044469Y-48292147D01*
X163015444Y-48355703D01*
X162994373Y-48374292D01*
X162994419Y-48374347D01*
X162992880Y-48375609D01*
X162990621Y-48377603D01*
X162989708Y-48378212D01*
X162878213Y-48489707D01*
X162878210Y-48489711D01*
X162790609Y-48620814D01*
X162790602Y-48620827D01*
X162730264Y-48766498D01*
X162730261Y-48766510D01*
X162699500Y-48921153D01*
X162699500Y-49078846D01*
X162730261Y-49233489D01*
X162730264Y-49233501D01*
X162790602Y-49379172D01*
X162790609Y-49379185D01*
X162878210Y-49510288D01*
X162878213Y-49510292D01*
X162989707Y-49621786D01*
X162989711Y-49621789D01*
X163120814Y-49709390D01*
X163120827Y-49709397D01*
X163208230Y-49745599D01*
X163266503Y-49769737D01*
X163333581Y-49783079D01*
X163395490Y-49815463D01*
X163397070Y-49817015D01*
X164813181Y-51233126D01*
X164846666Y-51294449D01*
X164849500Y-51320807D01*
X164849500Y-60495064D01*
X164829815Y-60562103D01*
X164828603Y-60563954D01*
X164790608Y-60620817D01*
X164790602Y-60620828D01*
X164730264Y-60766498D01*
X164730261Y-60766510D01*
X164699500Y-60921153D01*
X164699500Y-61078846D01*
X164730261Y-61233489D01*
X164730264Y-61233501D01*
X164790602Y-61379172D01*
X164790609Y-61379185D01*
X164878210Y-61510288D01*
X164878213Y-61510292D01*
X164989707Y-61621786D01*
X164989711Y-61621789D01*
X165120814Y-61709390D01*
X165120827Y-61709397D01*
X165227373Y-61753529D01*
X165266503Y-61769737D01*
X165387601Y-61793825D01*
X165421153Y-61800499D01*
X165421156Y-61800500D01*
X165421158Y-61800500D01*
X165578844Y-61800500D01*
X165578845Y-61800499D01*
X165733497Y-61769737D01*
X165879179Y-61709394D01*
X165887322Y-61703952D01*
X165953997Y-61683072D01*
X166021378Y-61701553D01*
X166068071Y-61753529D01*
X166079251Y-61822499D01*
X166051369Y-61886564D01*
X166043898Y-61894733D01*
X165725451Y-62213181D01*
X165664128Y-62246666D01*
X165637770Y-62249500D01*
X152304604Y-62249500D01*
X152257155Y-62240062D01*
X152233497Y-62230263D01*
X152233493Y-62230262D01*
X152233488Y-62230260D01*
X152078845Y-62199500D01*
X152078842Y-62199500D01*
X151921158Y-62199500D01*
X151921155Y-62199500D01*
X151766510Y-62230261D01*
X151766498Y-62230264D01*
X151620827Y-62290602D01*
X151620814Y-62290609D01*
X151489711Y-62378210D01*
X151489707Y-62378213D01*
X151378213Y-62489707D01*
X151378210Y-62489711D01*
X151290609Y-62620814D01*
X151290602Y-62620827D01*
X151230264Y-62766498D01*
X151230261Y-62766510D01*
X151199500Y-62921153D01*
X151199500Y-63078846D01*
X151230261Y-63233489D01*
X151230264Y-63233501D01*
X151290602Y-63379172D01*
X151290609Y-63379185D01*
X151378210Y-63510288D01*
X151378213Y-63510292D01*
X151489707Y-63621786D01*
X151489711Y-63621789D01*
X151620814Y-63709390D01*
X151620827Y-63709397D01*
X151741028Y-63759185D01*
X151766503Y-63769737D01*
X151876189Y-63791555D01*
X151921153Y-63800499D01*
X151921156Y-63800500D01*
X151921158Y-63800500D01*
X152078844Y-63800500D01*
X152078845Y-63800499D01*
X152158545Y-63784646D01*
X152233488Y-63769739D01*
X152233489Y-63769738D01*
X152233497Y-63769737D01*
X152257155Y-63759937D01*
X152304604Y-63750500D01*
X166073920Y-63750500D01*
X166171462Y-63731096D01*
X166218913Y-63721658D01*
X166355495Y-63665084D01*
X166440178Y-63608501D01*
X166478416Y-63582952D01*
X167968206Y-62093159D01*
X167968211Y-62093156D01*
X167978414Y-62082952D01*
X167978416Y-62082952D01*
X170582952Y-59478416D01*
X170633201Y-59403211D01*
X170633202Y-59403210D01*
X170665079Y-59355503D01*
X170665080Y-59355500D01*
X170665084Y-59355495D01*
X170721658Y-59218913D01*
X170742398Y-59114648D01*
X170750500Y-59073920D01*
X170750500Y-58712047D01*
X170770185Y-58645008D01*
X170786819Y-58624366D01*
X170818359Y-58592826D01*
X170899966Y-58511219D01*
X170899968Y-58511215D01*
X170899971Y-58511213D01*
X170981917Y-58398422D01*
X171020287Y-58345610D01*
X171113220Y-58163219D01*
X171176477Y-57968534D01*
X171208500Y-57766352D01*
X171208500Y-57561648D01*
X171176477Y-57359466D01*
X171113220Y-57164781D01*
X171113218Y-57164778D01*
X171113218Y-57164776D01*
X171079503Y-57098607D01*
X171020287Y-56982390D01*
X171002970Y-56958555D01*
X170899971Y-56816786D01*
X170755213Y-56672028D01*
X170589613Y-56551715D01*
X170589612Y-56551714D01*
X170589610Y-56551713D01*
X170532653Y-56522691D01*
X170407223Y-56458781D01*
X170212534Y-56395522D01*
X170037995Y-56367878D01*
X170010352Y-56363500D01*
X169805648Y-56363500D01*
X169781329Y-56367351D01*
X169603465Y-56395522D01*
X169408776Y-56458781D01*
X169226386Y-56551715D01*
X169060786Y-56672028D01*
X168916028Y-56816786D01*
X168795715Y-56982386D01*
X168702781Y-57164776D01*
X168639522Y-57359465D01*
X168607500Y-57561648D01*
X168607500Y-57766351D01*
X168639522Y-57968534D01*
X168702781Y-58163223D01*
X168795715Y-58345613D01*
X168916028Y-58511213D01*
X169060782Y-58655967D01*
X169071837Y-58663999D01*
X169114502Y-58719329D01*
X169120481Y-58788942D01*
X169087875Y-58850737D01*
X169086632Y-58851998D01*
X166917048Y-61021584D01*
X166917046Y-61021586D01*
X166394733Y-61543898D01*
X166333410Y-61577383D01*
X166263718Y-61572399D01*
X166207785Y-61530527D01*
X166183368Y-61465063D01*
X166198220Y-61396790D01*
X166203946Y-61387331D01*
X166209394Y-61379179D01*
X166213728Y-61368717D01*
X166228724Y-61332512D01*
X166269737Y-61233497D01*
X166300500Y-61078842D01*
X166300500Y-60921158D01*
X166300500Y-60921155D01*
X166300499Y-60921153D01*
X166292272Y-60879792D01*
X166269737Y-60766503D01*
X166237427Y-60688500D01*
X166209397Y-60620828D01*
X166209396Y-60620827D01*
X166209394Y-60620821D01*
X166171396Y-60563953D01*
X166150520Y-60497276D01*
X166150500Y-60495064D01*
X166150500Y-50935928D01*
X166125502Y-50810261D01*
X166125501Y-50810260D01*
X166125501Y-50810256D01*
X166080495Y-50701602D01*
X166073026Y-50632132D01*
X166104301Y-50569653D01*
X166164390Y-50534001D01*
X166234215Y-50536495D01*
X166263947Y-50551047D01*
X166328814Y-50594390D01*
X166328827Y-50594397D01*
X166419929Y-50632132D01*
X166474503Y-50654737D01*
X166629153Y-50685499D01*
X166629156Y-50685500D01*
X166629158Y-50685500D01*
X166786844Y-50685500D01*
X166786845Y-50685499D01*
X166941497Y-50654737D01*
X167087179Y-50594394D01*
X167144044Y-50556397D01*
X167210721Y-50535520D01*
X167212935Y-50535500D01*
X170846071Y-50535500D01*
X170930615Y-50518682D01*
X170971744Y-50510501D01*
X171090127Y-50461465D01*
X171135958Y-50430842D01*
X171196669Y-50390277D01*
X171462127Y-50124819D01*
X171523450Y-50091334D01*
X171549808Y-50088500D01*
X172085136Y-50088500D01*
X172152175Y-50108185D01*
X172197930Y-50160989D01*
X172207874Y-50230147D01*
X172206753Y-50236691D01*
X172199500Y-50273153D01*
X172199500Y-50430843D01*
X172230261Y-50585489D01*
X172230264Y-50585501D01*
X172290602Y-50731172D01*
X172290609Y-50731185D01*
X172378601Y-50862873D01*
X172399479Y-50929550D01*
X172399499Y-50931764D01*
X172399499Y-51079054D01*
X172399498Y-51079054D01*
X172440015Y-51230261D01*
X172440423Y-51231785D01*
X172448763Y-51246230D01*
X172450289Y-51248873D01*
X172519477Y-51368712D01*
X172519481Y-51368717D01*
X172638349Y-51487585D01*
X172638355Y-51487590D01*
X173363181Y-52212416D01*
X173396666Y-52273739D01*
X173399500Y-52300097D01*
X173399500Y-54475500D01*
X173379815Y-54542539D01*
X173327011Y-54588294D01*
X173275501Y-54599500D01*
X173052130Y-54599500D01*
X173052123Y-54599501D01*
X172992516Y-54605908D01*
X172857671Y-54656202D01*
X172857664Y-54656206D01*
X172742455Y-54742452D01*
X172742452Y-54742455D01*
X172656206Y-54857664D01*
X172656202Y-54857671D01*
X172605908Y-54992517D01*
X172599501Y-55052116D01*
X172599501Y-55052123D01*
X172599500Y-55052135D01*
X172599500Y-56947870D01*
X172599501Y-56947876D01*
X172605908Y-57007483D01*
X172656202Y-57142328D01*
X172656206Y-57142335D01*
X172742452Y-57257544D01*
X172742455Y-57257547D01*
X172857664Y-57343793D01*
X172857671Y-57343797D01*
X172937580Y-57373601D01*
X172993514Y-57415472D01*
X173017931Y-57480936D01*
X173003080Y-57549209D01*
X172981929Y-57577463D01*
X172931756Y-57627636D01*
X172931752Y-57627641D01*
X172802187Y-57805974D01*
X172702104Y-58002393D01*
X172702103Y-58002396D01*
X172633985Y-58212047D01*
X172633985Y-58212049D01*
X172599500Y-58429778D01*
X172599500Y-58650222D01*
X172604653Y-58682754D01*
X172633985Y-58867952D01*
X172702103Y-59077603D01*
X172702104Y-59077606D01*
X172750516Y-59172617D01*
X172792627Y-59255264D01*
X172802187Y-59274025D01*
X172931752Y-59452358D01*
X172931756Y-59452363D01*
X173087636Y-59608243D01*
X173087641Y-59608247D01*
X173265976Y-59737814D01*
X173331794Y-59771350D01*
X173382591Y-59819324D01*
X173399500Y-59881835D01*
X173399500Y-60913330D01*
X173399499Y-60913348D01*
X173399499Y-61079054D01*
X173399498Y-61079054D01*
X173440423Y-61231786D01*
X173440424Y-61231787D01*
X173451838Y-61251557D01*
X173456404Y-61259465D01*
X173503736Y-61341447D01*
X173519481Y-61368717D01*
X173638349Y-61487585D01*
X173638355Y-61487590D01*
X174518584Y-62367819D01*
X174552069Y-62429142D01*
X174547085Y-62498834D01*
X174505213Y-62554767D01*
X174439749Y-62579184D01*
X174430903Y-62579500D01*
X174421155Y-62579500D01*
X174266510Y-62610261D01*
X174266498Y-62610264D01*
X174120827Y-62670602D01*
X174120820Y-62670606D01*
X174091928Y-62689911D01*
X174063955Y-62708602D01*
X173997279Y-62729480D01*
X173995065Y-62729500D01*
X172004935Y-62729500D01*
X171937896Y-62709815D01*
X171936090Y-62708633D01*
X171879179Y-62670606D01*
X171879172Y-62670602D01*
X171733501Y-62610264D01*
X171733489Y-62610261D01*
X171578845Y-62579500D01*
X171578842Y-62579500D01*
X171421158Y-62579500D01*
X171421155Y-62579500D01*
X171266510Y-62610261D01*
X171266498Y-62610264D01*
X171120827Y-62670602D01*
X171120814Y-62670609D01*
X170989711Y-62758210D01*
X170989707Y-62758213D01*
X170878213Y-62869707D01*
X170878210Y-62869711D01*
X170790609Y-63000814D01*
X170790602Y-63000827D01*
X170730264Y-63146498D01*
X170730261Y-63146510D01*
X170699500Y-63301153D01*
X170699500Y-63458846D01*
X170730261Y-63613489D01*
X170730264Y-63613501D01*
X170790602Y-63759172D01*
X170790609Y-63759185D01*
X170878210Y-63890288D01*
X170878213Y-63890292D01*
X170989707Y-64001786D01*
X170989711Y-64001789D01*
X171120814Y-64089390D01*
X171120827Y-64089397D01*
X171266498Y-64149735D01*
X171266503Y-64149737D01*
X171396514Y-64175598D01*
X171421153Y-64180499D01*
X171421156Y-64180500D01*
X171421158Y-64180500D01*
X171578844Y-64180500D01*
X171578845Y-64180499D01*
X171733497Y-64149737D01*
X171879179Y-64089394D01*
X171936044Y-64051397D01*
X172002721Y-64030520D01*
X172004935Y-64030500D01*
X173995065Y-64030500D01*
X174062104Y-64050185D01*
X174063909Y-64051366D01*
X174120821Y-64089394D01*
X174120823Y-64089395D01*
X174120827Y-64089397D01*
X174266498Y-64149735D01*
X174266503Y-64149737D01*
X174396514Y-64175598D01*
X174421153Y-64180499D01*
X174421156Y-64180500D01*
X174421158Y-64180500D01*
X174578844Y-64180500D01*
X174679936Y-64160391D01*
X174749528Y-64166618D01*
X174804705Y-64209481D01*
X174827950Y-64275370D01*
X174811883Y-64343367D01*
X174791809Y-64369689D01*
X172131286Y-67030213D01*
X172019481Y-67142017D01*
X172019480Y-67142019D01*
X171974518Y-67219896D01*
X171940423Y-67278950D01*
X171899499Y-67431678D01*
X171899499Y-67431680D01*
X171899499Y-67599781D01*
X171899500Y-67599794D01*
X171899500Y-70199903D01*
X171879815Y-70266942D01*
X171863181Y-70287584D01*
X170787584Y-71363181D01*
X170726261Y-71396666D01*
X170699903Y-71399500D01*
X169224500Y-71399500D01*
X169215814Y-71396949D01*
X169206853Y-71398238D01*
X169182812Y-71387259D01*
X169157461Y-71379815D01*
X169151533Y-71372974D01*
X169143297Y-71369213D01*
X169129007Y-71346978D01*
X169111706Y-71327011D01*
X169109418Y-71316496D01*
X169105523Y-71310435D01*
X169100500Y-71275500D01*
X169100500Y-71042350D01*
X169120185Y-70975311D01*
X169121398Y-70973459D01*
X169132073Y-70957483D01*
X169184394Y-70879179D01*
X169188728Y-70868717D01*
X169244735Y-70733501D01*
X169244737Y-70733497D01*
X169275500Y-70578842D01*
X169275500Y-70421158D01*
X169275500Y-70421155D01*
X169275499Y-70421153D01*
X169244738Y-70266510D01*
X169244737Y-70266503D01*
X169209692Y-70181896D01*
X169184397Y-70120827D01*
X169184390Y-70120814D01*
X169096789Y-69989711D01*
X169096786Y-69989707D01*
X168985292Y-69878213D01*
X168985288Y-69878210D01*
X168854185Y-69790609D01*
X168854172Y-69790602D01*
X168708501Y-69730264D01*
X168708489Y-69730261D01*
X168553845Y-69699500D01*
X168553842Y-69699500D01*
X168396158Y-69699500D01*
X168396155Y-69699500D01*
X168241510Y-69730261D01*
X168241498Y-69730264D01*
X168095827Y-69790602D01*
X168095814Y-69790609D01*
X167964711Y-69878210D01*
X167964707Y-69878213D01*
X167853213Y-69989707D01*
X167853210Y-69989711D01*
X167765609Y-70120814D01*
X167765602Y-70120827D01*
X167705264Y-70266498D01*
X167705261Y-70266510D01*
X167674500Y-70421153D01*
X167674500Y-70578846D01*
X167705261Y-70733489D01*
X167705264Y-70733501D01*
X167765602Y-70879172D01*
X167765609Y-70879185D01*
X167853210Y-71010288D01*
X167853212Y-71010291D01*
X167863178Y-71020256D01*
X167896665Y-71081578D01*
X167899500Y-71107940D01*
X167899500Y-71920943D01*
X167899500Y-72079057D01*
X167940371Y-72231588D01*
X167940423Y-72231783D01*
X167940426Y-72231790D01*
X168019475Y-72368709D01*
X168019478Y-72368713D01*
X168019480Y-72368716D01*
X168131284Y-72480520D01*
X168131286Y-72480521D01*
X168131290Y-72480524D01*
X168268209Y-72559573D01*
X168268216Y-72559577D01*
X168420943Y-72600500D01*
X170913331Y-72600500D01*
X170913347Y-72600501D01*
X170920943Y-72600501D01*
X171079054Y-72600501D01*
X171079057Y-72600501D01*
X171231785Y-72559577D01*
X171289077Y-72526499D01*
X171368716Y-72480520D01*
X171480520Y-72368716D01*
X171480520Y-72368714D01*
X171490724Y-72358511D01*
X171490728Y-72358506D01*
X172858506Y-70990728D01*
X172858511Y-70990724D01*
X172868714Y-70980520D01*
X172868716Y-70980520D01*
X172980520Y-70868716D01*
X173059577Y-70731784D01*
X173100500Y-70579057D01*
X173100500Y-69924499D01*
X173120185Y-69857460D01*
X173172989Y-69811705D01*
X173224495Y-69800499D01*
X174847872Y-69800499D01*
X174907483Y-69794091D01*
X175042331Y-69743796D01*
X175157546Y-69657546D01*
X175243796Y-69542331D01*
X175265209Y-69484919D01*
X176010054Y-69484919D01*
X176077742Y-69519408D01*
X176242415Y-69572914D01*
X176413429Y-69600000D01*
X176586571Y-69600000D01*
X176757584Y-69572914D01*
X176922254Y-69519408D01*
X176922258Y-69519407D01*
X176989944Y-69484918D01*
X176500001Y-68994974D01*
X176500000Y-68994974D01*
X176010054Y-69484919D01*
X175265209Y-69484919D01*
X175294091Y-69407483D01*
X175300500Y-69347873D01*
X175300499Y-69085301D01*
X175320183Y-69018265D01*
X175372987Y-68972510D01*
X175442146Y-68962566D01*
X175495200Y-68986795D01*
X175515080Y-68989944D01*
X176005025Y-68500000D01*
X175952364Y-68447339D01*
X176100000Y-68447339D01*
X176100000Y-68552661D01*
X176127259Y-68654394D01*
X176179920Y-68745606D01*
X176254394Y-68820080D01*
X176345606Y-68872741D01*
X176447339Y-68900000D01*
X176552661Y-68900000D01*
X176654394Y-68872741D01*
X176745606Y-68820080D01*
X176820080Y-68745606D01*
X176872741Y-68654394D01*
X176900000Y-68552661D01*
X176900000Y-68500000D01*
X176994974Y-68500000D01*
X177484918Y-68989944D01*
X177519407Y-68922258D01*
X177519408Y-68922254D01*
X177572914Y-68757584D01*
X177600000Y-68586571D01*
X177600000Y-68413428D01*
X177572914Y-68242415D01*
X177519408Y-68077742D01*
X177484918Y-68010054D01*
X176994974Y-68500000D01*
X176900000Y-68500000D01*
X176900000Y-68447339D01*
X176872741Y-68345606D01*
X176820080Y-68254394D01*
X176745606Y-68179920D01*
X176654394Y-68127259D01*
X176552661Y-68100000D01*
X176447339Y-68100000D01*
X176345606Y-68127259D01*
X176254394Y-68179920D01*
X176179920Y-68254394D01*
X176127259Y-68345606D01*
X176100000Y-68447339D01*
X175952364Y-68447339D01*
X175515079Y-68010054D01*
X175495099Y-68013219D01*
X175487008Y-68021787D01*
X175419186Y-68038581D01*
X175353052Y-68016042D01*
X175309601Y-67961327D01*
X175300499Y-67914695D01*
X175300499Y-67652129D01*
X175300498Y-67652123D01*
X175294091Y-67592518D01*
X175294090Y-67592514D01*
X175265209Y-67515079D01*
X176010054Y-67515079D01*
X176500000Y-68005025D01*
X176500001Y-68005025D01*
X176989944Y-67515080D01*
X176989944Y-67515079D01*
X176922253Y-67480590D01*
X176922250Y-67480588D01*
X176757586Y-67427086D01*
X176586571Y-67400000D01*
X176413429Y-67400000D01*
X176242414Y-67427086D01*
X176242411Y-67427086D01*
X176077748Y-67480589D01*
X176077747Y-67480589D01*
X176010054Y-67515079D01*
X175265209Y-67515079D01*
X175243797Y-67457671D01*
X175243793Y-67457664D01*
X175157547Y-67342455D01*
X175157544Y-67342452D01*
X175042335Y-67256206D01*
X175042328Y-67256202D01*
X174907482Y-67205908D01*
X174907483Y-67205908D01*
X174847883Y-67199501D01*
X174847881Y-67199500D01*
X174847873Y-67199500D01*
X174847865Y-67199500D01*
X173959831Y-67199500D01*
X173892792Y-67179815D01*
X173847037Y-67127011D01*
X173837093Y-67057853D01*
X173866118Y-66994297D01*
X173872150Y-66987819D01*
X174232541Y-66627428D01*
X175980520Y-64879451D01*
X176059577Y-64742519D01*
X176100501Y-64589792D01*
X176100501Y-64431677D01*
X176100501Y-64424082D01*
X176100500Y-64424064D01*
X176100500Y-64298336D01*
X176120185Y-64231297D01*
X176172989Y-64185542D01*
X176242147Y-64175598D01*
X176305703Y-64204623D01*
X176312181Y-64210655D01*
X176435354Y-64333828D01*
X176594595Y-64449524D01*
X176677455Y-64491743D01*
X176769970Y-64538882D01*
X176769972Y-64538882D01*
X176769975Y-64538884D01*
X176856898Y-64567127D01*
X176957173Y-64599709D01*
X177151578Y-64630500D01*
X177151583Y-64630500D01*
X177348422Y-64630500D01*
X177542826Y-64599709D01*
X177573353Y-64589790D01*
X177730025Y-64538884D01*
X177905405Y-64449524D01*
X178064646Y-64333828D01*
X178203828Y-64194646D01*
X178319524Y-64035405D01*
X178408884Y-63860025D01*
X178469709Y-63672826D01*
X178473245Y-63650499D01*
X178500500Y-63478422D01*
X178500500Y-63281577D01*
X178469709Y-63087173D01*
X178408882Y-62899970D01*
X178341065Y-62766872D01*
X178319524Y-62724595D01*
X178203828Y-62565354D01*
X178064646Y-62426172D01*
X177984330Y-62367819D01*
X177905403Y-62310474D01*
X177728787Y-62220485D01*
X177677990Y-62172511D01*
X177661195Y-62104690D01*
X177683732Y-62038555D01*
X177728787Y-61999515D01*
X177905403Y-61909525D01*
X177905402Y-61909525D01*
X177905405Y-61909524D01*
X178064646Y-61793828D01*
X178203828Y-61654646D01*
X178213297Y-61641612D01*
X178268628Y-61598948D01*
X178313614Y-61590500D01*
X180233920Y-61590500D01*
X180336629Y-61570069D01*
X180378913Y-61561658D01*
X180502929Y-61510289D01*
X180515493Y-61505085D01*
X180515493Y-61505084D01*
X180515495Y-61505084D01*
X180573893Y-61466064D01*
X180573893Y-61466063D01*
X180573895Y-61466063D01*
X180615579Y-61438211D01*
X180638416Y-61422952D01*
X182082951Y-59978416D01*
X182165084Y-59855495D01*
X182221658Y-59718913D01*
X182241276Y-59620291D01*
X182250500Y-59573920D01*
X182250500Y-47426080D01*
X182221659Y-47281093D01*
X182221658Y-47281092D01*
X182221658Y-47281088D01*
X182184503Y-47191388D01*
X182165087Y-47144512D01*
X182165080Y-47144499D01*
X182082952Y-47021586D01*
X182055435Y-46994069D01*
X181978416Y-46917050D01*
X180078415Y-45017048D01*
X180078414Y-45017047D01*
X180078412Y-45017045D01*
X180029178Y-44984150D01*
X179996354Y-44962218D01*
X179955494Y-44934916D01*
X179955493Y-44934915D01*
X179955491Y-44934914D01*
X179955489Y-44934913D01*
X179818916Y-44878343D01*
X179818906Y-44878340D01*
X179673919Y-44849500D01*
X179673917Y-44849500D01*
X178313614Y-44849500D01*
X178246575Y-44829815D01*
X178213297Y-44798387D01*
X178203828Y-44785354D01*
X178064648Y-44646174D01*
X178064646Y-44646172D01*
X177905405Y-44530476D01*
X177873320Y-44514128D01*
X177730029Y-44441117D01*
X177542826Y-44380290D01*
X177348422Y-44349500D01*
X177348417Y-44349500D01*
X177151583Y-44349500D01*
X177151578Y-44349500D01*
X176957173Y-44380290D01*
X176769970Y-44441117D01*
X176594594Y-44530476D01*
X176531297Y-44576465D01*
X176435354Y-44646172D01*
X176435352Y-44646174D01*
X176435351Y-44646174D01*
X176296171Y-44785354D01*
X176286703Y-44798387D01*
X176231372Y-44841052D01*
X176186386Y-44849500D01*
X175612229Y-44849500D01*
X175545190Y-44829815D01*
X175524548Y-44813181D01*
X175286819Y-44575451D01*
X175253334Y-44514128D01*
X175250500Y-44487770D01*
X175250500Y-37926079D01*
X175221659Y-37781092D01*
X175221658Y-37781091D01*
X175221658Y-37781087D01*
X175199923Y-37728614D01*
X175165087Y-37644511D01*
X175165080Y-37644498D01*
X175111412Y-37564179D01*
X175111410Y-37564176D01*
X175082954Y-37521586D01*
X174083503Y-36522135D01*
X177109500Y-36522135D01*
X177109500Y-38317870D01*
X177109501Y-38317876D01*
X177115908Y-38377483D01*
X177166202Y-38512328D01*
X177166206Y-38512335D01*
X177252452Y-38627544D01*
X177252455Y-38627547D01*
X177367664Y-38713793D01*
X177367671Y-38713797D01*
X177499082Y-38762810D01*
X177555016Y-38804681D01*
X177579433Y-38870145D01*
X177564582Y-38938418D01*
X177543431Y-38966673D01*
X177429889Y-39080215D01*
X177304951Y-39252179D01*
X177208444Y-39441585D01*
X177142753Y-39643760D01*
X177122800Y-39769738D01*
X177109500Y-39853713D01*
X177109500Y-40066287D01*
X177142754Y-40276243D01*
X177190613Y-40423538D01*
X177208444Y-40478414D01*
X177304951Y-40667820D01*
X177429890Y-40839786D01*
X177580213Y-40990109D01*
X177752182Y-41115050D01*
X177760946Y-41119516D01*
X177811742Y-41167491D01*
X177828536Y-41235312D01*
X177805998Y-41301447D01*
X177760946Y-41340484D01*
X177752182Y-41344949D01*
X177580213Y-41469890D01*
X177429890Y-41620213D01*
X177304951Y-41792179D01*
X177208444Y-41981585D01*
X177142753Y-42183760D01*
X177109500Y-42393713D01*
X177109500Y-42606286D01*
X177140260Y-42800500D01*
X177142754Y-42816243D01*
X177195030Y-42977132D01*
X177208444Y-43018414D01*
X177304951Y-43207820D01*
X177429890Y-43379786D01*
X177580213Y-43530109D01*
X177752179Y-43655048D01*
X177752181Y-43655049D01*
X177752184Y-43655051D01*
X177941588Y-43751557D01*
X178143757Y-43817246D01*
X178353713Y-43850500D01*
X178353714Y-43850500D01*
X178566286Y-43850500D01*
X178566287Y-43850500D01*
X178776243Y-43817246D01*
X178978412Y-43751557D01*
X179167816Y-43655051D01*
X179225915Y-43612840D01*
X179339786Y-43530109D01*
X179339788Y-43530106D01*
X179339792Y-43530104D01*
X179490104Y-43379792D01*
X179490106Y-43379788D01*
X179490109Y-43379786D01*
X179615048Y-43207820D01*
X179615047Y-43207820D01*
X179615051Y-43207816D01*
X179619514Y-43199054D01*
X179667488Y-43148259D01*
X179735308Y-43131463D01*
X179801444Y-43153999D01*
X179840486Y-43199056D01*
X179844951Y-43207820D01*
X179969890Y-43379786D01*
X180120213Y-43530109D01*
X180292179Y-43655048D01*
X180292181Y-43655049D01*
X180292184Y-43655051D01*
X180481588Y-43751557D01*
X180683757Y-43817246D01*
X180893713Y-43850500D01*
X180893714Y-43850500D01*
X181106286Y-43850500D01*
X181106287Y-43850500D01*
X181216111Y-43833105D01*
X181321055Y-43816484D01*
X181321315Y-43818128D01*
X181383852Y-43821250D01*
X181430711Y-43850657D01*
X182085324Y-44505271D01*
X182085327Y-44505274D01*
X182085330Y-44505276D01*
X182173321Y-44564069D01*
X182191873Y-44576465D01*
X182310256Y-44625501D01*
X182310260Y-44625501D01*
X182310261Y-44625502D01*
X182435928Y-44650500D01*
X182435931Y-44650500D01*
X185613122Y-44650500D01*
X185680161Y-44670185D01*
X185725916Y-44722989D01*
X185727784Y-44727930D01*
X185727932Y-44727869D01*
X185790602Y-44879172D01*
X185790606Y-44879179D01*
X185828602Y-44936044D01*
X185849480Y-45002721D01*
X185849500Y-45004935D01*
X185849500Y-51179191D01*
X185829815Y-51246230D01*
X185813181Y-51266872D01*
X183897068Y-53182984D01*
X183835745Y-53216469D01*
X183833579Y-53216920D01*
X183766508Y-53230261D01*
X183766498Y-53230264D01*
X183620827Y-53290602D01*
X183620814Y-53290609D01*
X183489711Y-53378210D01*
X183489707Y-53378213D01*
X183378213Y-53489707D01*
X183378210Y-53489711D01*
X183290609Y-53620814D01*
X183290602Y-53620827D01*
X183230264Y-53766498D01*
X183230261Y-53766510D01*
X183199500Y-53921153D01*
X183199500Y-54078846D01*
X183230261Y-54233489D01*
X183230264Y-54233501D01*
X183290602Y-54379172D01*
X183290609Y-54379185D01*
X183378210Y-54510288D01*
X183378213Y-54510292D01*
X183489707Y-54621786D01*
X183489711Y-54621789D01*
X183620814Y-54709390D01*
X183620827Y-54709397D01*
X183766498Y-54769735D01*
X183766503Y-54769737D01*
X183870473Y-54790418D01*
X183921153Y-54800499D01*
X183921156Y-54800500D01*
X183921158Y-54800500D01*
X184078844Y-54800500D01*
X184078845Y-54800499D01*
X184233497Y-54769737D01*
X184379179Y-54709394D01*
X184510289Y-54621789D01*
X184621789Y-54510289D01*
X184709394Y-54379179D01*
X184769737Y-54233497D01*
X184783079Y-54166416D01*
X184815463Y-54104509D01*
X184816958Y-54102986D01*
X187005277Y-51914669D01*
X187076465Y-51808127D01*
X187125501Y-51689744D01*
X187132360Y-51655263D01*
X187139211Y-51620821D01*
X187150500Y-51564071D01*
X187150500Y-45004935D01*
X187170185Y-44937896D01*
X187171366Y-44936090D01*
X187209394Y-44879179D01*
X187269737Y-44733497D01*
X187269737Y-44733496D01*
X187272068Y-44727869D01*
X187274522Y-44728885D01*
X187306510Y-44680070D01*
X187370321Y-44651610D01*
X187386878Y-44650500D01*
X188589071Y-44650500D01*
X188673615Y-44633682D01*
X188714744Y-44625501D01*
X188833127Y-44576465D01*
X188851679Y-44564069D01*
X188939669Y-44505277D01*
X189602931Y-43842012D01*
X189664251Y-43808530D01*
X189666330Y-43808096D01*
X189733497Y-43794737D01*
X189879179Y-43734394D01*
X190010289Y-43646789D01*
X190121789Y-43535289D01*
X190209394Y-43404179D01*
X190269737Y-43258497D01*
X190300500Y-43103842D01*
X190300500Y-42946158D01*
X190300500Y-42946155D01*
X190300499Y-42946153D01*
X190285229Y-42869388D01*
X190269737Y-42791503D01*
X190260721Y-42769737D01*
X190209397Y-42645827D01*
X190209390Y-42645814D01*
X190121789Y-42514711D01*
X190121786Y-42514707D01*
X190010292Y-42403213D01*
X190010288Y-42403210D01*
X189879185Y-42315609D01*
X189879172Y-42315602D01*
X189733501Y-42255264D01*
X189733489Y-42255261D01*
X189578845Y-42224500D01*
X189578842Y-42224500D01*
X189421158Y-42224500D01*
X189421155Y-42224500D01*
X189266510Y-42255261D01*
X189266498Y-42255264D01*
X189120827Y-42315602D01*
X189120814Y-42315609D01*
X188989711Y-42403210D01*
X188989707Y-42403213D01*
X188878213Y-42514707D01*
X188878210Y-42514711D01*
X188790609Y-42645814D01*
X188790602Y-42645827D01*
X188730264Y-42791498D01*
X188730261Y-42791508D01*
X188716920Y-42858580D01*
X188684535Y-42920491D01*
X188682984Y-42922069D01*
X188291873Y-43313181D01*
X188230550Y-43346666D01*
X188204192Y-43349500D01*
X187230583Y-43349500D01*
X187163544Y-43329815D01*
X187161741Y-43328634D01*
X187077781Y-43272535D01*
X187043890Y-43258497D01*
X186959398Y-43223499D01*
X186959395Y-43223498D01*
X186951947Y-43222017D01*
X186944499Y-43220535D01*
X186944497Y-43220534D01*
X186944497Y-43220535D01*
X186833725Y-43198500D01*
X186833723Y-43198500D01*
X186166277Y-43198500D01*
X186166275Y-43198500D01*
X186055508Y-43220534D01*
X186055503Y-43220535D01*
X186044300Y-43222763D01*
X186040601Y-43223499D01*
X185922220Y-43272534D01*
X185922219Y-43272535D01*
X185838305Y-43328603D01*
X185771630Y-43349480D01*
X185769417Y-43349500D01*
X182820808Y-43349500D01*
X182753769Y-43329815D01*
X182733127Y-43313181D01*
X182350657Y-42930711D01*
X182317172Y-42869388D01*
X182317689Y-42821245D01*
X182316484Y-42821055D01*
X182350500Y-42606286D01*
X182350500Y-42393713D01*
X182334475Y-42292535D01*
X182317246Y-42183757D01*
X182251557Y-41981588D01*
X182251555Y-41981585D01*
X182251555Y-41981583D01*
X182246347Y-41971362D01*
X182246346Y-41971361D01*
X182220764Y-41921153D01*
X186699500Y-41921153D01*
X186699500Y-42078846D01*
X186730261Y-42233489D01*
X186730264Y-42233501D01*
X186790602Y-42379172D01*
X186790609Y-42379185D01*
X186878210Y-42510288D01*
X186878213Y-42510292D01*
X186989707Y-42621786D01*
X186989711Y-42621789D01*
X187120814Y-42709390D01*
X187120827Y-42709397D01*
X187255704Y-42765264D01*
X187266503Y-42769737D01*
X187375963Y-42791510D01*
X187421153Y-42800499D01*
X187421156Y-42800500D01*
X187421158Y-42800500D01*
X187578844Y-42800500D01*
X187578845Y-42800499D01*
X187733497Y-42769737D01*
X187879179Y-42709394D01*
X188010289Y-42621789D01*
X188121789Y-42510289D01*
X188209394Y-42379179D01*
X188269737Y-42233497D01*
X188300500Y-42078842D01*
X188300500Y-41921158D01*
X188300500Y-41921155D01*
X188300499Y-41921153D01*
X188286692Y-41851742D01*
X188269737Y-41766503D01*
X188236731Y-41686819D01*
X188209397Y-41620827D01*
X188209390Y-41620814D01*
X188121789Y-41489711D01*
X188121786Y-41489707D01*
X188010292Y-41378213D01*
X188010288Y-41378210D01*
X187879185Y-41290609D01*
X187879172Y-41290602D01*
X187733501Y-41230264D01*
X187733489Y-41230261D01*
X187578845Y-41199500D01*
X187578842Y-41199500D01*
X187421158Y-41199500D01*
X187421155Y-41199500D01*
X187266510Y-41230261D01*
X187266498Y-41230264D01*
X187120827Y-41290602D01*
X187120814Y-41290609D01*
X186989711Y-41378210D01*
X186989707Y-41378213D01*
X186878213Y-41489707D01*
X186878210Y-41489711D01*
X186790609Y-41620814D01*
X186790602Y-41620827D01*
X186730264Y-41766498D01*
X186730261Y-41766510D01*
X186699500Y-41921153D01*
X182220764Y-41921153D01*
X182185397Y-41851742D01*
X182155051Y-41792184D01*
X182155049Y-41792181D01*
X182155048Y-41792179D01*
X182030109Y-41620213D01*
X181879786Y-41469890D01*
X181707820Y-41344951D01*
X181707115Y-41344591D01*
X181699054Y-41340485D01*
X181648259Y-41292512D01*
X181631463Y-41224692D01*
X181653999Y-41158556D01*
X181699054Y-41119515D01*
X181707816Y-41115051D01*
X181729789Y-41099086D01*
X181879786Y-40990109D01*
X181879788Y-40990106D01*
X181879792Y-40990104D01*
X182030104Y-40839792D01*
X182030106Y-40839788D01*
X182030109Y-40839786D01*
X182155048Y-40667820D01*
X182155047Y-40667820D01*
X182155051Y-40667816D01*
X182251557Y-40478412D01*
X182317246Y-40276243D01*
X182350500Y-40066287D01*
X182350500Y-39853713D01*
X182317246Y-39643757D01*
X182251557Y-39441588D01*
X182155051Y-39252184D01*
X182155049Y-39252181D01*
X182155048Y-39252179D01*
X182030109Y-39080213D01*
X181879786Y-38929890D01*
X181707820Y-38804951D01*
X181518414Y-38708444D01*
X181518413Y-38708443D01*
X181518412Y-38708443D01*
X181489246Y-38698966D01*
X181431571Y-38659529D01*
X181404373Y-38595171D01*
X181416288Y-38526324D01*
X181463532Y-38474849D01*
X181471270Y-38470551D01*
X181602734Y-38403565D01*
X181749169Y-38297176D01*
X181877176Y-38169169D01*
X181983565Y-38022735D01*
X182065747Y-37861444D01*
X182095460Y-37770000D01*
X181357106Y-37770000D01*
X181400099Y-37727007D01*
X181465925Y-37612993D01*
X181500000Y-37485826D01*
X181500000Y-37354174D01*
X181465925Y-37227007D01*
X181400099Y-37112993D01*
X181357106Y-37070000D01*
X182095460Y-37070000D01*
X182095459Y-37069999D01*
X182065747Y-36978555D01*
X181983565Y-36817264D01*
X181877176Y-36670830D01*
X181749169Y-36542823D01*
X181602735Y-36436434D01*
X181441444Y-36354252D01*
X181350000Y-36324540D01*
X181350000Y-37062894D01*
X181307007Y-37019901D01*
X181192993Y-36954075D01*
X181065826Y-36920000D01*
X180934174Y-36920000D01*
X180807007Y-36954075D01*
X180692993Y-37019901D01*
X180650000Y-37062894D01*
X180650000Y-36324540D01*
X180649999Y-36324540D01*
X180558555Y-36354252D01*
X180397264Y-36436434D01*
X180250830Y-36542823D01*
X180122827Y-36670826D01*
X180122823Y-36670831D01*
X180034817Y-36791962D01*
X179979487Y-36834628D01*
X179909874Y-36840607D01*
X179848079Y-36808001D01*
X179813722Y-36747163D01*
X179810499Y-36719077D01*
X179810499Y-36522129D01*
X179810498Y-36522123D01*
X179810497Y-36522116D01*
X179804091Y-36462517D01*
X179801878Y-36456584D01*
X179753797Y-36327671D01*
X179753793Y-36327664D01*
X179667547Y-36212455D01*
X179667544Y-36212452D01*
X179552335Y-36126206D01*
X179552328Y-36126202D01*
X179417482Y-36075908D01*
X179417483Y-36075908D01*
X179357883Y-36069501D01*
X179357881Y-36069500D01*
X179357873Y-36069500D01*
X179357864Y-36069500D01*
X177562129Y-36069500D01*
X177562123Y-36069501D01*
X177502516Y-36075908D01*
X177367671Y-36126202D01*
X177367664Y-36126206D01*
X177252455Y-36212452D01*
X177252452Y-36212455D01*
X177166206Y-36327664D01*
X177166202Y-36327671D01*
X177115908Y-36462517D01*
X177109605Y-36521153D01*
X177109501Y-36522123D01*
X177109500Y-36522135D01*
X174083503Y-36522135D01*
X173996071Y-36434703D01*
X173969191Y-36394475D01*
X173959394Y-36370821D01*
X173959390Y-36370815D01*
X173871789Y-36239710D01*
X173760292Y-36128213D01*
X173760284Y-36128207D01*
X173629181Y-36040607D01*
X173629179Y-36040606D01*
X173605521Y-36030806D01*
X173598589Y-36026174D01*
X173593549Y-36025078D01*
X173565295Y-36003927D01*
X173423549Y-35862181D01*
X173390064Y-35800858D01*
X173395048Y-35731166D01*
X173436920Y-35675233D01*
X173502384Y-35650816D01*
X173511230Y-35650500D01*
X189577098Y-35650500D01*
X189644137Y-35670185D01*
G37*
%TD.AperFunction*%
%TA.AperFunction,Conductor*%
G36*
X147392133Y-43525435D02*
G01*
X147413174Y-43526563D01*
X147424988Y-43535082D01*
X147438960Y-43539185D01*
X147452755Y-43555105D01*
X147469846Y-43567430D01*
X147475178Y-43580983D01*
X147484715Y-43591989D01*
X147487713Y-43612840D01*
X147495428Y-43632448D01*
X147494098Y-43657246D01*
X147494659Y-43661147D01*
X147493538Y-43667692D01*
X147483500Y-43718155D01*
X147483500Y-43875846D01*
X147514261Y-44030489D01*
X147514264Y-44030501D01*
X147574602Y-44176172D01*
X147574609Y-44176185D01*
X147662210Y-44307288D01*
X147662213Y-44307292D01*
X147773707Y-44418786D01*
X147773711Y-44418789D01*
X147904814Y-44506390D01*
X147904827Y-44506397D01*
X147983858Y-44539132D01*
X148050503Y-44566737D01*
X148117580Y-44580079D01*
X148179490Y-44612463D01*
X148181069Y-44614015D01*
X153293181Y-49726127D01*
X153326666Y-49787450D01*
X153329500Y-49813808D01*
X153329500Y-51920064D01*
X153309815Y-51987103D01*
X153308603Y-51988954D01*
X153270608Y-52045817D01*
X153270602Y-52045828D01*
X153210264Y-52191498D01*
X153210261Y-52191510D01*
X153179500Y-52346153D01*
X153179500Y-52503846D01*
X153210261Y-52658489D01*
X153210264Y-52658501D01*
X153270602Y-52804172D01*
X153270609Y-52804185D01*
X153358210Y-52935288D01*
X153358213Y-52935292D01*
X153469707Y-53046786D01*
X153469711Y-53046789D01*
X153600814Y-53134390D01*
X153600827Y-53134397D01*
X153746498Y-53194735D01*
X153746503Y-53194737D01*
X153858024Y-53216920D01*
X153901153Y-53225499D01*
X153901156Y-53225500D01*
X153946191Y-53225500D01*
X154013230Y-53245185D01*
X154058985Y-53297989D01*
X154068929Y-53367147D01*
X154039904Y-53430703D01*
X154033872Y-53437181D01*
X148494727Y-58976325D01*
X148494721Y-58976332D01*
X148427369Y-59077132D01*
X148427370Y-59077133D01*
X148423534Y-59082873D01*
X148374499Y-59201255D01*
X148374497Y-59201261D01*
X148349500Y-59326928D01*
X148349500Y-60679192D01*
X148329815Y-60746231D01*
X148313181Y-60766873D01*
X147226873Y-61853181D01*
X147165550Y-61886666D01*
X147139192Y-61889500D01*
X146455809Y-61889500D01*
X146388770Y-61869815D01*
X146343015Y-61817011D01*
X146333071Y-61747853D01*
X146362096Y-61684297D01*
X146368128Y-61677819D01*
X146948272Y-61097674D01*
X146948273Y-61097673D01*
X146948277Y-61097669D01*
X147019465Y-60991127D01*
X147068501Y-60872744D01*
X147071931Y-60855501D01*
X147089633Y-60766510D01*
X147093500Y-60747071D01*
X147093500Y-51877808D01*
X147102144Y-51848367D01*
X147108668Y-51818381D01*
X147112422Y-51813365D01*
X147113185Y-51810769D01*
X147129819Y-51790127D01*
X147129931Y-51790015D01*
X147191254Y-51756530D01*
X147193361Y-51756090D01*
X147260497Y-51742737D01*
X147406179Y-51682394D01*
X147537289Y-51594789D01*
X147648789Y-51483289D01*
X147736394Y-51352179D01*
X147796737Y-51206497D01*
X147827500Y-51051842D01*
X147827500Y-50894158D01*
X147827500Y-50894155D01*
X147827499Y-50894153D01*
X147822394Y-50868490D01*
X147796737Y-50739503D01*
X147777008Y-50691873D01*
X147736397Y-50593827D01*
X147736390Y-50593814D01*
X147648789Y-50462711D01*
X147648786Y-50462707D01*
X147537292Y-50351213D01*
X147537288Y-50351210D01*
X147406185Y-50263609D01*
X147406172Y-50263602D01*
X147260501Y-50203264D01*
X147260489Y-50203261D01*
X147105845Y-50172500D01*
X147105842Y-50172500D01*
X146948158Y-50172500D01*
X146948155Y-50172500D01*
X146793510Y-50203261D01*
X146793498Y-50203264D01*
X146647827Y-50263602D01*
X146647814Y-50263609D01*
X146516711Y-50351210D01*
X146516707Y-50351213D01*
X146405213Y-50462707D01*
X146405210Y-50462711D01*
X146317609Y-50593814D01*
X146317602Y-50593827D01*
X146257264Y-50739498D01*
X146257261Y-50739508D01*
X146243920Y-50806579D01*
X146211535Y-50868490D01*
X146209985Y-50870068D01*
X145937723Y-51142331D01*
X145878972Y-51230261D01*
X145878971Y-51230262D01*
X145878970Y-51230262D01*
X145866536Y-51248870D01*
X145866535Y-51248873D01*
X145817499Y-51367255D01*
X145817497Y-51367261D01*
X145792500Y-51492928D01*
X145792500Y-59099731D01*
X145772815Y-59166770D01*
X145720011Y-59212525D01*
X145650853Y-59222469D01*
X145587297Y-59193444D01*
X145568182Y-59172617D01*
X145530105Y-59120209D01*
X145379786Y-58969890D01*
X145203875Y-58842085D01*
X145204851Y-58840740D01*
X145162834Y-58794295D01*
X145150500Y-58740382D01*
X145150500Y-45320808D01*
X145170185Y-45253769D01*
X145186819Y-45233127D01*
X146864127Y-43555819D01*
X146925450Y-43522334D01*
X146951808Y-43519500D01*
X147371921Y-43519500D01*
X147392133Y-43525435D01*
G37*
%TD.AperFunction*%
%TA.AperFunction,Conductor*%
G36*
X179304808Y-46370185D02*
G01*
X179325450Y-46386819D01*
X180713181Y-47774549D01*
X180746666Y-47835872D01*
X180749500Y-47862230D01*
X180749500Y-59137770D01*
X180729815Y-59204809D01*
X180713181Y-59225451D01*
X179885451Y-60053181D01*
X179824128Y-60086666D01*
X179797770Y-60089500D01*
X178313614Y-60089500D01*
X178246575Y-60069815D01*
X178213297Y-60038387D01*
X178203828Y-60025354D01*
X178064648Y-59886174D01*
X178064646Y-59886172D01*
X177934356Y-59791510D01*
X177905403Y-59770474D01*
X177728787Y-59680485D01*
X177677990Y-59632511D01*
X177661195Y-59564690D01*
X177683732Y-59498555D01*
X177728787Y-59459515D01*
X177905403Y-59369525D01*
X177905402Y-59369525D01*
X177905405Y-59369524D01*
X178064646Y-59253828D01*
X178203828Y-59114646D01*
X178319524Y-58955405D01*
X178408884Y-58780025D01*
X178469709Y-58592826D01*
X178482634Y-58511219D01*
X178500500Y-58398422D01*
X178500500Y-58201577D01*
X178469709Y-58007173D01*
X178408882Y-57819970D01*
X178319523Y-57644594D01*
X178307202Y-57627636D01*
X178203828Y-57485354D01*
X178064646Y-57346172D01*
X177942665Y-57257547D01*
X177905403Y-57230474D01*
X177728787Y-57140485D01*
X177677990Y-57092511D01*
X177661195Y-57024690D01*
X177683732Y-56958555D01*
X177728787Y-56919515D01*
X177905403Y-56829525D01*
X177905402Y-56829525D01*
X177905405Y-56829524D01*
X178064646Y-56713828D01*
X178203828Y-56574646D01*
X178319524Y-56415405D01*
X178408884Y-56240025D01*
X178469709Y-56052826D01*
X178500500Y-55858422D01*
X178500500Y-55661577D01*
X178469709Y-55467173D01*
X178408882Y-55279970D01*
X178319523Y-55104594D01*
X178281409Y-55052135D01*
X178203828Y-54945354D01*
X178064646Y-54806172D01*
X177976946Y-54742454D01*
X177905403Y-54690474D01*
X177728787Y-54600485D01*
X177677990Y-54552511D01*
X177661195Y-54484690D01*
X177683732Y-54418555D01*
X177728787Y-54379515D01*
X177905403Y-54289525D01*
X177905402Y-54289525D01*
X177905405Y-54289524D01*
X178064646Y-54173828D01*
X178203828Y-54034646D01*
X178319524Y-53875405D01*
X178408884Y-53700025D01*
X178469709Y-53512826D01*
X178482716Y-53430703D01*
X178500500Y-53318422D01*
X178500500Y-53121577D01*
X178469709Y-52927173D01*
X178456507Y-52886542D01*
X178432551Y-52812817D01*
X178430557Y-52742978D01*
X178466637Y-52683145D01*
X178529337Y-52652316D01*
X178550483Y-52650500D01*
X178995065Y-52650500D01*
X179062104Y-52670185D01*
X179063909Y-52671366D01*
X179120821Y-52709394D01*
X179120823Y-52709395D01*
X179120827Y-52709397D01*
X179266498Y-52769735D01*
X179266503Y-52769737D01*
X179379165Y-52792147D01*
X179421153Y-52800499D01*
X179421156Y-52800500D01*
X179421158Y-52800500D01*
X179578844Y-52800500D01*
X179578845Y-52800499D01*
X179733497Y-52769737D01*
X179879179Y-52709394D01*
X180010289Y-52621789D01*
X180121789Y-52510289D01*
X180209394Y-52379179D01*
X180269737Y-52233497D01*
X180300500Y-52078842D01*
X180300500Y-51921158D01*
X180300500Y-51921155D01*
X180300499Y-51921153D01*
X180278542Y-51810769D01*
X180269737Y-51766503D01*
X180259893Y-51742737D01*
X180209397Y-51620827D01*
X180209390Y-51620814D01*
X180121789Y-51489711D01*
X180121786Y-51489707D01*
X180010292Y-51378213D01*
X180010288Y-51378210D01*
X179879185Y-51290609D01*
X179879172Y-51290602D01*
X179733501Y-51230264D01*
X179733489Y-51230261D01*
X179578845Y-51199500D01*
X179578842Y-51199500D01*
X179421158Y-51199500D01*
X179421155Y-51199500D01*
X179266510Y-51230261D01*
X179266498Y-51230264D01*
X179120827Y-51290602D01*
X179120820Y-51290606D01*
X179091928Y-51309911D01*
X179063955Y-51328602D01*
X178997279Y-51349480D01*
X178995065Y-51349500D01*
X178514692Y-51349500D01*
X178447653Y-51329815D01*
X178401898Y-51277011D01*
X178391954Y-51207853D01*
X178404206Y-51169207D01*
X178405656Y-51166359D01*
X178408884Y-51160025D01*
X178469709Y-50972826D01*
X178476563Y-50929550D01*
X178500500Y-50778422D01*
X178500500Y-50581577D01*
X178469709Y-50387173D01*
X178420814Y-50236691D01*
X178408884Y-50199975D01*
X178408882Y-50199972D01*
X178408882Y-50199970D01*
X178319523Y-50024594D01*
X178305240Y-50004935D01*
X178203828Y-49865354D01*
X178064646Y-49726172D01*
X177905405Y-49610476D01*
X177890593Y-49602929D01*
X177730029Y-49521117D01*
X177542827Y-49460291D01*
X177366717Y-49432397D01*
X177303583Y-49402467D01*
X177266652Y-49343156D01*
X177267650Y-49273293D01*
X177306260Y-49215061D01*
X177361926Y-49188306D01*
X177556274Y-49149649D01*
X177703636Y-49088609D01*
X177255026Y-48640000D01*
X177315826Y-48640000D01*
X177442993Y-48605925D01*
X177557007Y-48540099D01*
X177650099Y-48447007D01*
X177715925Y-48332993D01*
X177750000Y-48205826D01*
X177750000Y-48145027D01*
X178198609Y-48593636D01*
X178259649Y-48446274D01*
X178259651Y-48446266D01*
X178299999Y-48243420D01*
X178300000Y-48243417D01*
X178300000Y-48036583D01*
X178299999Y-48036579D01*
X178259651Y-47833733D01*
X178259649Y-47833725D01*
X178198609Y-47686362D01*
X177750000Y-48134972D01*
X177750000Y-48074174D01*
X177715925Y-47947007D01*
X177650099Y-47832993D01*
X177557007Y-47739901D01*
X177442993Y-47674075D01*
X177315826Y-47640000D01*
X177255027Y-47640000D01*
X177703636Y-47191388D01*
X177556277Y-47130351D01*
X177556265Y-47130348D01*
X177361925Y-47091692D01*
X177300014Y-47059308D01*
X177265440Y-46998592D01*
X177269179Y-46928822D01*
X177310045Y-46872150D01*
X177366718Y-46847602D01*
X177542826Y-46819709D01*
X177598116Y-46801744D01*
X177730025Y-46758884D01*
X177905405Y-46669524D01*
X178064646Y-46553828D01*
X178203828Y-46414646D01*
X178213297Y-46401612D01*
X178268628Y-46358948D01*
X178313614Y-46350500D01*
X179237769Y-46350500D01*
X179304808Y-46370185D01*
G37*
%TD.AperFunction*%
%TA.AperFunction,Conductor*%
G36*
X166574979Y-39947481D02*
G01*
X166630912Y-39989353D01*
X166655329Y-40054817D01*
X166651353Y-40090309D01*
X166652451Y-40090528D01*
X166620500Y-40251153D01*
X166620500Y-40408846D01*
X166651261Y-40563489D01*
X166651264Y-40563501D01*
X166711602Y-40709172D01*
X166711606Y-40709179D01*
X166749602Y-40766044D01*
X166770480Y-40832721D01*
X166770500Y-40834935D01*
X166770500Y-42345070D01*
X166784345Y-42414668D01*
X166784345Y-42414670D01*
X166795497Y-42470737D01*
X166795499Y-42470744D01*
X166844535Y-42589127D01*
X166882416Y-42645821D01*
X166915726Y-42695673D01*
X166915727Y-42695674D01*
X167730181Y-43510127D01*
X167763666Y-43571450D01*
X167766500Y-43597808D01*
X167766500Y-44140059D01*
X167746815Y-44207098D01*
X167694011Y-44252853D01*
X167624853Y-44262797D01*
X167561297Y-44233772D01*
X167554819Y-44227740D01*
X167510292Y-44183213D01*
X167510288Y-44183210D01*
X167379185Y-44095609D01*
X167379172Y-44095602D01*
X167233501Y-44035264D01*
X167233489Y-44035261D01*
X167078845Y-44004500D01*
X167078842Y-44004500D01*
X166921158Y-44004500D01*
X166921155Y-44004500D01*
X166766510Y-44035261D01*
X166766498Y-44035264D01*
X166620827Y-44095602D01*
X166620814Y-44095609D01*
X166489711Y-44183210D01*
X166489707Y-44183213D01*
X166378213Y-44294707D01*
X166378210Y-44294711D01*
X166290609Y-44425814D01*
X166290602Y-44425827D01*
X166230263Y-44571500D01*
X166230261Y-44571506D01*
X166216919Y-44638581D01*
X166184533Y-44700491D01*
X166182983Y-44702069D01*
X165571873Y-45313181D01*
X165510550Y-45346666D01*
X165484192Y-45349500D01*
X162326929Y-45349500D01*
X162201261Y-45374497D01*
X162201255Y-45374499D01*
X162082874Y-45423534D01*
X161976326Y-45494726D01*
X161976325Y-45494727D01*
X154992181Y-52478872D01*
X154930858Y-52512357D01*
X154861166Y-52507373D01*
X154805233Y-52465501D01*
X154780816Y-52400037D01*
X154780500Y-52391191D01*
X154780500Y-52346155D01*
X154780499Y-52346153D01*
X154758090Y-52233497D01*
X154749737Y-52191503D01*
X154703073Y-52078846D01*
X154689397Y-52045828D01*
X154689396Y-52045827D01*
X154689394Y-52045821D01*
X154651396Y-51988953D01*
X154630520Y-51922276D01*
X154630500Y-51920064D01*
X154630500Y-49428928D01*
X154605502Y-49303261D01*
X154605501Y-49303260D01*
X154605501Y-49303256D01*
X154556465Y-49184873D01*
X154519716Y-49129874D01*
X154519716Y-49129873D01*
X154485277Y-49078331D01*
X154485271Y-49078324D01*
X149138127Y-43731181D01*
X149104642Y-43669858D01*
X149109626Y-43600166D01*
X149151498Y-43544233D01*
X149216962Y-43519816D01*
X149225808Y-43519500D01*
X150214192Y-43519500D01*
X150243632Y-43528144D01*
X150273619Y-43534668D01*
X150278634Y-43538422D01*
X150281231Y-43539185D01*
X150301873Y-43555819D01*
X150383984Y-43637930D01*
X150417469Y-43699253D01*
X150417920Y-43701420D01*
X150431261Y-43768489D01*
X150431264Y-43768501D01*
X150491602Y-43914172D01*
X150491609Y-43914185D01*
X150579210Y-44045288D01*
X150579213Y-44045292D01*
X150690707Y-44156786D01*
X150690711Y-44156789D01*
X150821814Y-44244390D01*
X150821827Y-44244397D01*
X150941021Y-44293768D01*
X150967503Y-44304737D01*
X151122153Y-44335499D01*
X151122156Y-44335500D01*
X151122158Y-44335500D01*
X151279844Y-44335500D01*
X151279845Y-44335499D01*
X151434497Y-44304737D01*
X151580179Y-44244394D01*
X151711289Y-44156789D01*
X151822789Y-44045289D01*
X151910394Y-43914179D01*
X151970737Y-43768497D01*
X152001500Y-43613842D01*
X152001500Y-43456158D01*
X152001500Y-43456155D01*
X152001499Y-43456153D01*
X151986310Y-43379792D01*
X151970737Y-43301503D01*
X151952925Y-43258501D01*
X151910397Y-43155827D01*
X151910390Y-43155814D01*
X151822789Y-43024711D01*
X151822786Y-43024707D01*
X151711292Y-42913213D01*
X151711288Y-42913210D01*
X151580185Y-42825609D01*
X151580172Y-42825602D01*
X151434501Y-42765264D01*
X151434489Y-42765261D01*
X151367420Y-42751920D01*
X151305509Y-42719535D01*
X151303930Y-42717984D01*
X150949674Y-42363727D01*
X150949673Y-42363726D01*
X150921752Y-42345070D01*
X150843127Y-42292535D01*
X150724744Y-42243499D01*
X150724738Y-42243497D01*
X150599071Y-42218500D01*
X150599069Y-42218500D01*
X146566931Y-42218500D01*
X146566929Y-42218500D01*
X146441261Y-42243497D01*
X146441255Y-42243499D01*
X146322874Y-42292534D01*
X146216326Y-42363726D01*
X143994724Y-44585328D01*
X143941155Y-44665500D01*
X143941156Y-44665501D01*
X143923534Y-44691874D01*
X143874499Y-44810255D01*
X143874497Y-44810261D01*
X143849500Y-44935928D01*
X143849500Y-58740382D01*
X143829815Y-58807421D01*
X143795408Y-58841099D01*
X143796125Y-58842085D01*
X143620213Y-58969890D01*
X143469890Y-59120213D01*
X143344949Y-59292182D01*
X143340484Y-59300946D01*
X143292509Y-59351742D01*
X143224688Y-59368536D01*
X143158553Y-59345998D01*
X143119516Y-59300946D01*
X143115050Y-59292182D01*
X142990109Y-59120213D01*
X142839786Y-58969890D01*
X142663875Y-58842085D01*
X142664851Y-58840740D01*
X142622834Y-58794295D01*
X142610500Y-58740382D01*
X142610500Y-44360807D01*
X142630185Y-44293768D01*
X142646819Y-44273126D01*
X145233126Y-41686819D01*
X145294449Y-41653334D01*
X145320807Y-41650500D01*
X164564071Y-41650500D01*
X164648615Y-41633682D01*
X164689744Y-41625501D01*
X164808127Y-41576465D01*
X164914669Y-41505277D01*
X166443964Y-39975982D01*
X166505287Y-39942497D01*
X166574979Y-39947481D01*
G37*
%TD.AperFunction*%
%TA.AperFunction,Conductor*%
G36*
X170708946Y-37838363D02*
G01*
X170719030Y-37837097D01*
X170741905Y-37848041D01*
X170766234Y-37855185D01*
X170772888Y-37862864D01*
X170782057Y-37867251D01*
X170795385Y-37888827D01*
X170811989Y-37907989D01*
X170813435Y-37918046D01*
X170818777Y-37926694D01*
X170818324Y-37952050D01*
X170821933Y-37977147D01*
X170817678Y-37988250D01*
X170817530Y-37996553D01*
X170802297Y-38028391D01*
X170770609Y-38075814D01*
X170770602Y-38075827D01*
X170710264Y-38221498D01*
X170710261Y-38221510D01*
X170679500Y-38376153D01*
X170679500Y-38533846D01*
X170710261Y-38688489D01*
X170710264Y-38688501D01*
X170770602Y-38834172D01*
X170770609Y-38834185D01*
X170858210Y-38965288D01*
X170858213Y-38965292D01*
X170969707Y-39076786D01*
X170969711Y-39076789D01*
X171100814Y-39164390D01*
X171100827Y-39164397D01*
X171246498Y-39224735D01*
X171246503Y-39224737D01*
X171399605Y-39255191D01*
X171401153Y-39255499D01*
X171401156Y-39255500D01*
X171559192Y-39255500D01*
X171626231Y-39275185D01*
X171646873Y-39291819D01*
X172813181Y-40458127D01*
X172846666Y-40519450D01*
X172849500Y-40545808D01*
X172849500Y-46994070D01*
X172866363Y-47078841D01*
X172866363Y-47078843D01*
X172872859Y-47111503D01*
X172874499Y-47119744D01*
X172923535Y-47238127D01*
X172952244Y-47281093D01*
X172994726Y-47344673D01*
X172994727Y-47344674D01*
X175986563Y-50336509D01*
X176020048Y-50397832D01*
X176021355Y-50443588D01*
X175999500Y-50581577D01*
X175999500Y-50780192D01*
X175979815Y-50847231D01*
X175927011Y-50892986D01*
X175857853Y-50902930D01*
X175794297Y-50873905D01*
X175787819Y-50867873D01*
X173852674Y-48932727D01*
X173852673Y-48932726D01*
X173852669Y-48932723D01*
X173746127Y-48861535D01*
X173683869Y-48835747D01*
X173627744Y-48812499D01*
X173627745Y-48812499D01*
X173624945Y-48811942D01*
X173616468Y-48810256D01*
X173502071Y-48787500D01*
X173502069Y-48787500D01*
X171164931Y-48787500D01*
X171164929Y-48787500D01*
X171050532Y-48810256D01*
X171042054Y-48811942D01*
X171039255Y-48812499D01*
X170920870Y-48861535D01*
X170814331Y-48932722D01*
X170814324Y-48932728D01*
X170548873Y-49198181D01*
X170487550Y-49231666D01*
X170461192Y-49234500D01*
X169358229Y-49234500D01*
X169291190Y-49214815D01*
X169245435Y-49162011D01*
X169235491Y-49092853D01*
X169236612Y-49086307D01*
X169237500Y-49081843D01*
X169237500Y-48924155D01*
X169237499Y-48924153D01*
X169228361Y-48878213D01*
X169206737Y-48769503D01*
X169146394Y-48623821D01*
X169088397Y-48537022D01*
X169067520Y-48470346D01*
X169067500Y-48468133D01*
X169067500Y-47005581D01*
X169087185Y-46938542D01*
X169139989Y-46892787D01*
X169209147Y-46882843D01*
X169272703Y-46911868D01*
X169294601Y-46936688D01*
X169335963Y-46998592D01*
X169354726Y-47026673D01*
X170178325Y-47850272D01*
X170178332Y-47850278D01*
X170196220Y-47862230D01*
X170284874Y-47921466D01*
X170354221Y-47950189D01*
X170403256Y-47970501D01*
X170403259Y-47970501D01*
X170403260Y-47970502D01*
X170528928Y-47995500D01*
X170528931Y-47995500D01*
X170528932Y-47995500D01*
X170657069Y-47995500D01*
X170975065Y-47995500D01*
X171042104Y-48015185D01*
X171043909Y-48016366D01*
X171100821Y-48054394D01*
X171100823Y-48054395D01*
X171100827Y-48054397D01*
X171246498Y-48114735D01*
X171246503Y-48114737D01*
X171373503Y-48139999D01*
X171401153Y-48145499D01*
X171401156Y-48145500D01*
X171401158Y-48145500D01*
X171558844Y-48145500D01*
X171558845Y-48145499D01*
X171713497Y-48114737D01*
X171859179Y-48054394D01*
X171990289Y-47966789D01*
X172101789Y-47855289D01*
X172189394Y-47724179D01*
X172249737Y-47578497D01*
X172280500Y-47423842D01*
X172280500Y-47266158D01*
X172280500Y-47266155D01*
X172280499Y-47266153D01*
X172256303Y-47144512D01*
X172249737Y-47111503D01*
X172236209Y-47078843D01*
X172189397Y-46965827D01*
X172189390Y-46965814D01*
X172101789Y-46834711D01*
X172101786Y-46834707D01*
X171990292Y-46723213D01*
X171990288Y-46723210D01*
X171859185Y-46635609D01*
X171859172Y-46635602D01*
X171713501Y-46575264D01*
X171713489Y-46575261D01*
X171558845Y-46544500D01*
X171558842Y-46544500D01*
X171401158Y-46544500D01*
X171401155Y-46544500D01*
X171246510Y-46575261D01*
X171246498Y-46575264D01*
X171100827Y-46635602D01*
X171100820Y-46635606D01*
X171071928Y-46654911D01*
X171043955Y-46673602D01*
X171025908Y-46679253D01*
X171010000Y-46689477D01*
X170979040Y-46693928D01*
X170977279Y-46694480D01*
X170975065Y-46694500D01*
X170913808Y-46694500D01*
X170846769Y-46674815D01*
X170826127Y-46658181D01*
X170546819Y-46378873D01*
X170513334Y-46317550D01*
X170510500Y-46291192D01*
X170510500Y-39407928D01*
X170485502Y-39282261D01*
X170485501Y-39282260D01*
X170485501Y-39282256D01*
X170436465Y-39163873D01*
X170436464Y-39163870D01*
X170365276Y-39057330D01*
X170352014Y-39044068D01*
X170318530Y-38982749D01*
X170318105Y-38980713D01*
X170304737Y-38913503D01*
X170245504Y-38770500D01*
X170244397Y-38767827D01*
X170244390Y-38767814D01*
X170156789Y-38636711D01*
X170156786Y-38636707D01*
X170045292Y-38525213D01*
X170045288Y-38525210D01*
X169914185Y-38437609D01*
X169914172Y-38437602D01*
X169768501Y-38377264D01*
X169768489Y-38377261D01*
X169613845Y-38346500D01*
X169613842Y-38346500D01*
X169456158Y-38346500D01*
X169456155Y-38346500D01*
X169301510Y-38377261D01*
X169301498Y-38377264D01*
X169155827Y-38437602D01*
X169155814Y-38437609D01*
X169024711Y-38525210D01*
X169024707Y-38525213D01*
X168913213Y-38636707D01*
X168913210Y-38636711D01*
X168825609Y-38767814D01*
X168825602Y-38767827D01*
X168765264Y-38913498D01*
X168765261Y-38913510D01*
X168734500Y-39068153D01*
X168734500Y-39225846D01*
X168765261Y-39380489D01*
X168765264Y-39380501D01*
X168825602Y-39526172D01*
X168825609Y-39526185D01*
X168913210Y-39657288D01*
X168913213Y-39657292D01*
X169024707Y-39768786D01*
X169024715Y-39768792D01*
X169154390Y-39855438D01*
X169199196Y-39909050D01*
X169209500Y-39958540D01*
X169209500Y-42883419D01*
X169189815Y-42950458D01*
X169137011Y-42996213D01*
X169067853Y-43006157D01*
X169004297Y-42977132D01*
X168982397Y-42952309D01*
X168956272Y-42913210D01*
X168922277Y-42862331D01*
X168922275Y-42862329D01*
X168922273Y-42862326D01*
X168107819Y-42047872D01*
X168074334Y-41986549D01*
X168071500Y-41960191D01*
X168071500Y-40834935D01*
X168091185Y-40767896D01*
X168092366Y-40766090D01*
X168130394Y-40709179D01*
X168190737Y-40563497D01*
X168221500Y-40408842D01*
X168221500Y-40251158D01*
X168221500Y-40251155D01*
X168221499Y-40251153D01*
X168190738Y-40096510D01*
X168190737Y-40096503D01*
X168173470Y-40054817D01*
X168130397Y-39950827D01*
X168130390Y-39950814D01*
X168042789Y-39819711D01*
X168042786Y-39819707D01*
X167931292Y-39708213D01*
X167931288Y-39708210D01*
X167800185Y-39620609D01*
X167800172Y-39620602D01*
X167654501Y-39560264D01*
X167654489Y-39560261D01*
X167499845Y-39529500D01*
X167499842Y-39529500D01*
X167342158Y-39529500D01*
X167342155Y-39529500D01*
X167181528Y-39561451D01*
X167181118Y-39559391D01*
X167120785Y-39559927D01*
X167061674Y-39522676D01*
X167032087Y-39459380D01*
X167041416Y-39390136D01*
X167066982Y-39352964D01*
X168548127Y-37871819D01*
X168609450Y-37838334D01*
X168635808Y-37835500D01*
X170699195Y-37835500D01*
X170708946Y-37838363D01*
G37*
%TD.AperFunction*%
%TA.AperFunction,Conductor*%
G36*
X167685833Y-47836625D02*
G01*
X167741767Y-47878496D01*
X167766184Y-47943960D01*
X167766500Y-47952807D01*
X167766500Y-48527996D01*
X167746815Y-48595035D01*
X167745602Y-48596887D01*
X167727609Y-48623814D01*
X167727602Y-48623827D01*
X167667264Y-48769498D01*
X167667261Y-48769510D01*
X167636500Y-48924153D01*
X167636500Y-49081843D01*
X167637388Y-49086307D01*
X167631161Y-49155899D01*
X167588299Y-49211077D01*
X167522410Y-49234322D01*
X167515771Y-49234500D01*
X167212935Y-49234500D01*
X167145896Y-49214815D01*
X167144090Y-49213633D01*
X167087179Y-49175606D01*
X167087172Y-49175602D01*
X166941501Y-49115264D01*
X166941489Y-49115261D01*
X166786845Y-49084500D01*
X166786842Y-49084500D01*
X166629158Y-49084500D01*
X166629155Y-49084500D01*
X166474510Y-49115261D01*
X166474498Y-49115264D01*
X166328827Y-49175602D01*
X166328814Y-49175609D01*
X166197711Y-49263210D01*
X166197707Y-49263213D01*
X166086213Y-49374707D01*
X166086210Y-49374711D01*
X165998609Y-49505814D01*
X165998602Y-49505827D01*
X165938264Y-49651498D01*
X165938261Y-49651510D01*
X165907500Y-49806153D01*
X165907500Y-49963846D01*
X165938261Y-50118489D01*
X165938264Y-50118501D01*
X165982417Y-50225097D01*
X165989886Y-50294566D01*
X165958610Y-50357045D01*
X165898521Y-50392697D01*
X165828696Y-50390203D01*
X165780175Y-50360230D01*
X164317015Y-48897070D01*
X164283530Y-48835747D01*
X164283095Y-48833660D01*
X164269737Y-48766503D01*
X164235143Y-48682984D01*
X164209397Y-48620827D01*
X164209390Y-48620814D01*
X164121789Y-48489711D01*
X164121786Y-48489707D01*
X164010291Y-48378212D01*
X164009379Y-48377603D01*
X164009008Y-48377160D01*
X164005581Y-48374347D01*
X164006114Y-48373696D01*
X163964573Y-48323990D01*
X163955866Y-48254666D01*
X163986020Y-48191638D01*
X164045463Y-48154918D01*
X164078269Y-48150500D01*
X167064071Y-48150500D01*
X167148615Y-48133682D01*
X167189744Y-48125501D01*
X167308127Y-48076465D01*
X167341159Y-48054394D01*
X167414669Y-48005277D01*
X167554820Y-47865124D01*
X167616141Y-47831641D01*
X167685833Y-47836625D01*
G37*
%TD.AperFunction*%
%TA.AperFunction,Conductor*%
G36*
X174355703Y-45767516D02*
G01*
X174362181Y-45773548D01*
X174771580Y-46182948D01*
X174771584Y-46182951D01*
X174894498Y-46265080D01*
X174894511Y-46265087D01*
X174957535Y-46291192D01*
X175031087Y-46321658D01*
X175031091Y-46321658D01*
X175031092Y-46321659D01*
X175176079Y-46350500D01*
X175176082Y-46350500D01*
X175323917Y-46350500D01*
X176186386Y-46350500D01*
X176253425Y-46370185D01*
X176286702Y-46401612D01*
X176296172Y-46414646D01*
X176435354Y-46553828D01*
X176594595Y-46669524D01*
X176648271Y-46696873D01*
X176769970Y-46758882D01*
X176769972Y-46758882D01*
X176769975Y-46758884D01*
X176825764Y-46777011D01*
X176957173Y-46819709D01*
X177133281Y-46847602D01*
X177196416Y-46877531D01*
X177233347Y-46936843D01*
X177232349Y-47006705D01*
X177193739Y-47064938D01*
X177138074Y-47091692D01*
X176943734Y-47130348D01*
X176943722Y-47130351D01*
X176796362Y-47191389D01*
X177244974Y-47640000D01*
X177184174Y-47640000D01*
X177057007Y-47674075D01*
X176942993Y-47739901D01*
X176849901Y-47832993D01*
X176784075Y-47947007D01*
X176750000Y-48074174D01*
X176750000Y-48134973D01*
X176301389Y-47686362D01*
X176240351Y-47833722D01*
X176240348Y-47833734D01*
X176200000Y-48036579D01*
X176200000Y-48243414D01*
X176236119Y-48425003D01*
X176229891Y-48494594D01*
X176187027Y-48549771D01*
X176121137Y-48573015D01*
X176053140Y-48556947D01*
X176026820Y-48536874D01*
X174186819Y-46696873D01*
X174153334Y-46635550D01*
X174150500Y-46609192D01*
X174150500Y-45861229D01*
X174170185Y-45794190D01*
X174222989Y-45748435D01*
X174292147Y-45738491D01*
X174355703Y-45767516D01*
G37*
%TD.AperFunction*%
%TD*%
M02*
