M48
; DRILL file {KiCad 9.0.3-9.0.3-0~ubuntu24.04.1} date 2025-10-01T20:11:16-0300
; FORMAT={-:-/ absolute / metric / decimal}
; #@! TF.CreationDate,2025-10-01T20:11:16-03:00
; #@! TF.GenerationSoftware,Kicad,Pcbnew,9.0.3-9.0.3-0~ubuntu24.04.1
; #@! TF.FileFunction,Plated,1,2,PTH
FMAT,2
METRIC
; #@! TA.AperFunction,Plated,PTH,ComponentDrill
T1C0.200
; #@! TA.AperFunction,Plated,PTH,ViaDrill
T2C0.300
; #@! TA.AperFunction,Plated,PTH,ComponentDrill
T3C0.800
; #@! TA.AperFunction,Plated,PTH,ComponentDrill
T4C0.900
; #@! TA.AperFunction,Plated,PTH,ComponentDrill
T5C1.000
; #@! TA.AperFunction,Plated,PTH,ComponentDrill
T6C1.200
%
G90
G05
T1
X159.83Y-42.78
X159.83Y-44.18
X160.53Y-42.08
X160.53Y-43.48
X160.53Y-44.88
X161.23Y-42.78
X161.23Y-44.18
X161.93Y-42.08
X161.93Y-43.48
X161.93Y-44.88
X162.63Y-42.78
X162.63Y-44.18
T2
X136.0Y-53.5
X137.5Y-42.0
X138.5Y-71.5
X141.0Y-56.5
X143.0Y-51.0
X143.5Y-38.0
X146.5Y-72.5
X147.5Y-42.5
X148.0Y-54.0
X148.75Y-49.25
X151.5Y-54.0
X152.0Y-63.0
X152.0Y-71.5
X153.73Y-51.155
X153.98Y-37.185
X153.98Y-38.455
X153.98Y-42.265
X153.98Y-43.535
X153.98Y-47.345
X153.98Y-49.885
X153.98Y-52.425
X155.0Y-72.0
X155.5Y-61.0
X156.5Y-47.5
X156.5Y-65.0
X157.5Y-48.5
X158.285Y-53.52
X158.5Y-61.0
X159.5Y-38.0
X159.5Y-47.0
X161.0Y-58.0
X161.5Y-51.5
X162.5Y-40.0
X163.5Y-38.0
X163.5Y-49.0
X163.5Y-68.5
X164.0Y-58.0
X164.5Y-64.0
X165.0Y-48.5
X165.5Y-61.0
X166.25Y-48.25
X166.5Y-71.0
X167.0Y-44.805
X167.175Y-53.52
X167.5Y-42.0
X167.5Y-47.0
X167.5Y-59.0
X168.475Y-70.5
X168.5Y-51.5
X169.0Y-48.5
X171.48Y-37.185
X171.48Y-38.455
X171.48Y-42.265
X171.48Y-44.805
X171.48Y-46.075
X171.48Y-47.345
X171.48Y-49.885
X171.48Y-51.155
X171.5Y-63.38
X173.0Y-51.0
X173.25Y-36.75
X174.5Y-63.38
X179.5Y-49.0
X179.5Y-52.0
X179.5Y-57.0
X180.0Y-71.0
X184.0Y-41.5
X184.0Y-48.5
X184.0Y-54.0
X185.0Y-63.0
X186.5Y-39.5
X186.5Y-44.5
X187.0Y-56.5
X187.5Y-42.0
X189.5Y-43.025
X190.0Y-36.6
X190.0Y-38.5
X190.5Y-45.0
X191.975Y-39.0
X193.0Y-49.5
X193.0Y-54.0
X193.0Y-60.025
X194.025Y-36.0
T3
X136.5Y-68.5
X136.5Y-70.5
X136.5Y-72.5
X140.5Y-68.5
X140.5Y-70.5
X140.5Y-72.5
X144.5Y-68.5
X144.5Y-70.5
X144.5Y-72.5
X148.5Y-68.5
X148.5Y-70.5
X148.5Y-72.5
X174.0Y-68.5
X176.5Y-68.5
T4
X174.0Y-56.0
X174.0Y-58.54
T5
X136.88Y-60.0
X136.88Y-62.54
X139.42Y-60.0
X139.42Y-62.54
X141.96Y-60.0
X141.96Y-62.54
X144.5Y-60.0
X144.5Y-62.54
X157.96Y-70.0
X160.5Y-70.0
X177.25Y-45.6
X177.25Y-48.14
X177.25Y-50.68
X177.25Y-53.22
X177.25Y-55.76
X177.25Y-58.3
X177.25Y-60.84
X177.25Y-63.38
X178.46Y-37.42
X178.46Y-39.96
X178.46Y-42.5
X181.0Y-37.42
X181.0Y-39.96
X181.0Y-42.5
X185.75Y-68.25
X185.75Y-72.75
X192.25Y-68.25
X192.25Y-72.75
T6
X155.05Y-66.65
X155.06Y-57.65
X170.0Y-57.65
X170.13Y-66.7
M30
