%TF.GenerationSoftware,KiCad,Pcbnew,9.0.3-9.0.3-0~ubuntu24.04.1*%
%TF.CreationDate,2025-10-01T20:11:17-03:00*%
%TF.ProjectId,Drone-HW,44726f6e-652d-4485-972e-6b696361645f,rev?*%
%TF.SameCoordinates,Original*%
%TF.FileFunction,Soldermask,Bot*%
%TF.FilePolarity,Negative*%
%FSLAX46Y46*%
G04 Gerber Fmt 4.6, Leading zero omitted, Abs format (unit mm)*
G04 Created by KiCad (PCBNEW 9.0.3-9.0.3-0~ubuntu24.04.1) date 2025-10-01 20:11:17*
%MOMM*%
%LPD*%
G01*
G04 APERTURE LIST*
%ADD10C,1.500000*%
%ADD11R,1.700000X1.700000*%
%ADD12O,1.700000X1.700000*%
%ADD13R,1.350000X1.350000*%
%ADD14C,1.350000*%
%ADD15C,1.700000*%
%ADD16C,1.600000*%
%ADD17R,1.600000X1.600000*%
%ADD18R,1.800000X1.800000*%
%ADD19C,1.800000*%
G04 APERTURE END LIST*
D10*
%TO.C,U2*%
X177250000Y-45600000D03*
X177250000Y-48140000D03*
X177250000Y-50680000D03*
X177250000Y-53220000D03*
X177250000Y-55760000D03*
X177250000Y-58300000D03*
X177250000Y-60840000D03*
X177250000Y-63380000D03*
%TD*%
D11*
%TO.C,Con5*%
X178460000Y-37420000D03*
D12*
X181000000Y-37420000D03*
X178460000Y-39960000D03*
X181000000Y-39960000D03*
X178460000Y-42500000D03*
X181000000Y-42500000D03*
%TD*%
D13*
%TO.C,J1*%
X148500000Y-68500000D03*
D14*
X148500000Y-70500000D03*
X148500000Y-72500000D03*
%TD*%
D11*
%TO.C,U3*%
X136880000Y-62540000D03*
D15*
X136880000Y-60000000D03*
X139420000Y-62540000D03*
X139420000Y-60000000D03*
X141960000Y-62540000D03*
X141960000Y-60000000D03*
X144500000Y-62540000D03*
X144500000Y-60000000D03*
%TD*%
D13*
%TO.C,J3*%
X140500000Y-68500000D03*
D14*
X140500000Y-70500000D03*
X140500000Y-72500000D03*
%TD*%
D11*
%TO.C,J5*%
X160500000Y-70000000D03*
D15*
X157960000Y-70000000D03*
%TD*%
D16*
%TO.C,STEP_DOWN1*%
X155060000Y-57650000D03*
X155050000Y-66650000D03*
X170000000Y-57650000D03*
X170130000Y-66700000D03*
%TD*%
D15*
%TO.C,SW3*%
X185750000Y-68250000D03*
X192250000Y-68250000D03*
X185750000Y-72750000D03*
X192250000Y-72750000D03*
%TD*%
D17*
%TO.C,C3*%
X174000000Y-68500000D03*
D16*
X176500000Y-68500000D03*
%TD*%
D13*
%TO.C,J2*%
X144500000Y-68500000D03*
D14*
X144500000Y-70500000D03*
X144500000Y-72500000D03*
%TD*%
D18*
%TO.C,D1*%
X174000000Y-56000000D03*
D19*
X174000000Y-58540000D03*
%TD*%
D13*
%TO.C,J4*%
X136500000Y-68500000D03*
D14*
X136500000Y-70500000D03*
X136500000Y-72500000D03*
%TD*%
M02*
